<?xml version="1.0" encoding="utf-8"?><!DOCTYPE svg PUBLIC "-//W3C//DTD SVG 1.1//EN" "http://www.w3.org/Graphics/SVG/1.1/DTD/svg11.dtd"><svg version="1.1" id="Contours" xmlns="http://www.w3.org/2000/svg" xmlns:xlink="http://www.w3.org/1999/xlink" x="0px" y="0px" width="443.685028px" height="443.685028px" viewBox="-0.000000 0.000000 443.685028 390.606567" enable-background="new 0 0 443.685028 443.685028" xml:space="preserve" stroke="black" fill="none" stroke-linecap='round' stroke-linejoin='round'><path class="selected"  fill="#000000" opacity="1.000000" stroke="none" 
 	d="
M231.110119 138.970306 C223.053433 138.970306 215.486874 138.725082 207.942410 139.028656 C197.043423 139.467224 186.162441 140.339661 175.269299 140.946091 C172.387905 141.106491 169.488781 140.915253 166.599896 140.979645 C152.571743 141.292297 138.545055 141.673492 124.516277 141.952194 C118.961651 142.062561 113.397915 141.830093 107.848415 142.031616 C105.218334 142.127121 103.391964 142.889069 101.894589 146.097565 C96.994549 156.597229 91.380116 166.787277 85.594601 176.839828 C82.723644 181.828247 75.767025 183.560440 69.390789 181.724182 C66.063488 180.765976 62.942715 179.948181 59.817219 182.558441 C59.095280 183.161362 56.659702 182.877396 55.944508 182.120773 C52.925015 178.926315 49.549450 179.858810 46.013752 180.513748 C43.949497 180.896133 41.673168 181.328659 39.732014 180.821289 C38.025822 180.375366 36.216251 178.907944 35.324726 177.381989 C34.902332 176.659027 36.221020 174.428329 37.277172 173.447266 C38.855213 171.981384 40.836903 170.903961 42.753872 169.857224 C50.087994 165.852463 57.436276 161.871552 64.833500 157.984970 C72.902866 153.745239 81.023449 149.602463 89.145176 145.463470 C90.373074 144.837723 91.833141 144.633148 92.995113 143.922104 C94.157894 143.210587 95.081616 142.108414 96.110119 141.177460 C94.914967 140.775070 93.712460 140.003647 92.525807 140.027313 C80.496136 140.267212 68.470265 140.695282 56.440739 140.946655 C50.053433 141.080124 43.648151 140.722321 37.275280 141.053711 C32.696117 141.291840 28.123730 142.132660 23.609249 143.015991 C18.597321 143.996689 14.140286 138.045059 15.080681 132.346176 C15.764565 128.201752 15.247425 123.856445 15.234116 119.600784 C15.226875 117.285507 15.020290 114.963638 15.138069 112.656708 C15.378010 107.956985 15.909920 103.270279 16.083569 98.569443 C16.499088 87.320770 17.043667 76.066856 17.036987 64.815361 C17.029949 52.954002 16.495113 41.091179 16.077297 29.233002 C15.958584 25.863735 15.247505 22.509712 15.225613 19.145985 C15.218754 18.091995 16.578091 17.029114 17.312077 15.970306 C17.911427 16.997101 18.902161 17.974133 19.040169 19.059582 C19.549507 23.065533 19.721535 27.113289 20.153778 31.130974 C20.247330 32.000504 20.895084 32.810394 21.287571 33.647758 C21.895084 33.114494 22.483418 32.557297 23.113556 32.052261 C25.402966 30.217361 27.604923 28.251373 30.021576 26.600887 C42.351338 18.180077 54.685925 9.763313 67.164173 1.566410 C68.911656 0.418503 71.461422 0.491928 73.639813 0.000000 C72.323773 1.629581 71.306576 3.704449 69.645184 4.819473 C54.020130 15.306084 38.220127 25.533669 22.681355 36.144623 C21.114231 37.214767 20.214901 40.320869 20.229858 42.473625 C20.311100 54.169876 20.948326 65.862091 21.041622 77.558510 C21.092339 83.916954 20.386307 90.279030 20.169899 96.644516 C20.136284 97.633331 20.898289 98.649200 21.292370 99.652557 C21.999432 99.157333 22.699711 98.652069 23.414555 98.168350 C41.247456 86.100960 58.928478 73.800545 76.963070 62.042442 C92.250256 52.075584 107.827068 42.535751 123.505489 33.192513 C133.204952 27.412327 143.325192 22.336655 153.277660 16.983982 C155.312512 15.889584 157.405254 14.881500 159.542599 14.008030 C160.599911 13.575932 161.819393 13.540562 162.965496 13.325684 C162.237011 14.483910 161.770413 16.044823 160.729107 16.721981 C158.015316 18.486771 154.988079 19.760201 152.194454 21.413151 C135.592022 31.236656 118.880093 40.885338 102.474682 51.028999 C82.930851 63.113190 63.600857 75.547241 44.298039 88.015213 C36.753552 92.888298 29.464478 98.170441 22.237522 103.507889 C21.053467 104.382370 20.249706 106.495255 20.203613 108.063217 C19.991459 115.280350 20.110119 122.507217 20.110119 129.730591 C20.110119 130.563873 20.114216 131.397171 20.109341 132.230423 C20.095318 134.627518 20.077675 137.024567 20.061455 139.421646 C22.337475 138.844727 24.616730 138.280136 26.887680 137.683899 C27.633141 137.488174 28.350914 137.022797 29.091801 136.998428 C40.451656 136.624725 51.812977 136.055862 63.174519 136.043350 C73.535389 136.031921 83.895924 136.673523 94.258442 136.961151 C107.618450 137.332001 120.983135 137.970093 134.340405 137.856857 C143.735287 137.777237 153.115322 136.530197 162.513531 136.015274 C167.222942 135.757233 171.960400 136.064621 176.681240 135.951599 C188.210461 135.675583 199.735973 135.090179 211.265499 135.015244 C234.486858 134.864334 257.713238 135.210495 280.931042 134.884674 C296.050793 134.672485 311.162304 133.703735 326.271252 132.948090 C337.333355 132.394836 348.384869 131.629745 359.441845 130.971985 C376.359478 129.965607 393.279034 128.991104 410.194714 127.953384 C413.730206 127.736511 417.381420 127.751068 420.727886 126.786636 C422.471447 126.284164 424.807629 123.961136 424.923473 122.322433 C425.630322 112.320892 425.729382 102.277771 426.144909 92.253235 C426.243206 89.881721 426.943707 87.536919 427.066845 85.164246 C427.212719 82.352654 426.417065 81.072937 423.317700 82.929291 C408.108837 92.038612 392.773998 100.937729 377.571484 110.057556 C370.203564 114.477509 363.104199 119.347946 355.696026 123.695374 C354.362316 124.478027 352.116192 123.705841 350.291332 123.651520 C351.446575 122.375488 352.385571 120.751907 353.790783 119.877594 C366.628674 111.890045 379.485333 103.928604 392.463207 96.171448 C402.323162 90.277946 412.305859 84.581139 422.364727 79.033936 C425.653759 77.220123 427.387737 75.326042 427.215618 71.196808 C426.610638 56.680481 426.285320 42.147079 426.177319 27.617756 C426.123882 20.425838 426.572979 13.209293 427.254131 6.047585 C427.423412 4.268017 429.377087 2.658169 430.510571 0.970310 C431.043743 2.729885 432.103344 4.513477 432.024334 6.245125 C431.527142 17.142658 430.288250 28.025745 430.223644 38.919121 C430.124645 55.610733 431.000958 72.306816 431.000317 89.000977 C431.000073 95.724411 429.483959 102.435928 429.210674 109.175278 C429.021160 113.849030 429.950115 118.556870 430.065289 123.257156 C430.202770 128.865067 428.418102 130.636597 422.774456 130.961761 C410.719677 131.656326 398.661755 132.296478 386.605877 132.972336 C374.882244 133.629593 363.158062 134.277954 351.436962 134.977921 C340.878307 135.608459 330.327313 136.373245 319.765820 136.947891 C311.577190 137.393417 303.380444 137.780869 295.182324 137.942245 C273.993054 138.359314 252.801037 138.636978 231.110119 138.970306 M58.110119 173.470306 C59.776783 173.618973 61.443455 173.767624 63.110127 173.916275 C62.306530 171.630692 61.829258 169.120728 60.504269 167.193619 C60.096676 166.600800 57.372433 167.600784 55.708988 167.871429 C56.342701 169.571060 56.976414 171.270676 58.110119 173.470306 M80.110119 163.470306 C79.064343 162.849411 78.018574 162.228531 76.972797 161.607635 C76.852543 163.062500 76.142468 164.854935 76.740009 165.898987 C77.840366 167.821579 79.709293 169.304276 81.257923 170.970306 C80.875324 168.803635 80.492718 166.636978 80.110119 163.470306 M50.610119 174.970306 C51.355007 174.381866 52.099896 173.793411 52.844784 173.204971 C52.182743 172.793411 51.385494 171.905502 50.880909 172.048706 C47.919766 172.889130 45.001461 173.904510 42.129360 175.017441 C41.428043 175.289215 40.953770 176.146957 40.375111 176.735291 C41.370113 177.146973 42.541843 178.113861 43.326336 177.864166 C45.507038 177.170059 47.526783 175.970306 50.610119 174.970306 M73.110111 177.470306 C72.093250 174.786774 71.153019 172.068832 69.979519 169.455643 C69.796833 169.048843 68.534214 168.972672 67.802731 169.048798 C67.540051 169.076111 67.037586 170.230194 67.210705 170.484192 C68.942814 173.025696 70.793125 175.486649 73.110111 177.470306 M83.110119 161.470306 C84.047146 162.533279 84.984173 163.596237 85.921200 164.659210 C86.443440 163.388840 87.763035 161.528244 87.340412 160.957336 C86.001263 159.148270 84.011326 157.820969 82.273029 156.307388 C82.552059 157.695023 82.831089 159.082672 83.110119 161.470306 M76.110119 171.470306 C75.443455 172.019119 74.148388 172.972321 74.202900 173.057037 C75.295445 174.754776 76.437153 176.457138 77.844906 177.886871 C78.146389 178.193100 79.917843 177.691360 80.298191 177.101471 C80.681820 176.506516 80.496319 175.060562 79.992283 174.483337 C79.089512 173.449509 77.760799 172.787643 76.110119 171.470306 M92.610119 151.970306 C92.361408 147.108841 89.553890 152.859238 88.581524 150.998901 C88.091053 152.104095 86.943142 153.486298 87.264645 154.249390 C87.743412 155.385773 89.259686 156.085037 90.334461 156.970306 C90.593006 155.986404 90.789005 154.979874 91.133816 154.027206 C91.337589 153.464203 91.776783 152.986420 92.610119 151.970306 M69.610127 163.970306 C70.772602 164.807816 71.935078 165.645340 73.097553 166.482864 C73.435070 165.965073 74.173695 165.278717 74.039417 164.959198 C73.509441 163.698090 72.836643 161.684570 71.974392 161.554245 C70.446179 161.323257 68.741154 162.262085 67.110119 162.711426 C67.610119 163.131042 68.110119 163.550674 69.610127 163.970306 M58.610119 175.970306 C58.821552 177.515076 59.032993 179.059845 59.244434 180.604614 C59.699658 180.393173 60.568493 180.111420 60.546345 179.981155 C60.316662 178.630203 59.943447 177.303635 58.610119 175.970306 z"/><path class="selected"  fill="#000000" opacity="1.000000" stroke="none" 
 	d="
M113.860119 80.720306 C92.164402 94.749344 70.690151 108.484390 49.307339 122.360382 C46.478878 124.195862 44.295101 127.030823 41.452641 128.835800 C40.267284 129.588531 38.139317 128.856842 36.439945 128.800110 C37.280079 127.406784 37.793942 125.546265 39.012707 124.695053 C47.638447 118.670822 56.320660 112.717560 65.151394 106.998810 C83.128819 95.356705 101.027676 83.575523 119.312328 72.431534 C132.398510 64.455879 146.028545 57.366966 159.472988 49.986382 C172.629925 42.763649 185.858822 35.671982 199.057659 28.525627 C199.736507 28.158070 200.399273 27.627407 201.123959 27.510693 C202.091427 27.354881 203.112225 27.530186 204.110119 27.563286 C203.617153 28.358593 203.314297 29.472290 202.600811 29.898285 C197.406109 32.999962 192.134869 35.973976 186.876507 38.968452 C164.232403 51.863541 141.583706 64.750587 118.939327 77.645164 C117.318813 78.567947 115.719372 79.527733 113.860119 80.720306 z"/><path class="selected"  fill="#000000" opacity="1.000000" stroke="none" 
 	d="
M392.110119 63.970322 C400.256481 60.303650 407.897106 56.624977 415.558178 52.989380 C416.301037 52.636864 417.170269 52.550797 417.980846 52.341034 C417.713604 53.361115 417.749523 54.673950 417.110821 55.335327 C416.049999 56.433884 414.630352 57.266998 413.233074 57.947647 C387.241863 70.608681 362.181591 84.916031 337.951092 100.667664 C324.010876 109.729858 310.209667 119.006363 296.386700 128.247528 C295.163830 129.065079 294.379284 130.552979 293.139507 131.325806 C292.204784 131.908463 290.867474 131.845276 289.709362 132.069550 C289.898907 130.813797 289.625286 128.973328 290.352978 128.396912 C295.194439 124.561829 300.095165 120.759888 305.263470 117.386673 C324.920147 104.557175 344.581921 91.729179 364.458416 79.245560 C373.242107 73.728897 382.543682 69.036781 392.110119 63.970322 z"/><path class="selected"  fill="#000000" opacity="1.000000" stroke="none" 
 	d="
M351.860119 27.720310 C344.198498 31.381935 336.652447 34.531479 329.399334 38.252090 C302.836834 51.877800 276.796002 66.415535 252.168621 83.368477 C250.007305 84.856270 247.613567 86.012917 245.293926 87.260406 C244.527660 87.672516 243.654736 87.886307 242.830578 88.190765 C242.938519 86.935875 242.560833 85.091965 243.241009 84.531227 C245.766888 82.448891 248.597027 80.718147 251.391674 78.982216 C265.557598 70.182976 279.514019 61.011993 293.998028 52.769386 C307.672253 44.987625 321.906414 38.189102 335.902935 30.974823 C340.428478 28.642193 344.920605 26.228180 349.555157 24.132580 C351.148327 23.412182 353.128460 23.547569 354.931835 23.292015 C353.991253 24.684780 353.050701 26.077541 351.860119 27.720310 z"/><path class="selected"  fill="#000000" opacity="1.000000" stroke="none" 
 	d="
M323.360119 69.220306 C348.809429 53.437653 374.007855 37.903488 399.214520 22.382793 C399.731762 22.064301 400.326244 21.784138 400.917309 21.689430 C402.514660 21.433502 404.129650 21.287457 405.737621 21.097816 C404.829022 22.254730 404.150097 23.778053 402.977154 24.513206 C387.262188 34.362740 371.374859 43.940086 355.739025 53.912224 C338.321392 65.020721 321.133648 76.489304 303.783123 87.704132 C302.592907 88.473450 300.879376 88.433189 299.409191 88.769409 C299.915661 87.396881 300.025463 85.544456 301.000347 84.738663 C304.404247 81.925179 308.058209 79.402000 311.709850 76.903992 C315.453228 74.343224 319.305492 71.941574 323.360119 69.220306 z"/><path class="selected"  fill="#000000" opacity="1.000000" stroke="none" 
 	d="
M62.860119 41.720306 C73.077244 36.169838 82.912136 30.598953 93.047581 25.642673 C103.833965 20.368080 114.886105 15.632607 125.882824 10.799664 C126.904461 10.350662 128.362804 10.895298 129.618374 10.978561 C128.788250 11.803169 128.101544 12.919086 127.106609 13.408875 C111.057110 21.309753 94.624119 28.506737 78.979458 37.135040 C61.130108 46.979279 43.232700 56.954056 27.840290 70.653549 C27.018593 71.384872 25.605541 71.451767 24.467781 71.827972 C24.681892 70.682533 24.587566 69.336739 25.174366 68.433388 C26.393921 66.555923 27.660381 64.436172 29.458164 63.251724 C40.423023 56.027710 51.542332 49.038101 62.860119 41.720306 z"/><path class="selected"  fill="#000000" opacity="1.000000" stroke="none" 
 	d="
M88.860119 206.220306 C89.156757 209.086945 88.203304 210.027679 86.366253 208.545593 C80.351208 203.692856 74.135281 205.283066 67.636952 206.897034 C63.547657 207.912659 61.293034 205.967834 61.006184 201.567062 C60.925282 200.326050 59.587307 199.166962 58.825909 197.970306 C57.587315 199.218079 55.966656 200.277725 55.230465 201.772858 C54.636532 202.979080 55.261784 204.733810 55.040646 206.199097 C54.942684 206.848175 54.090473 207.383392 53.580654 207.970306 C53.090473 207.363739 52.445751 206.821487 52.158299 206.130585 C51.922062 205.562805 51.896755 204.723923 52.143520 204.167221 C54.330006 199.234589 49.646786 200.093109 47.614460 199.318665 C47.034786 199.097763 45.106907 201.759811 44.164959 203.321640 C43.142399 205.017120 42.548626 206.971222 41.767880 208.812546 C41.414639 208.564484 40.751362 208.308960 40.757130 208.069534 C40.804020 206.123367 40.957546 204.178665 41.117405 202.236710 C41.207295 201.144791 41.370602 200.058914 41.500843 198.970306 C39.472553 199.701691 37.282673 200.163757 35.468632 201.252228 C34.092068 202.078186 33.347797 203.893875 32.051552 204.930862 C29.229076 207.188843 26.443310 206.058472 25.243305 203.340530 C24.378525 201.381851 25.132641 198.670715 25.337582 196.310211 C25.377186 195.854050 26.217560 195.467422 26.688545 195.048737 C26.829071 195.656601 27.057015 196.259583 27.091335 196.873383 C27.156300 198.035370 26.830841 199.305374 27.205906 200.334274 C27.466587 201.049377 28.568684 201.590103 29.408699 201.907593 C29.849465 202.074188 31.050438 201.482315 31.037064 201.420029 C29.397911 193.788284 36.241963 195.736832 39.176090 195.261810 C45.179875 194.289841 51.642933 194.064133 57.539990 195.312057 C61.045948 196.053986 63.762684 196.755737 67.009869 195.096069 C67.615162 194.786697 69.713253 195.929321 69.933804 196.729477 C70.177372 197.613129 69.207325 198.991592 68.484005 199.939423 C67.648541 201.034180 66.505444 201.894180 65.495937 202.856140 C67.173794 203.227539 68.941250 204.085175 70.497822 203.798355 C71.525425 203.608978 72.873722 201.844650 73.006229 200.665054 C73.725033 194.265976 75.943050 191.979980 81.416477 193.092880 C82.479366 193.308990 84.180286 195.771545 83.968388 196.077682 C79.734013 202.195633 85.217342 203.575089 88.860119 206.220306 z"/><path class="selected"  fill="#000000" opacity="1.000000" stroke="none" 
 	d="
M237.860119 50.720306 C227.406963 56.506821 217.056240 61.791672 207.047436 67.659691 C199.082897 72.329193 191.558621 77.746490 183.768734 82.721962 C182.989620 83.219589 181.723370 82.954491 180.683193 83.043381 C180.772289 81.905579 180.415447 80.206421 181.024227 79.722816 C184.479672 76.977844 187.994198 74.226128 191.805157 72.024628 C204.558880 64.657112 217.281765 57.206718 230.325054 50.377441 C246.451977 41.933609 262.876751 34.057281 279.213696 26.018803 C280.327648 25.470676 281.783123 25.616756 283.079784 25.439980 C282.116497 26.616753 281.389111 28.238323 280.150219 28.895355 C273.881634 32.219826 267.450665 35.236000 261.132763 38.469917 C253.429363 42.413010 245.781811 46.465263 237.860119 50.720306 z"/><path class="selected"  fill="#000000" opacity="1.000000" stroke="none" 
 	d="
M160.860134 380.220306 C160.347958 381.303650 159.595318 382.836884 158.821896 382.847443 C155.714886 382.889801 151.035900 384.355743 150.362393 380.192505 C149.470013 374.676178 144.680309 378.467316 142.922711 375.970306 C141.651836 378.045776 140.405422 380.136749 139.101193 382.191040 C138.283306 383.479309 137.378552 384.712463 136.512768 385.970306 C136.045208 384.675903 135.258953 383.404724 135.162563 382.083252 C134.597332 374.333313 134.949703 366.628998 139.230236 359.853546 C140.317196 358.133057 143.962658 355.930511 144.576107 356.396027 C146.553570 357.896454 147.747860 360.491425 149.043179 362.778198 C149.316662 363.261047 148.737209 364.226959 148.550762 364.970306 C147.752804 364.485901 146.521816 364.185059 146.226223 363.487701 C144.084515 358.435455 142.783276 361.599518 141.680660 363.974945 C140.908276 365.638916 140.422070 367.501068 140.188473 369.323456 C140.063107 370.301331 140.459332 371.637634 141.116436 372.362030 C142.386974 373.762695 151.452328 372.987762 152.946194 371.664398 C154.749249 370.067230 156.530819 368.367615 158.592953 367.185547 C159.271404 366.796631 160.794262 367.880707 161.931011 368.291199 C161.284115 369.184235 160.764446 370.223419 159.954159 370.928741 C159.161907 371.618286 158.073254 371.967285 157.114697 372.465729 C158.235363 372.967255 159.383068 373.416504 160.471935 373.979553 C164.728756 376.180573 167.307934 374.549133 169.195995 370.524109 C169.654690 369.546234 171.113705 368.688934 172.240231 368.486877 C173.091641 368.334137 175.019558 369.646057 174.983563 369.740479 C173.795422 372.859283 172.315792 375.868500 171.163189 378.998444 C170.863812 379.811432 171.267590 381.121857 171.782955 381.924927 C172.239269 382.635956 173.299786 382.959259 174.093548 383.453735 C173.148968 383.959259 172.236797 384.814240 171.253780 384.905426 C168.182827 385.190216 164.972973 385.617126 164.498653 380.975037 C164.373196 379.746918 163.185207 378.075958 162.077160 377.636230 C160.622311 377.058868 158.760265 377.450867 157.082684 377.564178 C156.876980 377.578064 156.728802 378.443420 156.553997 378.914185 C157.906033 379.266235 159.258083 379.618286 160.860134 380.220306 z"/><path class="selected"  fill="#000000" opacity="1.000000" stroke="none" 
 	d="
M122.110119 166.970306 C118.254162 167.303650 114.902386 167.705048 111.538647 167.911545 C110.884472 167.951691 110.183743 167.233215 109.504498 166.864670 C109.947476 166.158783 110.243221 165.042191 110.860012 164.821045 C113.042248 164.038666 115.315914 163.153625 117.588375 163.051437 C123.124416 162.802460 128.683025 163.099670 134.225414 162.935806 C140.414303 162.752823 146.595257 162.045822 152.779827 162.043472 C158.854382 162.041153 164.934307 162.942520 171.001705 162.840729 C174.012173 162.790222 177.374706 161.992310 179.912243 160.442535 C183.985348 157.954895 193.893398 160.841949 195.078518 165.474716 C195.179638 165.869949 195.025127 166.599472 194.738583 166.783768 C191.464001 168.889679 188.183453 170.997116 184.779629 172.878220 C184.324703 173.129654 183.180431 172.133820 182.355389 171.715576 C182.780132 171.127319 183.111324 170.425720 183.652798 169.978928 C184.361691 169.394028 185.385784 169.152786 186.003704 168.505417 C186.840298 167.628983 187.420147 166.507477 188.110119 165.491089 C186.527981 165.066299 184.071621 163.783890 183.508053 164.358368 C180.276028 167.652924 176.344677 166.948547 172.524700 166.956131 C155.886562 166.989182 139.248318 166.970306 122.110119 166.970306 z"/><path class="selected"  fill="#000000" opacity="1.000000" stroke="none" 
 	d="
M55.360119 259.720306 C57.996479 259.303619 60.352123 258.334137 62.781117 258.087799 C64.162151 257.947723 65.663143 258.990295 67.110119 259.500275 C66.142925 260.323639 65.051121 261.040924 64.238415 261.995758 C63.087719 263.347656 61.925228 264.771973 61.176014 266.358154 C60.525913 267.734528 60.674160 269.483185 60.045323 270.875732 C59.414829 272.271942 58.259342 273.431091 57.333950 274.694122 C57.259342 273.170715 57.617184 271.444672 57.018498 270.166809 C55.836620 267.644165 54.125004 265.369690 52.632443 262.992615 C51.458332 264.459442 50.109982 265.822449 49.157604 267.421356 C48.142315 269.125824 47.630673 271.129639 46.621388 272.838715 C46.302212 273.379150 45.089779 273.392029 44.286144 273.646332 C44.090099 272.725037 43.617825 271.756531 43.765194 270.893890 C43.967152 269.711731 44.685154 268.626190 45.097775 267.469208 C45.545429 266.214020 45.896397 264.924347 46.289539 263.649719 C45.023762 263.756592 43.484737 263.443298 42.546345 264.053558 C40.253033 265.545044 38.416859 267.778564 36.059391 269.121124 C33.728092 270.448792 31.029839 271.451202 28.395065 271.757477 C27.445931 271.867737 25.222847 269.475677 25.296257 268.336090 C25.514565 264.947205 26.585159 261.613190 27.322674 258.257751 C27.918491 258.622498 28.996445 258.948517 29.029385 259.358490 C29.202076 261.507904 28.987354 263.688538 29.162151 265.837616 C29.248951 266.904785 29.882248 267.927490 30.268314 268.970306 C31.215580 267.931763 33.111851 266.722992 32.960907 265.881439 C31.682072 258.751801 36.591717 260.243866 40.578106 259.892944 C43.829983 259.606689 46.998112 258.380676 50.250309 258.081329 C51.814381 257.937347 53.486782 258.970306 55.360119 259.720306 z"/><path class="selected"  fill="#000000" opacity="1.000000" stroke="none" 
 	d="
M315.360119 354.720306 C315.110119 358.789734 314.596050 362.607422 314.113537 366.429047 C313.433483 371.815094 312.802258 377.207520 312.082928 382.588196 C311.973431 383.407043 311.501476 384.177490 311.197186 384.970306 C310.501476 384.207031 309.255932 383.471985 309.214977 382.675018 C309.099865 380.435059 309.542187 378.172089 309.633099 375.912872 C309.665142 375.116852 309.315960 374.305420 309.140850 373.501038 C308.434094 373.853973 307.559612 374.051910 307.058148 374.594574 C306.214214 375.507690 305.815289 376.979858 304.838116 377.577576 C303.979595 378.102722 301.771343 378.156982 301.555523 377.723694 C299.755261 374.109650 299.072796 376.597595 298.100628 378.184509 C296.931439 380.093109 295.691662 381.958527 294.482464 383.842651 C294.358349 381.671448 293.736065 379.384094 294.209728 377.352234 C295.331951 372.538422 295.017040 366.973083 299.891613 363.765167 C301.060742 362.995728 302.607708 362.800446 303.980908 362.341095 C304.023998 363.712952 304.140514 365.088989 304.062664 366.453949 C304.040997 366.833435 303.117962 367.229462 303.164074 367.533539 C303.421490 369.229858 303.849621 370.900269 304.219372 372.579559 C305.279369 371.446686 306.781017 370.489532 307.314953 369.147400 C308.795605 365.425507 309.640759 361.442627 311.228436 357.775635 C311.834423 356.376007 313.776775 355.554993 315.360119 354.720306 z"/><path class="selected"  fill="#000000" opacity="1.000000" stroke="none" 
 	d="
M162.860119 88.720306 C163.463131 87.117287 163.444576 85.431107 164.274410 84.505608 C165.092648 83.593048 166.769772 83.450623 168.070080 82.970306 C168.083431 83.915848 168.103085 84.861343 168.108532 85.806931 C168.115231 86.972969 168.110119 88.139084 168.110119 89.305161 C168.110119 96.858414 168.176800 104.412811 168.046780 111.963837 C168.024197 113.276260 167.170910 114.574387 166.701305 115.879120 C165.837582 114.631851 164.359692 113.445465 164.228863 112.125549 C163.879864 108.604874 163.996044 105.021713 164.154080 101.473480 C164.244885 99.435165 165.003948 97.418365 165.020535 95.388260 C165.029736 94.262680 164.129910 93.129684 163.639813 92.000031 C162.796597 92.768341 161.867474 93.464569 161.140621 94.330566 C160.664684 94.897614 160.552517 95.754044 160.152828 96.404282 C159.256817 97.861954 158.283077 99.271835 157.340984 100.701172 C156.930691 99.038696 156.506313 97.379532 156.115780 95.712433 C155.905926 94.816727 155.754192 93.907379 155.576229 93.004196 C154.754192 93.996353 153.718411 94.879776 153.148357 96.000153 C151.051998 100.120193 149.141293 104.334305 147.083737 108.474762 C146.673580 109.300110 145.924160 109.956863 145.331173 110.691360 C144.924145 109.693878 144.240261 108.710709 144.187679 107.694885 C144.134701 106.670990 144.578640 105.554382 145.029278 104.582443 C147.686581 98.851089 150.380459 93.136093 153.134823 87.450844 C153.677410 86.330887 154.464062 85.300827 155.283535 84.355316 C155.692730 83.883209 156.430157 83.695602 157.019116 83.379311 C157.382778 84.061592 157.900189 84.708282 158.068600 85.435760 C158.251598 86.226311 157.951290 87.131279 158.145535 87.916122 C158.477276 89.256546 159.030453 90.542168 159.490612 91.850800 C160.530438 90.890633 161.570278 89.930466 162.860119 88.720306 z"/><path class="selected"  fill="#000000" opacity="1.000000" stroke="none" 
 	d="
M245.110119 320.970306 C244.523632 322.550507 243.937176 323.630676 243.350689 324.710876 C242.678539 323.222656 241.246563 321.599609 241.482067 320.272400 C242.096783 316.807648 243.521404 313.493774 244.436413 310.069824 C244.654186 309.254883 244.140972 308.244629 243.964001 307.324188 C243.258740 307.793518 242.349468 308.114655 241.882732 308.757233 C239.575512 311.933655 237.430523 315.228180 235.110760 318.394958 C234.710095 318.941956 233.743359 319.074341 233.038097 319.398285 C232.728771 318.529022 232.011578 317.560547 232.194012 316.810944 C232.587902 315.192169 233.610180 313.730652 234.044964 312.115814 C234.289349 311.208160 233.875347 310.123199 233.757946 309.118134 C232.875347 309.788574 231.555706 310.277802 231.189007 311.162170 C229.894878 314.283142 229.037335 317.584198 227.763805 320.715118 C227.416271 321.569519 226.190350 322.066650 225.367565 322.727753 C224.948422 321.571533 223.884396 320.170471 224.215237 319.298981 C226.295086 313.820343 226.217754 307.193665 232.021038 303.607971 C233.144940 302.913544 234.508770 302.607391 235.761913 302.122101 C236.211315 303.432037 236.738079 304.722076 237.081524 306.059235 C237.293194 306.883270 237.225140 307.779175 237.282635 308.642792 C238.203045 308.274017 239.501171 308.168427 239.974987 307.488434 C241.565167 305.206238 242.642681 302.547699 244.349011 300.372528 C245.434399 298.988922 247.286205 298.206543 248.794354 297.154541 C249.086285 299.073120 249.942120 301.110687 249.566967 302.888519 C248.319744 308.799408 246.630138 314.616974 245.110119 320.970306 z"/><path class="selected"  fill="#000000" opacity="1.000000" stroke="none" 
 	d="
M27.860111 317.720306 C27.110108 318.927795 26.334236 319.847809 26.197365 320.854706 C26.087788 321.660736 26.754662 322.572357 27.076931 323.437103 C27.782795 323.086700 28.535091 322.804443 29.180206 322.364899 C29.720532 321.996704 30.103546 321.406219 30.612621 320.981812 C31.841942 319.956940 33.104225 318.971588 34.353222 317.970306 C34.605518 319.479370 34.636662 321.073639 35.175320 322.472412 C35.666706 323.748474 36.708187 324.812714 37.507237 325.970306 C38.041538 324.909607 38.867588 323.897461 39.053784 322.778839 C39.552403 319.783295 39.609577 316.709747 40.185986 313.733795 C40.444836 312.397369 41.524197 311.219910 42.231243 309.970306 C42.857533 310.772644 43.348240 311.790833 44.158741 312.299896 C44.681439 312.628174 45.719898 312.345642 46.445149 312.097290 C47.966412 311.576324 50.535877 310.115021 50.744816 310.409454 C52.149273 312.388641 53.464169 314.636810 53.970799 316.978943 C54.338276 318.677795 53.561695 320.698273 53.022488 322.493439 C52.652515 323.725189 51.814419 324.816315 51.185574 325.970306 C50.827091 324.900177 50.676060 323.681915 50.049007 322.803528 C49.476269 322.001221 48.200794 320.915527 47.564098 321.098694 C45.979542 321.554535 44.524685 322.577026 43.123715 323.528076 C41.046772 324.938080 39.199368 326.777100 36.968151 327.823425 C36.093121 328.233795 34.470043 326.909485 33.142246 326.536987 C32.032414 326.225616 30.775204 325.793732 29.724018 326.033173 C25.607578 326.970856 22.515682 325.032257 23.288799 320.987305 C23.962093 317.464569 25.965725 314.111481 27.854763 310.967773 C28.304173 310.219849 30.642216 310.606781 32.111546 310.471741 C31.718453 311.530548 31.467014 312.673767 30.898319 313.627899 C30.091400 314.981689 29.050835 316.196228 27.860111 317.720306 M47.610127 315.970306 C48.083454 316.496979 48.556774 317.023651 49.030087 317.550323 C49.299618 316.433167 49.569141 315.316010 49.838665 314.198853 C49.262486 314.622650 48.686298 315.046478 47.610127 315.970306 z"/><path class="selected"  fill="#000000" opacity="1.000000" stroke="none" 
 	d="
M296.110119 325.970306 C291.612774 330.490631 282.527447 329.795105 280.730419 324.730804 C279.963451 322.569336 282.054913 319.356018 282.959789 316.658325 C283.295391 315.657715 283.952343 314.764893 284.462719 313.822876 C283.248211 313.538696 281.826244 312.705078 280.857281 313.071014 C277.656109 314.279907 274.482494 315.490234 273.688061 319.741730 C273.195171 322.379517 271.619305 324.880737 270.193951 327.240540 C269.734478 328.001221 268.205700 328.115997 267.166058 328.526245 C267.147411 327.477936 266.877819 326.353119 267.168530 325.399078 C267.612438 323.942108 268.546368 322.641541 269.083325 321.204010 C269.713726 319.516357 271.604015 317.520294 268.212292 316.384338 C267.972332 316.303925 268.138195 313.321106 268.568920 313.191132 C272.736523 311.933563 276.956371 310.677277 281.253002 310.075928 C284.452374 309.628174 287.444164 313.203094 291.034374 311.050781 C291.317516 310.881073 292.285473 311.853638 292.935131 312.295319 C292.450451 312.853668 292.031017 313.492279 291.465801 313.951508 C290.615154 314.642639 289.631573 315.169495 288.774700 315.854034 C288.556347 316.028442 288.423931 316.719452 288.561108 316.851135 C288.931774 317.206940 289.484081 317.625000 289.936779 317.595459 C291.180218 317.514404 292.505871 316.837433 293.615215 317.119354 C294.577404 317.363861 295.288220 318.597534 296.110119 319.394012 C295.176983 319.919434 294.299358 320.704376 293.299603 320.918182 C290.974835 321.415222 288.534069 321.434631 286.261364 322.076324 C285.428326 322.311523 284.936901 323.756653 284.289623 324.649841 C285.426922 325.059570 286.557354 325.791016 287.702770 325.815216 C290.501537 325.874390 293.307232 325.606506 296.110119 325.970306 z"/><path class="selected"  fill="#000000" opacity="1.000000" stroke="none" 
 	d="
M345.110119 266.970306 C344.511211 260.427765 349.418224 258.355408 353.194134 255.581421 C353.577526 255.299774 355.513958 256.353210 355.998547 257.203705 C356.499950 258.083710 355.970379 259.495056 356.160900 260.628723 C356.281231 261.344574 356.894940 261.977448 357.287365 262.647552 C357.894940 262.115204 358.664806 261.686523 359.082378 261.032806 C361.009747 258.015106 362.758099 254.879669 364.769909 251.921997 C365.186871 251.308960 366.451580 251.272522 367.325573 250.970306 C367.587078 251.805603 368.213574 252.719299 368.053600 253.464050 C366.480572 260.787231 364.813976 268.091248 363.061504 275.373688 C362.849957 276.252686 361.973003 276.971558 361.404461 277.764648 C360.973003 276.777649 360.062176 275.717529 360.199505 274.817291 C360.620342 272.058380 361.534924 269.378143 362.054180 266.628906 C362.209301 265.807556 361.695995 264.860016 361.488903 263.970306 C360.696545 264.469696 359.625652 264.789886 359.166546 265.503632 C358.001507 267.314819 357.196240 269.354889 356.068157 271.193634 C355.614300 271.933441 354.693279 272.386658 353.984844 272.970306 C353.693279 272.165070 353.147503 271.354614 353.163952 270.555695 C353.196453 268.975647 353.684124 267.404022 353.706158 265.825043 C353.721996 264.691223 353.287365 263.551147 353.053661 262.413849 C352.072460 263.210510 350.651470 263.811981 350.194653 264.841339 C348.948834 267.648651 348.229260 270.686279 347.044689 273.525635 C346.636883 274.503143 345.471417 275.164520 344.652081 275.970306 C344.216595 274.725159 343.338604 273.437408 343.453289 272.245178 C343.610058 270.615540 344.521954 269.058472 345.110119 266.970306 z"/><path class="selected"  fill="#000000" opacity="1.000000" stroke="none" 
 	d="
M97.110119 388.970306 C92.044720 389.000183 87.451717 387.767365 83.013859 390.395813 C80.964832 391.609375 77.237347 387.302429 78.193409 384.612946 C79.529759 380.853699 81.179081 377.136200 83.268932 373.756042 C83.907597 372.723022 86.435192 372.857910 88.097729 372.457916 C87.712322 373.851562 87.540440 375.353760 86.898449 376.616974 C85.424038 379.518127 83.720585 382.302887 82.110119 385.134857 C82.835560 385.521240 83.632832 386.334442 84.275028 386.226349 C89.349377 385.372162 90.853252 380.981598 93.202114 377.268280 C94.496716 375.221619 96.538998 373.445435 98.636852 372.218872 C99.374172 371.787781 101.282192 373.358978 102.655651 374.015900 C101.918438 374.722717 101.219387 375.475708 100.434658 376.125153 C99.360577 377.014160 98.035488 377.671814 97.173901 378.720917 C96.575741 379.449249 96.576901 380.669830 96.310299 381.670502 C97.130566 381.437103 97.939739 381.058411 98.772961 380.994812 C102.993038 380.672577 99.821606 386.140594 103.110119 386.593536 C102.305050 387.052460 101.533337 387.589905 100.686184 387.949768 C99.695156 388.370728 98.638393 388.636963 97.110119 388.970306 z"/><path class="selected"  fill="#000000" opacity="1.000000" stroke="none" 
 	d="
M248.860119 385.220306 C251.060772 385.303650 253.031353 384.911072 254.952282 385.080780 C255.727520 385.149261 256.394085 386.447784 257.110119 387.186523 C256.415936 387.781128 255.779217 388.780731 255.016033 388.889038 C253.226269 389.142975 251.205212 389.453064 249.582501 388.878998 C244.872204 387.212677 240.183392 387.534088 235.346935 387.780701 C233.711712 387.864075 231.073773 386.073792 230.502453 384.540527 C229.848919 382.786713 230.633251 380.212463 231.466564 378.286163 C232.053661 376.929108 233.630474 375.816650 235.016430 375.046997 C236.118847 374.434814 238.452862 373.928131 238.760052 374.380249 C239.809094 375.924286 240.292278 377.893616 240.691753 379.764679 C240.725689 379.923553 238.485272 380.455322 237.393078 380.998230 C236.241467 381.570679 235.199810 382.364349 234.110119 383.061371 C235.260540 383.697693 236.356579 384.727844 237.571697 384.895569 C241.058727 385.376923 243.065563 384.034637 243.213757 380.095520 C243.285320 378.193604 243.930370 375.545380 245.263043 374.658478 C246.832775 373.613800 250.197857 373.204315 251.364636 374.193726 C252.543499 375.193451 252.513653 378.371857 252.027081 380.353699 C251.605969 382.068848 249.802532 383.444550 248.860119 385.220306 z"/><path class="selected"  fill="#000000" opacity="1.000000" stroke="none" 
 	d="
M15.860119 249.720306 C13.618641 252.961792 11.277367 255.783051 9.719345 258.985413 C7.494808 263.557800 10.214264 267.345795 15.343582 268.067932 C17.303063 268.343842 19.107334 269.722168 20.982346 270.598083 C18.986878 271.388824 16.990982 272.855347 14.996014 272.854095 C6.051457 272.848419 2.475460 267.073273 5.041351 258.130554 C7.093948 250.976776 10.718384 245.545837 18.178345 243.453735 C19.698330 243.027466 21.533341 242.632202 22.910870 243.114532 C24.151203 243.548767 24.963230 245.206329 25.964161 246.324341 C24.961289 246.872986 24.015812 247.623260 22.943638 247.928436 C20.701195 248.566742 18.391934 248.970306 15.860119 249.720306 z"/><path class="selected"  fill="#000000" opacity="1.000000" stroke="none" 
 	d="
M2.860119 383.220306 C-1.076834 379.088654 -0.934767 376.964539 3.195908 375.433411 C4.004082 375.133881 4.982922 375.294739 5.883038 375.243225 C5.800972 376.143341 6.067864 377.391907 5.576855 377.883667 C3.371788 380.091919 4.456440 381.183380 6.795414 380.852020 C9.302391 380.496735 12.902203 379.881165 13.833775 378.179565 C15.374691 375.364868 12.487507 373.343842 9.950455 371.964783 C8.862125 371.373199 7.614037 370.912872 6.769146 370.063873 C2.775757 366.051147 2.964832 363.617035 8.166843 360.563202 C11.572064 358.564240 15.473740 357.371246 19.235340 356.051849 C20.005680 355.781647 21.142330 356.555847 22.110123 356.848663 C21.362541 357.889221 20.837582 359.391205 19.823937 359.880219 C17.208344 361.142029 14.306664 361.802826 11.660748 363.013062 C10.319401 363.626587 9.283897 364.908813 8.110127 365.888702 C9.127953 366.767059 10.027512 367.864868 11.183075 368.487701 C17.997635 372.160736 19.464146 374.796265 17.110119 379.511353 C14.274876 385.190338 9.666535 386.493469 2.860119 383.220306 z"/><path class="selected"  fill="#000000" opacity="1.000000" stroke="none" 
 	d="
M397.110119 318.970306 C396.995678 317.970306 397.205792 316.840363 397.820660 316.010162 C398.340344 315.308472 399.853191 315.082764 400.015148 314.422760 C400.575543 312.138641 400.754864 309.758545 400.994732 307.406403 C401.005138 307.304718 399.874859 306.887238 399.785687 307.004517 C398.180370 309.115479 395.318707 311.331482 395.390057 313.434662 C395.535320 317.718414 392.530956 320.019775 391.035442 323.209534 C390.670910 323.987061 389.377483 324.329071 388.511181 324.871368 C388.044201 323.902527 387.035565 322.832550 387.194531 321.980499 C388.656200 314.148285 391.633892 307.009277 398.411633 302.286438 C401.505505 300.130554 405.649395 303.759705 404.995281 308.525391 C404.127880 314.844971 402.486340 321.062195 401.063091 327.297302 C400.853832 328.214111 400.014233 328.987000 399.466320 329.826477 C399.014263 328.851379 398.289349 327.910156 398.163342 326.894653 C397.837811 324.270691 397.776775 321.613953 397.110119 318.970306 z"/><path class="selected"  fill="#000000" opacity="1.000000" stroke="none" 
 	d="
M16.860119 308.720306 C16.683689 307.303650 16.257263 306.136963 15.830834 304.970306 C14.923927 305.851746 13.537567 306.577759 13.192787 307.641449 C11.668350 312.344421 10.556938 317.181427 9.026672 321.882233 C8.664749 322.994019 7.259636 323.766205 6.334385 324.694580 C5.926289 323.368164 4.868698 321.833038 5.216816 320.749573 C7.284351 314.314880 9.482506 307.902283 12.116005 301.685242 C12.680859 300.351746 15.154583 299.499298 16.884831 299.193176 C17.382511 299.105103 18.482544 301.647919 19.087734 303.077118 C21.508762 308.794647 19.693916 314.214844 17.950302 319.699310 C17.055302 322.514465 16.903256 325.564850 16.020275 328.385223 C15.625946 329.644806 14.258476 330.599670 13.332646 331.692841 C12.925133 330.366180 12.472237 329.050842 12.136364 327.706268 C12.028469 327.274323 12.182205 326.753571 12.296120 326.293213 C13.725586 320.516785 15.169735 314.744019 16.860119 308.720306 z"/><path class="selected"  fill="#000000" opacity="1.000000" stroke="none" 
 	d="
M132.860119 268.720306 C127.386898 268.910614 128.132702 273.932190 126.090298 276.586304 C125.408398 277.472473 124.495281 278.180725 123.687862 278.970306 C123.468136 277.830780 123.060421 276.691376 123.059750 275.551697 C123.055904 269.002472 129.119534 263.760468 127.175076 256.732880 C127.075756 256.373840 127.954525 255.322540 128.317700 255.351410 C128.934567 255.400391 129.903774 255.959808 130.022808 256.468842 C130.526302 258.622284 131.041958 260.835754 131.046032 263.028229 C131.052013 266.247437 132.804272 265.783203 134.607266 264.921143 C137.488567 263.543518 139.429028 261.434540 139.128368 257.902679 C139.015728 256.579498 138.860073 255.173340 139.186108 253.925781 C139.466869 252.851471 140.404369 251.948822 141.051525 250.970306 C141.737728 251.909790 143.087063 252.920074 142.995571 253.776489 C142.594875 257.527100 141.899914 261.260620 141.075970 264.947662 C140.230068 268.732819 139.235333 272.497650 138.031399 276.181732 C137.684414 277.243530 136.389736 277.995636 135.529553 278.889740 C135.389736 277.724426 135.062252 276.542816 135.161373 275.398193 C135.266567 274.183746 135.707012 272.978882 136.131191 271.817352 C136.500958 270.804871 137.051922 269.858551 137.522823 268.882996 C136.051922 268.745422 134.581020 268.607880 132.860119 268.720306 z"/><path class="selected"  fill="#000000" opacity="1.000000" stroke="none" 
 	d="
M308.360119 284.220306 C303.306316 285.303619 298.507763 286.175323 293.680431 286.836823 C293.476971 286.864716 292.637737 284.904694 292.725231 283.927216 C293.040752 280.402344 293.924328 276.910522 294.029064 273.389435 C294.141216 269.618988 299.749371 263.399078 303.419170 264.104095 C305.418835 264.488281 308.502819 266.028656 308.718884 267.417603 C309.113934 269.957336 308.174847 272.986115 306.973766 275.404510 C305.993389 277.378510 303.779949 278.722656 302.199474 280.426117 C301.694409 280.970490 301.465466 281.771027 301.110119 282.454315 C302.006298 282.563477 303.052075 283.022430 303.770214 282.715271 C305.815716 281.840515 307.731121 280.639832 308.360119 284.220306 M298.610119 275.970306 C298.631817 276.636963 298.653484 277.303650 298.675152 277.970337 C299.682171 277.608307 300.920361 277.495911 301.642986 276.826752 C302.776592 275.776978 303.637493 274.398743 304.471905 273.070404 C305.160900 271.973602 305.644268 270.747650 306.218731 269.578918 C304.191998 269.866608 301.814098 269.618073 300.263836 270.633301 C299.255749 271.293488 299.452923 273.794189 298.610119 275.970306 z"/><path class="selected"  fill="#000000" opacity="1.000000" stroke="none" 
 	d="
M350.110119 376.970306 C349.280682 380.925690 345.149578 383.782166 342.128948 382.954834 C341.696514 382.836395 340.967236 382.500977 340.972698 382.280823 C341.047955 379.251709 340.747936 376.086304 341.568157 373.251831 C342.036266 371.634125 343.725170 370.726257 346.638531 371.540375 C349.665630 372.386230 353.505291 370.432861 356.961224 369.587524 C358.593670 369.188232 360.154339 368.133240 361.758038 368.110291 C362.768139 368.095795 363.797772 369.442657 364.818615 370.178802 C364.100201 370.775970 363.111096 371.231262 362.710766 371.995117 C361.079174 375.108124 359.680035 378.342163 358.084271 381.475098 C357.452252 382.715973 356.531139 383.809601 355.741680 384.970306 C355.247418 383.087372 354.646801 381.223907 354.297405 379.314453 C354.075604 378.102203 354.476177 376.730927 354.072277 375.622375 C353.936535 375.249817 352.170361 375.367249 351.169842 375.466675 C350.787121 375.504700 350.461651 376.118744 350.110119 376.970306 M345.110119 374.470306 C344.902630 375.596161 344.695141 376.722015 344.487682 377.847900 C345.050610 377.699921 346.106426 377.525299 346.100109 377.408081 C346.037853 376.256683 345.798901 375.114868 345.110119 374.470306 z"/><path class="selected"  fill="#000000" opacity="1.000000" stroke="none" 
 	d="
M301.110119 318.970306 C301.512188 315.336365 302.430401 312.929108 306.057964 311.837433 C309.087444 310.925751 312.310467 309.959045 313.473187 313.198242 C314.220532 315.280273 312.536816 318.353058 311.605572 320.856354 C311.272839 321.750732 309.953137 322.281921 309.076183 322.968933 C307.866741 323.916382 306.649914 324.854370 305.436230 325.796417 C306.929882 326.187683 308.524731 326.370667 309.886913 327.032532 C311.095562 327.619812 312.045788 328.738892 313.110119 329.623169 C311.971386 330.072205 310.804943 330.953369 309.699566 330.882507 C307.214428 330.723236 304.717754 330.249573 302.303478 329.610443 C299.611340 328.897827 298.555981 327.366364 300.036602 324.482178 C300.789990 323.014648 300.776775 321.153503 301.110119 318.970306 M306.610119 315.970306 C306.312847 317.339691 306.015575 318.709106 305.718304 320.078491 C306.305370 320.085968 307.135998 320.346344 307.436871 320.056641 C308.667858 318.871155 309.737194 317.517792 310.866070 316.226257 C309.614086 315.974274 308.362103 315.722290 306.610119 315.970306 z"/><path class="selected"  fill="#000000" opacity="1.000000" stroke="none" 
 	d="
M177.110119 271.970306 C178.972302 269.636963 180.552105 266.790985 182.754284 266.176880 C187.641064 264.814178 189.923412 267.399078 188.937649 275.415710 C188.545284 278.606628 187.431042 280.932220 191.870617 281.321136 C192.335476 281.361847 192.699383 282.554749 193.110119 283.213104 C192.436398 283.465515 191.779781 283.864563 191.086071 283.945435 C187.750973 284.334137 184.394039 284.946686 181.070065 284.819763 C179.717190 284.768097 177.487804 283.203979 177.291378 282.049896 C176.761532 278.936584 177.110119 275.673798 177.110119 271.970306 M181.110134 273.470306 C180.881634 274.032135 180.517956 274.577972 180.449368 275.158691 C180.221401 277.089142 180.099484 279.032135 179.936901 280.970306 C181.661312 279.385437 183.417187 277.832153 185.075909 276.181305 C185.322079 275.936279 185.128353 275.230164 185.106747 274.738770 C185.040890 273.240356 184.959683 271.742645 184.884457 270.244659 C183.626339 270.986542 182.368237 271.728424 181.110134 273.470306 z"/><path class="selected"  fill="#000000" opacity="1.000000" stroke="none" 
 	d="
M65.860127 384.720306 C64.575367 385.935547 63.540600 386.900787 62.505833 387.866028 C62.373921 386.372314 62.009960 384.856476 62.149662 383.388611 C62.808407 376.466492 69.405384 374.470154 73.443958 370.427856 C74.908993 368.961456 78.135326 369.365326 78.038853 372.872162 C77.975140 375.188110 77.373890 377.525116 76.751972 379.780609 C76.018635 382.440277 75.049137 385.039276 74.083744 387.627930 C73.770428 388.468048 73.147785 389.192780 72.666622 389.970306 C72.147785 389.064606 71.596935 388.174927 71.130428 387.243042 C70.997646 386.977783 71.083897 386.587311 71.114666 386.258453 C71.248470 384.828247 71.398876 383.399536 71.543255 381.970306 C69.732212 382.803650 67.921169 383.636993 65.860127 384.720306 z"/><path class="selected"  fill="#000000" opacity="1.000000" stroke="none" 
 	d="
M220.360119 106.720306 C219.174831 107.405579 218.284634 108.392899 217.287594 109.256912 C216.675091 109.787704 215.899090 110.129852 215.196499 110.556686 C214.834377 109.713074 214.124371 108.849106 214.172329 108.029495 C214.348965 105.011963 214.183926 101.768829 215.278225 99.068893 C216.354687 96.412994 218.478710 93.860931 220.806774 92.185585 C221.784878 91.481705 225.326122 92.596306 226.155285 93.881897 C227.132336 95.396790 227.343395 98.908157 226.293285 99.953812 C222.771847 103.460327 223.876858 105.258774 227.672619 107.003799 C228.483257 107.376450 229.098034 108.175003 229.803051 108.777359 C228.808544 109.175003 227.638348 110.118500 226.853222 109.865738 C224.686092 109.168060 222.679928 107.970306 220.360119 106.720306 M221.610119 95.970306 C221.144772 96.435654 220.483151 96.823044 220.260098 97.384628 C219.925808 98.226318 219.899441 99.190338 219.742138 100.102310 C220.672833 99.750275 221.838787 99.629913 222.472973 98.985886 C223.217861 98.229446 226.026562 97.080536 221.610119 95.970306 z"/><path class="selected"  fill="#000000" opacity="1.000000" stroke="none" 
 	d="
M330.860119 326.720306 C323.862835 329.842957 323.852734 329.842621 324.123394 321.905060 C324.155621 320.960297 324.218121 319.964355 324.545147 319.097229 C324.840679 318.313477 325.517620 317.673615 326.026348 316.970306 C326.387615 317.701996 326.803417 318.412537 327.097393 319.170319 C327.541332 320.314789 327.900341 321.492218 328.295483 322.655670 C329.233685 321.761108 330.215588 320.907440 331.099926 319.962402 C332.428539 318.542603 333.792431 317.136658 334.956799 315.586273 C337.453503 312.261932 339.775707 315.049377 339.888165 316.609955 C340.197491 320.904480 339.511211 325.282837 339.050610 329.610107 C338.962689 330.436340 338.105053 331.180634 337.602520 331.962708 C337.105053 331.007568 336.095776 329.996155 336.193585 329.106476 C336.802715 323.565643 334.250012 324.541931 330.860119 326.720306 z"/><path class="selected"  fill="#000000" opacity="1.000000" stroke="none" 
 	d="
M79.110119 275.220306 C79.776783 272.358826 80.177456 269.638397 81.189358 267.168365 C82.094524 264.958862 83.288090 261.882874 85.061428 261.284485 C86.917896 260.658020 90.527958 261.857788 91.719746 263.475891 C93.247883 265.550751 92.140225 268.432404 89.426296 269.990692 C88.338444 270.615326 87.155438 271.298126 86.430187 272.265259 C85.753201 273.168060 85.025158 275.188477 85.370243 275.482117 C86.350369 276.316040 87.844090 276.635651 89.186352 276.903961 C89.627415 276.992126 90.303471 275.941162 90.734577 276.036011 C92.224156 276.363739 93.653126 276.967010 95.105167 277.465363 C93.795864 278.300354 92.568050 279.655029 91.162380 279.875427 C86.436413 280.616455 82.097164 279.746643 79.110119 275.220306 M87.610119 266.970306 C87.596638 265.970306 87.583157 264.970306 87.569683 263.970306 C86.778057 264.442078 85.986431 264.913849 85.194798 265.385620 C85.833233 266.080505 86.471676 266.775421 87.610119 266.970306 z"/><path class="selected"  fill="#000000" opacity="1.000000" stroke="none" 
 	d="
M399.860119 263.720306 C401.457684 262.303650 402.655529 260.804901 404.212566 260.102936 C405.058697 259.721466 406.515606 260.694916 407.697033 261.057220 C407.266277 261.763367 406.850903 262.479431 406.401867 263.173737 C405.175396 265.070068 399.362621 267.824738 407.313915 268.052582 C407.335003 268.053192 407.490948 269.823181 407.295117 269.887543 C405.818646 270.372528 404.190960 270.450317 402.775982 271.047485 C402.046276 271.355438 401.654583 272.464447 401.110119 273.211517 C401.950512 273.457397 402.812756 273.965424 403.626995 273.897583 C405.668560 273.727417 407.688274 273.079468 409.716961 273.078522 C410.514385 273.078156 411.312389 274.290710 412.110119 274.950928 C411.325298 275.624054 410.639874 276.653290 409.737469 276.905212 C406.732922 277.743927 403.672772 278.566101 400.585827 278.828552 C399.498638 278.920990 397.781628 277.642426 397.195263 276.540985 C394.680828 271.818115 396.274975 267.679871 399.860119 263.720306 z"/><path class="selected"  fill="#000000" opacity="1.000000" stroke="none" 
 	d="
M229.360119 374.220306 C228.641674 375.272064 228.288159 376.181763 227.668530 376.841614 C227.168469 377.374268 226.347393 377.605408 225.668652 377.970306 C225.770458 377.182343 225.814312 376.381439 225.986309 375.609131 C226.323162 374.096954 226.845593 372.617798 227.073437 371.092407 C227.250836 369.904694 227.098278 368.667664 227.092358 367.452545 C226.036144 368.187286 224.324017 368.732178 224.046139 369.692169 C223.197201 372.625183 222.829266 375.708557 222.429058 378.753815 C222.299954 379.736359 223.107983 381.057098 222.693768 381.745850 C221.564526 383.623505 220.011776 385.246460 218.626827 386.970306 C218.121258 384.859406 217.086819 382.712524 217.227520 380.645630 C217.470562 377.075653 218.227688 373.496979 219.166454 370.029510 C220.262570 365.980804 225.190594 362.189789 227.698895 363.059113 C231.422436 364.349548 232.144878 368.474030 229.360119 374.220306 z"/><path class="selected"  fill="#000000" opacity="1.000000" stroke="none" 
 	d="
M147.110119 303.970306 C152.505901 302.970306 157.386074 301.875732 162.312695 301.062592 C163.142346 300.925659 164.172573 302.004120 165.110119 302.521027 C164.414913 303.199371 163.657238 304.520874 163.033749 304.460358 C152.234097 303.411896 156.187176 312.464172 154.114346 317.351105 C153.182674 319.547546 152.296475 321.763306 151.389645 323.970306 C150.963131 321.478241 150.142941 318.972076 150.231701 316.498505 C150.305920 314.430237 151.501507 312.416565 152.086346 310.346466 C152.392727 309.261993 152.453686 308.108154 152.625469 306.985657 C151.393887 307.207001 150.141750 307.352356 148.938427 307.678101 C148.212322 307.874695 147.593365 308.538727 146.870602 308.659424 C145.744213 308.847473 144.570522 308.752228 143.416882 308.777069 C143.796993 307.525787 144.019756 306.190430 144.624279 305.059052 C144.922131 304.501587 145.925823 304.321289 147.110119 303.970306 z"/><path class="selected"  fill="#000000" opacity="1.000000" stroke="none" 
 	d="
M47.860119 385.220306 C45.336445 385.970306 42.570744 386.527863 39.781315 386.914124 C39.312153 386.979095 38.751507 386.034576 38.214390 386.012482 C33.578747 385.822052 33.641338 385.872437 35.077122 381.093018 C35.614216 379.305115 35.336445 377.152039 36.217159 375.616974 C37.426174 373.509766 39.119236 371.407166 41.134129 370.152588 C42.116558 369.540894 45.727131 370.941132 45.706402 371.282379 C45.561367 373.670441 45.114384 376.178741 44.095898 378.332642 C43.233051 380.157349 41.473080 381.557892 40.110119 383.146118 C42.085804 383.420837 44.071888 383.639832 46.030651 384.005219 C46.597439 384.110962 47.085804 384.636963 47.860119 385.220306 M39.110119 375.470306 C39.792400 375.788025 40.474682 376.105743 41.156963 376.423462 C41.324947 375.622681 41.492924 374.821869 41.660900 374.021057 C40.977306 374.337463 40.293705 374.653870 39.110119 375.470306 z"/><path class="selected"  fill="#000000" opacity="1.000000" stroke="none" 
 	d="
M235.110119 278.970306 C233.419018 279.303650 232.025860 280.181396 231.087689 279.833191 C229.901470 279.393005 229.085674 277.954498 228.110119 276.946594 C229.239575 276.287842 230.310558 275.476532 231.515484 275.014771 C232.639690 274.583893 233.906231 274.524506 235.110119 274.301575 C234.366192 273.280548 233.834606 271.925140 232.842449 271.294952 C227.907513 268.160645 230.407024 264.383179 232.400219 261.405640 C234.587170 258.138763 238.134167 256.179657 242.411083 257.052979 C243.092266 257.192078 244.154064 258.894806 244.010632 259.080719 C243.167034 260.174377 242.148602 261.290680 240.937847 261.901581 C239.586010 262.583679 237.452282 262.264587 236.576946 263.221283 C235.051464 264.888550 232.397961 266.981720 235.294872 269.613068 C240.366161 274.219452 240.417797 274.162628 235.110119 278.970306 z"/><path class="selected"  fill="#000000" opacity="1.000000" stroke="none" 
 	d="
M176.110119 94.970306 C177.881619 94.032150 179.058331 92.579567 180.455273 92.322182 C181.529919 92.124176 183.973232 93.493027 183.940609 94.057159 C183.627606 99.470901 182.997204 104.872910 182.239666 110.247543 C182.119427 111.100510 180.914578 111.800598 180.211193 112.571381 C179.844158 111.561340 179.366375 110.575821 179.135876 109.535538 C178.783749 107.946487 178.465878 106.324539 178.407131 104.706635 C178.378460 103.916962 178.902035 103.071182 179.291424 102.310013 C180.064221 100.799423 181.014980 99.369843 181.653423 97.809113 C181.778866 97.502426 180.825817 96.754608 180.370190 96.210236 C178.950161 98.278198 175.873745 101.407822 176.399746 102.228500 C178.560467 105.599655 174.889675 105.678253 174.200253 107.267471 C174.057293 107.597015 172.320736 107.616302 172.310268 107.567200 C171.931362 105.789642 171.020001 103.766830 171.538097 102.237137 C172.413784 99.651733 174.204281 97.376160 176.110119 94.970306 z"/><path class="selected"  fill="#000000" opacity="1.000000" stroke="none" 
 	d="
M263.110119 314.970306 C264.541607 321.368561 258.363506 324.126282 257.443798 329.071259 C257.405956 329.274597 256.257183 329.558777 256.143566 329.410004 C255.688122 328.813660 254.995770 327.897583 255.182842 327.393738 C256.266949 324.473419 257.573589 321.635651 258.810101 318.772156 C259.235790 317.786377 259.733044 316.824066 260.039562 315.803589 C260.078564 315.673676 258.919872 314.898468 258.720074 315.031067 C257.773266 315.659332 256.807934 316.382050 256.141918 317.286621 C254.567822 319.424652 253.189831 321.706177 251.656628 323.876038 C251.383953 324.261963 250.408794 324.679535 250.330914 324.589081 C249.834576 324.012848 248.999676 323.066650 249.186260 322.664703 C251.383679 317.931091 250.923290 311.116913 258.315441 310.318054 C259.961804 310.140137 261.729748 310.387695 263.303326 310.880890 C263.586132 310.969513 263.191815 313.218658 263.110119 314.970306 z"/><path class="selected"  fill="#000000" opacity="1.000000" stroke="none" 
 	d="
M377.110119 384.970306 C373.270580 385.297424 369.932720 385.795837 366.590313 385.828461 C365.778088 385.836395 364.615734 384.455231 364.190014 383.465271 C362.545910 379.642334 370.285046 369.451569 374.358257 370.012573 C375.223003 370.131714 376.013592 370.789124 376.838360 371.198547 C376.316448 371.901672 375.928997 372.799622 375.246777 373.270477 C373.378399 374.559906 370.105663 375.283356 373.806744 378.166962 C373.127483 378.768066 372.376965 379.307892 371.790875 379.989197 C371.297100 380.563232 370.994427 381.301666 370.607128 381.967316 C371.324902 381.968323 372.058209 382.064850 372.757397 381.951385 C374.451763 381.676422 376.185894 380.891357 377.796459 381.108765 C378.956768 381.265350 379.943890 382.704865 381.008282 383.572113 C379.875561 384.038177 378.742840 384.504242 377.110119 384.970306 z"/><path class="selected"  fill="#000000" opacity="1.000000" stroke="none" 
 	d="
M228.860119 127.720306 C238.084759 122.303635 247.036938 117.096680 256.079144 112.050995 C256.761639 111.670166 258.084789 112.437378 259.110119 112.670898 C258.498180 113.549301 258.084637 114.790588 257.243786 115.250305 C248.235149 120.175568 238.557079 123.980667 231.038189 131.378616 C230.525921 131.882645 228.851971 131.205978 227.718273 131.078430 C228.015545 130.042404 228.312847 129.006348 228.860119 127.720306 z"/><path class="selected"  fill="#000000" opacity="1.000000" stroke="none" 
 	d="
M324.860119 377.720306 C325.340283 376.240143 325.294140 374.849579 325.886334 373.829559 C326.377606 372.983337 327.620586 372.573517 328.530529 371.970306 C329.057049 372.896484 329.601727 373.812927 330.105236 374.751465 C330.658184 375.782257 331.173168 376.833435 331.704662 377.875702 C332.506481 376.716644 333.699383 375.657410 334.026165 374.377075 C334.648754 371.937988 334.606457 369.330750 335.208782 366.884033 C335.401959 366.099182 336.755901 365.600098 337.578808 364.970306 C338.089245 365.912567 339.202526 367.005127 339.011273 367.772491 C337.858166 372.398376 336.623333 377.036652 334.858227 381.447662 C334.532665 382.261169 330.771679 382.879700 330.112866 382.173492 C327.425304 379.292725 327.185070 382.338806 326.168102 383.438690 C325.510693 384.149658 324.985577 384.982910 324.401165 385.761353 C323.970837 384.614105 323.137188 383.440643 323.209637 382.326080 C323.305584 380.850037 324.110119 379.420074 324.860119 377.720306 z"/><path class="selected"  fill="#000000" opacity="1.000000" stroke="none" 
 	d="
M114.360119 119.220306 C118.569302 117.303635 122.501675 115.567383 126.508053 114.023148 C127.418591 113.672195 128.585552 113.986542 129.634502 113.994659 C129.129650 114.816605 128.823895 115.978943 128.089535 116.408417 C119.679257 121.326797 111.243206 126.205536 102.701626 130.889893 C101.474758 131.562729 99.655315 131.155045 98.110119 131.247406 C98.999188 129.821716 99.559429 127.882858 100.837338 127.063965 C105.123531 124.317307 109.665859 121.970322 114.360119 119.220306 z"/><path class="selected"  fill="#000000" opacity="1.000000" stroke="none" 
 	d="
M413.860119 327.720306 C412.982220 326.931549 411.909252 325.933136 411.810742 324.846375 C411.527721 321.723389 414.504986 317.429199 408.410046 316.558136 C408.176098 316.524689 407.849560 312.685242 408.383099 312.446747 C412.306225 310.692963 416.372295 309.130127 420.543469 308.138916 C421.784008 307.844116 423.503826 309.566223 425.004009 310.364197 C423.798626 310.899567 422.640759 311.631195 421.379681 311.936340 C415.901531 313.261749 415.682354 314.145752 416.399181 319.966522 C416.691204 322.337830 414.934582 324.961456 413.860119 327.720306 z"/><path class="selected"  fill="#000000" opacity="1.000000" stroke="none" 
 	d="
M252.110119 103.970306 C251.776775 105.328201 251.480206 106.202774 251.100506 107.039627 C250.656109 108.019119 250.139233 108.965759 249.653790 109.926651 C249.139233 109.006927 248.138104 108.055145 248.196240 107.173157 C248.421124 103.760452 246.030132 105.078598 244.557995 105.075180 C243.169811 105.071960 241.780590 105.508774 240.391827 105.751999 C240.550457 103.405579 240.591503 101.041351 240.942181 98.723999 C241.042156 98.063446 241.954205 97.394424 242.643993 96.978058 C245.147076 95.467194 247.713909 94.061951 250.256695 92.616875 C250.874493 96.234680 251.492321 99.852493 252.110119 103.970306 M247.110119 102.470306 C247.537731 100.897919 247.965344 99.325531 248.392956 97.753143 C247.819164 97.805054 247.094067 97.651138 246.696728 97.943146 C244.533550 99.532852 244.418835 101.256317 247.110119 102.470306 z"/><path class="selected"  fill="#000000" opacity="1.000000" stroke="none" 
 	d="
M12.360119 196.220306 C15.409592 194.303635 18.134361 192.478088 21.068775 191.098419 C21.688854 190.806870 23.076256 192.147293 24.110119 192.735779 C23.398796 193.480621 22.760910 194.318405 21.960682 194.950745 C20.351704 196.222183 18.331513 197.125671 17.103138 198.674423 C16.239754 199.763000 16.404480 201.667007 16.110119 203.206909 C17.398506 203.339645 18.698200 203.406616 19.971771 203.625549 C21.026634 203.806870 22.050682 204.167435 23.088383 204.448563 C22.483044 205.289154 21.953552 206.772964 21.258743 206.854889 C18.742844 207.151581 15.523262 207.952698 13.756023 206.778015 C10.085198 204.337982 10.551739 200.270325 12.360119 196.220306 z"/><path class="selected"  fill="#000000" opacity="1.000000" stroke="none" 
 	d="
M207.360119 93.220306 C208.776791 93.225555 209.943447 93.480820 211.110119 93.736069 C210.601894 94.489044 209.553936 95.342331 209.672237 95.978867 C210.495327 100.407135 207.005001 101.455734 204.375729 103.297974 C203.764019 103.726578 203.634274 104.843018 203.282772 105.642960 C204.414440 106.062851 205.518032 106.606812 206.684933 106.871063 C208.127102 107.197632 209.621899 107.291855 211.093945 107.486465 C209.615994 108.314407 208.227688 109.536255 206.643368 109.896820 C201.782879 111.003021 198.988537 108.915314 198.524639 103.883514 C198.472546 103.318497 198.172848 102.498795 198.434918 102.224976 C201.275158 99.257462 204.204846 96.375580 207.360119 93.220306 z"/><path class="selected"  fill="#000000" opacity="1.000000" stroke="none" 
 	d="
M387.360119 277.720306 C385.110119 274.139282 383.018902 270.857391 381.178448 267.440430 C380.752819 266.650208 381.184460 265.398285 381.221630 264.358795 C382.142803 264.687653 383.164806 264.862610 383.959911 265.383759 C384.984173 266.055084 385.826641 267.003784 386.747387 267.833038 C387.201641 266.523804 387.632092 265.205627 388.118511 263.908447 C388.441967 263.045898 388.612438 261.847992 389.257305 261.436768 C391.091076 260.267487 393.133007 259.424561 395.092968 258.453156 C394.477337 260.080200 393.820141 261.692932 393.254345 263.337128 C391.850689 267.416046 390.524029 271.521820 389.081768 275.586792 C388.776562 276.447083 388.110119 277.179169 387.360119 277.720306 z"/><path class="selected"  fill="#000000" opacity="1.000000" stroke="none" 
 	d="
M79.110111 274.720306 C77.557888 275.636963 75.999577 276.859772 74.454838 276.842834 C72.001835 276.815979 68.462826 276.792694 67.324635 275.293762 C64.428318 271.479431 66.111851 266.802338 68.520840 263.482208 C69.811390 261.703552 73.595150 261.658691 76.303913 261.056976 C76.765202 260.954529 77.479740 261.992188 78.077267 262.503143 C77.448765 262.992188 76.874828 263.790710 76.181629 263.912903 C74.004116 264.296936 71.859112 264.442413 74.655583 267.152496 C74.738178 267.232544 73.859135 268.370483 73.367008 268.964203 C72.346974 270.194763 71.285565 271.390991 70.241169 272.601349 C71.576237 272.724365 72.940151 272.716583 74.239124 273.003174 C75.890308 273.367462 77.488865 273.970337 79.110111 274.720306 z"/><path class="selected"  fill="#000000" opacity="1.000000" stroke="none" 
 	d="
M161.110119 269.970306 C163.633770 267.946625 166.241482 266.544250 168.659893 264.868683 C171.702679 262.760498 172.234310 264.942291 172.026287 267.004211 C171.600659 271.223450 170.739895 275.402344 169.944134 279.576111 C169.844250 280.100006 169.028545 280.875671 168.592831 280.845123 C168.092724 280.810059 167.266049 280.018127 167.251461 279.534760 C167.214474 278.309387 167.734615 277.064636 167.680645 275.843170 C167.639446 274.910492 167.061199 274.001556 166.721859 273.082062 C165.919781 273.476318 165.010433 273.740051 164.338223 274.292358 C162.991222 275.399170 161.773922 276.663788 160.503094 277.863251 C160.705425 275.897064 160.917706 273.931824 161.103161 271.964020 C161.149700 271.470276 161.110119 270.968414 161.110119 269.970306 z"/><path class="selected"  fill="#000000" opacity="1.000000" stroke="none" 
 	d="
M71.360119 318.720306 C72.315411 319.598328 73.020702 320.226379 73.725979 320.854431 C74.187359 319.881897 74.926777 318.942871 75.049030 317.929443 C75.266453 316.127045 74.939304 314.257538 75.170902 312.458740 C75.322208 311.283508 76.057201 310.183441 76.530743 309.049683 C77.235424 310.034790 78.206249 310.924896 78.597614 312.021790 C80.100659 316.234497 79.077816 320.233704 76.624813 323.706726 C76.152050 324.376068 73.433170 324.251740 72.384861 323.548248 C70.504376 322.286224 69.118397 319.385895 67.655033 323.834686 C67.478764 324.370636 66.368290 324.599243 65.690792 324.970306 C65.497234 324.235046 65.080700 323.477478 65.151577 322.768677 C65.371639 320.568085 65.664333 318.360352 66.155941 316.207214 C66.415012 315.072540 67.146694 314.045776 67.664982 312.970306 C68.480023 314.110535 69.331997 315.226746 70.095387 316.400574 C70.511265 317.040009 70.776791 317.777191 71.360119 318.720306 z"/><path class="selected"  fill="#000000" opacity="1.000000" stroke="none" 
 	d="
M254.360119 266.220306 C255.430859 265.457733 256.251629 264.945129 257.072369 264.432556 C257.414837 265.448578 258.257153 266.607483 258.014507 267.456238 C256.876446 271.437256 255.491009 275.352081 254.038799 279.232513 C253.876293 279.666840 252.719891 279.917480 252.046551 279.877716 C251.785046 279.862305 251.424053 278.815155 251.389172 278.221497 C251.306194 276.809662 251.390820 275.388000 251.407726 273.970306 C249.727581 274.717896 247.970287 275.334961 246.397778 276.264618 C245.525799 276.780121 244.962689 277.818085 244.260388 278.620575 C243.876995 277.452881 243.111370 276.258698 243.190075 275.123016 C243.351421 272.794464 243.809338 270.452148 244.458355 268.206024 C244.788647 267.062866 245.797833 266.115906 246.500134 265.080292 C247.036816 266.111206 247.426739 267.264526 248.154003 268.136475 C248.799267 268.910095 250.274914 270.061035 250.594280 269.850067 C251.928295 268.968781 252.964642 267.636963 254.360119 266.220306 z"/><path class="selected"  fill="#000000" opacity="1.000000" stroke="none" 
 	d="
M100.110119 322.970306 C99.057293 324.084137 98.004467 324.697998 96.951656 325.311859 C96.972050 324.063782 96.867092 322.797333 97.046253 321.572479 C97.246212 320.205475 97.836163 318.892731 98.008053 317.525177 C98.144497 316.439575 97.906658 315.306946 97.835018 314.195190 C96.918530 314.628418 96.038250 315.190430 95.076023 315.461029 C93.966496 315.773071 92.784634 315.827881 91.634182 315.994385 C91.866230 314.746307 91.709606 313.198181 92.399952 312.303894 C94.918636 309.041168 103.042523 307.763336 106.388088 310.045349 C106.915142 310.404846 106.762020 311.761444 106.923397 312.657013 C100.596096 312.649780 101.922543 317.724030 101.077908 321.388214 C100.982678 321.801331 100.443462 322.112091 100.110119 322.970306 z"/><path class="selected"  fill="#000000" opacity="1.000000" stroke="none" 
 	d="
M190.360119 119.220306 C192.078075 119.438263 193.546017 119.906204 195.013973 120.374161 C193.922894 121.196014 192.919766 122.185501 191.726086 122.811829 C185.178951 126.247131 178.606976 129.637650 171.981213 132.917618 C171.094372 133.356613 169.854382 133.082184 168.777920 133.138123 C169.037060 132.100433 169.005383 130.840027 169.602093 130.060898 C173.786785 124.597031 180.288570 123.264404 186.244473 120.969849 C187.534161 120.472961 188.821636 119.970306 190.360119 119.220306 z"/><path class="selected"  fill="#000000" opacity="1.000000" stroke="none" 
 	d="
M173.110119 311.970306 C172.443447 315.844147 171.841686 319.233032 171.065395 322.581451 C170.866345 323.440125 170.116451 324.171143 169.619625 324.960785 C169.116451 324.014191 168.414745 323.117706 168.160030 322.108398 C167.836422 320.826111 167.875286 319.452393 167.757885 318.118073 C166.487103 318.957001 165.172909 319.738586 163.961071 320.655426 C163.174740 321.250336 162.637768 322.413269 161.804607 322.638092 C161.034100 322.846008 159.294781 322.248077 159.233883 321.824921 C158.953198 319.874420 158.930996 317.838898 159.172451 315.877716 C159.336239 314.547424 160.090527 313.289795 160.580746 311.999664 C161.090542 313.066833 161.406246 314.316559 162.178097 315.137268 C162.695919 315.687897 164.250530 316.106140 164.668392 315.763367 C166.560513 314.211121 168.252804 312.404083 169.933346 310.610382 C170.632671 309.863983 171.123287 308.922028 171.708798 308.068970 C172.175900 309.202759 172.643017 310.336517 173.110119 311.970306 z"/><path class="selected"  fill="#000000" opacity="1.000000" stroke="none" 
 	d="
M151.110119 269.970306 C151.702816 270.636993 152.299862 270.789764 152.887295 270.973297 C153.964550 271.309906 155.036144 271.664612 156.110119 272.011749 C155.146603 272.664612 154.201458 273.346954 153.214321 273.961884 C152.258556 274.557251 151.259579 275.083282 150.279583 275.639771 C151.253918 276.083282 152.228191 276.526947 153.202618 276.970245 C153.838314 277.259491 154.474270 277.548248 155.110119 277.837189 C154.563015 278.214905 154.064831 278.721466 153.461300 278.950470 C147.123516 281.355652 145.701870 280.251495 146.110134 273.300140 C146.483563 266.941986 149.206966 263.652405 153.969311 264.021973 C154.975521 264.100067 155.930660 264.836426 156.909313 265.269501 C156.119976 265.836456 155.328549 266.400513 154.541790 266.970978 C153.396130 267.801666 152.253857 268.636993 151.110119 269.970306 z"/><path class="selected"  fill="#000000" opacity="1.000000" stroke="none" 
 	d="
M176.110119 322.970306 C176.754376 317.700256 177.598751 312.970032 182.765240 310.898285 C184.294750 310.284943 186.108990 310.381622 187.792767 310.152954 C187.299511 311.191132 186.405773 312.222626 186.388287 313.268707 C186.336514 316.367004 185.065701 318.359131 182.172344 319.502991 C181.645596 319.711243 181.013531 321.148956 181.220608 321.424072 C181.744412 322.119965 182.695614 322.519196 183.517620 322.958649 C184.355679 323.406616 185.243877 323.760803 186.110119 324.156036 C185.091854 324.760803 183.944622 326.016785 183.080029 325.845551 C180.693523 325.372955 178.425182 324.303650 176.110119 322.970306 z"/><path class="selected"  fill="#000000" opacity="1.000000" stroke="none" 
 	d="
M367.860119 275.220306 C365.774578 269.489655 370.169964 266.009003 372.039166 261.749512 C372.201092 261.380524 375.320843 261.568665 375.506176 262.072266 C376.626354 265.116150 378.005261 268.360016 377.862377 271.471069 C377.765240 273.586609 375.712963 276.250244 373.780254 277.398376 C372.665417 278.060669 370.050060 276.197021 367.860119 275.220306 M371.610119 274.970306 C375.896740 273.652344 373.972302 270.569489 373.517498 267.961884 C373.488079 267.793091 372.429272 267.803864 371.849316 267.731110 C371.602917 269.977509 371.356518 272.223907 371.610119 274.970306 z"/><path class="selected"  fill="#000000" opacity="1.000000" stroke="none" 
 	d="
M185.110119 374.970306 C184.290707 378.623047 183.545269 381.798859 182.577679 384.905457 C182.419903 385.412079 181.280743 385.613068 180.595181 385.955353 C180.433498 385.357147 180.106747 384.748810 180.142864 384.162781 C180.230679 382.738007 180.797711 381.275696 180.588543 379.918396 C180.377087 378.546082 179.688366 376.350555 178.817440 376.140839 C175.935955 375.447113 176.504818 373.532349 177.903439 372.872498 C182.058804 370.911926 186.483654 369.507080 190.857037 368.046326 C191.332821 367.887360 192.159542 368.779175 192.823467 369.183624 C192.309033 369.889160 191.941738 370.839508 191.252300 371.253815 C189.274807 372.442261 187.166821 373.413635 185.110119 374.970306 z"/><path class="selected"  fill="#000000" opacity="1.000000" stroke="none" 
 	d="
M344.360119 326.220306 C345.776806 322.962982 346.842571 319.909851 348.173473 316.977051 C348.557720 316.130371 349.704327 315.629669 350.501415 314.970306 C351.037609 316.056702 351.636028 317.118744 352.076183 318.242798 C352.229046 318.633118 352.058148 319.198273 351.918133 319.647125 C351.237438 321.828552 350.517132 323.997620 349.810864 326.171051 C352.359997 326.437469 354.932690 326.572845 357.448406 327.025085 C358.722088 327.254028 359.892834 328.055389 361.110119 328.597900 C359.974011 329.055359 358.857708 329.836243 357.697918 329.907471 C354.661114 330.093842 351.531994 330.364014 348.585888 329.815613 C346.943279 329.509827 345.592449 327.636963 344.360119 326.220306 z"/><path class="selected"  fill="#000000" opacity="1.000000" stroke="none" 
 	d="
M195.110119 96.970306 C191.131664 99.511841 192.276592 103.667984 191.049191 106.989670 C190.391674 108.769119 189.109066 110.317596 188.108532 111.970306 C187.775738 110.040390 187.306683 108.121643 187.147549 106.177505 C186.980404 104.135696 186.731518 101.973831 187.220165 100.041931 C187.678265 98.230698 188.660198 96.022568 190.114651 95.111801 C192.539974 93.593079 195.471264 92.721443 198.303982 92.094620 C199.413799 91.849045 200.832241 92.998154 202.110119 93.512070 C201.137737 94.331482 200.262188 95.331879 199.165356 95.918701 C198.098202 96.489639 196.804394 96.636963 195.110119 96.970306 z"/><path class="selected"  fill="#000000" opacity="1.000000" stroke="none" 
 	d="
M56.360119 369.220306 C57.776608 368.970306 59.010738 368.736694 60.087002 369.048340 C60.869465 369.274872 61.443272 370.222107 62.110111 370.847992 C61.452152 371.380035 60.855213 372.026703 60.121853 372.417114 C59.039684 372.993134 57.480740 373.087158 56.814999 373.930939 C55.906742 375.082184 55.647579 376.745544 55.110119 378.189331 C56.142490 378.116302 57.186344 377.919861 58.203114 378.014496 C58.859333 378.075592 59.475826 378.563354 60.110127 378.859894 C59.520840 379.563385 58.625393 380.967468 58.388706 380.864044 C55.373707 379.546539 54.758015 381.670837 53.827618 383.667328 C53.547566 384.268250 52.360439 385.036743 51.960171 384.864685 C51.201664 384.538605 50.392094 383.679993 50.162106 382.881744 C48.694531 377.788116 51.250996 372.165039 56.360119 369.220306 z"/><path class="selected"  fill="#000000" opacity="1.000000" stroke="none" 
 	d="
M21.110119 377.970306 C21.110119 377.304688 21.065571 377.123596 21.116810 376.975739 C21.919827 374.658875 22.735195 372.346252 23.547745 370.032684 C23.735207 372.287445 23.686268 374.597260 24.193783 376.777527 C24.528385 378.215027 25.663723 379.466156 26.440529 380.800720 C27.141796 379.879181 28.201805 379.049194 28.465519 378.015991 C28.934605 376.178101 28.739342 374.172729 29.188843 372.326782 C29.405621 371.436523 30.456570 370.749420 31.129788 369.970306 C31.789898 370.762512 33.071644 371.617889 32.998722 372.335632 C32.732792 374.953156 32.588287 377.873749 31.290791 380.006531 C30.192669 381.811554 27.334503 383.933899 25.672890 383.630280 C23.896980 383.305756 22.610340 380.303650 21.110119 377.970306 z"/><path class="selected"  fill="#000000" opacity="1.000000" stroke="none" 
 	d="
M260.860119 107.720306 C259.443462 107.182556 257.274578 106.384628 257.282482 105.608841 C257.317883 102.128067 257.764629 98.605759 258.546825 95.209869 C258.747051 94.340576 260.713574 93.878143 261.868603 93.228775 C262.110302 94.481430 262.563274 95.740067 262.527996 96.984848 C262.498882 98.011642 261.756298 98.998749 261.576305 100.045822 C261.368877 101.252289 261.432140 102.505280 261.377880 103.738068 C262.536968 103.482147 263.685101 103.107574 264.857800 102.999603 C266.408154 102.856888 267.977764 102.922958 269.539074 102.899292 C268.412304 104.073425 267.472759 105.599350 266.107708 106.325836 C264.651348 107.100952 262.792980 107.120773 260.860119 107.720306 z"/><path class="selected"  fill="#000000" opacity="1.000000" stroke="none" 
 	d="
M264.110119 265.970306 C267.852520 270.997681 267.460095 278.168823 263.702923 279.910187 C262.398174 280.514893 260.247601 281.105713 259.427349 280.475098 C258.455669 279.728027 257.774731 277.353638 258.245678 276.211578 C259.708691 272.663757 261.776775 269.365417 264.110119 265.970306 M263.110119 276.470306 C263.188427 275.548615 263.266735 274.626923 263.345043 273.705231 C262.874157 273.686157 262.097302 273.484894 261.982403 273.677826 C261.275250 274.865204 260.717541 276.141571 260.110119 277.388336 C261.110119 277.415649 262.110119 277.442993 263.110119 276.470306 z"/><path class="selected"  fill="#000000" opacity="1.000000" stroke="none" 
 	d="
M88.360119 324.220306 C84.683270 324.672821 84.822186 324.654846 84.483250 322.035278 C84.354755 321.042145 83.526997 320.066376 82.836445 319.233063 C80.900608 316.897095 80.385357 314.173889 82.630039 312.217285 C83.948750 311.067871 86.496029 311.249908 88.512249 311.041321 C88.940319 310.997040 89.461971 311.857208 89.940502 312.300690 C88.601086 313.190582 87.248974 314.062134 85.927769 314.978271 C85.291813 315.419189 84.714169 315.944153 84.110119 316.431061 C84.853542 316.944153 85.590321 317.467194 86.341755 317.968262 C87.927136 319.025543 89.520207 320.071228 91.110111 321.121674 C90.276783 322.071198 89.443447 323.020752 88.360119 324.220306 z"/><path class="selected"  fill="#000000" opacity="1.000000" stroke="none" 
 	d="
M274.110119 279.970306 C269.614239 279.011536 267.391827 274.473145 269.467358 271.242798 C269.704449 270.873810 271.540966 270.912659 271.742901 271.268738 C272.175152 272.031036 271.900463 273.156616 272.139263 274.075165 C272.483807 275.400635 273.027325 276.674438 273.485912 277.970306 C274.288799 276.398468 275.219341 274.875549 275.847149 273.236633 C276.228741 272.240417 276.142864 271.065155 276.266949 269.970306 C277.214672 271.137970 279.201641 272.761139 278.925030 273.392181 C277.887096 275.760345 276.110149 277.804657 274.110119 279.970306 z"/><path class="selected"  fill="#000000" opacity="1.000000" stroke="none" 
 	d="
M318.110119 317.970306 C318.892193 316.303650 319.674297 315.136963 320.456402 313.970306 C320.844402 315.300201 321.641918 316.661713 321.542278 317.954010 C321.263287 321.571289 320.789440 325.198578 320.012676 328.738586 C319.748272 329.943481 318.352825 330.900177 317.474163 331.970306 C317.019482 330.671478 316.063458 329.313934 316.207409 328.085236 C316.586376 324.850372 317.443462 321.671478 318.110119 317.970306 z"/><path class="selected"  fill="#000000" opacity="1.000000" stroke="none" 
 	d="
M60.860119 309.220306 C60.980099 313.266998 60.867687 317.064484 60.695171 320.859253 C60.676106 321.278595 60.287113 321.671631 60.114773 322.095215 C59.455212 323.716187 58.814030 325.344635 58.165981 326.970306 C57.814022 325.078766 57.148838 323.181458 57.183415 321.296997 C57.235485 318.458679 57.563465 315.580261 58.199619 312.816803 C58.520359 311.423523 59.776783 310.245605 60.860119 309.220306 z"/><path class="selected"  fill="#000000" opacity="1.000000" stroke="none" 
 	d="
M321.360119 374.220306 C320.443432 377.854797 319.803082 381.244934 319.081158 384.617584 C318.975536 385.111115 318.481396 385.521484 318.167034 385.970306 C317.524365 385.513306 316.278454 384.969086 316.329998 384.612396 C317.046276 379.656342 317.905438 374.719177 318.872204 369.805420 C318.934429 369.489197 320.162853 369.402435 320.848766 369.208954 C321.102551 370.796082 321.356335 372.383179 321.360119 374.220306 z"/><path class="selected"  fill="#000000" opacity="1.000000" stroke="none" 
 	d="
M285.360119 268.220306 C286.443462 268.757111 288.109783 270.049652 287.985180 270.254883 C286.104961 273.351837 286.941479 275.728302 289.454846 277.949371 C289.625866 278.100555 288.787731 279.904205 288.599285 279.872375 C286.776074 279.564178 283.447399 279.038208 283.444012 278.554382 C283.420483 275.158966 281.537640 271.275299 285.360119 268.220306 z"/><path class="selected"  fill="#000000" opacity="1.000000" stroke="none" 
 	d="
M233.110119 98.970306 C233.580975 96.999451 234.051830 95.528595 234.522686 94.057739 C235.051830 95.446152 235.868115 96.799576 236.042645 98.231216 C236.302776 100.365158 236.302960 102.577835 236.042584 104.711716 C235.868023 106.142136 235.050701 107.494125 234.521008 108.881210 C234.050732 107.410126 233.382336 105.967789 233.163677 104.460205 C232.927075 102.828629 233.110119 101.136200 233.110119 98.970306 z"/><path class="selected"  fill="#000000" opacity="1.000000" stroke="none" 
 	d="
M434.360119 74.720306 C436.294781 72.970314 438.393658 71.308350 440.720165 70.076149 C441.358349 69.738129 442.678051 70.686920 443.685040 71.045235 C443.078808 71.686928 442.582073 72.527008 441.845928 72.933228 C439.611523 74.166153 437.971142 77.722366 434.360119 74.720306 z"/><path class="selected"  fill="#000000" opacity="1.000000" stroke="none" 
 	d="
M386.110119 384.970306 C387.359753 384.053253 388.609417 383.636261 389.859081 383.219269 C389.679150 384.566559 389.835919 386.109131 389.205822 387.195282 C388.755200 387.972107 387.249584 388.136993 386.214733 388.574921 C386.179882 387.540039 386.145001 386.505188 386.110119 384.970306 z"/></svg>