<?xml version="1.0" encoding="UTF-8" standalone="no"?>
<svg
   xmlns:dc="http://purl.org/dc/elements/1.1/"
   xmlns:cc="http://creativecommons.org/ns#"
   xmlns:rdf="http://www.w3.org/1999/02/22-rdf-syntax-ns#"
   xmlns:svg="http://www.w3.org/2000/svg"
   xmlns="http://www.w3.org/2000/svg"
   xmlns:sodipodi="http://sodipodi.sourceforge.net/DTD/sodipodi-0.dtd"
   xmlns:inkscape="http://www.inkscape.org/namespaces/inkscape"
   version="1.1"
   id="Contours"
   x="0px"
   y="0px"
   width="5.3292437in"
   height="3in"
   viewBox="-1e-06 -1e-06 511.60739 511.6073"
   enable-background="new 0 0 285.995911 285.995911"
   xml:space="preserve"
   sodipodi:docname="speed-chart.svg"
   style="fill:none;stroke:#000000;stroke-linecap:round;stroke-linejoin:round"
   inkscape:version="0.92.1 r15371"><metadata
     id="metadata149"><rdf:RDF><cc:Work
         rdf:about=""><dc:format>image/svg+xml</dc:format><dc:type
           rdf:resource="http://purl.org/dc/dcmitype/StillImage" /><dc:title></dc:title></cc:Work></rdf:RDF></metadata><defs
     id="defs147" /><sodipodi:namedview
     pagecolor="#ffffff"
     bordercolor="#666666"
     borderopacity="1"
     objecttolerance="10"
     gridtolerance="10"
     guidetolerance="10"
     inkscape:pageopacity="0"
     inkscape:pageshadow="2"
     inkscape:window-width="1360"
     inkscape:window-height="702"
     id="namedview145"
     showgrid="false"
     fit-margin-top="0"
     fit-margin-left="0"
     fit-margin-right="0"
     fit-margin-bottom="0"
     inkscape:zoom="1.1669901"
     inkscape:cx="69.343482"
     inkscape:cy="173.91566"
     inkscape:window-x="0"
     inkscape:window-y="27"
     inkscape:window-maximized="0"
     inkscape:current-layer="Contours"
     units="in" /><g
     id="g222"
     transform="matrix(0,-1.7888625,1.7888625,0,-198.60963,511.6073)"><path
       id="path2"
       d="m 276.05309,40.962697 c -0.66666,14.718132 -1.44592,28.932243 -1.95364,43.156052 -0.2634,7.378097 -0.12558,14.774688 -4.3e-4,22.160061 0.0401,2.36592 0.94318,4.72869 0.89932,7.08258 -0.21173,11.35967 -0.68832,22.71425 -0.91769,34.07373 -0.14691,7.275 0.22699,14.56655 -0.0921,21.83048 -0.39817,9.06531 -1.59531,18.10052 -1.85404,27.16568 -0.3342,11.70958 0.0324,23.43745 -0.12545,35.15446 -0.0902,6.69583 -0.91282,13.38697 -0.88376,20.07798 0.0377,8.69305 0.88922,17.38498 0.85589,26.07534 -0.0454,11.85828 -0.7529,23.71286 -0.88797,35.5723 -0.1676,14.716 -0.16684,29.43686 4e-4,44.15289 0.13101,11.52628 0.71847,23.04666 0.93936,34.57282 0.40393,21.07593 0.82776,42.15335 0.9548,63.2319 0.0554,9.18924 -0.67477,18.38089 -0.9078,27.57501 -0.14493,5.71784 -0.14392,11.44696 0.0821,17.15949 0.0402,1.01538 1.37393,2.15167 2.36572,2.88818 0.53693,0.39874 1.72653,-0.18414 2.42252,0.12464 1.4118,0.62646 2.68817,1.55816 4.02038,2.36401 -1.42114,0.86078 -2.79357,2.349 -4.27258,2.46387 -4.30569,0.33404 -8.6557,0.18109 -12.98431,0.0671 -0.89576,-0.0236 -1.77423,-0.70337 -2.66071,-1.08075 0.6698,-0.95594 1.2811,-2.68763 2.01868,-2.74317 5.14499,-0.38769 5.05862,-3.79474 5.0217,-7.59442 -0.11176,-11.49445 -0.0404,-22.99057 -0.0404,-34.48602 0,-8.72031 0,-17.44062 0,-26.16092 0,-21.21536 0.12216,-42.4317 -0.0423,-63.64578 -0.11258,-14.52451 -0.78027,-29.0445 -0.91778,-43.56913 -0.16776,-17.71515 -0.0399,-35.43313 -0.0399,-53.14987 0,-3.72229 -0.0534,-7.44543 0.009,-11.16668 0.31363,-18.68818 0.62665,-37.37641 1.00107,-56.06344 0.28214,-14.08108 0.66269,-28.16018 0.98819,-42.24043 0.34088,-14.74628 0.79868,-29.49142 0.96512,-44.23976 0.16672,-14.77312 -0.259,-29.556862 0.10504,-44.322884 0.56265,-22.823295 1.59015,-45.635025 2.32883,-68.454632 0.0214,-0.659809 -0.8559,-1.668746 -1.54904,-1.964561 -1.41339,-0.603188 -3.04547,-0.689758 -4.46768,-1.278507 -0.61347,-0.25396 -1.42237,-1.395306 -1.27167,-1.83543 0.26419,-0.771824 1.15515,-1.810181 1.86072,-1.873234 5.34683,-0.477821 10.7098,-0.823597 16.07467,-1.006107 0.94956,-0.032303 1.93152,0.888984 2.89853,1.369918 -0.74634,0.852398 -1.35968,2.225956 -2.26462,2.456871 -2.45288,0.625927 -5.05426,0.65041 -7.54043,1.17854 -0.65912,0.140018 -1.72138,1.594387 -1.57495,1.843349 3.43731,5.845013 2.36596,12.271774 2.37057,18.498299 0.003,4.693149 -0.60004,9.386745 -0.93338,14.580135 z"
       class="selected"
       inkscape:connector-curvature="0"
       style="opacity:1;fill:#000000;stroke:none" /><path
       id="path4"
       d="m 199.05309,74.962697 c 0.66667,-11.887016 1.41145,-23.270172 1.97542,-34.662277 0.45477,-9.186447 0.60846,-18.387818 1.06547,-27.574124 0.18183,-3.654628 -0.39341,-6.352046 -4.73095,-6.849308 -0.83513,-0.095741 -1.54323,-1.299308 -2.30994,-1.991813 0.985,-0.64082 1.98393,-1.85315 2.95274,-1.829537 6.1978,0.151059 12.38613,0.680027 18.58397,0.846192 2.01755,0.054092 4.05361,-0.823796 6.08254,-0.82991 0.79169,-0.00239 1.58707,1.221801 2.38075,1.887317 -0.76285,0.334488 -1.5034,0.885998 -2.29228,0.96695 -4.01923,0.412445 -8.0457,0.830986 -12.07993,0.996067 -3.22715,0.132057 -5.04466,1.129001 -4.6791,4.792259 0.26339,2.63958 0.1,5.327644 0.0432,7.992302 -0.31652,14.85778 0.26152,29.815483 -1.34558,44.533821 -0.92715,8.491165 0.32765,16.596367 0.29039,24.87352 -0.0336,7.475204 -0.83084,14.946974 -0.86432,22.422184 -0.0265,5.91561 0.86356,11.83451 0.8545,17.75122 -0.01,6.36045 -0.63916,12.71815 -0.90636,19.0809 -0.12112,2.88447 0.0369,5.77962 -0.0303,8.66762 -0.3111,13.35839 -0.67351,26.71559 -0.97858,40.07411 -0.0774,3.38766 0.0209,6.77896 -0.0167,10.16795 -0.32445,29.18654 -0.74733,58.37242 -0.93707,87.55977 -0.05,7.69043 0.44613,15.39911 1.089,23.06607 0.11867,1.41528 2.14511,2.67209 3.29486,3.99869 0.51451,0.59369 1.03858,1.17911 1.55832,1.76825 -0.66675,0.4306 -1.29396,1.14331 -2.00703,1.24319 -3.17859,0.44522 -6.37709,0.86859 -9.57849,0.96503 -1.1139,0.0336 -2.25686,-0.8978 -3.38656,-1.38849 0.57039,-0.92236 0.95353,-2.4071 1.74343,-2.6701 3.51062,-1.16886 3.25989,-3.84363 3.25209,-6.65793 -0.0471,-16.99478 -0.1414,-33.99073 0.003,-50.98438 0.23317,-27.35452 0.59421,-54.70826 1.00855,-82.06071 0.0913,-6.03041 0.81509,-12.05077 0.92178,-18.08153 0.16307,-9.21812 0.0428,-18.44124 0.0428,-27.66225 0,-12.88656 0,-25.77314 0,-38.65971 0,-5.888672 0.0546,-11.778267 -0.0453,-17.665245 -0.0204,-1.200417 -0.62135,-2.390991 -0.95468,-4.086098 z"
       class="selected"
       inkscape:connector-curvature="0"
       style="opacity:1;fill:#000000;stroke:none" /><path
       id="path6"
       d="m 123.05309,2.962697 c 5.58089,-0.919109 11.15949,-1.388008 16.74777,-1.647385 0.38004,-0.017639 1.30216,1.653851 1.13521,2.334465 -0.21565,0.879178 -1.14383,1.8993 -2.00424,2.222764 -1.02013,0.383499 -2.29491,0.076461 -3.45895,0.092994 -2.46019,0.034935 -3.89338,-0.079239 -2.68193,3.614681 1.03123,3.14449 -0.40552,7.035756 -0.39934,10.596032 0.007,3.814682 0.68019,7.63369 0.60537,11.441829 -0.13461,6.851632 -0.92509,13.698853 -0.87512,20.543785 0.0901,12.338356 0.53772,24.676041 1.02571,37.006501 0.048,1.212471 1.41848,2.370033 2.16706,3.558159 0.57748,0.916488 1.81814,2.385513 1.59279,2.665161 -0.85781,1.064529 -2.11484,2.283371 -3.36176,2.459396 -2.60925,0.368301 -5.36064,0.424881 -7.9454,-0.01976 -1.30425,-0.22435 -2.37232,-1.821793 -3.54717,-2.798386 0.93346,-0.690078 2.0817,-1.217621 2.75365,-2.105575 1.23053,-1.626107 3.00693,-3.42231 3.10001,-5.222824 0.36012,-6.967194 0.0181,-13.967018 0.17945,-20.949089 0.19295,-8.347931 0.9252,-16.691201 0.89478,-25.034569 -0.0401,-11.007019 -0.37161,-22.027863 -1.14476,-33.002827 -0.13068,-1.854896 -3.11646,-3.508663 -4.78313,-5.755352 z"
       class="selected"
       inkscape:connector-curvature="0"
       style="opacity:1;fill:#000000;stroke:none" /><path
       id="path8"
       d="m 88.053092,68.962697 c 4.858146,-0.333328 9.213012,-0.745972 13.577488,-0.926063 0.7754,-0.032 2.16592,0.788795 2.28913,1.410644 0.56817,2.867256 1.15825,5.82502 0.99035,8.706635 -0.0959,1.646202 -1.39367,4.307357 -2.5694,4.559829 -1.92348,0.413063 -4.572015,-0.225685 -6.222932,-1.396331 -2.678307,-1.899155 -4.77842,-4.606583 -7.168007,-6.926041 -0.479485,-0.465416 -1.161736,-0.721954 -1.750496,-1.074806 -0.05758,0.706512 -0.25544,1.435989 -0.144287,2.114883 0.251846,1.538315 0.957176,3.061691 0.907089,4.572205 -0.04357,1.314056 -0.870697,2.602127 -1.351578,3.90168 -0.852447,-1.107399 -2.072013,-2.095177 -2.480026,-3.34739 -0.819328,-2.514556 -1.328171,-5.154762 -1.698822,-7.7807 -0.184509,-1.307183 -0.127762,-3.661026 0.425385,-3.860268 1.380745,-0.49733 3.107948,-0.03279 5.196106,0.04572 m 8.5,4 c -1.5,-0.05962 -3,-0.119255 -4.5,-0.178879 0.882492,1.059632 1.680702,2.207703 2.672432,3.152695 0.898162,0.85585 1.934372,1.643196 3.046562,2.174034 0.898178,0.428688 2.000183,0.430306 3.011774,0.621384 0.0703,-1.109223 0.59603,-2.525429 0.1039,-3.2556 -0.73553,-1.091316 -2.187474,-1.699776 -4.334668,-2.513634 z"
       class="selected"
       inkscape:connector-curvature="0"
       style="opacity:1;fill:#000000;stroke:none" /><path
       id="path10"
       d="m 83.053092,281.9627 c -0.333329,-5.90461 -0.865883,-11.30863 -0.881867,-16.71415 -0.005,-1.68048 1.021569,-4.39389 2.223831,-4.82427 2.20591,-0.78962 5.142098,-0.86902 7.295586,-0.0247 1.527771,0.599 2.333489,3.16732 3.30587,4.94192 0.183144,0.33423 -0.367264,1.07044 -0.579178,1.62116 -2.010002,-2.53492 -5.578636,3.43484 -7.273697,-1.28931 -0.01449,-0.0404 -1.364219,0.39829 -2.090545,0.61328 1.07109,2.44925 -0.427063,6.21253 4.243156,6.83777 2.109329,0.28241 4.330383,2.00311 5.822632,3.67612 0.761696,0.85391 0.02562,3.04379 -0.03347,4.62982 -1.586022,-0.23114 -3.261002,-0.22724 -4.724892,-0.78116 -0.885063,-0.33493 -1.442718,-1.53506 -2.147484,-2.34647 -0.719978,1.36429 -1.406379,2.74778 -2.17176,4.08612 -0.509728,0.89127 -1.132096,1.71811 -1.704048,2.57383 -0.428048,-0.83335 -0.856095,-1.66666 -1.284134,-3 z"
       class="selected"
       inkscape:connector-curvature="0"
       style="opacity:1;fill:#000000;stroke:none" /><path
       id="path12"
       d="m 102.30309,180.7127 c 1.08333,2.06858 2.41074,3.8473 2.56197,5.72094 0.0886,1.09819 -1.65947,3.31488 -2.64585,3.35286 -3.339443,0.12856 -6.771007,-0.20315 -10.04282,-0.92415 -2.204986,-0.4859 -4.267166,-2.17807 -5.123298,1.45424 -0.666664,-0.26297 -1.740189,-0.35618 -1.932465,-0.81707 -1.06559,-2.55419 -2.172645,-5.14342 -2.743973,-7.8315 -0.333992,-1.57143 0.304718,-3.34958 0.505837,-5.03473 1.176933,0.72987 2.270645,1.7831 3.550636,2.11256 1.842903,0.47431 3.995842,0.99634 5.705635,0.47622 3.623154,-1.10218 6.975792,-2.25216 10.164328,1.49063 m -1.25,5.75 c -1.109167,-1.16668 -2.101736,-3.1431 -3.352942,-3.32323 -2.265472,-0.3262 -4.685173,0.41884 -7.040489,0.71666 0.461479,0.70219 0.827805,1.9133 1.400543,2.02037 2.800766,0.52361 5.656555,0.75287 8.992888,0.5862 z"
       class="selected"
       inkscape:connector-curvature="0"
       style="opacity:1;fill:#000000;stroke:none" /><path
       id="path14"
       d="m 157.80309,0.712693 c 8.18964,-0.083332 16.12929,0.195114 24.06893,0.195122 3.18713,4e-6 6.3697,-0.675819 9.56442,-0.902397 0.85319,-0.060516 1.74342,0.401207 2.61665,0.623165 -0.50879,0.786816 -0.8414,1.841137 -1.55768,2.312847 -2.69763,1.776512 -5.48506,3.42873 -8.33088,4.956032 -0.46656,0.250389 -1.91877,-0.210178 -2.03125,-0.598366 -1.23941,-4.277115 -4.70267,-3.498237 -7.65799,-3.283405 -6.88512,0.500496 -13.74852,1.295738 -20.62438,1.931949 -1.15394,0.10677 -2.41383,0.280468 -3.46336,-0.065876 -0.89829,-0.296436 -1.5652,-1.293991 -2.33446,-1.981452 0.64458,-0.645874 1.20114,-1.701813 1.94986,-1.862538 2.47939,-0.532242 5.02806,-0.741745 7.80014,-1.325081 z"
       class="selected"
       inkscape:connector-curvature="0"
       style="opacity:1;fill:#000000;stroke:none" /><path
       id="path16"
       d="m 181.30309,136.7127 c 3.07231,2.96473 4.05228,6.58125 0.54344,8.54329 -2.49914,1.39744 -6.42711,0.66525 -9.61674,0.19728 -1.31619,-0.1931 -2.21301,-2.45185 -3.59957,-3.25463 -0.8363,-0.48416 -3.09887,-0.30412 -3.2696,0.13787 -1.84035,4.76455 -2.46389,0.12033 -2.78424,-0.4943 -0.76851,-1.47439 -1.34574,-3.18797 -1.43503,-4.83566 -0.0811,-1.49637 0.58391,-3.03314 0.92,-4.55211 0.938,0.61017 1.80616,1.52696 2.83003,1.76015 1.62013,0.36902 3.43648,0.67441 5.00688,0.30815 4.0666,-0.94836 7.89798,-1.40355 11.40483,2.18996 m -7.75,5.25 c 2.34923,-0.0159 4.69847,-0.0318 7.0477,-0.0477 -1.78473,-1.31745 -3.55801,-2.65109 -5.36913,-3.93119 -0.21939,-0.15507 -0.65757,-0.0834 -0.96963,-0.0107 -1.64653,0.38362 -3.28516,0.80128 -4.92651,1.20715 1.07252,0.92748 2.14505,1.85495 4.21757,2.78243 z"
       class="selected"
       inkscape:connector-curvature="0"
       style="opacity:1;fill:#000000;stroke:none" /><path
       id="path18"
       d="m 179.05309,219.9627 c -1.99278,0 -3.49534,0.10807 -4.97601,-0.0258 -2.11324,-0.1911 -3.88289,-0.25293 -2.27892,-3.50894 0.80133,-1.62667 -0.49904,-4.24858 -0.73004,-6.43289 -0.38823,-3.67103 -0.75271,-7.34835 -0.9447,-11.03254 -0.0318,-0.60954 0.7289,-1.51637 1.35651,-1.86001 2.73413,-1.49713 9.72416,1.29246 10.37706,4.27461 0.26899,1.22867 -0.0502,3.38095 -0.84671,3.85117 -1.04657,0.61776 -2.864,0.1519 -4.28226,-0.15784 -1.00054,-0.21854 -1.88858,-0.95216 -2.82686,-1.45581 -0.2827,1.54156 -0.9655,3.15297 -0.71268,4.60104 0.17978,1.0297 1.47046,2.35388 2.52342,2.66057 5.40958,1.57559 6.76447,4.5614 3.34119,9.08646 z"
       class="selected"
       inkscape:connector-curvature="0"
       style="opacity:1;fill:#000000;stroke:none" /><path
       id="path20"
       d="m 174.80309,456.7127 c 0.63991,0.91668 1.65843,1.46673 2.39166,2.27548 1.32482,1.46121 2.47913,3.07699 3.70464,4.62826 -2.13741,0.42679 -4.42424,1.54325 -6.37747,1.12003 -2.99213,-0.64829 -5.61032,-7.90533 -4.12148,-10.51468 0.37923,-0.66461 1.55847,-1.05121 2.43448,-1.20941 1.12933,-0.20398 2.46358,0.28436 3.45517,-0.13171 1.32689,-0.55683 2.40988,-1.69492 3.59763,-2.58338 -1.34365,-0.77817 -2.60366,-1.84701 -4.05135,-2.26364 -1.9673,-0.56616 -4.10496,-0.51749 -6.11189,-0.98175 -0.65035,-0.15042 -1.1194,-1.08466 -1.67139,-1.66034 0.62094,-0.47629 1.17566,-1.1965 1.87441,-1.3862 2.85849,-0.77615 5.74739,-1.46136 8.65634,-2.01633 0.76393,-0.14575 2.05568,0.0103 2.40187,0.51248 4.56064,6.61527 1.91453,12.74415 -6.18262,14.21119 z"
       class="selected"
       inkscape:connector-curvature="0"
       style="opacity:1;fill:#000000;stroke:none" /><path
       id="path22"
       d="m 237.05309,209.9627 c 0.35471,-2.51822 -1.1871,-5.29998 2.30368,-6.20832 0.13645,-0.0355 -0.5455,-3.12703 -0.80618,-4.80079 -0.31641,-2.03179 -0.59033,-4.07019 -0.88266,-6.10573 2.79843,-0.125 5.83349,-0.96887 8.3212,-0.14993 2.02771,0.66751 3.44842,3.2848 4.98687,5.16166 0.14695,0.17925 -0.67227,1.38858 -1.2594,1.83522 -0.31366,0.2386 -1.09423,-0.11314 -1.6549,-0.2393 -0.137,-0.0308 -0.21909,-0.2549 -0.35822,-0.33466 -1.97348,-1.13177 -3.95245,-2.25395 -5.93011,-3.37843 0.927,2.74056 1.61789,5.59453 2.86139,8.18306 0.87652,1.82463 2.65588,3.19775 3.71084,4.96434 0.35999,0.60283 -0.31128,2.59993 -0.42206,2.5927 -3.63021,-0.23697 -7.24951,-0.64075 -10.87045,-1.51982 z"
       class="selected"
       inkscape:connector-curvature="0"
       style="opacity:1;fill:#000000;stroke:none" /><path
       id="path24"
       d="m 178.30309,390.2127 c 4.45476,-0.39792 7.51077,1.24658 8.03526,5.6502 0.20847,1.75028 -0.25489,4.78803 -1.25515,5.20169 -1.64278,0.67933 -4.00212,-0.17935 -5.99691,-0.65249 -0.6901,-0.16373 -1.19232,-1.11276 -1.78408,-1.69931 -0.92058,-0.91248 -1.84441,-1.82175 -2.76685,-2.73236 -0.49406,1.29513 -1.00629,2.58371 -1.47716,3.88723 -0.47163,1.3057 -0.90197,2.62626 -1.3504,3.94031 -0.58911,-1.15262 -1.32741,-2.25415 -1.74287,-3.46627 -2.50928,-7.32117 -1.62886,-8.37253 8.33816,-10.129 m 4.25,5.75 c -1.13376,-0.19956 -2.26753,-0.39914 -3.40129,-0.5987 0.28505,0.68421 0.61766,1.96781 0.847,1.94965 1.03409,-0.0821 2.03891,-0.53299 2.55429,-1.35095 z"
       class="selected"
       inkscape:connector-curvature="0"
       style="opacity:1;fill:#000000;stroke:none" /><path
       id="path26"
       d="m 185.05309,477.9627 c 1.66667,0.62524 2.83334,1.25042 4,1.87567 -1.0838,0.70807 -2.08803,1.8056 -3.26727,2.04657 -2.81067,0.5744 -5.71181,1.06189 -8.5618,0.9917 -3.06961,-0.0756 -5.30168,-1.16748 -5.26834,-5.20441 0.0695,-8.42471 0.48233,-8.93423 8.91321,-6.66302 0.81765,0.22027 1.46031,1.09017 2.1842,1.6585 -0.6938,0.76499 -1.37919,1.53803 -2.09312,2.28373 -0.0796,0.0832 -0.36861,-0.0566 -0.48073,0.0216 -1.35643,0.94507 -2.69789,1.91165 -4.04323,2.87262 1.8038,0.27423 3.60065,0.6648 5.41437,0.77295 0.88472,0.0528 1.80083,-0.42065 3.20271,-0.65588 z"
       class="selected"
       inkscape:connector-curvature="0"
       style="opacity:1;fill:#000000;stroke:none" /><path
       id="path28"
       d="m 243.05309,135.9627 c 0.68118,4.34459 2.388,2.60244 3.46872,0.93525 1.71933,-2.6524 3.04678,-5.77467 6.91769,-3.01019 3.36008,2.39961 5.86615,9.54758 4.24122,11.8793 -0.40174,0.57647 -1.36832,1.19312 -1.95292,1.09101 -0.63284,-0.11052 -1.40231,-0.95594 -1.60626,-1.6332 -0.27551,-0.91502 0.17642,-2.0562 -0.12066,-2.95608 -0.57535,-1.74265 -1.45584,-3.38452 -2.20987,-5.06818 -1.17615,1.01752 -2.2024,2.41001 -3.5672,2.95549 -1.62336,0.64885 -4.41217,1.41054 -5.1525,0.64011 -1.81223,-1.8859 -2.78705,-4.60091 -3.95328,-7.05155 -0.14303,-0.30055 0.53601,-1.08296 0.94806,-1.53909 1.00559,-1.11313 2.07797,-2.16583 3.12348,-3.24287 0.0711,1.38334 0.19567,2.7668 0.19271,4.14999 -0.002,0.78357 -0.21249,1.5667 -0.32919,2.85001 z"
       class="selected"
       inkscape:connector-curvature="0"
       style="opacity:1;fill:#000000;stroke:none" /><path
       id="path30"
       d="m 251.30309,249.2127 c 1.85391,-1.3877 1.93515,-3.06577 0.003,-3.08561 -2.55298,-0.0263 -5.23923,0.83582 -7.63443,1.8617 -1.54593,0.66214 -7.55918,0.4028 -8.16278,-1.21036 -0.25898,-0.69208 0.42575,-2.47561 0.97802,-2.61856 5.45456,-1.41186 11.06494,-3.87595 16.55484,-1.02777 1.86231,0.96616 2.70337,3.90076 4.01111,5.93582 -1.85019,0.96494 -3.65677,2.03443 -5.57574,2.83435 -0.61728,0.25733 -1.53077,-0.19589 -2.30875,-0.32406 0.62817,-0.70517 1.25632,-1.41034 2.13449,-2.36551 z"
       class="selected"
       inkscape:connector-curvature="0"
       style="opacity:1;fill:#000000;stroke:none" /><path
       id="path32"
       d="m 84.803092,227.7127 c 3.746566,-2.76905 4.098571,-5.85688 2.064087,-9.50405 -0.352158,-0.63128 -0.473786,-1.91583 -0.09321,-2.30812 0.569695,-0.58723 1.699532,-0.93745 2.55378,-0.87527 1.541908,0.1122 3.057815,0.88461 4.581627,0.87568 2.697464,-0.0158 3.006317,1.79602 1.6054,2.90816 -4.430557,3.51712 -1.714882,5.69489 0.976196,8.11997 0.537659,0.48452 0.901779,1.16156 1.345917,1.74984 -0.654686,0.42795 -1.340935,1.26477 -1.958908,1.21711 -3.881455,-0.2996 -7.747811,-0.79517 -11.617356,-1.24152 -0.03275,-0.004 -0.09321,-0.24908 -0.04874,-0.33261 0.07478,-0.14047 0.223564,-0.24155 0.591202,-0.60919 z"
       class="selected"
       inkscape:connector-curvature="0"
       style="opacity:1;fill:#000000;stroke:none" /><path
       id="path34"
       d="m 183.05309,100.9627 c 1.66666,3.84155 2.85767,7.67605 3.97505,11.53189 0.17787,0.61381 -0.0664,1.33876 0.042,1.98596 0.328,1.95828 2.59108,4.32135 -1.04871,5.2448 -0.21122,0.0536 -1.74241,-3.28518 -1.88671,-5.10642 -0.49849,-6.29091 -1.45658,-6.97845 -9.52713,-8.64343 -0.47864,-0.0987 -1.08815,0.16214 -1.47767,-0.0444 -1.37158,-0.7272 -2.67375,-1.58536 -4.00227,-2.39381 1.39624,-0.52486 3.24016,-1.89061 4.11034,-1.42734 3.5459,1.88774 6.319,-0.0489 9.81506,-1.14726 z"
       class="selected"
       inkscape:connector-curvature="0"
       style="opacity:1;fill:#000000;stroke:none" /><path
       id="path36"
       d="m 183.80309,182.2127 c 4.5461,4.58021 5.63458,9.3558 3.22577,13.66339 -0.39995,0.71525 -1.11964,1.25171 -1.69159,1.87079 -0.42807,-0.82259 -1.29672,-1.6948 -1.21054,-2.45942 0.45743,-4.05856 -0.53366,-4.90197 -4.70059,-3.52403 -3.02153,0.99916 -6.82166,0.79074 -9.35596,-2.31782 2.79488,-0.4943 5.58632,-1.00957 8.38718,-1.46724 0.64924,-0.10608 1.33067,-0.01 1.99716,-0.0171 1.05,-0.0118 2.0999,-0.0328 3.14984,-0.0499 -0.5257,-0.82485 -1.06628,-1.64067 -1.5733,-2.47686 -0.62499,-1.03068 -1.22206,-2.07833 -1.83119,-3.11866 1.11773,-0.11774 2.23548,-0.23548 3.60322,-0.10321 z"
       class="selected"
       inkscape:connector-curvature="0"
       style="opacity:1;fill:#000000;stroke:none" /><path
       id="path38"
       d="m 43.303092,23.712697 c -5.771393,-5.063965 -11.732598,-8.11837 -19.30584,-5.267456 -0.649132,0.244362 -1.580902,-0.262093 -2.381378,-0.419762 0.327652,-0.702842 0.527744,-1.906311 1.003593,-2.027557 3.169285,-0.807552 6.784733,-2.634541 9.52908,-1.784904 6.484562,2.007595 12.909305,4.800556 17.600124,10.107208 0.727432,0.822922 0.31057,2.657348 0.422875,4.024013 -0.937126,-0.524822 -1.914528,-0.989929 -2.801865,-1.588554 -1.305908,-0.88102 -2.547562,-1.857292 -4.066589,-3.042988 z"
       class="selected"
       inkscape:connector-curvature="0"
       style="opacity:1;fill:#000000;stroke:none" /><path
       id="path40"
       d="m 182.05309,343.9627 c -2.35443,0.33331 -4.36043,1.26254 -6.02254,0.83978 -1.8244,-0.46402 -4.36537,-1.90836 -4.74891,-3.40006 -0.66997,-2.60549 0.0719,-5.57403 0.22218,-8.39041 2.91419,0.54801 5.82837,1.09601 8.74255,1.64399 -0.30473,1.10223 -0.31588,2.44909 -0.98281,3.24954 -1.00708,1.20871 -2.47164,2.03631 -3.74175,3.02591 1.71205,0.0104 3.42441,0.0448 5.13603,0.0233 1.24222,-0.0156 2.48352,-0.10538 3.72522,-0.16205 -0.60998,1.0567 -1.21998,2.11338 -2.32997,3.17005 z"
       class="selected"
       inkscape:connector-curvature="0"
       style="opacity:1;fill:#000000;stroke:none" /><path
       id="path42"
       d="m 169.80309,284.7127 c 2.35861,-0.0833 4.54273,-0.19071 6.54521,0.36108 1.06412,0.29324 1.8134,1.72897 2.70479,2.64902 -0.86952,0.74664 -1.76633,1.4642 -2.60087,2.24808 -0.83222,0.78167 -1.60199,1.62985 -2.39913,2.44888 1.14015,0.20749 2.27284,0.51007 3.42221,0.6004 1.76814,0.13895 3.54915,0.11304 5.31825,0.24405 0.0878,0.007 0.28911,1.15942 0.14252,1.23975 -1.60943,0.88128 -3.23776,2.23877 -4.93681,2.35464 -6.31409,0.43064 -8.19713,-1.68194 -7.97659,-8.05227 0.0441,-1.27424 -0.30291,-2.56208 -0.21958,-4.09363 z"
       class="selected"
       inkscape:connector-curvature="0"
       style="opacity:1;fill:#000000;stroke:none" /><path
       id="path44"
       d="m 94.053092,241.9627 c -1.666664,-0.31717 -2.873673,-0.53482 -3.9861,-0.98578 -0.765998,-0.31052 -1.400947,-0.94434 -2.094467,-1.43366 -0.143387,0.80292 -0.240898,1.6174 -0.440376,2.40613 -0.340469,1.34631 -0.744911,2.67639 -1.122475,4.01331 -0.785522,-1.16971 -2.193618,-2.31787 -2.234939,-3.51331 -0.106102,-3.06921 -1.407006,-6.88516 2.840393,-8.44739 2.972732,-1.09338 9.656975,2.14136 10.603927,5.25666 0.164368,0.54074 -1.985176,1.78482 -3.565963,2.70404 z"
       class="selected"
       inkscape:connector-curvature="0"
       style="opacity:1;fill:#000000;stroke:none" /><path
       id="path46"
       d="m 170.80309,437.2127 c -0.43548,-1.06452 -0.96692,-2.00299 -0.72935,-2.6659 0.4059,-1.13272 1.5995,-2.00512 1.92479,-3.14077 1.2046,-4.20578 3.25657,-5.02524 6.07971,-1.73099 1.82734,2.13232 2.6835,5.09692 3.97485,7.6886 -3.24203,0.19967 -6.48309,0.42001 -9.72731,0.57354 -0.41582,0.0197 -0.84805,-0.30783 -1.52269,-0.72448 z"
       class="selected"
       inkscape:connector-curvature="0"
       style="opacity:1;fill:#000000;stroke:none" /><path
       id="path48"
       d="m 102.30309,107.7127 c 0.75,4.67643 1.27579,9.10031 1.71717,13.53258 0.0547,0.54959 -0.33918,1.14385 -0.52518,1.71742 -0.48067,-0.44438 -1.19728,-0.79966 -1.40418,-1.34745 -1.48656,-3.93595 -4.505582,-4.91212 -8.346036,-4.70631 -1.014282,0.0543 -2.133461,-0.41457 -3.073402,-0.89804 -0.65519,-0.33701 -1.086853,-1.10861 -1.61837,-1.68611 0.63649,-0.45403 1.227134,-1.18826 1.919395,-1.30156 1.289345,-0.21098 2.780426,-0.43331 3.935326,0.008 3.654297,1.39775 6.109707,1.86925 4.289978,-3.48211 -0.113381,-0.33341 1.855299,-1.37484 3.105299,-1.83687 z"
       class="selected"
       inkscape:connector-curvature="0"
       style="opacity:1;fill:#000000;stroke:none" /><path
       id="path50"
       d="m 233.30309,275.7127 c 0.20374,-2.70371 0.66849,-7.28192 1.10941,-7.27964 4.01465,0.0209 8.04739,0.73029 12.01443,1.53601 0.64679,0.13135 0.99771,1.71955 1.48538,2.6344 -0.99508,0.11976 -1.9895,0.33423 -2.98538,0.34143 -2.95761,0.0214 -5.95209,-0.39334 -7.56854,3.14359 -1.1311,2.47488 -2.58252,1.5285 -4.0553,-0.37579 z"
       class="selected"
       inkscape:connector-curvature="0"
       style="opacity:1;fill:#000000;stroke:none" /><path
       id="path52"
       d="m 263.30309,117.7127 c 0.54895,1.28439 0.8479,2.31877 1.14685,3.35316 -0.89728,-0.0344 -1.90567,0.18027 -2.66681,-0.15928 -1.26346,-0.56366 -2.34524,-1.52118 -3.54403,-2.2459 -2.89652,-1.75102 -4.81571,-0.69878 -5.22721,2.64773 -0.18545,1.50832 -0.81613,2.96189 -1.24481,4.4403 -0.81662,-1.34065 -2.24045,-2.65004 -2.31143,-4.02905 -0.11414,-2.21804 -0.0799,-5.47135 1.25516,-6.47684 1.67858,-1.26422 4.80746,-1.17162 7.16513,-0.78291 1.84073,0.30346 3.45965,1.95196 5.42715,3.25279 z"
       class="selected"
       inkscape:connector-curvature="0"
       style="opacity:1;fill:#000000;stroke:none" /><path
       id="path54"
       d="m 248.05309,259.9627 c -0.23328,1.06662 -0.46179,2.1242 -0.70053,2.12655 -3.84076,0.0372 -7.7019,0.11899 -11.5076,-0.28637 -0.71069,-0.0757 -1.87662,-2.40076 -1.62588,-3.37824 0.33645,-1.31161 1.76529,-3.20367 2.86782,-3.30578 4.24238,-0.39286 8.85242,-0.92972 10.96619,4.84384 z"
       class="selected"
       inkscape:connector-curvature="0"
       style="opacity:1;fill:#000000;stroke:none" /><path
       id="path56"
       d="m 177.05309,347.9627 c 1.5277,0.33334 2.69115,0.46466 3.55333,1.04425 1.54741,1.04019 2.91371,2.34973 4.3557,3.54675 -1.47086,0.46967 -2.95493,0.90222 -4.40831,1.42081 -1.15782,0.41311 -2.24207,1.16192 -3.42392,1.34701 -1.65131,0.25861 -4.05335,0.8309 -4.88873,0.007 -1.28495,-1.2678 -1.51212,-3.60764 -2.18807,-5.49265 2.16667,-0.6243 4.33333,-1.24857 7,-1.87286 z"
       class="selected"
       inkscape:connector-curvature="0"
       style="opacity:1;fill:#000000;stroke:none" /><path
       id="path58"
       d="m 250.80309,160.2127 c 0.27762,4.29687 -1.63476,4.39642 -4.63458,2.78058 -1.8468,-0.9948 -4.23282,-2.78832 -4.30628,1.583 -0.006,0.35097 -1.08831,0.68383 -1.6705,1.02509 -0.71289,-2.17461 -2.00393,-4.36974 -1.92779,-6.51633 0.0478,-1.34677 1.06091,-4.20686 4.23892,-2.30847 2.44528,1.46068 5.34988,2.15245 8.30023,3.43613 z"
       class="selected"
       inkscape:connector-curvature="0"
       style="opacity:1;fill:#000000;stroke:none" /><path
       id="path60"
       d="m 240.05309,179.9627 c 2.1806,0.33332 4.36279,0.13101 5.4245,1.12524 1.60239,1.5006 2.42276,3.83624 3.5755,5.81699 -1.56369,0.3526 -3.12253,0.7296 -4.69403,1.04304 -0.47702,0.0951 -0.99384,0.0597 -1.48434,0.008 -6.16111,-0.65117 -6.92411,-2.49372 -2.82163,-7.99315 z"
       class="selected"
       inkscape:connector-curvature="0"
       style="opacity:1;fill:#000000;stroke:none" /><path
       id="path62"
       d="m 240.05309,285.9627 c -2.33334,-0.98651 -4.16666,-1.97303 -6,-2.95957 2.11099,-0.68014 4.25128,-1.28244 6.32465,-2.06256 2.02804,-0.76312 4.32672,-1.3602 5.1232,1.11905 0.957,2.97894 1.09021,6.22607 1.47644,9.36984 0.0132,0.10761 -1.19867,0.63321 -1.64527,0.46079 -0.53543,-0.2067 -0.86834,-0.94928 -1.27783,-1.4686 -1.17007,-1.48392 -2.3345,-2.97232 -4.00119,-4.45895 z"
       class="selected"
       inkscape:connector-curvature="0"
       style="opacity:1;fill:#000000;stroke:none" /><path
       id="path64"
       d="m 255.30309,6.212697 c -3.93301,0.23365 -7.61963,0.29633 -11.29578,0.129154 -0.67321,-0.030613 -1.30389,-0.996082 -1.95422,-1.530025 0.67508,-0.616383 1.31854,-1.718414 2.03076,-1.764832 3.03952,-0.198097 6.10416,0.015923 9.14963,-0.129657 1.37259,-0.065621 2.75647,-0.986573 4.07269,-0.861462 1.61646,0.15366 3.16758,0.995327 4.74692,1.539574 -1.33453,0.789085 -2.61505,1.702682 -4.02646,2.31446 -0.70053,0.303658 -1.64139,0.052788 -2.72354,0.302788 z"
       class="selected"
       inkscape:connector-curvature="0"
       style="opacity:1;fill:#000000;stroke:none" /><path
       id="path66"
       d="m 172.80309,118.7127 c -1.75,-1.4153 -3.93582,-2.84502 -4.6058,-4.79543 -1.3534,-3.94 0.9075,-5.81422 4.91056,-4.34408 2.57619,0.94609 5.08118,2.15846 7.45806,3.52899 0.67981,0.392 0.80092,1.75287 1.17822,2.66948 -1.03361,0.0937 -2.06602,0.23292 -3.10138,0.25998 -0.44531,0.0117 -0.91902,-0.15625 -1.34128,-0.33414 -1.51187,-0.63695 -3.00721,-1.31305 -4.50882,-1.97437 0.0868,1.57985 0.17362,3.15972 0.0104,4.98957 z"
       class="selected"
       inkscape:connector-curvature="0"
       style="opacity:1;fill:#000000;stroke:none" /><path
       id="path68"
       d="m 94.053092,247.9627 c 1.666671,1.81454 3.177536,3.50549 3.888023,5.48385 0.540878,1.50608 0.06551,3.37717 0.04228,5.08585 -0.976768,-1.13678 -1.834335,-2.41464 -2.964676,-3.36966 -1.075515,-0.90872 -2.369499,-1.65726 -3.688949,-2.15244 -1.445458,-0.54248 -3.102661,-0.53723 -4.524292,-1.12011 -0.742867,-0.3046 -1.17817,-1.35929 -1.752388,-2.0752 0.838882,-0.61743 1.621017,-1.64206 2.528335,-1.76849 1.956459,-0.27262 3.977219,-0.0838 6.471665,-0.0838 z"
       class="selected"
       inkscape:connector-curvature="0"
       style="opacity:1;fill:#000000;stroke:none" /><path
       id="path70"
       d="m 97.303092,208.7127 c -0.996476,1.97662 -10.167435,3.06933 -9.996353,1.8397 0.435424,-3.12965 0.980316,-7.03503 3.041732,-8.95225 2.728951,-2.53806 3.508309,1.47647 4.684738,3.22375 0.77192,1.14653 1.353219,2.4214 2.269883,3.8888 z"
       class="selected"
       inkscape:connector-curvature="0"
       style="opacity:1;fill:#000000;stroke:none" /><path
       id="path72"
       d="m 180.80309,325.2127 c -0.70753,4.66827 -4.37388,2.8316 -6.53071,2.50879 -1.90032,-0.28446 -4.2437,-2.30704 -5.04326,-4.14771 -1.20378,-2.77121 2.03688,-4.97263 5.36328,-3.40878 2.24301,1.05447 3.99116,3.1615 6.21069,5.0477 z"
       class="selected"
       inkscape:connector-curvature="0"
       style="opacity:1;fill:#000000;stroke:none" /><path
       id="path74"
       d="m 119.80309,50.712697 c -1.61908,0.214256 -3.20027,0.610336 -4.31734,0.06159 -3.31636,-1.629166 -4.27488,-1.227791 -4.70252,2.449577 -0.0581,0.499176 -0.5313,1.009949 -0.9388,1.373611 -0.12911,0.115219 -0.93376,-0.16922 -0.98119,-0.374359 -0.5437,-2.351585 -1.80989,-4.938652 -1.25319,-7.028709 0.55464,-2.082352 3.04366,-3.377739 5.57971,-1.592514 2.29239,1.613701 4.5759,3.240043 6.61333,5.110809 z"
       class="selected"
       inkscape:connector-curvature="0"
       style="opacity:1;fill:#000000;stroke:none" /><path
       id="path76"
       d="m 175.05309,418.9627 c 6.43265,-2.23703 8.14458,-1.01044 7.91493,5.46808 -0.0128,0.36224 -1.36013,1.08993 -1.90939,0.9505 -2.66139,-0.67554 -5.29573,-1.49912 -7.87163,-2.45383 -1.44618,-0.53598 -2.76028,-1.42828 -4.13391,-2.16007 1.33902,-0.60156 2.66081,-1.24743 4.02719,-1.77865 0.42942,-0.16693 0.9785,-0.026 1.97281,-0.026 z"
       class="selected"
       inkscape:connector-curvature="0"
       style="opacity:1;fill:#000000;stroke:none" /><path
       id="path78"
       d="m 182.05309,89.962697 c -0.21107,-3.070137 -2.09343,-6.276009 2.50563,-7.003204 3.11611,-0.492691 10.12302,2.493675 10.39876,4.596634 0.0505,0.385162 -1.16794,1.357643 -1.75874,1.323974 -1.53446,-0.08745 -3.33075,-0.175651 -4.50931,-0.998588 -2.84928,-1.989479 -3.46234,-0.27047 -3.59346,1.939125 -0.25751,4.340118 -1.74744,1.802185 -3.04288,0.142059 z"
       class="selected"
       inkscape:connector-curvature="0"
       style="opacity:1;fill:#000000;stroke:none" /><path
       id="path80"
       d="m 250.80309,175.7127 c -2.67715,0.79742 -5.10428,-3.8078 -7.53143,0.25 -1.40619,-1.76009 -2.81238,-3.52019 -4.21857,-5.28028 1.0141,-0.57322 2.00736,-1.59855 3.04569,-1.64642 6.79825,-0.31342 8.60434,1.06387 8.70431,6.6767 z"
       class="selected"
       inkscape:connector-curvature="0"
       style="opacity:1;fill:#000000;stroke:none" /><path
       id="path82"
       d="m 92.803092,127.7127 c -0.171387,-0.75 -0.645554,-1.70603 -1.004265,-1.66452 -1.077385,0.12469 -2.109734,0.63856 -3.159645,1.00061 0.06713,-1.45786 -0.410225,-3.41605 0.34684,-4.2399 0.841308,-0.91554 3.015289,-1.40097 4.234596,-0.98251 1.694839,0.58166 3.470055,1.92048 4.381004,3.4345 0.574707,0.95516 0.120201,3.52704 -0.737785,4.11831 -1.364731,0.94049 -3.800972,1.81163 -4.060745,-1.66649 z"
       class="selected"
       inkscape:connector-curvature="0"
       style="opacity:1;fill:#000000;stroke:none" /><path
       id="path84"
       d="m 58.053092,43.962697 c 0.333328,3.022629 0.776283,5.538017 0.943641,8.07161 0.06304,0.954422 -0.512283,1.951019 -0.796592,2.92839 -0.715683,-0.907562 -1.839569,-1.719055 -2.079522,-2.738579 -1.360496,-5.780578 -2.551116,-11.602905 -3.677757,-17.434547 -0.140762,-0.7286 0.437523,-1.59613 0.68264,-2.399284 0.587937,0.302879 1.547272,0.476699 1.704521,0.929229 1.164048,3.349892 2.168473,6.755257 3.223069,10.643181 z"
       class="selected"
       inkscape:connector-curvature="0"
       style="opacity:1;fill:#000000;stroke:none" /><path
       id="path86"
       d="m 171.30309,226.2127 c 4.61392,-2.00016 5.11284,-1.79593 5.81526,1.65811 0.0928,0.45614 1.12427,0.67001 1.62734,1.10452 1.13365,0.97919 2.20857,2.02637 3.3074,3.04587 -1.44328,0.31384 -3.08899,1.22366 -4.28744,0.81662 -2.44596,-0.83072 -4.71592,-2.27252 -6.89228,-3.71344 -0.36674,-0.24283 0.0988,-1.74265 0.42972,-2.91168 z"
       class="selected"
       inkscape:connector-curvature="0"
       style="opacity:1;fill:#000000;stroke:none" /><path
       id="path88"
       d="m 174.05309,406.9627 c 2.33333,1.34744 4.16667,2.69491 6,4.04236 -1.33368,0.9859 -2.53267,2.38552 -4.02875,2.87255 -3.23335,1.05259 -5.10608,-1.3522 -6.97125,-3.45727 1.5,-1.15256 3,-2.30509 5,-3.45764 z"
       class="selected"
       inkscape:connector-curvature="0"
       style="opacity:1;fill:#000000;stroke:none" /><path
       id="path90"
       d="m 96.803092,136.2127 c 0.550193,2.962 -0.341271,5.9037 -3.093384,5.48423 -2.399742,-0.36576 -4.931381,-2.65913 -6.503197,-4.77162 -1.235557,-1.66055 2.315849,-4.61512 4.544754,-3.69925 1.690079,0.69448 3.20755,1.80902 5.051827,2.98664 m -4.25,3.75 c 0.188247,-0.81176 0.450264,-1.62032 0.485756,-2.43871 0.0054,-0.12373 -1.044007,-0.29323 -1.6055,-0.44156 0.206581,0.79343 0.413163,1.58684 1.119744,2.88027 z"
       class="selected"
       inkscape:connector-curvature="0"
       style="opacity:1;fill:#000000;stroke:none" /><path
       id="path92"
       d="m 248.05309,148.9627 c 0.91141,0.92192 1.32285,1.84382 1.73425,2.76574 -2.16101,0.41143 -4.56903,1.59777 -6.41168,1.01043 -1.74872,-0.55736 -2.90549,-2.97171 -4.32257,-4.56948 1.75067,-1.06891 3.47391,-2.19417 5.30988,-3.08793 0.13125,-0.0639 1.48541,1.5471 1.53015,2.41742 0.0335,0.65222 -1.12445,1.3657 -1.75192,2.05192 1.13729,-0.19603 2.27459,-0.39206 3.91189,-0.5881 z"
       class="selected"
       inkscape:connector-curvature="0"
       style="opacity:1;fill:#000000;stroke:none" /><path
       id="path94"
       d="m 89.053092,151.9627 c 0.0247,-2.52469 0.04939,-4.5494 0.07409,-6.57407 2.686859,0.40291 5.401352,0.68977 8.034897,1.31665 0.469184,0.11171 0.602577,1.63405 0.891014,2.50504 -0.738503,0.0123 -1.50354,0.15565 -2.210572,0.0125 -2.187698,-0.44294 -4.354751,-1.01852 -3.797508,2.56967 0.162911,1.049 0.228722,2.11306 0.339028,3.17022 -1.110314,-0.83333 -2.220635,-1.66666 -3.330948,-3 z"
       class="selected"
       inkscape:connector-curvature="0"
       style="opacity:1;fill:#000000;stroke:none" /><path
       id="path96"
       d="m 180.30309,239.7127 c 0.36759,0.36758 0.48517,0.4852 0.60277,0.60278 -1.00407,0.88242 -2.28104,2.68719 -2.96425,2.48508 -2.72978,-0.80762 -5.29787,-2.19681 -7.82329,-3.56058 -0.13069,-0.0706 0.58791,-2.70297 1.07932,-2.76288 1.9751,-0.24078 4.09993,-0.24264 6.00149,0.27915 1.11493,0.30593 1.91323,1.76571 3.10396,2.95645 z"
       class="selected"
       inkscape:connector-curvature="0"
       style="opacity:1;fill:#000000;stroke:none" /><path
       id="path98"
       d="m 179.05309,250.9627 c -2.32698,0 -4.18986,0.21567 -5.96757,-0.0803 -1.07888,-0.17956 -2.02608,-1.15017 -3.03243,-1.76544 1.06961,-0.71808 2.12657,-2.01196 3.21144,-2.03583 2.34481,-0.0515 4.72804,0.43638 7.04552,0.93573 0.94913,0.20453 1.76886,1.00959 2.64744,1.54145 -1.13479,0.46814 -2.26959,0.93628 -3.9044,1.40442 z"
       class="selected"
       inkscape:connector-curvature="0"
       style="opacity:1;fill:#000000;stroke:none" /><path
       id="path100"
       d="M 4.803092,64.212697 C 5.386428,67.782903 5.782195,71.098851 6.008956,74.42632 6.065264,75.252637 5.574591,76.116239 5.335345,76.962697 4.574597,76.277791 3.363764,75.717626 3.133225,74.885778 2.266682,71.759046 1.382678,68.565251 1.17759,65.353643 1.051501,63.379079 2.355885,61.850614 4.803092,64.212697 Z"
       class="selected"
       inkscape:connector-curvature="0"
       style="opacity:1;fill:#000000;stroke:none" /><path
       id="path102"
       d="m 180.80309,158.2127 c -2.84154,1.08332 -5.91669,1.99311 -9.04326,2.66285 -0.44012,0.0943 -1.31344,-0.89698 -1.6325,-1.55682 -0.16765,-0.34674 0.35125,-1.48311 0.69613,-1.54877 3.24216,-0.61737 6.58902,-3.9248 9.97963,0.44274 z"
       class="selected"
       inkscape:connector-curvature="0"
       style="opacity:1;fill:#000000;stroke:none" /><path
       id="path104"
       d="m 171.80309,11.712697 c -2.39407,0.25 -4.5464,0.355236 -6.67737,0.188114 -0.66966,-0.05252 -1.28193,-0.836685 -1.92048,-1.285969 0.66002,-0.55072 1.25166,-1.440799 1.99258,-1.590103 2.46776,-0.497265 4.9821,-0.811454 7.49313,-1.023262 1.07657,-0.090805 2.18895,0.243168 3.28507,0.38414 -0.74353,0.794911 -1.43195,1.653992 -2.25282,2.358822 -0.43879,0.376744 -1.10599,0.487473 -1.92011,0.968258 z"
       class="selected"
       inkscape:connector-curvature="0"
       style="opacity:1;fill:#000000;stroke:none" /><path
       id="path106"
       d="m 19.053092,89.962697 c -2.910202,-1.74353 -5.354332,-3.444519 -7.677491,-5.297203 -0.229297,-0.182846 0.176945,-1.352844 0.505494,-1.943871 0.118126,-0.212493 1.009575,-0.266441 1.321846,-0.05639 2.332599,1.569015 4.662723,3.155853 6.837036,4.929107 0.289192,0.235855 -0.302914,1.552323 -0.986885,2.368355 z"
       class="selected"
       inkscape:connector-curvature="0"
       style="opacity:1;fill:#000000;stroke:none" /><path
       id="path108"
       d="m 176.30309,277.7127 c 1.3441,0.82257 2.4382,1.39514 3.5323,1.96768 -1.1353,0.42743 -2.26852,0.86062 -3.40855,1.27505 -0.1449,0.0527 -0.33879,0.0488 -0.48749,0.001 -2.1709,-0.69751 -4.33914,-1.40356 -6.49119,-2.15576 -0.0242,-0.008 0.15001,-0.94794 0.2722,-0.95795 2.10711,-0.17291 4.22062,-0.26794 6.58273,-0.13006 z"
       class="selected"
       inkscape:connector-curvature="0"
       style="opacity:1;fill:#000000;stroke:none" /><path
       id="path110"
       d="m 6.303092,29.212697 c 1.083332,-0.310398 1.916668,-0.370792 2.75,-0.43119 0,0.163822 0.038978,0.339241 -0.00582,0.489723 -0.737789,2.478317 -1.472549,4.958168 -2.31475,7.400871 -0.019905,0.05775 -1.870848,-0.393036 -1.860693,-0.465538 0.316454,-2.258789 0.758485,-4.499977 1.431261,-6.993866 z"
       class="selected"
       inkscape:connector-curvature="0"
       style="opacity:1;fill:#000000;stroke:none" /><path
       id="path112"
       d="m 177.30309,127.2127 c -1.27882,0.5545 -2.30763,0.85902 -3.33646,1.16354 -0.15216,-1.45688 -0.71765,-3.0545 -0.28897,-4.31363 0.22791,-0.66937 2.17835,-0.75229 3.35126,-1.09991 0.17473,1.33333 0.34944,2.66667 0.27417,4.25 z"
       class="selected"
       inkscape:connector-curvature="0"
       style="opacity:1;fill:#000000;stroke:none" /><path
       id="path114"
       d="m 29.053092,93.962697 c -1.281403,-0.114731 -2.062802,-0.229477 -2.844204,-0.344208 0.363796,-0.800995 0.546966,-2.093689 1.126774,-2.306686 1.476066,-0.542252 3.144088,-0.839951 4.704982,-0.743782 0.674485,0.04156 1.274254,1.295792 1.907956,1.999153 -1.465168,0.465164 -2.93034,0.930344 -4.895508,1.395523 z"
       class="selected"
       inkscape:connector-curvature="0"
       style="opacity:1;fill:#000000;stroke:none" /><path
       id="path116"
       d="m 92.053092,196.9627 c -1.666672,-0.39618 -2.833336,-0.79236 -4,-1.18856 0.824592,-0.9284 1.5662,-2.51315 2.493354,-2.63038 1.368264,-0.17299 2.868577,0.69836 4.312661,1.12497 -0.768669,0.89799 -1.537339,1.79599 -2.806015,2.69397 z"
       class="selected"
       inkscape:connector-curvature="0"
       style="opacity:1;fill:#000000;stroke:none" /><path
       id="path118"
       d="M 4.053092,43.962697 C 2.821759,44.89803 1.59043,45.333364 0.359099,45.768697 0.257098,44.671338 -0.243179,43.397748 0.146176,42.517789 0.734292,41.188634 1.942839,40.134 2.887717,38.962697 c 0.38846,1.5 0.776918,3 1.165375,5 z"
       class="selected"
       inkscape:connector-curvature="0"
       style="opacity:1;fill:#000000;stroke:none" /><path
       id="path120"
       d="m 52.303092,80.212697 c -0.916672,-0.08171 -1.583336,-0.413422 -2.25,-0.745132 0.93473,-1.501625 1.765648,-3.091057 2.895958,-4.427239 0.213806,-0.252762 1.616935,0.500542 2.47129,0.78962 -0.381752,0.803596 -0.67514,1.667656 -1.171379,2.392906 -0.450554,0.658455 -1.121887,1.165848 -1.945869,1.989845 z"
       class="selected"
       inkscape:connector-curvature="0"
       style="opacity:1;fill:#000000;stroke:none" /><path
       id="path122"
       d="m 59.303092,61.212697 c 1.083336,-0.308845 1.916664,-0.367691 2.75,-0.426536 -0.333336,1.830383 -0.538346,3.699722 -1.075409,5.468238 -0.168938,0.556328 -1.229096,0.841996 -1.881348,1.251542 -0.235252,-0.793587 -0.681068,-1.593583 -0.65715,-2.379273 0.03734,-1.226417 0.393074,-2.443138 0.863907,-3.913971 z"
       class="selected"
       inkscape:connector-curvature="0"
       style="opacity:1;fill:#000000;stroke:none" /><path
       id="path124"
       d="m 62.053092,98.962697 c -1.248955,-0.584381 -1.99791,-1.168747 -2.746865,-1.753128 1.677948,-0.748947 3.328331,-1.5746 5.052719,-2.194351 0.445427,-0.16008 1.123139,0.326187 1.694146,0.515533 -0.807694,0.810654 -1.611489,1.625229 -2.424904,2.4301 -0.348038,0.344375 -0.716118,0.668518 -1.575096,1.001846 z"
       class="selected"
       inkscape:connector-curvature="0"
       style="opacity:1;fill:#000000;stroke:none" /><path
       id="path126"
       d="m 98.053092,90.962697 c 1.637176,0.470512 2.774348,0.941017 3.911528,1.41153 -0.72075,0.529487 -1.47271,1.535873 -2.155867,1.491165 -1.515068,-0.09918 -2.995621,-0.725754 -4.490235,-1.137268 0.744858,-0.588478 1.489716,-1.176949 2.734574,-1.765427 z"
       class="selected"
       inkscape:connector-curvature="0"
       style="opacity:1;fill:#000000;stroke:none" /><path
       id="path128"
       d="m 0.053092,57.962697 c 0.352546,-1.852547 0.705091,-3.205093 1.057638,-4.55764 0.470957,0.176048 1.336782,0.325836 1.350511,0.532295 0.111607,1.678276 0.063704,3.367165 0.064375,5.052819 -0.824175,-0.17582 -1.648349,-0.351647 -2.472524,-1.027474 z"
       class="selected"
       inkscape:connector-curvature="0"
       style="opacity:1;fill:#000000;stroke:none" /><path
       id="path130"
       d="m 12.303092,25.712697 c -0.143841,-1.022823 -0.304589,-2.03305 0.126079,-2.517227 0.805321,-0.90538 1.953724,-1.505596 2.959389,-2.232773 0.221512,1.019634 0.963715,2.462547 0.55278,2.968052 -0.780914,0.960621 -2.22158,1.384914 -3.638248,1.781948 z"
       class="selected"
       inkscape:connector-curvature="0"
       style="opacity:1;fill:#000000;stroke:none" /><path
       id="path132"
       d="m 235.05309,3.962693 c -1.0741,0.666672 -2.14831,0.9664 -3.22223,0.965142 -1.24392,-0.00147 -2.48761,-0.267548 -3.73138,-0.418751 0.0798,-0.44405 0.082,-1.239895 0.25145,-1.277233 1.54249,-0.339955 3.10942,-0.676174 4.67943,-0.733212 0.66168,-0.024032 1.34774,0.622391 2.02273,1.464054 z"
       class="selected"
       inkscape:connector-curvature="0"
       style="opacity:1;fill:#000000;stroke:none" /><path
       id="path134"
       d="m 172.30309,488.2127 c 1.01462,0.98535 1.77924,2.22076 2.54385,3.45611 -0.79353,0.40241 -1.58706,0.80475 -2.3806,1.20716 -0.13775,-1.47107 -0.27551,-2.9422 -0.16325,-4.66327 z"
       class="selected"
       inkscape:connector-curvature="0"
       style="opacity:1;fill:#000000;stroke:none" /><path
       id="path136"
       d="m 45.303092,90.212697 c -1.006478,0.416664 -1.841324,0.865814 -2.500817,0.682861 -0.955711,-0.265098 -1.784652,-0.987197 -2.667671,-1.514373 0.95987,-0.472832 1.950501,-1.367852 2.871033,-1.300782 0.937034,0.06827 3.884781,-1.556343 2.297455,2.132294 z"
       class="selected"
       inkscape:connector-curvature="0"
       style="opacity:1;fill:#000000;stroke:none" /><path
       id="path138"
       d="m 89.803092,91.712697 c 0.89714,0.436188 1.544281,1.122383 2.191421,1.808579 -0.576179,0.384765 -1.152366,0.769531 -1.728554,1.154296 -0.237625,-0.904296 -0.47525,-1.808586 -0.462867,-2.962875 z"
       class="selected"
       inkscape:connector-curvature="0"
       style="opacity:1;fill:#000000;stroke:none" /><path
       id="path140"
       d="m 71.303092,3.712697 c 0.769523,-0.563808 1.783592,-0.902592 2.822059,-1.129814 0.0628,-0.013737 0.319847,0.86029 0.486519,1.321236 -1.019523,0.019527 -2.039055,0.039054 -3.308578,-0.191422 z"
       class="selected"
       inkscape:connector-curvature="0"
       style="opacity:1;fill:#000000;stroke:none" /><path
       id="path142"
       d="m 70.053092,95.962697 c -0.32618,-0.666672 -0.152367,-1.333328 0.02145,-2 0.659507,0.253586 1.319023,0.507156 1.978546,0.760727 -0.5,0.413086 -1,0.826187 -2,1.239273 z"
       class="selected"
       inkscape:connector-curvature="0"
       style="opacity:1;fill:#000000;stroke:none" /></g></svg>