<?xml version="1.0" encoding="UTF-8" standalone="no"?>
<svg
   version="1.1"
   id="Contours"
   x="0px"
   y="0px"
   width="1324.9086"
   height="552"
   viewBox="0 0 1324.9086 552"
   xml:space="preserve"
   stroke="#000000"
   fill="none"
   stroke-linecap="round"
   stroke-linejoin="round"
   sodipodi:docname="good_exposure.svg"
   inkscape:version="1.3.2 (091e20e, 2023-11-25)"
   xmlns:inkscape="http://www.inkscape.org/namespaces/inkscape"
   xmlns:sodipodi="http://sodipodi.sourceforge.net/DTD/sodipodi-0.dtd"
   xmlns="http://www.w3.org/2000/svg"
   xmlns:svg="http://www.w3.org/2000/svg"><defs
   id="defs169" /><sodipodi:namedview
   id="namedview169"
   pagecolor="#ffffff"
   bordercolor="#000000"
   borderopacity="0.25"
   inkscape:showpageshadow="2"
   inkscape:pageopacity="0.0"
   inkscape:pagecheckerboard="0"
   inkscape:deskcolor="#d1d1d1"
   inkscape:zoom="0.17810802"
   inkscape:cx="662.51929"
   inkscape:cy="272.30666"
   inkscape:window-width="1608"
   inkscape:window-height="942"
   inkscape:window-x="0"
   inkscape:window-y="25"
   inkscape:window-maximized="0"
   inkscape:current-layer="Contours" />
<desc
   id="desc1">
</desc>
<path
   d="m 586.20859,339.3 c -15.5,4.1 -30.7,8.1 -45.9,11.8 -13.8,3.4 -27.6,6.6 -41.5,9.9 -6.8,1.6 -13.6,3.3 -20.4,5.1 -0.6,0.2 -1,1.5 -1.5,2.3 0.8,0.2 1.7,0.6 2.4,0.5 6.9,-1.1 13.7,-2.2 20.6,-3.4 8.5,-1.4 17,-3.1 25.6,-4.5 10.8,-1.7 21.6,-3.2 32.4,-5 17,-2.9 33.8,-6.1 50.8,-9 14.5,-2.4 29.1,-4.6 43.6,-7 15.6,-2.6 31.1,-5.5 46.7,-7.9 9,-1.4 18.1,-2 27.2,-3.1 13.8,-1.6 27.7,-3.3 41.4,-5.1 1.3,-0.2 2.1,-2.4 3.4,-3.5 0.9,-0.7 2.1,-1.1 3.1,-1.7 1.9,6.2 7,3.3 10.4,3 8.2,-0.7 16.3,-2.4 24.4,-3.7 10.6,-1.7 21.2,-3.5 31.8,-5.3 7.2,-1.2 14.3,-2.6 21.5,-3.7 19,-2.8 38.5,-2.4 57.2,-7.9 2.9,-0.8 6,-0.7 9.1,-1.1 0.5,-0.1 0.9,-0.5 1.4,-0.8 -0.5,-0.4 -1,-0.9 -1.6,-1.2 -0.4,-0.1 -1.1,0.2 -1.5,0 -1.3,-0.8 -2.5,-1.7 -3.8,-2.6 1.5,-0.4 3,-0.7 4.4,-1.4 5.6,-2.9 9.2,1.1 13,4.1 2.1,1.6 4,4.3 1.5,6.8 -2.8,2.7 -6.1,4.8 -9.3,7 -0.6,0.4 -1.8,-0.3 -2.7,-0.5 0.4,-0.7 0.7,-1.5 1.2,-2 1.6,-1.4 3.5,-2.4 4.8,-4 0.9,-1.1 1,-2.9 1.5,-4.4 -1.7,-0.3 -4.5,-1.3 -4.8,-0.8 -3.7,6.1 -10.5,5.5 -15.8,6.5 -12.3,2.3 -24.9,2.6 -37.3,4.4 -13.8,1.9 -27.4,4.7 -41.1,6.9 -9.4,1.5 -18.9,2.6 -28.4,4 -10.1,1.6 -20.3,3.3 -30.4,4.9 -5.6,0.8 -11.1,1.4 -16.7,2.1 -15.6,2 -31.3,4 -47,6 -8.4,1 -16.8,1.8 -25.2,3.1 -8.7,1.3 -17.3,3.2 -26.1,4.6 -6.3,1 -12.7,1.3 -19,2.4 -13.1,2.1 -26.1,4.6 -39.1,6.9 -15.3,2.7 -30.5,5.4 -45.7,8 -16.2,2.7 -32.4,5.4 -48.7,8 -8,1.2 -16.2,1.9 -24.2,3 -12,1.6 -24,3.4 -36,5 -12.6,1.7 -25.3,3.3 -37.9,5 -2.9,0.5 -5.8,1.3 -8.6,2.1 -0.6,0.2 -1,0.9 -1.5,1.4 0.6,0.2 1.2,0.5 1.8,0.5 12.4,-0.7 24.8,-1.3 37.2,-2 1.2,-0.1 2.3,0 3.5,0 11.7,-0.3 23.5,-0.6 35.3,-1 7.8,-0.3 15.7,-0.7 23.5,-1 11.7,-0.4 23.4,-0.7 35.1,-1 12.6,-0.3 25.2,-0.6 37.8,-1 6.7,-0.2 13.4,-1.1 20.1,-0.9 8.4,0.2 16.7,1.5 25.1,1.8 6.4,0.2 12.8,-0.7 19.1,-0.9 8.6,-0.1 17.2,0.1 25.9,0 7.8,-0.2 15.7,-0.7 23.5,-1 5.3,-0.1 10.5,0 15.7,0 9.6,0 19.1,-0.2 28.7,0 25.2,0.6 50.4,1.5 75.7,1.9 12.5,0.2 25,-0.5 37.5,-0.9 10.9,-0.3 21.8,-0.6 32.6,-1 3.2,-0.2 6.4,-0.6 9.6,-1 0.5,-0.1 1.3,-0.6 1.3,-1 0.1,-3.2 0,-6.4 0,-9.6 0,-1 -0.1,-2.1 0.1,-3 0.2,-0.9 0.9,-1.6 1.4,-2.4 0.8,0.8 2.4,1.5 2.4,2.3 0.3,3.7 0.1,7.3 0.1,11 0,0.3 0.1,0.7 0,1 -1.2,3.1 1.5,1.7 2.2,1.6 12.2,-0.5 24.4,-1.1 36.6,-1.6 2.6,-0.1 5.2,0.4 7.8,0.8 0.9,0.1 1.6,0.8 2.4,1.3 -0.7,0.9 -1.4,1.9 -2.3,2.5 -0.4,0.4 -1.3,0.1 -1.9,0.1 -7.1,0 -14.2,-0.3 -21.2,0.1 -15.1,0.8 -30.2,2 -45.3,2.8 -7,0.4 -14.1,0.1 -21.2,0.1 -9.1,0 -18.2,-0.1 -27.3,0 -14.9,0.3 -29.7,0.9 -44.6,0.9 -11.8,0.1 -23.7,-0.8 -35.6,-0.9 -24,-0.1 -48.1,0 -72.2,0 -12.5,0 -25.1,-0.1 -37.6,0 -5.4,0.1 -10.9,1.5 -16.1,0.8 -14.3,-1.8 -28.5,-0.7 -42.8,-0.7 -18.3,-0.1 -36.7,0.4 -55.1,0.9 -14.3,0.5 -28.7,1.4 -43.1,2 -16.6,0.7 -33.1,1.4 -49.7,2 -11.4,0.4 -22.7,0.6 -34.1,1 -16.2,0.6 -32.4,1.4 -48.6,2 -3.8,0.1 -7.5,0.4 -11.2,-0.1 -5.7,-0.8 -7.4,-3.7 -6.1,-9.3 0.5,-1.9 1,-3.7 1,-5.6 0.1,-9.7 -0.1,-19.5 0.1,-29.2 0.2,-13.4 0.8,-26.8 0.9,-40.2 0.4,-37 0.9,-73.9 0.9,-110.8 0.1,-10.9 -1.2,-21.8 -1.9,-32.7 -1,-16.7 -1.3,-33.5 -3.1,-50.2 -3.3,-30.2 -2.7,-60.5 -3,-90.8 0,-5.4 -1.2,-10.7 -1.8,-16.1 -0.2,-1.2 -0.3,-2.4 0,-3.5 0.3,-0.9 1.2,-1.7 1.9,-2.5 0.7,0.6 1.7,1.1 2,1.8 0.8,2.3 1.8,4.8 2,7.2 0.5,9.3 0.9,18.7 1,28.1 0,5.3 -0.9,10.7 -0.9,16 0.1,11.2 0.5,22.4 1,33.6 0.5,11.6 1.3,23.1 1.9,34.7 0.7,10.7 1.4,21.4 2,32.2 0.7,10.4 1.3,20.9 2.1,31.3 0.2,3.4 0.7,6.7 0.9,10.1 0.3,4 3,4 6,4.1 1,0 2,0.7 3,1.1 -1,1 -2.2,2.8 -3.1,2.7 -5.6,-0.8 -6.3,2.1 -5.9,6.6 0.5,6.9 0.9,13.7 1,20.6 0,3.2 -0.9,6.4 -0.9,9.6 -0.1,12.1 -0.1,24.2 0,36.3 0,3.5 0.3,6.4 5.5,4.2 2.3,-0.9 5.5,0.7 8.3,1.2 -2.4,0.9 -4.7,2.1 -7.2,2.5 -4.5,0.9 -6.8,2.5 -6.8,7.9 0,22 -0.4,44 -0.9,66.1 -0.3,8.8 -1.3,17.5 -1.9,26.3 0,0.2 1.2,0.9 1.5,0.7 4.2,-2.4 8.3,-4.9 12.4,-7.4 8,-4.8 15.9,-9.9 24,-14.4 19.7,-10.9 39.7,-21.2 59.2,-32.2 20.9,-11.7 41.4,-24 62.2,-35.9 10.7,-6.1 21.8,-11.7 32.7,-17.6 0.7,-0.4 1.3,-1 1.9,-1.5 -0.7,-0.6 -1.4,-1 -2.1,-1.6 -1,-0.7 -1.9,-1.4 -2.9,-2.1 1.2,-0.4 2.6,-1.3 3.6,-1.1 10.6,2.1 18.6,-4.2 27.1,-8.4 9,-4.5 17.6,-9.8 26.4,-14.7 18.2,-10 36.5,-19.8 54.5,-30.1 9.4,-5.3 18.2,-11.6 27.4,-17.3 2.1,-1.3 4.6,-1.8 6.8,-2.9 0.6,-0.3 0.8,-1.3 1.2,-1.9 -0.6,-0.3 -1.3,-0.7 -2,-0.8 -1,-0.1 -2,0.1 -3,0 -1.3,-0.2 -2.6,-0.6 -4,-0.8 1.3,-1.1 2.5,-2.3 3.9,-3.1 0.7,-0.5 2.1,-0.4 2.9,-0.1 7.8,3.3 13.1,-1.8 19,-5.2 8.4,-4.8 16.8,-9.4 25.3,-13.8 17.3,-8.9 34.7,-17.7 52,-26.6 18.4,-9.4 34.5,-22.2 51.7,-33.4 14.8,-9.7 30.2,-18.6 45.9,-26.8 13.5,-7.2 27.3,-13.8 39.3,-23.5 1,-0.8 2.7,-0.8 4,-1.2 -0.7,1.7 -0.9,4.2 -2.2,5 -11.7,7.3 -23.5,14.6 -35.6,21.4 -10.8,6.2 -22.4,11.3 -33.1,17.7 -10.7,6.6 -21,13.9 -31.1,21.5 -21.4,15.8 -45.3,27 -68.9,38.9 -12.8,6.5 -25.5,13.4 -38.2,20 -1.9,1 -4,1.6 -5.9,2.6 -0.8,0.4 -1.2,1.4 -1.8,2.1 0.9,0.4 1.7,1.2 2.5,1.2 2.3,0.2 4.7,0 7,0.2 0.8,0 1.5,0.9 2.3,1.4 -0.6,0.5 -1.3,1.4 -1.9,1.4 -3.5,0 -7.3,1.5 -10.5,-1.6 -0.8,-0.7 -3.4,-0.3 -4.7,0.4 -13.6,8.4 -27.1,16.8 -40.5,25.3 -7.6,4.8 -14.7,10.3 -22.5,14.5 -12.4,6.7 -25.2,12.4 -37.7,18.9 -13.4,7.1 -26.7,14.5 -39.9,21.9 -21.3,11.8 -42.5,23.8 -63.7,35.7 -19.5,10.9 -39,21.7 -58.6,32.5 -21.5,11.9 -43.2,23.6 -64.7,35.6 -1.1,0.6 -1.8,1.9 -2.7,2.9 1.4,0 2.9,0.3 4.1,-0.2 10.4,-5.3 20.7,-11.1 31.3,-16.2 23,-10.9 46,-21.7 69.2,-32.1 21,-9.5 42.3,-18.5 63.5,-27.7 20.1,-8.6 40.2,-17.2 60.3,-25.8 1.6,-0.7 2.6,-1.3 0.8,-2.8 -0.6,-0.5 -1,-1.4 -1.4,-2.1 0.9,-0.1 2.1,-0.8 2.7,-0.4 3.8,2.4 7.2,1 10.7,-0.7 10.7,-5.2 21.4,-10.2 32.1,-15.4 14.7,-7.1 29.3,-14.6 44.1,-21.6 19.5,-9.2 39.1,-18.2 58.7,-27.1 11.8,-5.4 23.7,-10.5 35.4,-16 1.9,-0.8 3.3,-2.7 4.9,-4 0.6,-0.5 1.2,-1.1 1.9,-1.2 7.3,-0.8 6.6,-7.1 8.1,-11.8 0.2,-0.4 -0.1,-1.1 0.1,-1.4 0.9,-1.6 2,-3 3,-4.5 0.6,1.8 1.6,3.6 1.9,5.4 0.3,2.7 0.1,5.4 0.1,8.2 2.2,-1.3 4.4,-2.6 6.6,-3.8 20.1,-10.6 40.2,-21.2 60.3,-31.8 13.9,-7.4 27.9,-14.7 41.8,-22.3 8.9,-5 17.7,-10.3 26.4,-15.8 1.8,-1.1 2.6,-3.7 3.8,-5.7 0.7,-1 1.6,-3.1 1.6,-3.1 3.3,1.4 7,2.5 9.4,4.8 1.1,1.1 0.5,5.4 -0.8,7.1 -2.2,3 -5.4,5.3 -8.3,7.5 -0.8,0.6 -2.4,0.2 -3.7,0.2 0.7,-0.9 1.2,-1.9 2,-2.7 2.2,-2.3 4.7,-4.4 6.8,-6.9 0.7,-0.9 0.5,-2.6 0.7,-3.9 -1.4,0.3 -3.5,0.2 -4.3,1.1 -7.6,8.5 -17.8,13.1 -27.4,18.6 -12,6.9 -24.6,13 -36.8,19.5 -20.7,10.9 -41.3,21.9 -61.9,32.8 -4.4,2.3 -8.9,4.5 -13.4,6.4 -3.8,1.6 -4,4.6 -3.8,7.8 0.1,1.4 0.8,2.8 0.9,4.1 0.1,1.5 -0.3,3 -0.5,4.5 -0.8,-1.3 -1.4,-3 -2.5,-3.8 -2.4,-1.7 -5.8,-2.3 -5.9,-6.2 -1.2,0.3 -2.4,0.5 -3.6,1 -12.8,6 -25.7,11.9 -38.5,18 -8.1,3.9 -16,8.2 -24.1,12 -19.4,9.1 -38.9,17.8 -58.2,27.1 -14.1,6.7 -27.7,14.3 -41.9,20.8 -18.5,8.4 -37.4,16 -56,24.1 -7.6,3.3 -15.1,7.1 -22.7,10.4 -19.8,8.6 -39.6,17 -59.4,25.7 -8.6,3.7 -16.9,8.2 -25.4,12.1 -19.3,8.7 -38.6,17.2 -57.8,25.9 -7,3.2 -13.6,7.5 -20.7,10.4 -6,2.5 -12.5,3.7 -18.7,5.5 -0.6,0.2 -1.3,0.2 -1.9,0.3 0.5,0.6 0.9,1.7 1.4,1.7 3,0.4 6.1,0.7 9.1,0.8 1.2,0 2.4,-0.8 3.6,-0.8 16.1,0.8 31.3,-3 46.6,-7.2 10.1,-2.7 20.4,-4.5 30.6,-6.8 15.6,-3.5 31.1,-6.9 46.6,-10.6 16.7,-4 33.3,-8.1 49.9,-12.4 18,-4.7 35.9,-9.9 54,-14.4 14.8,-3.6 29.8,-6.3 44.6,-9.6 15.8,-3.6 31.5,-7.7 47.3,-11.3 13.3,-3.1 26.6,-5.9 39.9,-8.7 16.9,-3.4 33.9,-6.7 50.8,-10 12.9,-2.4 25.8,-4.5 38.6,-7 14.2,-2.8 28.2,-6.1 42.3,-8.9 12.9,-2.6 25.8,-4.7 38.6,-7.1 2.9,-0.5 5.3,-1.2 6.1,-5 0.9,-3.8 3.3,-7.3 5.3,-10.8 0.1,-0.3 2.5,0.1 2.5,0.4 0.5,3.4 0.9,6.7 1,10.1 0,2.2 0.4,1.7 2.2,1.4 5.5,-0.7 11.1,-0.7 16.7,-1.2 1.1,-0.1 2.1,-1.4 3.1,-2.1 -1.2,-0.6 -2.3,-1.5 -3.6,-1.7 -2.3,-0.6 -4.8,-0.5 -7,-1.2 -1.6,-0.4 -2.9,-1.6 -4.2,-2.5 1.6,-0.8 3.4,-2.4 5,-2.3 5.5,0.4 10.9,2.1 14.7,6.5 0.7,0.8 0.2,3.8 -0.8,4.5 -2.8,2.2 -6,3.8 -9.2,5.4 -0.9,0.5 -2.2,0.4 -3.3,0.5 0.2,-0.9 0.6,-1.8 0.6,-2.7 -0.1,-0.5 -1.1,-1.3 -1.3,-1.2 -5.7,2.6 -12.9,1.9 -17.6,7.1 -0.5,0.5 -2.2,1 -2.5,0.7 -4.8,-4.4 -10.1,-1.5 -14.8,-0.7 -14.1,2.5 -27.9,6 -41.9,8.8 -17.5,3.5 -35.2,6.7 -52.8,10 -1.4,0.3 -2.7,0.8 -4.1,1 -4.1,0.4 -7.1,1.6 -6.3,6.8 0.2,1.3 -1,2.8 -1.5,4.2 -0.8,-1.3 -2.3,-2.7 -2.2,-4 0.1,-3.6 -1.7,-4.5 -4.6,-4 -5.3,0.9 -10.5,2 -15.7,3 -9,1.7 -18,3.3 -27,5 -9.2,1.8 -18.5,3.4 -27.7,5.4 -10,2.3 -19.9,5.2 -29.9,7.6 -14.9,3.4 -29.9,6.7 -44.8,10 -12.1,2.7 -24.2,5.3 -36.2,8 -0.6,0.1 -1.2,0 -2,0.3"
   fill="#000000"
   stroke="none"
   id="path1" />
<path
   d="m 780.70859,506.3 c 0.4,7 4.1,12.1 9.2,15.9 1.4,1 4.4,0 6.6,-0.4 1.2,-0.2 2.1,-1.6 3.2,-1.7 2.9,-0.2 7.2,-0.9 7.4,2.9 0.1,2.8 -2.8,5.7 -4.3,8.6 -0.6,-0.6 -1.8,-1.2 -1.8,-1.9 0.1,-2 -0.3,-3 -2.6,-2.7 -10.8,1.1 -15.3,-0.7 -19.3,-10.8 -4.4,-11.1 -8.2,-22.7 -10.9,-34.4 -2.1,-8.8 -3.1,-18.2 -3.1,-27.3 0,-13.9 1.1,-27.8 1.9,-41.7 0.2,-2.5 1.2,-5.1 2,-7.6 0.3,-1.1 1,-2 1.6,-3.1 0.8,1.2 2.1,2.3 2.2,3.6 0.2,2.2 -0.4,4.4 -0.7,6.6 -0.7,5.5 -1.9,11.1 -2.1,16.6 -0.3,12.2 -0.3,24.3 0,36.5 0.4,12.5 3.5,24.4 8.7,35.8 0.7,1.6 1.2,3.2 2,5.1"
   fill="#000000"
   stroke="none"
   id="path2" />
<path
   d="m 1150.2086,84 c -1,-6.3 2.2,-11.2 5.4,-16.1 1.4,-2.3 2.8,-4.6 4.4,-6.7 0.6,-0.9 1.7,-1.4 2.6,-2.1 0.3,1.3 1.3,2.9 0.8,3.7 -2.1,3.9 -4.7,7.4 -6.9,11.2 -1,1.8 -1.5,3.8 -2.3,5.8 1.7,-0.6 3.6,-0.8 5.1,-1.8 2,-1.3 3.9,-3.1 5.6,-4.9 2.7,-3 5.2,-6.2 7.8,-9.2 0,-0.1 1.1,0.3 1.3,0.7 1.4,2.4 2.6,4.9 3.9,7.4 0.2,0.3 0.6,0.8 0.7,0.8 2.3,-0.9 4.5,-2 6.8,-2.7 1.8,-0.6 4.6,-3.2 4.8,1.6 0,0.3 1.4,0.9 1.7,0.8 0.8,-0.7 1.4,-1.6 2,-2.5 1,-1.6 1.9,-3.1 2.9,-4.6 0.4,1.6 1,3.3 1.1,5 0.1,3.2 -0.3,6.5 4.1,7.1 2.5,0.4 6.9,-3.5 6.8,-6.9 -0.1,-2.5 -1.4,-5 -2.3,-7.5 -0.3,-1 -0.9,-1.9 -1.4,-2.8 1.5,-0.1 4,-0.6 4.2,-0.2 1.5,3.4 3.2,6.9 3.5,10.5 0.4,4.8 -3.6,8.9 -8.6,10.7 -3.6,1.3 -7,-0.1 -8.1,-2.9 -2.5,-7 -4.2,0.4 -6.1,-0.1 -1,-0.3 -2.7,4.2 -3.1,-0.4 -0.1,-1.6 -0.5,-3.3 -0.8,-4.9 -2.7,0.8 -5.6,1.2 -8,2.5 -1.9,1 -3.1,3.3 -4.9,4.7 -2.2,1.6 -4.4,3 -7.3,0.5 -1,-0.8 -3.8,0.1 -5.6,0.5 -3.3,0.8 -6.6,1.9 -10.1,2.8 m 20.2,-12 c -1,2.3 -2.1,4.6 -3.1,6.9 2.3,-1.6 4.8,-3 6.8,-4.8 0.6,-0.5 -0.1,-2.4 -0.2,-3.6 -0.8,0.5 -1.6,1 -3.5,1.5"
   fill="#000000"
   stroke="none"
   id="path3" />
<path
   d="m 525.70859,262.7 c -7.1,4.2 -14,2.8 -19,-3.2 -0.6,-0.8 -3.7,-0.8 -4.6,0 -3.5,3.2 -7.1,2.6 -11,1.2 -0.7,-0.3 -1.7,-0.9 -2.1,-0.6 -7.3,3.6 -3.8,-2.7 -3.9,-4.6 -0.1,-2.2 1,-4.5 2,-6.6 0.3,-0.7 2.8,-1.3 2.9,-1.1 1.8,2.7 3.3,5.5 5,8.2 0.4,0.6 1.7,1.1 2.3,0.9 1.9,-0.7 4,-1.5 5.6,-2.8 1.1,-0.9 1.3,-3 2.4,-3.9 2.2,-1.6 4.8,-2.8 7.2,-4.1 0.8,3.5 2.7,7.2 2.2,10.4 -0.7,3.7 1.6,3.9 3.4,4.3 0.6,0.1 2.5,-2.4 2.7,-3.8 0.7,-4.2 0.6,-8.3 5.3,-10.9 3.1,-1.8 5.6,-3 8.5,-0.8 2.3,1.7 1.9,7.5 -0.6,10.1 -2.5,2.5 -5.4,4.7 -8.3,7.3 m 4.2,-8.2 c 0.7,-2 1.3,-4 1.9,-6.1 0,0 -1.1,-0.5 -1.2,-0.4 -1.6,1.8 -3.2,3.5 -4.6,5.4 -0.4,0.6 -0.3,1.6 -0.3,2.4 0,0.5 0.2,1.1 0.2,1.7 0.5,-0.1 1.1,-0.1 1.4,-0.4 0.8,-0.6 1.4,-1.4 2.6,-2.6"
   fill="#000000"
   stroke="none"
   id="path4" />
<path
   d="m 449.90859,465 c -6,0.7 -11.6,2 -17.1,1.7 -2.2,-0.1 -5.1,-3.3 -6.3,-5.8 -3.6,-7.8 0.4,-22.7 7.6,-27.2 2.2,-1.4 6,-1.2 8.7,-0.4 1.5,0.4 2.2,3.6 3.1,5.6 0.1,0.5 -0.8,1.4 -1.1,2.1 -0.7,-0.5 -1.4,-0.9 -1.8,-1.5 -2.2,-3.1 -5.7,-3.7 -8.2,-0.8 -3.7,4.5 -6.3,9.4 -4.1,15.6 0.3,1 -0.2,2.5 0.3,3.3 1.1,1.7 2.7,4.2 4.1,4.2 7.2,-0.2 14.5,-0.7 21.6,-2 3.5,-0.6 5.1,-3.7 4,-7.5 -0.4,-1.2 -1.2,-2.3 -1.3,-3.4 -0.1,-0.9 0.6,-1.9 0.9,-2.8 0.6,0.5 1.2,1 1.7,1.5 0.2,0.1 0.3,0.2 0.4,0.4 2.7,4.7 2.6,4.7 5.6,0.5 0.6,-0.9 1.8,-1.5 2.7,-2.2 0.1,1.5 0.9,3.8 0.1,4.5 -5,4.8 -2.1,8.1 1.8,11.5 0.8,0.6 0.8,2.2 1.2,3.3 -1.1,-0.2 -2.4,-0.1 -3.3,-0.7 -1.1,-0.6 -2.1,-1.7 -2.9,-2.8 -2.2,-3.1 -3.6,-2.2 -6.5,-0.2 -2.8,2.1 -7.1,2.2 -11.2,3.1"
   fill="#000000"
   stroke="none"
   id="path5" />
<path
   d="m 1146.2086,435.8 c 0.1,-4.3 0.3,-8.4 0.8,-12.4 0.1,-0.8 0.9,-1.6 1.4,-2.4 0.5,0.8 1.4,1.5 1.5,2.3 0.1,2.9 -0.1,5.8 0.1,8.7 0.1,1 0.8,2 1.2,3 0.9,-0.9 2.4,-1.6 2.6,-2.7 0.7,-2.6 0.8,-5.3 1.2,-8 0.1,-0.8 0.6,-1.5 0.9,-2.3 0.7,0.6 1.6,1.1 2,1.9 0.3,0.7 0.1,1.6 0,2.5 -0.2,2.9 0.4,5.6 3.9,5.5 3.2,-0.2 6.6,-1.4 6.1,-5.8 -0.3,-2.6 -1.5,-5 -1.9,-7.6 -0.1,-1.3 0.7,-2.7 1,-4.1 1,0.8 2,1.6 2.9,2.5 0.3,0.3 0.5,0.8 0.6,1.2 1.4,3.7 1.9,8.7 7.4,7.8 3.9,-0.7 8.5,-0.1 11.2,-4.4 0.9,-1.5 2.9,-2.3 4.4,-3.4 0.5,2 1.4,3.9 1.4,5.9 -0.1,4.9 -0.5,9.7 -1,14.6 -0.2,1.2 -1.3,2.3 -1.9,3.4 -0.7,-1.3 -1.9,-2.5 -2,-3.8 -0.4,-5.8 -0.4,-6.1 -5.6,-3.9 -2.4,0.9 -3.3,0.8 -4.6,-1.4 -0.7,-1.3 -2.5,-2 -4,-2.9 -3.3,-1.9 -5.1,-0.1 -7,2.6 -1,1.4 -2.8,3 -4.5,3.3 -4.2,0.6 -8.6,-0.8 -12.4,2.9 -1.4,1.5 -4.7,0.3 -5.7,-3 m 42.7,-9.3 c -0.3,0.9 -0.8,1.7 -0.9,2.6 0,0.2 1.2,0.6 1.8,0.9 0.4,-1.2 0.8,-2.4 1.1,-3.6 -0.5,-0.2 -1,-0.3 -2,0.1"
   fill="#000000"
   stroke="none"
   id="path6" />
<path
   d="m 20.20859,174.7 c -1.2,-8.1 0.7,-15 6.4,-21 3.7,-3.9 11.9,-3.5 16.3,-0.2 0.7,0.6 0.7,2 1,3 -0.9,0.1 -1.8,0.4 -2.7,0.2 -1.6,-0.4 -3.1,-1.2 -4.7,-1.7 -5,-1.3 -12,4.5 -11.2,9.2 0,0.4 1.3,0.7 2.1,0.8 3.5,0.4 7.1,0.5 10.5,1.1 0.8,0.1 1.4,1.5 2,2.3 -0.9,0.2 -1.7,0.5 -2.6,0.6 -2.4,0.1 -4.8,-0.4 -7,0.1 -1.9,0.5 -3.6,2 -5.4,3 1.6,2 2.8,5.2 4.7,5.7 4.5,1.1 9.3,1 14,1.1 2.7,0.1 6.9,-7.7 6.1,-10.7 -0.4,-1.4 -0.8,-2.8 -0.7,-4.2 0.1,-0.7 1.2,-1.3 1.8,-2 3.1,3.8 6.2,0.3 9.3,0.1 0.4,0 1.3,1.7 1.1,2 -1.1,1.4 -2.4,2.7 -3.8,3.9 -0.6,0.5 -1.6,0.6 -2.5,0.9 0.9,0.8 1.8,1.6 2.8,2.3 0.6,0.4 1.5,0.4 2.1,0.8 1.4,1.1 2.8,2.2 4.1,3.4 -1.8,0.1 -4.2,1.1 -5.5,0.4 -4.1,-2.6 -6.1,-1.4 -9.2,2 -2.3,2.4 -6.9,2.7 -10.4,3.9 -8,2.4 -14.7,0 -18.6,-7"
   fill="#000000"
   stroke="none"
   id="path7" />
<path
   d="m 231.90859,121 c 1.7,0.8 2.9,1.6 4,2.4 -1.4,0.2 -2.9,0.6 -4.3,0.7 -1.8,0.1 -4.3,-0.8 -5.4,0 -5.6,4.5 -11.6,2.1 -16.9,0.6 -3.3,-1 -8.3,-6.1 -7.8,-8.1 1.1,-4.3 5,-8.1 8.5,-11.4 0.9,-0.8 2.5,1.9 1.2,4.2 -0.7,1.2 -0.7,2.9 -1,4.3 1.2,-0.4 2.5,-0.8 3.7,-1.2 0.6,-0.2 1.2,-0.2 1.7,-0.3 0.1,0.8 0.4,1.6 0.2,2.3 -0.1,0.6 -0.8,1 -1.3,1.5 -1.9,1.5 -3.7,3 -5.6,4.5 3.6,0.5 7.1,1.5 10.5,1.2 1.3,0 3.2,-2.9 3.4,-4.7 0.5,-5.5 2,-10.2 6.4,-13.9 2.9,-2.5 5.6,-3.2 8.6,-0.7 2.5,2.1 3.3,7.9 1,10.1 -2.3,2.3 -5.1,4.2 -7.9,6 -2.6,1.7 -1.6,2.1 1,2.5 m -4,-7.5 c 0.1,1.4 0.3,2.9 0.4,4.3 1,-0.9 2.1,-1.8 3.1,-2.8 1.3,-1.3 3.1,-2.4 3.8,-3.9 0.7,-1.8 0.3,-4 0.3,-6 -1.4,0.8 -3.2,1.2 -4.3,2.3 -1.4,1.4 -2.2,3.4 -3.3,6.1"
   fill="#000000"
   stroke="none"
   id="path8" />
<path
   d="m 984.70859,537.3 c -1.1,0.7 -2.1,1.5 -2.7,2.6 -2,3.1 -3.5,3.3 -6.1,1 -0.5,-0.4 -2.1,0 -2.8,0.6 -1.6,1.2 -2.7,2.9 -4.3,4 -1.7,1.2 -2.8,0.9 -3,-1.7 -0.1,-1.6 -1.1,-4.5 -1.9,-4.6 -2.9,-0.2 -6.4,-1.5 -8.6,1.9 -0.9,1.4 -1.7,2.9 -2.9,3.8 -1.4,1 -3.8,2.3 -4.9,1.8 -1.6,-0.8 -3.4,-3.2 -3.4,-4.9 0.1,-3.5 1.2,-7 2.1,-10.5 0.2,-0.6 1.6,-0.8 2.4,-1.2 0.3,0.9 1,1.9 0.9,2.8 -0.4,2.4 -1.1,4.9 -1.5,7.3 -0.2,0.9 0.3,1.9 0.4,2.8 1,-0.6 1.9,-1.2 2.8,-1.8 0.3,-0.2 0.6,-0.4 0.7,-0.7 1,-5.1 3.1,-7.7 9.2,-5.8 1.8,0.6 4.8,-2.3 7.3,-3.6 0.4,-0.3 0.7,-0.7 1,-1.1 0.2,0.6 0.5,1.2 0.5,1.8 0.1,1.5 -0.1,3 0.1,4.5 0.1,1.2 0.4,2.5 0.7,3.7 0.9,-0.7 2.3,-1.3 2.9,-2.2 1.1,-2.1 1.5,-4.4 2.6,-6.4 0.4,-0.8 1.9,-1 2.9,-1.4 -0.1,0.8 -0.1,1.7 -0.1,2.5 0,1.7 0,3.4 0,5.1 1.7,-1.2 3.4,-2.3 4.9,-3.6 0.5,-0.5 0.6,-1.5 1.1,-2 1.3,-1.4 2.7,-2.7 4,-4 0.3,1.6 0.7,3.2 0.9,4.9 0.7,5.2 1.5,10.4 2,15.6 0.1,1.1 -0.9,2.3 -1.4,3.4 -0.8,-0.5 -2.2,-0.9 -2.5,-1.7 -0.9,-2.5 -1.4,-5.1 -2,-7.6 -0.5,-1.7 -0.7,-3.4 -1.3,-5.3"
   fill="#000000"
   stroke="none"
   id="path9" />
<path
   d="m 542.90859,453 c 0,-2 -0.1,-3.5 0.1,-5 0.1,-1 0.5,-2 0.7,-3 1.1,0.9 2.6,1.6 3.1,2.8 0.8,1.7 0.7,3.7 1.2,5.5 0.2,0.9 0.7,1.8 1,2.7 1.8,-1 3.7,-1.8 5.2,-3 0.4,-0.2 -0.4,-2 -0.8,-3 -0.3,-0.9 -0.8,-1.8 -1.2,-2.8 1.2,-0.4 2.3,-1.1 3.5,-1.1 5.4,-0.2 10.8,0.3 16.1,-0.3 2.1,-0.2 3.7,-2.8 5.8,-3.9 1.7,-0.8 3.6,-0.9 5.5,-1.3 -0.1,1.8 0.2,3.6 -0.3,5.2 -0.4,1.6 -1.7,2.9 -2.6,4.4 -0.7,1.5 -1.4,3 -2.1,4.5 1.6,0.1 3.3,0.2 4.9,0.3 1.4,0 2.8,-0.1 4.1,0.1 0.2,0.1 0.2,2.7 0,2.8 -2.6,0.5 -5.3,1.2 -8,1 -3.2,-0.2 -4.7,-2.3 -4.2,-5.7 0.1,-1 -0.3,-2.1 -0.5,-3.1 -0.6,0.9 -1.2,1.8 -1.8,2.7 -0.2,0.4 -0.3,0.9 -0.7,1.2 -1.5,1.4 -3,2.6 -4.5,3.9 0.2,-1.8 0.4,-3.5 0.5,-5.3 0.1,-0.6 -0.2,-1.5 -0.3,-1.5 -3.9,-0.1 -7.4,0 -9.8,4.1 -1.3,2.2 -4.3,3.9 -6.9,4.7 -5.1,1.4 -7.2,-1.8 -8,-6.9"
   fill="#000000"
   stroke="none"
   id="path10" />
<path
   d="m 79.70859,126.7 c -3.5,2.5 -6.9,4 -10.1,0.4 -3.1,-3.5 -1.9,-7.5 -0.6,-11.3 0.3,-0.8 1.4,-1.2 2.1,-1.8 0.3,0.8 0.7,1.6 0.8,2.4 0.2,1.3 0.1,2.6 0.4,3.8 0.2,1.6 0.7,3.2 1.1,4.8 1.1,-0.5 2.6,-0.6 3.4,-1.4 1.8,-1.9 3.4,-4.2 5.2,-6.2 0.5,-0.6 1.2,-1.3 1.9,-1.3 3.8,-0.5 7.7,-0.8 11.5,-1.1 0.8,-0.1 1.9,0.1 2.3,-0.4 3.5,-3.6 6,-5.3 5.4,2 0,0.2 2.4,1.1 2.9,0.7 1.9,-1.5 3.5,-3.5 5.4,-5.2 0.8,-0.6 2,-0.7 3,-1.1 -0.2,0.9 -0.3,1.9 -0.5,2.8 -0.6,4.1 -1.2,8.1 -2,12.2 -0.2,1.3 -0.9,2.6 -1.3,3.9 -0.9,-1.2 -2.6,-2.5 -2.5,-3.7 0.2,-4.7 -1.6,-4.4 -5.5,-3.7 -3.6,0.6 -7.1,0.3 -9.9,3.1 -0.2,0.2 -2.5,-0.8 -2.7,-1.6 -1.2,-4.7 -3.5,-3.7 -6.2,-1.4 -1.3,1.2 -2.6,2.6 -4.1,4.1"
   fill="#000000"
   stroke="none"
   id="path11" />
<path
   d="m 959.70859,415.3 c 5.3,7 4.5,13.9 2,21.6 -2.8,8.8 -10.4,11.7 -17.2,15.8 -1.2,0.7 -3.5,-0.6 -5.3,-1 1.1,-0.9 2.2,-1.7 3.2,-2.7 1.7,-1.7 4.1,-2.6 3.7,-6 -0.7,-6 -1.4,-12.2 -0.6,-18.1 0.5,-4 3,-8.2 5.8,-11.2 1,-1.1 5.3,0.8 8.4,1.6 m -0.8,7.2 c -1.4,-1.5 -2.9,-3 -4.4,-4.5 -1.2,1.8 -3.2,3.5 -3.4,5.4 -0.8,5.6 -0.9,11.3 -1.1,17 0,1.2 1.1,2.4 1.7,3.6 1.1,-0.9 2.6,-1.6 3.2,-2.8 2.9,-5.5 5.1,-11.2 4,-18.7"
   fill="#000000"
   stroke="none"
   id="path12" />
<path
   d="m 1054.9086,482 c -0.3,1.2 -0.9,1.9 -0.9,2.6 0.1,2.7 -0.6,4.1 -3.4,5.7 -3.3,1.9 -5.4,5.9 -8.3,8.7 -1.4,1.4 -3.4,2.7 -5.3,2.8 -1.9,0.2 -4,-1 -6.1,-1.6 1,-2.7 1.8,-5.5 2.9,-8.2 0.2,-0.6 1.2,-1 1.9,-1.2 5,-1.5 5.6,-5.1 5.3,-9.7 -0.1,-3.2 -0.1,-6.7 1.1,-9.5 1.5,-3.3 3.5,-7.2 8.5,-6.6 4.8,0.5 5.6,4.6 6.1,7.9 0.4,2.7 -1.1,5.7 -1.8,9.1 m -3.5,-2 c 0.5,-1.6 1.6,-3.3 1.4,-4.8 -0.4,-2.2 -1.7,-4.1 -2.6,-6.2 -1.1,1.5 -2.8,3 -3.1,4.7 -0.8,3.5 -0.9,7.2 -1.3,10.9 -0.1,1.5 -0.2,2.9 -0.4,4.4 1.5,-1.2 3.4,-2.1 4.4,-3.6 0.9,-1.3 0.8,-3.2 1.6,-5.4 m -13.5,18.5 c 0.7,-0.5 1.4,-0.9 1.9,-1.5 1.3,-1.6 2.6,-3.2 3.9,-4.7 -2.1,0.6 -4.3,1.2 -6.4,1.9 -0.6,0.2 -1.1,0.8 -1.4,1.4 -0.7,1 -1.2,2 -1.8,3.1 1.1,0.1 2.2,0.2 3.8,-0.2"
   fill="#000000"
   stroke="none"
   id="path13" />
<path
   d="m 1127.9086,311 c 2.4,-3.6 4.2,-7.1 6.1,-10.7 0.4,-0.8 1,-1.5 1.5,-2.3 0.5,1 1.1,1.9 1.4,2.9 0.2,0.8 0.1,1.7 0,2.5 0,1.2 -0.1,2.4 -0.2,3.6 1.9,-0.7 4.6,-0.8 5.5,-2.1 1.8,-2.6 2.5,-5.9 3.8,-8.9 0.4,-1 1.1,-1.8 1.7,-2.8 0.7,1.2 2.3,2.6 2.1,3.6 -0.6,2.9 -1.7,5.9 -2.9,8.7 -1.5,3.5 -3.2,7 -5,10.4 -0.6,1.1 -1.8,1.9 -2.7,2.8 -0.4,-1.4 -1.1,-2.9 -1,-4.4 0.1,-1.3 0.9,-2.7 1.5,-4.1 -1.6,0.5 -3.2,0.9 -4.8,1.3 -5.9,1.8 -11.7,3.9 -17.7,5.4 -2,0.5 -5.5,0.2 -6.3,-1.1 -1.3,-2 -2.1,-5.5 -1.3,-7.7 1.4,-3.5 4.1,-6.6 6.5,-9.7 0.8,-1 2.3,-1.5 3.4,-2.3 -0.2,1.8 0.1,3.9 -0.7,5.4 -1.4,2.6 -3.4,4.8 -5.1,7.3 -1.4,2 -1.4,2.8 1.5,3.3 4.3,0.9 8.4,2.3 12.7,-1.1"
   fill="#000000"
   stroke="none"
   id="path14" />
<path
   d="m 157.70859,162.2 c -1.8,0.8 -3.4,1.7 -4.7,3 -0.7,0.6 -0.5,2.1 -1.1,2.9 -0.8,1.2 -2.1,2 -3.1,2.9 -0.3,-1.3 -1.2,-2.9 -0.7,-3.9 0.8,-1.9 0.6,-2.1 -1.4,-2.2 -4,-0.1 -7.4,0 -9.8,4.4 -2.1,3.9 -7.7,4.8 -10.4,2.7 -1.9,-1.5 -3.1,-10.7 -1.5,-12.9 0.2,-0.2 1.7,0.1 1.9,0.4 0.8,2.2 2,4.4 1.9,6.6 -0.1,4 1.9,3.1 3.6,1.8 3.1,-2.3 5.7,-5 4.6,-9.5 -0.2,-0.7 0.2,-1.5 0.4,-2.3 0.5,0.2 1.2,0.2 1.6,0.5 5.7,4.7 10.2,4.7 16,-0.2 0.7,-0.6 1.6,-0.9 2.4,-1.4 1.1,-0.6 2.1,-1.3 3.1,-1.9 0.5,1.5 1.1,2.9 1.4,4.4 0.1,0.7 -0.1,1.6 -0.3,2.4 -1.5,5.1 -0.9,5.9 4.3,6.2 1,0 2,0.7 3,1.1 -0.8,0.6 -1.6,1.6 -2.5,1.7 -2.9,0.3 -5.8,0.3 -8.7,0.4 0.1,-2.3 0.2,-4.5 0,-7.1"
   fill="#000000"
   stroke="none"
   id="path15" />
<path
   d="m 444.90859,138 c 4.8,-2.3 9.5,-4.3 14.3,-5.8 0.5,-0.1 1.9,2.5 2.7,3.9 0.7,1.2 1.1,3.6 1.9,3.7 3,0.4 6.5,1.2 8.1,-2.6 0.9,-2.1 1.2,-4.5 2.1,-6.6 0.4,-1 1.5,-1.8 2.3,-2.6 0.5,1.1 1.6,2.2 1.5,3.2 -0.2,1.8 -1.3,3.4 -1.7,5.2 -0.3,1.1 0,2.2 0.1,3.3 0.9,-0.4 1.8,-0.8 2.8,-1.2 1.2,-0.5 2.5,-0.8 3.7,-1.2 -0.6,1.2 -0.9,3.2 -1.9,3.6 -3.1,1.3 -6.4,2.3 -9.7,3 -2.6,0.7 -5.3,1 -8,1 -2.5,0.1 -5.7,1.5 -5.3,-3.6 0.2,-3.1 -1.7,-5.2 -5.1,-2.5 -2.4,1.9 -4.5,4.2 -7,5.8 -2.2,1.5 -4.9,3.4 -7,3 -1.6,-0.2 -2.9,-3.7 -3.7,-6 -0.5,-1.6 -0.1,-3.6 0,-5.5 0,-1 0.4,-2.1 0.6,-3.1 0.8,0.8 1.9,1.5 2.3,2.5 0.6,1.8 0.5,3.8 1.1,5.6 0.3,1 1.2,1.9 1.9,2.9 0.7,-0.8 1.4,-1.5 2,-2.3 0.8,-1.1 1.4,-2.1 2,-3.7"
   fill="#000000"
   stroke="none"
   id="path16" />
<path
   d="m 1186.7086,524.3 c 0.1,-0.6 0.7,-1.3 0.8,-1.2 6.8,5 13.2,3.2 19.6,-1.1 1.3,-0.8 3,-1.2 4.6,-1.8 -0.3,1.8 -0.5,3.7 -0.8,5.5 0,0.5 0.2,1 0,1.5 -1.8,5.7 -1.8,5.6 3.8,4.9 1,-0.1 2.1,1 3.2,1.5 -0.6,0.8 -1.1,1.9 -1.9,2.4 -5,2.9 -9,1.1 -10.1,-4.5 -0.2,-0.8 -0.9,-1.6 -1.4,-2.4 -0.5,0.7 -1.1,1.4 -1.5,2.1 -0.5,0.8 -0.5,2 -1.1,2.6 -1.3,1.2 -2.8,2.1 -4.2,3.2 0.1,-1.5 -0.3,-3.5 0.4,-4.5 2.3,-3.1 0,-2.6 -1.7,-2.5 -2.7,0.4 -5.3,0.5 -7,3.7 -0.9,1.9 -3.4,3.3 -5.6,4.2 -4.7,1.9 -7.9,-0.5 -7.9,-5.6 0.1,-1 -0.2,-2.2 0.2,-2.9 1.4,-1.9 3,-3.5 4.5,-5.2 0.1,2.1 0.2,4.3 0.3,6.5 0.1,1.1 0.1,2.2 0.1,3.3 2,-1.2 4.5,-1.9 5.8,-3.6 0.9,-1.4 0.1,-3.9 -0.1,-6.1"
   fill="#000000"
   stroke="none"
   id="path17" />
<path
   d="m 12.90859,127 c -4.3999996,-0.5 -7.7999996,1 -9.7999996,5.2 -0.3,0.8 -1.4,1.2 -2.1,1.8 -0.29999996,-0.7 -1.09999996,-1.5 -0.99999996,-2.2 0.9,-5.9 1.89999996,-11.9 2.99999996,-17.8 0.2,-0.8 1.5,-1.3 2.3,-2 1.6,-1.6 3.2,-3.2 4.8999996,-4.8 1.3,-1.1 2.8,-2.1 4.2,-3.2 1.2,1.8 2.9,3.5 3.4,5.5 0.6,2.2 0.3,4.7 0.1,7 -0.5,4.3 2.3,4.4 5.4,4.5 1.6,0.1 3.1,0.6 4.6,0.8 -1.4,0.8 -2.7,1.9 -4.2,2.1 -6.7,1.1 -6.7,1.1 -6.8,8.3 0,2.8 0.9,6 -2.6,7.7 -0.4,-2.6 -1,-5.3 -1.3,-7.9 -0.2,-1.5 -0.1,-3 0.2,-4.8 0.3,-0.5 0.3,-0.8 0.3,-1.1 -0.2,0.3 -0.4,0.6 -0.6,0.9 m 0,-5.5 c 0.7,-2.4 1.7,-4.7 1.9,-7.1 0.1,-1.8 -0.9,-3.6 -1.4,-5.4 -1.1,1.2 -2.3,2.3 -3.4,3.5 -0.5999996,0.7 -1.1999996,1.5 -1.3999996,2.4 -0.6,2.5 -1,5.1 -1.6,7.7 1.8,-0.2 3.5999996,-0.4 5.8999996,-1.1"
   fill="#000000"
   stroke="none"
   id="path18" />
<path
   d="m 512.20859,170.7 c -2.2,0.2 -4.1,0.6 -6.1,1 0,-2.5 -0.1,-4.9 0.1,-7.4 0.1,-2 0.5,-4.1 1,-6 0.3,-0.9 1.3,-1.5 1.9,-2.3 0.6,0.9 1.3,1.7 1.8,2.6 0.2,0.2 0.1,0.6 0,1 -0.1,2.1 -0.3,4.2 -0.5,6.4 1.5,-1.9 2.9,-3.8 4.6,-5.5 1.3,-1.3 3,-2.3 4.5,-3.5 -0.5,2.2 -1,4.4 -1.6,6.5 -0.4,1.5 -1,3 -1.5,4.5 1.9,0 4.3,0.7 5.6,-0.2 1.7,-1.2 2.6,-3.7 4,-5.5 2.5,-3.2 5.1,-6.5 7.8,-9.6 0.4,-0.4 1.6,0 2.4,0 -0.2,0.8 -0.3,1.5 -0.7,2.2 -1.2,2 -2.6,3.8 -3.8,5.9 -0.4,0.8 -0.3,2 -0.4,3 1.1,-0.3 2.3,-0.6 3.4,-1.1 1.2,-0.5 2.3,-1.3 3.4,-2 -0.4,1.6 -0.3,3.7 -1.3,4.7 -2.1,2.3 -2,2.9 1.1,2.6 0.7,0 1.4,0.5 2,0.8 -0.4,0.6 -0.8,1.8 -1.2,1.9 -2.5,0.2 -5.8,1.1 -7.3,-0.2 -2.3,-1.8 -4.2,-1.7 -6,-0.4 -4.2,3.2 -8.4,3.7 -13.2,0.6"
   fill="#000000"
   stroke="none"
   id="path19" />
<path
   d="m 1073.9086,528 c 1,0 1.7,-0.2 2,0 1.7,1.3 3.4,2.6 5,3.9 -1.9,0.4 -3.8,0.9 -5.7,1.1 -3.3,0.2 -7,-0.4 -8.2,3.7 -0.7,2.4 0,4.6 3.5,4.3 4.5,-0.4 9,-0.8 13.5,-0.9 1,-0.1 2,0.8 2.9,1.3 -0.8,0.6 -1.6,1.4 -2.6,1.7 -6,1.6 -11.9,4.4 -18.3,1.9 -1,-0.4 -2.7,-0.8 -2.8,-1.4 -0.8,-5.1 -2.3,-10.5 -1.6,-15.4 0.6,-3.3 4.4,-6.1 6.7,-9.1 2.8,-3.5 6.2,-2.4 9.1,-0.9 1.3,0.6 1.7,2.9 2.5,4.3 -1.1,-0.1 -2.3,-0.5 -3.4,-0.5 -1.9,0.1 -4.5,-0.2 -5.6,0.8 -1.8,1.7 -2.7,4.4 -3.9,6.7 2.1,-0.5 4.3,-1 6.9,-1.5"
   fill="#000000"
   stroke="none"
   id="path20" />
<path
   d="m 1170.9086,43 c 3.5,-1.7 7.1,-2.8 10.6,-4 6.9,-2.4 15,-10.9 13.4,-19.6 -0.3,-1.2 -1.4,-2.8 -2.5,-3.2 -0.9,-0.3 -2.8,0.7 -3.4,1.7 -2.2,4 -4,8.3 -6.1,12.4 -0.4,1 -0.9,2.1 -1.6,2.8 -0.9,0.7 -2.1,1.1 -3.1,1.7 -0.1,-1.1 -0.2,-2.1 -0.2,-3.1 -0.1,-2.9 -0.1,-5.8 0,-8.6 0,-0.6 0.5,-1.2 1,-1.6 2.6,-2.4 5.5,-4.6 8,-7.1 2.2,-2.3 4.9,-4 7.5,-2.2 2.1,1.3 3.9,4.2 4.3,6.6 1.4,9.3 -3.6,16.3 -10.8,21 -4.4,2.8 -10.1,3.6 -15.3,5.1 -0.4,0.1 -1.2,-0.9 -1.8,-1.9"
   fill="#000000"
   stroke="none"
   id="path21" />
<path
   d="m 528.70859,493.8 c 6,1.8 7.5,-3.2 10.3,-6.2 1.5,-1.8 3.6,-3.1 5.4,-4.6 -0.7,2.4 -1.1,5 -2.2,7.1 -1.4,2.6 -3.5,4.9 -5.2,7.4 -0.3,0.4 -0.5,0.9 -0.7,1.4 0.6,-0.2 1.2,-0.2 1.7,-0.5 2.2,-1.4 4.3,-3.1 6.7,-4.3 1.1,-0.7 2.6,-0.6 3.9,-0.9 -0.5,1.4 -0.6,3 -1.5,4 -1.8,1.9 -4.2,3.2 -5.8,5.1 -1.2,1.4 -1.5,3.6 -2.2,5.4 2.1,0.2 4.1,0.7 6.1,0.4 3.8,-0.5 7.4,-1.4 11.1,-2.1 0.5,0 1.1,0.4 1.6,0.6 -0.3,0.5 -0.5,1.2 -0.9,1.4 -5.4,1.8 -10.1,5.7 -16.4,5 -3.6,-0.4 -6.3,-1.3 -5.7,-5.7 0.4,-2.4 -0.6,-3.8 -2.4,-5.5 -2,-2 -2.8,-5.2 -3.8,-8"
   fill="#000000"
   stroke="none"
   id="path22" />
<path
   d="m 121.90859,227 c -9.5,0 -12.1,-3.6 -8.5,-11.9 1.5,-3.3 -1,-3.9 -2.5,-4 -5.5,0 -11.3,-1.2 -16.6,2 -1,0.6 -2.2,0.9 -3.4,1.3 0.4,-1.6 0.2,-4 1.3,-4.8 1.5,-1.3 3.9,-2.1 5.9,-2.2 8.3,-0.6 16.7,-1.5 24.2,3.5 8,5.2 8,11.2 -0.4,16.1 m -3.5,-4 c 0.7,0 1.7,0.3 2,0 1.3,-1.6 2.8,-3.1 3.3,-5 0.2,-0.6 -2.3,-2 -3.6,-3 -1,1.6 -2.3,3.1 -3.1,4.8 -0.3,0.8 0.3,2.1 1.4,3.2"
   fill="#000000"
   stroke="none"
   id="path23" />
<path
   d="m 77.70859,197.7 c 1.9,0.2 5,0.5 5,1 0.1,2.3 -0.5,4.6 -0.9,7 -0.3,-0.2 -0.8,-0.3 -0.8,-0.5 -1.5,-5.2 -5.7,-2 -6.5,-0.9 -4,5.5 -7.5,11.4 -10.7,17.5 -3.3,6 2.3,14.3 10.3,14.2 2.7,0 5.5,0.5 8.2,0.9 0.6,0.1 1,1.1 1.5,1.7 -0.6,0.1 -1.2,0.2 -1.8,0.4 -7.6,2.6 -15.4,1 -19.8,-4.3 -3.6,-4.3 -5.4,-11.8 -0.7,-19.6 4,-6.8 7.8,-14 16.2,-17.4"
   fill="#000000"
   stroke="none"
   id="path24" />
<path
   d="m 1260.9086,465 c -2,0.6 -3.5,1.2 -5,1.9 1.4,0.7 2.8,1.6 4.3,2.1 3.4,1 5.3,3.1 2.8,6.2 -1.9,2.4 -4.9,4 -7.5,5.8 -0.4,0.3 -1.4,0 -2.1,0 0.2,-0.8 0,-1.9 0.5,-2.4 1.6,-1.5 3.5,-2.8 5.1,-4.3 0.3,-0.3 -0.2,-1.9 -0.7,-2.2 -1.6,-0.9 -3.4,-1.5 -5.1,-2.1 -2.2,-0.7 -4.7,-2.2 -6.6,-1.7 -1.5,0.4 -2.4,3.3 -3.7,5 -0.9,1.2 -1.8,2.7 -3.1,3.1 -2.2,0.7 -5.7,1.7 -6.8,0.7 -1.3,-1.4 -1.7,-5 -0.9,-7 3.2,-7.8 3.3,-7.3 12.2,-5.5 3.4,0.7 7.7,2 11.1,-2.1 1,-1.3 5.1,-1.1 7.1,-0.1 2.8,1.3 0.6,2.2 -1.6,2.6 m -24.5,9 c 1.2,-1.1 2.4,-2.2 3.5,-3.4 0.3,-0.4 0.6,-1.5 0.3,-1.7 -0.5,-0.4 -1.8,-0.8 -1.9,-0.7 -1,1.9 -1.9,3.9 -1.9,5.8"
   fill="#000000"
   stroke="none"
   id="path25" />
<path
   d="m 1064.9086,431 c -2.7,1.5 -5,2.9 -7,4.6 -2.4,2.2 -4.9,3.3 -7.5,1.3 -1.1,-0.9 -1.4,-3.2 -1.4,-4.9 0,-2.5 0.4,-5.1 1.1,-7.5 0.2,-1 1.5,-1.7 2.3,-2.5 0.5,1.1 1.4,2.2 1.4,3.3 0,2 -0.5,4.1 -0.9,6.1 -0.1,0.9 -0.1,1.7 -0.2,2.6 0.9,-0.3 2,-0.4 2.6,-0.9 1,-1 1.6,-2.5 2.7,-3.4 1.5,-1.2 3.2,-2.5 5,-3.1 3.2,-0.9 6.5,-1.4 9.8,-2 1.2,-0.2 2.5,-0.3 3.7,-0.5 -0.3,1.2 -0.4,2.6 -1,3.7 -1.3,2.6 -3,5.1 -4.5,7.7 -0.5,0.9 -0.7,2 -1.1,3 1.2,-0.2 2.4,-0.1 3.4,-0.5 2.5,-1.2 4.9,-2.8 7.4,-3.9 0.9,-0.4 2.1,0.2 3.2,0.4 -0.4,0.8 -0.7,2 -1.4,2.4 -4.1,2.1 -8.2,4.4 -12.5,5.9 -2,0.7 -4.7,-0.4 -4,-3.6 0.4,-1.9 1.2,-3.8 1.9,-5.7 0.5,-1.1 1.1,-2.3 1.6,-3.4 -1.4,0.3 -2.7,0.6 -4.6,0.9"
   fill="#000000"
   stroke="none"
   id="path26" />
<path
   d="m 225.90859,220 c -3.8,3.3 -7.3,6.8 -11.5,8.7 -2.9,1.3 -7.8,1.4 -9.1,-2.6 -0.5,-1.7 3.1,-4.9 5.2,-6.9 0.7,-0.7 2.6,-0.1 4,-0.1 -0.9,0.8 -1.7,1.6 -2.6,2.4 -1,0.9 -2,1.8 -3,2.7 1.4,0.3 2.7,0.8 4,0.7 7.2,-0.5 11.8,-9.1 8.9,-15.7 -3.2,-7.2 -8.1,-13.1 -13.1,-19 -0.8,-1 -0.9,-2.7 -1.4,-4.1 1.6,0.5 3.6,0.6 4.7,1.6 5.7,5.3 10.1,11.7 13,19 1.8,4.3 2.8,8.4 0.9,13.3"
   fill="#000000"
   stroke="none"
   id="path27" />
<path
   d="m 603.90859,461 c -7.9,0 -12.4,-5.4 -11,-12.6 0.1,-0.4 0.2,-1.2 0.5,-1.3 4.8,-1.8 5.9,-6.6 8.4,-10.2 0.8,-1.2 3,-1.3 4.6,-1.9 0.5,1.6 1.8,3.4 1.4,4.8 -1.4,5.2 -0.5,11.8 -7.4,14.3 -0.7,0.3 -1,1.6 -1.4,2.4 0.7,0.2 1.5,0.5 2.2,0.5 4.3,-0.3 8.7,-0.7 13,-0.9 0.9,-0.1 1.8,0.6 2.7,1 -0.8,0.9 -1.5,2.5 -2.4,2.7 -3.3,0.7 -6.7,0.9 -10.6,1.2"
   fill="#000000"
   stroke="none"
   id="path28" />
<path
   d="m 468.20859,153.2 c 6.7,0.1 6.6,2 4.8,7.3 -0.5,1.7 -1.1,3.8 -0.6,5.3 2.3,6.8 -1.7,12.8 -8.9,13.2 -0.9,0 -1.7,0 -2.5,0 -5,-0.1 -5.9,-1.5 -4.5,-6.1 0.7,-2.4 1.5,-5 1.3,-7.4 -0.5,-7.6 1.2,-8.7 10.4,-12.3 m -5.8,22.8 c 0.9,-0.3 2,-0.5 2.6,-1 1.6,-1.6 3,-3.3 4.4,-5 -1.2,-0.7 -2.6,-2 -3.6,-1.8 -1.5,0.3 -3.3,1.4 -4.1,2.7 -1.7,2.6 -1.4,3.7 0.7,5.1 m 5,-19 c -2.6,1.9 -6.2,3.1 -5.4,7.5 0,0.3 0.9,1 0.9,0.9 2.5,-2.1 5,-4.2 7.5,-6.4 -0.6,-0.7 -1.3,-1.3 -3,-2"
   fill="#000000"
   stroke="none"
   id="path29" />
<path
   d="m 162.20859,217.2 c 2.4,0.6 4.6,1.4 6.7,2.3 -2.3,0.8 -4.5,2.2 -6.9,2.4 -7.5,0.5 -7.7,0.1 -7.1,-7.4 0,-0.5 -0.6,-1.5 -0.7,-1.4 -1.9,0.5 -4.1,0.8 -5.6,2 -2,1.5 -3,4.3 -5.1,5.6 -2.7,1.7 -7,3.2 -8.4,-0.5 -1.6,-3.7 -0.9,-8.4 -1.2,-12.7 1,0.3 2.5,0.3 2.7,0.8 0.7,1.7 0.9,3.6 1.4,5.4 0.4,1.5 1,2.9 1.5,4.3 1.8,-1.7 3.6,-3.4 5.4,-5.1 0.3,-0.3 0.2,-1.1 0,-1.5 -2.2,-4.7 -0.7,-4.7 3.6,-3.6 2.8,0.7 6.1,-0.5 9.2,-0.8 0.8,-0.1 1.6,-0.3 2.4,-0.4 0,0.9 0.1,1.9 -0.1,2.8 -0.3,2.2 -0.8,4.3 -1,6.5 -0.4,2.9 1.2,2.4 3.2,1.3"
   fill="#000000"
   stroke="none"
   id="path30" />
<path
   d="m 1071.9086,318 c -5,1.7 -5.7,1.3 -4.9,-3.3 0.3,-1.8 1.2,-3.5 2,-5.2 1.7,-3.5 3.4,-6.9 5.3,-10.3 0.6,-1.1 1.6,-2 2.4,-2.9 0.7,1.5 2.4,3.3 2,4.5 -0.8,2.5 -2.7,4.8 -4.2,7.2 -1.2,1.8 -2.4,3.6 -3.6,5.5 2,-0.6 3.9,-1.1 5.8,-1.8 5.6,-2.1 9.9,-5.4 11.3,-11.6 0.2,-0.9 0.4,-1.9 1,-2.5 0.9,-1 2.2,-1.8 3.3,-2.6 0.2,1.2 0.7,2.5 0.6,3.7 -0.2,1.7 -0.5,3.4 -1.2,5 -2.5,5.9 -5.1,11.8 -7.8,17.7 -0.6,1.1 -2.1,1.7 -3.2,2.6 -0.3,-1.4 -0.9,-2.8 -0.7,-4 0.5,-2.4 1.5,-4.7 2.3,-7 -2.3,1.1 -4.7,2.1 -7.1,3.3 -1,0.4 -1.8,1.1 -3.3,1.7"
   fill="#000000"
   stroke="none"
   id="path31" />
<path
   d="m 504.70859,493.3 c 0.9,3 1.5,5.9 2.1,8.7 2.5,-1.6 5.3,-2.9 7.4,-4.9 1.9,-1.8 3.1,-4.4 4.7,-6.5 0.4,-0.6 1.2,-0.9 1.7,-1.4 0.5,0.8 1.1,1.6 1.3,2.5 0.1,0.7 -0.1,1.6 -0.5,2.3 -1.7,3.4 -1.5,6.6 0,10.2 0.7,1.5 0,3.7 -0.2,5.6 -1.4,-1.5 -3.9,-3 -4.1,-4.6 -0.3,-5.2 -1,-4.8 -4.1,-1.3 -2.9,3.2 -8.3,3 -10.6,-0.1 -1.2,-1.8 -1.5,-1.7 -2.5,-0.2 -0.6,1.1 -1.2,2.4 -2.2,3.1 -1.5,1 -3.4,1.5 -5,2.3 -0.3,-1.5 -0.7,-3 -0.7,-4.6 -0.1,-2.5 -0.2,-5 0,-7.4 0.1,-1.1 1.2,-2 1.9,-3 0.7,0.9 1.6,1.8 2,2.8 0.7,1.7 1.1,3.5 1.6,5.2 1.2,-2 2.7,-3.9 3.3,-6.1 0.6,-2.1 -0.6,-5.5 3.9,-2.6"
   fill="#000000"
   stroke="none"
   id="path32" />
<path
   d="m 1209.7086,307.8 c -3,3 -5.3,6 -10.3,4.4 -2.2,-0.7 -5.1,1 -7.7,1.5 -2.5,0.5 -4.9,1.1 -7.4,1.3 -3.9,0.2 -4.1,-2.4 -2.9,-4.8 2.4,-5.2 5.2,-10.2 8.1,-15.1 0.5,-1 2,-1.4 3,-2 0.2,1.1 0.5,2.2 0.4,3.3 -0.3,4.5 -2.8,7.9 -5.8,11 -0.9,0.9 -1.5,2.1 -2.1,3.1 1.2,0.2 2.7,0.8 3.7,0.4 3.9,-1.5 8.8,-1.5 9.7,-7.6 0.5,-3.4 3.8,-6.2 7.5,-5.1 4.2,1.2 4.3,5.5 3.8,9.6 m -6.3,1.2 c 0.9,-1.6 1.8,-3.2 2.5,-5 0.2,-0.5 -0.4,-1.3 -0.7,-2 -1.1,0.9 -2.7,1.6 -3.1,2.7 -0.5,1.2 0.2,2.9 1.3,4.3"
   fill="#000000"
   stroke="none"
   id="path33" />
<path
   d="m 380.90859,245 c 2.4,-2.6 4.1,-6.1 8.1,-4.9 1.8,0.5 3.6,1.3 4.8,2.6 0.9,0.8 0.7,2.5 1,3.9 -1,-0.4 -2.1,-0.8 -3.1,-1.3 -3.4,-2 -6.4,-0.9 -7.6,2.4 -2.4,6.5 -4.2,13.3 -6.1,20 -0.1,0.3 0.6,1.3 0.9,1.2 0.8,-0.1 1.9,-0.4 2.5,-1 1.3,-1.3 2.2,-3.2 3.6,-4.3 0.8,-0.7 2.4,-0.3 3.7,-0.4 -0.3,1.2 -0.3,2.7 -1,3.4 -2.1,2.2 -4.4,4.3 -6.9,6 -4.1,2.6 -7.5,-0.4 -9.4,-3 -1.5,-2.1 -0.7,-5.7 -0.9,-8.6 0.8,0.5 1.7,0.9 2.4,1.5 0.9,0.7 1.6,1.7 2.4,2.5 0.2,-1 0.3,-2.1 0.7,-3.1 1.6,-5.5 3.3,-10.9 4.9,-16.9"
   fill="#000000"
   stroke="none"
   id="path34" />
<path
   d="m 984.20859,41.7 c 0.7,-4.6 1.6,-9 2.8,-13.4 0.4,-1.2 1.6,-2.2 2.5,-3.2 0.5,1.4 1.5,2.9 1.3,4.3 -0.3,3.6 -1.7,7.1 -1.7,10.7 0,2.3 1.2,6.3 2.5,6.6 2.6,0.5 6.2,-0.1 8.50001,-1.7 4,-2.6 7,-8.8 3.2,-14.1 -0.7,-1.2 -1.4,-2.5 -1.7,-3.8 -0.2,-0.8 0.3,-1.8 0.5,-2.7 0.8,0.2 1.9,0.2 2.4,0.7 6.2,6.7 6.2,15.7 -0.4,22 -2.2,2.1 -5.70001,3.5 -8.80001,3.7 -7.2,0.6 -9.6,-1.7 -11.1,-9.1"
   fill="#000000"
   stroke="none"
   id="path35" />
<path
   d="m 475.70859,487.3 c 0.3,2.2 -1.6,3.3 -4.8,3.7 -3.6,0.5 -7.1,1.9 -10.6,1.9 -6.1,0 -4,3.7 -4.1,7 -0.1,5.4 -0.7,10.9 -1.4,16.3 -0.1,1.1 -2,1.9 -3.1,2.8 -0.2,-1.3 -0.8,-2.7 -0.7,-4 0.2,-4.8 0.7,-9.7 0.9,-14.5 0.1,-2.5 -0.3,-4.8 -3.9,-4.6 -1.3,0.1 -2.7,-1.1 -4.1,-1.7 1.3,-1 2.4,-2.8 3.8,-3.1 9.2,-1.5 18.5,-2.8 28,-3.8"
   fill="#000000"
   stroke="none"
   id="path36" />
<path
   d="m 1044.2086,263.2 c 2.4,-4.3 4.5,-8.4 6.8,-12.4 0.7,-1.2 2,-1.9 3.1,-2.8 0.3,1.2 1,2.5 0.8,3.5 -2,7.7 -0.2,15.2 0.9,22.8 0.3,2.1 -0.9,4.4 -1.5,6.7 -0.8,-1.8 -1.9,-3.6 -2.3,-5.5 -0.6,-3.3 -0.6,-6.7 -1.1,-10 -0.2,-1.2 -0.9,-2.3 -1.4,-3.4 -0.6,0.9 -1,1.8 -1.7,2.5 -2.6,2.7 -4.8,5.7 -7.8,7.6 -3.7,2.4 -6.5,0.3 -6,-4.1 0.3,-3.1 1.2,-6.1 2,-9.2 0.1,-0.4 0.9,-0.9 1.3,-0.8 0.6,0.1 1.6,0.7 1.6,1 0,2 -0.3,3.9 -0.4,5.8 -0.1,1.4 0,2.7 -0.1,4.1 1.2,-0.8 2.5,-1.4 3.5,-2.4 0.9,-0.8 1.4,-2 2.3,-3.4"
   fill="#000000"
   stroke="none"
   id="path37" />
<path
   d="m 1040.7086,83.7 c 2.8,-5.5 5.4,-10.7 8,-16 0.4,-0.6 1.2,-1.1 1.8,-1.7 0.1,0.8 0.6,1.7 0.4,2.3 -1.2,3.4 -2.5,6.7 -3.7,10 -0.4,1.1 -0.7,2.2 -1.1,3.4 1,-0.2 2,-0.6 3,-0.7 6,-0.8 7.3,-5.6 8.9,-10.3 0.5,-1.8 1.1,-3.6 2,-5.2 0.5,-1 1.5,-1.7 2.3,-2.5 0.6,1.3 1.9,2.8 1.5,3.7 -3,7.6 -6.3,15.1 -9.6,22.5 -0.3,0.7 -1.4,1 -2.1,1.5 -0.2,-1 -0.5,-1.9 -0.5,-2.8 0,-0.8 0.2,-1.6 0.3,-2.3 0.2,-0.9 0.5,-1.7 0.7,-2.5 -0.9,0.3 -1.8,0.5 -2.6,0.9 -1.9,1 -3.7,2.2 -5.7,3.1 -1.6,0.7 -3.4,1.1 -5.1,1.7 0.4,-1.6 0.8,-3.2 1.5,-5.1"
   fill="#000000"
   stroke="none"
   id="path38" />
<path
   d="m 1044.9086,41 c -0.3,-3.5 -0.8,-6.6 -0.9,-9.6 0,-1.1 1.2,-2.3 1.9,-3.4 0.7,1.1 1.4,2.2 2,3.3 0.6,1.2 1.1,2.5 1.7,3.7 1.1,-1.2 2.3,-2.3 3.3,-3.6 0.3,-0.4 -0.2,-1.4 0.1,-1.9 0.9,-1.6 2,-3 3,-4.5 0.4,1.2 0.8,2.5 1.2,3.7 1.9,6.7 1.9,6.7 7.2,1.3 1.4,-1.4 2.4,-3.1 3.5,-4.6 0.9,-1.1 1.7,-2.2 2.5,-3.4 0.4,1.3 1.3,2.5 1.2,3.7 0,4.6 -0.3,9.3 -0.8,13.9 -0.1,0.8 -1.5,1.6 -2.3,2.4 -0.5,-0.9 -1.2,-1.8 -1.5,-2.8 -0.3,-0.9 0,-1.9 -0.1,-2.9 -0.1,-0.8 -0.3,-1.5 -0.5,-2.3 -0.7,0.4 -1.5,0.6 -2,1.1 -3.4,3.5 -6.6,5.4 -9.5,-0.4 -1,0.6 -2,1.2 -3,1.9 -2.3,1.6 -4.6,3.3 -7,4.4"
   fill="#000000"
   stroke="none"
   id="path39" />
<path
   d="m 380.90859,169 c -0.3,1.9 -0.5,3.3 -1,4.5 -1.3,2.9 -2.7,5.4 2.6,3.6 1.2,-0.4 2.9,0.4 4.4,0.7 -1,1.1 -2.1,2.1 -3.2,3.2 -0.4,0.3 -0.8,0.6 -1.1,0.9 -2.2,1.5 -4.4,3.7 -7.2,1.9 -2,-1.2 -2,-8.4 -1.1,-10.8 1.5,-4.1 2.4,-8.3 3.7,-12.5 1.8,-6.2 8.3,-11.1 13.9,-10.4 1,0.1 2,1.1 3,1.7 -0.8,0.7 -1.6,1.9 -2.6,2.1 -7.7,1.8 -10.4,5.8 -11.4,15.1"
   fill="#000000"
   stroke="none"
   id="path40" />
<path
   d="m 462.70859,261.2 c 0.4,6.4 -4.9,5.9 -8.3,6.6 -3,0.5 -6.3,-0.6 -9.4,-1.3 -0.8,-0.2 -1.4,-1.3 -2.1,-2 0.6,-0.5 1.1,-1.2 1.8,-1.5 3.7,-1.5 3.2,-4.7 3.2,-7.7 0.2,-6.6 7,-11.4 12,-8.2 1,0.7 2.3,3.2 1.9,3.7 -3.1,3.7 -0.8,6.9 0.9,10.4 m -8.3,-5.2 c -3.3,-3.2 1.3,-1.9 1.8,-3 0.4,-0.9 1.1,-1.7 1.7,-2.5 -1.1,-0.2 -2.6,-0.9 -3.2,-0.4 -1.2,1.1 -2.3,2.6 -2.7,4.1 -0.4,2.1 -0.3,4.3 0,6.4 0.2,1.2 1.3,3.2 1.9,3.2 1.7,-0.1 3.4,-1 5,-1.6 -0.7,-1 -1.5,-2 -2.2,-3 -0.6,-0.8 -1.2,-1.8 -2.3,-3.2"
   fill="#000000"
   stroke="none"
   id="path41" />
<path
   d="m 838.90859,541 c -1.4,-1.9 -3,-3.8 -3.1,-5.8 -0.2,-3.5 0.5,-7 1,-10.5 0,-0.2 1.7,-0.5 1.9,-0.3 0.6,0.9 1.2,2 1.2,2.9 -0.1,2.2 -0.7,4.4 -0.9,6.6 0,0.7 0.7,1.4 1.1,2.1 0.6,-0.5 1.5,-0.9 1.8,-1.5 2.1,-4.3 4,-8.7 6.1,-13 0.6,-1.3 1.8,-2.3 2.8,-3.5 0.4,1.4 1.1,2.9 1.1,4.3 0.1,8.7 0.1,17.4 0,26.1 0,1.2 -0.8,2.4 -1.2,3.6 -0.9,-1 -2.5,-1.9 -2.6,-3.1 -0.7,-4 -0.8,-8 -1.2,-12 0,-0.9 -0.1,-1.8 -0.2,-2.6 -0.9,0.5 -2,1 -2.7,1.7 -1.6,1.6 -3.1,3.3 -5.1,5"
   fill="#000000"
   stroke="none"
   id="path42" />
<path
   d="m 1220.2086,308.8 c 0.1,-4 0.4,-7.7 1,-11.4 0,-0.6 1.2,-0.9 1.8,-1.4 0.3,0.6 0.8,1.2 0.9,1.9 0.3,2 0.5,4.1 0.7,6.1 1.4,-1.9 2.9,-3.8 4.3,-5.6 0.7,-0.9 1.4,-1.6 2,-2.4 0.4,0.9 0.9,1.8 1,2.8 0.6,3.9 2.6,5 6.4,3.3 1.5,-0.6 3.2,-1.2 4.5,-2.2 1.8,-1.3 3.4,-3 0.5,-4.9 -1.4,-0.9 -2.6,-2 -3.9,-2.9 2.6,-0.2 5.3,-0.9 7.7,-0.2 2.4,0.7 2.9,6.7 0.8,8.5 -4.7,4.2 -9.3,8.4 -16.8,5.9 -2.4,-0.8 -5.8,1.7 -8.7,2.7 -0.6,0.2 -1.3,0 -2.2,-0.2"
   fill="#000000"
   stroke="none"
   id="path43" />
<path
   d="m 891.20859,426.8 c 0.4,-8.7 1,-17.1 1.8,-25.4 0,-0.9 0.4,-2 1,-2.6 1.2,-1.1 2.7,-1.9 4.1,-2.8 0.2,1.6 0.7,3.3 0.5,4.8 -1.1,6.7 -2.9,13.3 -3.5,20 -0.7,7.2 2.9,9.3 9.3,6.2 1.2,-0.6 2.8,-0.6 4.2,-0.9 -0.7,1.3 -1.2,2.8 -2.2,3.8 -5.4,5.5 -11.6,4.3 -15.2,-3.1"
   fill="#000000"
   stroke="none"
   id="path44" />
<path
   d="m 421.70859,150.7 c -7.2,-8.4 -6.2,-18 -2.6,-27.4 2,-5.5 8.8,-6 12,-1.6 0.4,0.5 0.6,1.1 0.8,1.7 -0.5,0.2 -1.1,0.5 -1.7,0.6 -8.9,0.6 -8.9,0.6 -8.3,9.7 0.3,3.2 0.8,6 5.2,5.4 0.7,-0.1 1.6,0.7 2.5,1 -0.4,0.6 -0.6,1.6 -1.1,1.7 -4.6,1.1 -5.3,5.2 -6.8,8.9"
   fill="#000000"
   stroke="none"
   id="path45" />
<path
   d="m 139.90859,113 c 1.7,-0.5 2.9,-1 4,-1.5 -0.2,1.2 -0.2,2.5 -0.7,3.7 -2.2,5.6 -2.3,5.6 3.8,7.8 0.7,0.2 1.3,0.6 1.9,0.9 -0.3,0.5 -0.6,1.5 -0.9,1.5 -2.6,0.3 -5.4,1 -7.7,0.2 -1.4,-0.5 -2.3,-3.2 -3.1,-5 -0.4,-0.7 0,-1.7 0.1,-2.6 -1.6,0.3 -3.3,0.2 -4.6,0.9 -1.6,0.9 -2.7,2.5 -4,3.8 -2.9,2.8 -6.7,3.6 -9.2,0.8 -1.5,-1.6 -0.6,-5.4 -0.5,-8.3 0,-0.7 1,-1.4 1.6,-2.1 0.4,0.8 1.1,1.6 1.3,2.5 0.4,1.7 0.6,3.6 0.9,5.4 2.1,-1.3 4.3,-2.5 6.4,-3.8 0.5,-0.3 1.4,-0.9 1.4,-1.4 -0.4,-6.7 3.7,-3.1 6.3,-2.8 0.9,0.1 1.7,0 3,0"
   fill="#000000"
   stroke="none"
   id="path46" />
<path
   d="m 558.90859,153 c 1.3,8.8 -1.1,15.7 -8.1,20.6 -1.1,0.8 -2.3,2.2 -3.5,2.3 -2,0.1 -4,-0.7 -6,-1 1.1,-0.8 2.7,-1.2 3.3,-2.2 1.1,-2 2,-4.3 2.3,-6.5 0.6,-4.7 -1,-9.5 2.9,-13.9 3.9,-4.5 6,-4.9 9.1,0.7 m -4.5,0 c -2.8,2.5 -4.9,10.8 -3.2,13.6 0.2,0.4 2.4,0.3 2.6,-0.1 1.8,-4.2 3.3,-8.5 0.6,-13.5"
   fill="#000000"
   stroke="none"
   id="path47" />
<path
   d="m 1160.9086,251 c 2.4,-1 4.3,-2.6 6.3,-2.9 4.6,-0.7 7.5,3.3 4.8,7.1 -3.7,5 -8.5,9.3 -13,13.8 -1.6,1.6 -3.7,2.8 -5.7,4.1 -0.6,0.4 -1.4,0.5 -2,0.7 -0.1,-0.8 -0.4,-1.6 -0.3,-2.3 0.1,-0.4 0.6,-0.7 0.9,-1.1 3.8,-5.3 6.5,-11 7.1,-17.5 0.1,-0.7 0.9,-1.3 1.9,-1.9 m 3,10.5 c 1.3,-1.6 2.9,-3.1 3.8,-4.9 0.6,-1.4 0.2,-3.3 0.3,-5 -1.1,0.8 -2.7,1.3 -3.4,2.4 -1.5,2.4 -4.6,4.8 -0.7,7.5"
   fill="#000000"
   stroke="none"
   id="path48" />
<path
   d="m 1125.7086,540.8 c -5.2,3.2 -7.1,2.8 -7.6,-2.5 -0.5,-4.7 0.4,-9.7 0.9,-14.5 0.4,-3.9 2.8,-6.3 6.7,-5.7 4.2,0.6 7.4,4.3 6.9,7.9 -0.6,5.2 -1,11.3 -6.9,14.8 m 3.2,-11.3 c -0.3,-1.4 -0.4,-2.8 -1,-4 -0.5,-1 -1.6,-1.7 -2.4,-2.5 -0.8,0.9 -1.8,1.8 -2.5,2.8 -0.4,0.6 -0.6,1.5 -0.6,2.3 0.3,3.6 0.8,7.2 1.2,10.8 1.6,-3 3.2,-5.9 5.3,-9.4"
   fill="#000000"
   stroke="none"
   id="path49" />
<path
   d="m 1068.7086,263.7 c 2.4,-2.7 4.4,-5.1 6.6,-7.5 0.5,-0.6 1.3,-0.8 2,-1.2 0.2,0.7 0.6,1.5 0.6,2.2 -0.2,4 0.8,6.6 5.6,5.8 0.7,-0.1 1.5,0.5 2.2,0.7 -0.6,0.8 -1.2,2 -2,2.2 -4.2,1.1 -5.5,3.6 -4.9,7.8 0.2,1 -0.9,2.2 -1.4,3.3 -0.8,-1 -1.9,-1.9 -2.4,-3 -0.8,-1.9 -1.3,-4 -1.9,-6 -2.8,0.9 -5.8,1.5 -8.3,2.8 -1.7,0.9 -2,1.5 -1.9,-0.8 0.1,-3.1 0,-6.3 0.1,-9.5 0,-0.8 0.8,-1.7 1.2,-2.5 0.6,0.7 1.4,1.3 1.7,2.1 0.5,1.3 0.7,2.7 1.1,4 0,0.1 0.9,-0.1 1.7,-0.4"
   fill="#000000"
   stroke="none"
   id="path50" />
<path
   d="m 1163.2086,37.2 c 2.5,-0.9 4.7,-1.6 6.9,-2.2 0.5,-0.1 1.2,0.3 1.8,0.5 -0.2,0.5 -0.3,1.3 -0.7,1.6 -3.7,3.7 -8.3,4.5 -13.3,3.8 -0.7,-0.1 -1.3,-1.5 -2,-2.3 -1.7,-2.2 -0.2,-6.2 -3.9,-7.4 -0.1,0 0.1,-2.5 0.8,-3.5 2.7,-3.5 5.4,-7 8.4,-10.4 1,-1.1 2.6,-1.5 4,-2.3 -0.1,1.5 0.2,3.2 -0.4,4.5 -1,2.2 -2.6,4 -3.8,6 -0.4,0.7 -0.5,1.6 -0.7,2.4 0.7,-0.3 1.4,-0.6 2.1,-0.8 1.5,-0.6 2.9,-1.1 4.4,-1.7 -0.8,1.6 -1.5,3.3 -2.6,4.8 -1.2,1.5 -3.2,2.6 -4,4.2 -1.1,2.3 -1.4,5 3,2.8"
   fill="#000000"
   stroke="none"
   id="path51" />
<path
   d="m 1230.9086,529 c 1.2,0 1.9,0 2.5,0 -0.2,0.9 -0.3,2 -0.8,2.7 -1.4,2.1 -3,4 -4.5,5.9 2.6,-0.3 5.2,-0.7 7.7,-1 1.6,-0.2 3.2,-0.6 4.8,-0.5 0.8,0 1.6,0.9 2.3,1.3 -0.6,0.7 -1.2,1.8 -2,2 -3.8,1 -7.6,2.1 -11.4,2.5 -3.1,0.3 -5.8,-0.8 -5.6,-4.8 0.1,-0.5 0.2,-1 0,-1.5 -0.9,-2.7 -3.5,-6.6 -2.5,-8 2.3,-3.4 6.2,-5.9 9.7,-8.5 0.9,-0.7 2.5,-0.4 3.8,-0.6 -0.4,1.1 -0.7,2.4 -1.4,3.3 -1.4,1.7 -3,3.1 -4.5,4.7 -1,1 -2,2.1 -3,3.1 1.5,-0.2 3,-0.4 4.9,-0.6"
   fill="#000000"
   stroke="none"
   id="path52" />
<path
   d="m 504.70859,446.8 c 3.4,-5 7.6,-5 10.3,-0.4 2.1,3.9 5.2,8 1.7,12.2 -3.9,4.6 -8.9,5.9 -12.9,2.7 -4.1,-3.2 -3.8,-8.3 0.9,-14.5 m 8.2,4.7 c -1.2,-1 -1.2,-4 -4.1,-2 -2.7,2.1 -3.7,4.8 -2.6,7.7 0.3,0.8 3.8,1.3 5.2,0.6 1.6,-0.8 4.3,-2.6 1.5,-6.3"
   fill="#000000"
   stroke="none"
   id="path53" />
<path
   d="m 462.90859,227 c 1,1.1 1.3,2.4 2.1,3.3 0.7,0.7 2,1.4 2.9,1.1 0.9,-0.3 1.6,-1.5 2.5,-2.3 1.3,-1.4 2.7,-2.7 4.1,-4 0.2,1.9 0.2,3.9 0.5,5.8 0.4,3.1 1.1,6.1 1.5,9.3 0.2,1.2 -0.2,2.5 -0.3,3.8 -1.1,-0.9 -2.6,-1.5 -3.3,-2.6 -0.9,-1.7 -1.3,-3.8 -2,-5.7 -0.2,-0.5 -0.7,-1.3 -0.8,-1.2 -2,0.4 -3.9,1.4 -5.8,1.4 -3,-0.1 -5.4,0.2 -7.1,3.2 -1.1,2 -3.2,3.8 -3.4,-0.7 -0.1,-1.9 -0.8,-3.8 -0.7,-5.6 0,-0.7 1.6,-1.2 2.5,-1.8 2.3,-1.3 4.6,-2.7 7.3,-4"
   fill="#000000"
   stroke="none"
   id="path54" />
<path
   d="m 1114.2086,483.7 c -0.3,-0.4 -0.3,-0.5 -0.3,-0.7 1,-4.7 -0.7,-5 -4.4,-3 -5.8,3 -5.9,2.9 -5.5,-3.4 0.1,-1.5 0.5,-3.1 1,-4.6 0.2,-0.7 0.9,-1.3 1.3,-1.9 0.6,0.7 1.2,1.4 1.6,2.1 0.5,0.9 0.7,1.9 1.1,2.8 0.8,-0.7 1.8,-1.3 2.5,-2.1 1.9,-2.5 3.7,-5.1 5.7,-7.6 0.5,-0.6 1.6,-0.8 2.4,-1.2 0.1,0.8 0.2,1.6 0.4,2.4 0.6,2.6 -2,6.5 2.7,7.7 -0.4,1 -0.7,2.5 -1.3,2.7 -3.1,1 -3.8,2.6 -2.6,5.7 0.5,1.2 -0.4,2.9 -0.7,4.4 -1.2,-1 -2.4,-2 -3.9,-3.3"
   fill="#000000"
   stroke="none"
   id="path55" />
<path
   d="m 187.20859,165.2 c 0.4,-0.2 0.6,-0.2 0.7,-0.2 2,0.2 4,0.3 6,0.5 -1.8,1.1 -3.5,2.5 -5.4,3.4 -4.3,2.1 -8.2,1.2 -11.8,-1.7 -4.5,-3.6 -4.6,-6.4 -0.8,-10.7 1.5,-1.7 2.4,-4 3.9,-5.8 0.7,-0.7 2.1,-0.8 3.1,-1.2 0,1 0.3,2.2 0,3.1 -0.8,2.1 -2,4.1 -2.9,6.2 -0.2,0.6 0.1,1.3 0.2,1.9 0.4,-0.3 0.9,-0.5 1.4,-0.8 1.8,-1.6 3.6,-3.2 5.6,-4.5 0.6,-0.4 1.8,0 2.7,0 -0.2,0.9 -0.1,2.1 -0.6,2.7 -1.1,1.1 -2.6,1.9 -3.8,2.9 -1.5,1.4 -3,3 -4.5,4.5 2,0 4,0 6.2,-0.3"
   fill="#000000"
   stroke="none"
   id="path56" />
<path
   d="m 989.20859,482.3 c -0.9,0.8 -1.4,1.4 -2,2 0.7,0.2 1.4,0.5 2.2,0.7 2.5,0.6 5,1.2 7.5,1.8 -1.6,4.1 -5.1,1.7 -7.7,2.1 -2.5,0.4 -5.2,0.4 -7.6,-0.2 -0.8,-0.1 -1.5,-2.6 -1.6,-4 0,-2.2 0.8,-4.4 0.9,-6.6 0.1,-5.8 5.6,-9.9 11,-8.1 2.2,0.7 2.4,5.3 0.4,8.2 -1,1.3 -1.9,2.5 -3.1,4.1 m -4.3,-2.8 c 0.3,0.5 0.6,1 0.8,1.5 1.1,-1.9 2.2,-3.8 3.2,-5.8 0.1,-0.2 -0.7,-0.8 -1,-1.2 -1,1.5 -2,3 -3,5.5"
   fill="#000000"
   stroke="none"
   id="path57" />
<path
   d="m 1208.9086,481 c 1.2,-8.9 5.8,-15.8 10.3,-22.6 0.4,-0.7 1.8,-0.7 2.7,-1 0.2,1.2 1,2.6 0.6,3.4 -2,4 -4.3,7.8 -6.6,11.7 -0.2,0.4 -0.8,0.7 -0.9,1.1 -1,2.4 -1.9,4.7 -2.8,7.1 2.2,-0.9 4.4,-1.8 6.6,-2.7 2.1,-0.9 4.2,-1.9 6.4,-2.6 0.6,-0.2 1.7,0.3 2.3,0.8 0.3,0.2 0.1,1.7 -0.2,1.9 -5,2.4 -10,4.8 -15.1,6.8 -2.9,1.1 -3.7,-0.8 -3.3,-3.9"
   fill="#000000"
   stroke="none"
   id="path58" />
<path
   d="m 1236.9086,419 c 1,-0.9 1.9,-1.3 2.8,-1.7 0.4,1.1 1.3,2.5 1,3.3 -1,2.4 -2.1,5 -3.9,6.9 -2.4,2.6 -4.1,5.1 -4,8.9 0,1.4 -1.7,2.9 -2.6,4.4 -0.4,-1.5 -1.1,-3 -1.2,-4.5 -0.2,-5.4 -0.1,-5.4 -4.9,-2.9 -0.7,0.3 -1.4,0.8 -2.1,1 -1.5,0.3 -3.1,0.3 -4.7,0.5 0.6,-1.2 1.2,-2.3 1.6,-3.5 0.8,-2.4 1.3,-4.8 2.1,-7.1 0.3,-0.9 1.3,-1.5 2,-2.3 0.7,0.7 1.5,1.2 1.9,2 0.7,1.3 1.2,2.7 1.8,4 2.4,-1.3 5,-2.2 7.2,-3.9 1.4,-1 2,-3 3,-5.1"
   fill="#000000"
   stroke="none"
   id="path59" />
<path
   d="m 480.70859,445.8 c 3.9,-4.4 10.4,-5.3 13.6,-1.6 1.1,1.3 1.4,4.8 0.5,6.1 -1.6,2.1 -4.4,3.6 -6.9,4.6 -3.1,1.1 -4.6,2.6 -4,6 0.1,0.9 -0.7,2.1 -1.1,3.1 -0.9,-0.8 -2.4,-1.5 -2.8,-2.5 -1.6,-5.2 -2.5,-10.4 0.7,-15.7 m 12.2,2.7 c -1.6,-0.8 -3.5,-2.7 -4.8,-2.3 -1.9,0.6 -3.5,2.6 -5.1,4.3 -0.3,0.3 0.1,1.5 0.2,2.3 0.7,-0.3 1.3,-0.5 2,-0.8 2.4,-1 4.8,-2 7.7,-3.5"
   fill="#000000"
   stroke="none"
   id="path60" />
<path
   d="m 1316.9086,418 c 1,0 1.5,0 2,0 2,0.2 4,0.5 6,0.8 -1.9,1.1 -3.7,2.4 -5.7,3.1 -1.4,0.5 -3,0 -4.5,0.1 -4.5,0.3 -6.8,3.3 -8.8,6.9 -0.8,1.5 -1.7,3 -2.8,4.3 -1.1,1.4 -2.5,2.5 -3.8,3.7 0,-1.9 -0.1,-3.8 -0.1,-5.7 0,-3.5 -0.1,-6.9 0.1,-10.4 0.1,-1 0.9,-2.7 1.5,-2.7 5.2,-0.2 10.4,-0.1 16.1,-0.1"
   fill="#000000"
   stroke="none"
   id="path61" />
<path
   d="m 159.20859,110.7 c 1,3.2 2.5,1.5 3.7,0.8 1.6,-1 5.9,-0.1 6.6,1.6 0.4,0.8 0.7,1.9 1.4,2.3 2.6,1.7 8.4,3.4 -0.4,3.8 -0.6,0.1 -1,3.4 -1.6,5.1 -0.3,0.6 -1,1.2 -1.6,1.5 -0.2,0.1 -1.3,-0.9 -1.3,-1.3 0.2,-8.7 -5.7,-4.5 -9.5,-4.5 -0.7,0.1 -1.4,0.7 -2.1,1 -0.1,-2.2 -0.9,-4.8 0,-6.6 0.7,-1.5 0.3,-5.9 4.8,-3.7"
   fill="#000000"
   stroke="none"
   id="path62" />
<path
   d="m 496.20859,127.2 c 1.1,-1 1.8,-2 2.8,-2.6 0.3,-0.2 1.8,0.6 1.9,0.9 0.1,8.2 0.1,16.3 -0.1,24.5 0,1 -1.4,2 -2.2,3 -0.5,-1.1 -1.6,-2.1 -1.6,-3.2 -0.1,-5.5 0,-11 -0.1,-16.5 0,-0.7 -0.3,-1.5 -0.4,-2.3 -0.5,0.5 -0.9,1 -1.4,1.4 -2.3,1.6 -4.6,3.3 -7,4.9 -0.2,0.1 -1.1,-0.1 -1.1,-0.1 -0.1,-3.5 -0.1,-7.1 0.1,-10.6 0,-0.2 1.7,-0.2 2.6,-0.3 0.3,9.7 4.1,1.3 6.5,0.9"
   fill="#000000"
   stroke="none"
   id="path63" />
<path
   d="m 1091.2086,27.2 c 1.8,-2.5 3.4,-4.9 5,-7.2 0.6,2.7 1.5,5.4 1.7,8.2 0.3,3.6 0.1,7.4 0,11.1 -0.1,0.9 -1,1.7 -1.6,2.6 -0.4,-0.8 -1,-1.6 -1.3,-2.4 -0.5,-1.3 -0.8,-2.7 -1,-4.1 -0.3,-1.4 -0.3,-2.9 -0.5,-4.3 -1.3,1 -2.7,2 -4.1,3 -0.2,0.1 -0.2,0.2 -0.4,0.3 -2.1,1.2 -4.3,2.4 -6.5,3.6 -0.8,-2.9 -1.9,-5.8 -2.4,-8.8 -0.2,-1 1.3,-2.1 2,-3.2 0.6,1 1.5,2 1.8,3.1 0.4,1.5 0.3,3.2 0.4,4.8 1.1,-1.3 2,-2.7 3.2,-3.9 1,-1 2.3,-1.7 3.7,-2.8"
   fill="#000000"
   stroke="none"
   id="path64" />
<path
   d="m 423.20859,241.2 c -1.1,-1.3 -2.4,-2.5 -3.9,-3.3 -5.6,-3 -6,-8.2 -0.7,-12 1,-0.7 2,-1.7 3.2,-1.8 1.9,-0.2 4,0.1 6,0.2 -0.9,2.3 -1.7,4.6 -2.6,6.8 0,0.1 -1.6,-0.3 -2.2,-0.8 -0.9,-0.6 -1.7,-1.5 -2.5,-2.3 -0.3,1.7 -1.5,3.9 -0.8,4.9 0.9,1.5 3.3,2.2 4.9,3.3 1.5,1.1 2.9,2.4 4.3,3.6 -1.2,1.4 -2.3,3.6 -3.8,4 -3.7,1 -7.5,1.2 -11.3,1.4 -0.8,0.1 -1.7,-1.3 -2.6,-2 1,-0.4 2,-1 3,-1.2 2.9,-0.3 5.8,-0.3 9,-0.8"
   fill="#000000"
   stroke="none"
   id="path65" />
<path
   d="m 873.90859,538 c 0.5,-2.6 1.3,-4.8 3.9,-3.9 1.6,0.6 2.9,2.4 4.1,3.8 1.1,1.2 1.8,2.7 2.7,4.1 0.8,-1.7 1.7,-3.4 2.3,-5.1 0.1,-0.4 -0.9,-1 -0.9,-1.6 0,-1.7 0.3,-3.5 0.4,-5.3 2.4,0.7 4.8,1.4 7.1,2.2 0.2,0 0.3,1.5 0.1,1.5 -3.5,1.4 -3,4.6 -3.9,7.4 -0.4,1.6 -2.8,3.6 -4.4,3.7 -1.8,0.1 -4.3,-2.9 -5.6,-2.4 -1.8,0.7 -2.7,3.5 -4.1,5.2 -0.1,0.2 -2.5,-1 -2.5,-1.5 0,-2.5 0.5,-5.1 0.8,-8.1"
   fill="#000000"
   stroke="none"
   id="path66" />
<path
   d="m 177.70859,202.7 c 0.9,-0.3 2.1,-0.7 2.2,-0.6 1.1,2.2 2.2,4.3 2.9,6.6 0.3,0.8 -0.4,2.2 -1.1,3 -1.1,1.1 -2.5,1.9 -3.8,2.8 -1.3,1 -2.5,2.1 -3.8,3.2 2,0.4 4,1 6,1.3 2.6,0.3 5.2,0.4 7.8,0.5 -2.4,1.1 -4.7,2.4 -7.2,3.2 -4.7,1.5 -8.4,-0.9 -9.8,-5.8 -0.3,-1.1 -1.3,-2.1 -1.8,-3.2 -0.8,-2 -2.4,-3.5 1.9,-4.1 2.4,-0.3 4.3,-4.3 6.7,-6.9"
   fill="#000000"
   stroke="none"
   id="path67" />
<path
   d="m 100.90859,233 c -0.8,-4.7 -1.8,-9.3 -2.3,-14 -0.2,-1.6 0.9,-3.3 1.5,-5 0.9,1.2 2.5,2.2 2.7,3.5 1,4.7 1.4,9.5 2.2,14.2 0.7,4.5 -1.4,5.8 -5.6,5.3 -4.7,-0.5 -11.7,-7.2 -11.4,-11.4 0.1,-1.2 0.9,-2.3 1.3,-3.5 0.9,0.9 2.4,1.7 2.5,2.7 0.7,5.2 4.8,6.5 8.9,8.4 0.5,0.3 0.9,0.3 1.2,0.4 -0.3,-0.2 -0.7,-0.4 -1,-0.6"
   fill="#000000"
   stroke="none"
   id="path68" />
<path
   d="m 1066.7086,475.7 c 2.3,-2 4.3,-3.9 6.3,-5.7 0.3,2.6 0.1,5.4 1.1,7.8 1.3,3.2 -1.8,3.4 -2.6,5.1 -0.5,1 -0.9,1.9 -1.4,2.8 1.1,0.1 2.4,0.5 3.3,0.2 1.9,-0.7 3.5,-2 5.3,-2.8 0.6,-0.3 1.5,0.3 2.2,0.4 -0.2,0.6 -0.4,1.2 -0.7,1.7 -2.2,3.1 -9.2,5.7 -12.9,4.8 -2.5,-0.6 -4.2,-10 -2.3,-12.6 0.4,-0.5 1,-0.9 1.7,-1.7"
   fill="#000000"
   stroke="none"
   id="path69" />
<path
   d="m 1023.2086,30.2 c 1.1,1.6 1.7,3.6 2.8,5.2 1,1.4 2.6,2.4 3.9,3.6 0.7,-1.4 1.9,-2.9 1.9,-4.3 0,-2.5 -0.8,-5 -1.1,-7.5 -0.1,-1 0.4,-2.1 0.6,-3.1 0.9,0.5 2.4,1 2.5,1.6 0.9,4.2 2.2,8.5 1.9,12.7 -0.2,2.9 -3.4,5.6 -6.6,4.4 -3.5,-1.3 -5.5,-0.5 -7.5,2 -0.5,0.6 -1.4,0.8 -2,1.2 -0.2,-0.9 -0.8,-1.9 -0.6,-2.6 1.2,-4.4 2.6,-8.6 4.2,-13.2"
   fill="#000000"
   stroke="none"
   id="path70" />
<path
   d="m 1145.7086,34.2 c 0.7,0.9 1.5,1.8 1.4,2 -2.5,3.4 -8.3,3.7 -11.5,1.1 -1.4,-1.2 -3.3,-2 -5,-2.2 -1.5,-0.1 -3,1 -4.5,1.5 0.4,-1.8 0.4,-3.7 1.2,-5.3 1.7,-3.8 3.7,-7.4 5.7,-11.1 0.3,-0.5 1,-1.1 1.5,-1.1 0.5,0 1.4,0.9 1.4,1.2 -0.4,2.3 -1,4.6 -1.6,6.8 -0.3,1 -0.6,1.9 -1,2.8 1.3,-0.5 2.6,-0.9 3.8,-1.6 0.7,-0.4 1.2,-1.2 1.7,-1.9 0.4,1.2 1.2,2.4 1.1,3.5 -0.9,6.6 -1,6.6 5.8,4.3"
   fill="#000000"
   stroke="none"
   id="path71" />
<path
   d="m 1094.2086,528.3 c 1.3,0.7 2.5,1.6 3.3,2.8 2.3,3.6 3.3,3.1 4.7,-0.7 0.6,-1.7 2.9,-2.9 4.4,-4.3 -0.2,2.5 0.2,5.3 -0.8,7.4 -2.1,4.1 -2.4,3.8 2.4,6.3 1.3,0.7 2.2,2.1 3.3,3.2 -1.7,0.3 -3.4,0.7 -5.1,1 -0.1,0 -0.2,-0.3 -0.3,-0.3 -3.4,-2 -7.2,-5.7 -7.7,2.3 -0.1,0.7 -1.3,1.3 -2,1.9 -0.5,-0.9 -1,-1.9 -1.4,-2.9 -0.2,-0.4 -0.2,-1.1 0,-1.5 2.3,-4.5 1.5,-8.7 -1.6,-12.6 -0.3,-0.4 0.3,-1.6 0.8,-2.6"
   fill="#000000"
   stroke="none"
   id="path72" />
<path
   d="m 499.20859,168.2 c -0.9,2 -1.7,3.7 -2.2,5.4 -0.2,0.7 0.3,1.6 0.5,2.4 -0.9,-0.2 -2.3,-0.2 -2.7,-0.7 -2.8,-5.1 -6.6,-4.4 -10.7,-2 -0.3,0.2 -0.7,0.2 -1.1,0.3 0,-2.9 -0.1,-5.7 0,-8.6 0,-0.4 1.1,-1 1.2,-0.9 4.7,3.8 4.6,-1.8 6.4,-3.4 0.8,-0.6 1.2,-1.8 1.8,-2.7 0.7,1 1.9,2 2.1,3.1 0.5,2.8 1.5,4.5 4.8,4 0.8,-0.2 1.7,0.3 2.6,0.5 -0.8,0.8 -1.6,1.6 -2.7,2.6"
   fill="#000000"
   stroke="none"
   id="path73" />
<path
   d="m 1286.9086,461 c 1.4,0.3 2.2,0.5 3,0.8 -0.5,0.7 -1.1,2.1 -1.6,2.1 -9.1,-0.2 -10,6.1 -10.6,12.8 0,0.7 -0.4,1.5 -0.8,2.1 -0.6,1.1 -1.4,2.1 -2.2,3.2 -0.6,-1.2 -1.4,-2.3 -1.7,-3.6 -0.9,-4 -1.9,-8.1 -2.2,-12.2 -0.1,-1.3 1.5,-3.8 2.6,-4 4.3,-0.8 8.7,-0.9 13.5,-1.2 m -12,9.5 c 0,-1.4 0,-2.7 0,-4.1 -0.3,0.1 -0.9,0.2 -0.9,0.2 0.1,1.5 0.3,2.9 0.9,3.9"
   fill="#000000"
   stroke="none"
   id="path74" />
<path
   d="m 1107.7086,85.7 c -3.5,2.9 -2.9,0 -2.7,-1.5 0.3,-3.9 1,-7.5 -4.2,-2.7 -1.5,1.4 -3.1,0.9 -2.9,-1.7 0.4,-2.8 0.5,-5.7 1.1,-8.5 0.3,-1.2 1.7,-2.1 2.6,-3.2 0.4,1 0.9,2 1.3,2.9 0.8,1.7 1.6,3.3 2.4,5 1.6,-2 3.3,-3.8 4.6,-5.9 1,-1.9 1.5,-4.1 2.3,-6.1 0.6,2.2 2.1,4.7 1.6,6.5 -1.5,5.1 -3.9,10 -6.1,15.2"
   fill="#000000"
   stroke="none"
   id="path75" />
<path
   d="m 1148.7086,534.8 c -2.4,2.2 -4.3,4.6 -6.7,6 -1.6,1 -4.6,1.2 -6.1,0.3 -1.3,-0.7 -2.3,-3.9 -1.8,-5.4 1.2,-3.4 3.1,-6.8 5.4,-9.6 1,-1.2 4.4,-1.9 5.5,-1.2 1.8,1.3 2.8,3.9 3.9,6.2 0.4,0.9 0,2.2 -0.2,3.7 m -10.8,-0.3 c -0.2,1.1 -0.4,2.3 -0.6,3.4 1,-0.3 2.1,-0.5 3,-0.8 0.9,-0.4 2,-0.8 2.4,-1.4 0.9,-1.7 1.4,-3.6 2,-5.4 -1.9,0.5 -3.9,1 -5.7,1.7 -0.5,0.2 -0.7,1 -1.1,2.5"
   fill="#000000"
   stroke="none"
   id="path76" />
<path
   d="m 1097.9086,421 c 0.8,-0.2 1,-0.7 1.2,-0.7 3.2,-0.1 6.3,-0.1 9.5,-0.2 -2.6,1.3 -5,3.2 -7.7,3.8 -4.8,1 -3.6,5.3 -4.9,8.1 -1.4,2.9 -2.4,6 -3.5,9 -0.5,-3.1 -0.8,-6.2 -1.6,-9.2 -0.6,-2.2 -1.9,-4.2 -3,-6.3 -0.4,-0.8 -1.2,-1.4 -1.9,-2.1 1.1,-0.5 2.2,-1.1 3.4,-1.4 2.7,-0.4 5.4,-0.7 8.5,-1"
   fill="#000000"
   stroke="none"
   id="path77" />
<path
   d="m 966.90859,488 c -4.6,1.6 -8.4,0.1 -7.7,-3.4 0.7,-4 2.7,-8 5.1,-11.2 1.6,-2.1 4.7,-2.6 6.1,1.4 0.4,1 2.2,1.5 3.4,2.2 1,0.6 2.1,1.1 3.1,1.7 -0.7,0.7 -1.4,1.3 -2.1,2 -2.5,2.4 -4.9,4.9 -7.9,7.3 m -4,-3.5 c 1.3,-0.2 2.7,-0.1 3.9,-0.6 0.8,-0.3 1.6,-1.3 2,-2.2 0.2,-0.2 -0.9,-1.6 -1.4,-1.6 -1,0 -2.2,0.4 -3,1.1 -0.7,0.5 -1,1.5 -1.5,3.3"
   fill="#000000"
   stroke="none"
   id="path78" />
<path
   d="m 115.70859,153.2 c 0.9,0.7 1.8,0.9 2.3,1.4 1,1.1 2,2.5 2.9,3.7 -1.4,-0.1 -2.8,-0.4 -4.1,-0.3 -1.3,0.1 -2.6,0.6 -3.9,0.9 0.7,0.9 1.2,2 2.1,2.6 3.1,1.9 6.4,4 4.9,8.3 -1.5,4.2 -5.8,4.6 -9.4,5.1 -1.7,0.2 -3.7,-1 -5.6,-1.6 2.1,-1.1 4,-2.3 6.2,-3.2 0.8,-0.4 2,0.1 2.9,-0.2 1,-0.2 1.9,-0.9 2.9,-1.4 -0.8,-0.8 -1.5,-1.7 -2.3,-2.5 -1.9,-2 -4.9,-3.7 -5.4,-6 -1.1,-4.3 3,-5.7 6.5,-6.8"
   fill="#000000"
   stroke="none"
   id="path79" />
<path
   d="m 1144.2086,271.2 c -6.7,2.1 -7.2,-3.8 -9.5,-7.1 -2,-2.8 -0.9,-4.9 2.2,-6.9 2.5,-1.5 4.1,-4.5 6.2,-6.7 0.6,-0.7 1.8,-0.8 2.7,-1.2 0,0.8 0.4,1.8 0.1,2.4 -1.6,4.2 -0.4,9.1 -3.9,12.9 -3.1,3.3 -0.3,3.4 2.3,3.4 0.9,0 1.8,0.4 2.6,0.6 -0.8,0.8 -1.6,1.6 -2.7,2.6"
   fill="#000000"
   stroke="none"
   id="path80" />
<path
   d="m 1118.7086,258.7 c 1.2,-0.8 2,-1.4 3,-1.9 0.6,-0.3 1.4,-0.3 2,-0.5 0.1,0.8 0.3,1.6 0,2.3 -0.4,1.3 -1.1,2.6 -1.8,3.8 -1.5,2.6 -2.5,4.8 2.2,4.7 1,0 1.9,1.3 2.8,2 -0.8,0.6 -1.5,1.6 -2.4,1.8 -2.9,0.3 -5.7,0.6 -7.7,-2.6 -0.7,-1.2 -3.5,-2.5 -4.4,-2 -3.3,1.8 -3.8,0.4 -3.4,-2.3 0.4,-2.8 1.1,-5.5 2,-8.1 0.5,-1.3 1.9,-2.3 2.8,-3.5 0.3,1.8 0.8,3.6 0.8,5.4 0,1.4 -0.5,2.8 -0.8,4.2 1.5,-1 3.1,-2 4.9,-3.3"
   fill="#000000"
   stroke="none"
   id="path81" />
<path
   d="m 1257.2086,430.3 c 1.1,-3.1 1.1,-6.9 2.9,-8.4 2.4,-2 6.3,-2.2 9.6,-2.8 2.4,-0.5 4.1,-0.3 2.3,3 -1.1,2.1 -1.8,4.7 -2,7.1 -0.4,4.3 -3.8,5.5 -6.8,6.7 -4.6,1.7 -6.2,0 -6,-5.6 m 9.2,-6.3 c -2.1,2.2 -4.3,4.3 -6.4,6.6 -0.1,0.2 0.7,1.8 1,1.8 4.3,-0.3 6.8,-3.6 5.4,-8.4"
   fill="#000000"
   stroke="none"
   id="path82" />
<path
   d="m 523.20859,459.8 c 0.2,-1.1 0.4,-2.4 1.1,-2.7 1,-0.4 2.3,0.1 3.4,-0.1 2.4,-0.5 4.8,-1.1 7.2,-1.6 -1.8,-1.1 -3.5,-2.6 -5.5,-3.3 -2.9,-1 -4.2,-3 -3.3,-5.5 0.7,-1.8 2.7,-4.1 4.4,-4.3 2,-0.4 4.3,1.1 6.4,2.1 0.5,0.2 0.5,1.6 0.8,2.4 -0.8,0 -1.6,0.2 -2.4,0 -0.7,-0.1 -1.4,-0.8 -2.1,-0.7 -1.1,0.1 -2.2,0.6 -3.3,0.9 0.7,0.9 1.4,1.8 2.1,2.5 0.3,0.3 1,0.2 1.3,0.5 1.9,1.8 3.7,3.6 5.5,5.4 -2,1.7 -3.7,4.4 -6,5 -2.9,0.7 -6.2,-0.2 -9.6,-0.6"
   fill="#000000"
   stroke="none"
   id="path83" />
<path
   d="m 1110.9086,41 c -1.6,-0.3 -2.8,-0.5 -4,-0.8 0.7,-0.9 1.2,-1.9 2,-2.6 0.7,-0.6 1.7,-0.9 2.4,-1.5 1.2,-1.2 2.3,-2.5 3.5,-3.8 -1.7,-0.4 -3.3,-1 -4.9,-1.3 -3.2,-0.6 -5.6,-1.6 -5,-5.5 0.6,-3.5 5.8,-8.4 8.1,-7.4 1,0.4 1.3,2.2 1.9,3.4 -0.6,0.3 -1.4,0.5 -2,1 -1.4,1 -2.6,2.2 -4,3.4 0.8,0.6 1.5,1.8 2.4,1.8 3.3,0.4 7.5,1.2 7.1,4.6 -0.4,2.9 -4,5.3 -6.3,8 -0.2,0.2 -0.4,0.5 -1.2,0.7"
   fill="#000000"
   stroke="none"
   id="path84" />
<path
   d="m 425.20859,199.2 c -5.4,0.5 -10.5,0.7 -15.7,0.7 -0.5,0 -1,-1 -1.6,-1.6 0.7,-0.4 1.4,-1.2 2,-1.2 11.2,-0.5 22.4,-0.8 33.5,-1.1 0.9,0 1.9,0.3 2.7,0.7 0.9,0.6 1.7,1.4 2.5,2.1 -1,0.4 -2,1.2 -3,1.1 -2.8,-0.2 -5.6,-1 -8.4,-1.1 -3.9,-0.1 -7.8,0.1 -12,0.4"
   fill="#000000"
   stroke="none"
   id="path85" />
<path
   d="m 70.90859,167 c 2.1,-3.6 4.1,-6.9 6.5,-9.7 0.7,-0.9 2.8,-0.8 4.2,-1.1 0.1,1.3 0.6,2.8 0.3,4 -0.7,2.2 -2,4.2 -2.9,6.3 -1.7,3.7 -3.4,7.5 -5,11.3 -0.3,0.5 -0.2,1.2 -0.3,1.9 0,0 -0.5,0 -0.6,-0.1 -0.8,-0.6 -2,-1.3 -2.1,-2 -0.2,-3.4 -0.1,-6.7 -0.1,-10.6"
   fill="#000000"
   stroke="none"
   id="path86" />
<path
   d="m 436.90859,240 c -2.9,-5.4 -1,-10.8 4.8,-12.1 4.2,-1 0.9,3.8 2.9,4.9 0.1,0.1 -0.5,1.1 -0.7,1.7 -1.4,4.1 -2.6,8.1 4.5,6.6 0.2,-0.1 0.7,1.2 1,1.9 -3.3,0.7 -6.7,1.6 -10.1,1.8 -0.7,0 -1.6,-2.8 -2.4,-4.8"
   fill="#000000"
   stroke="none"
   id="path87" />
<path
   d="m 1086.9086,469 c 4.9,-0.3 9.2,-0.7 13.6,-0.9 0.8,-0.1 1.6,0.8 2.4,1.2 -0.7,0.6 -1.3,1.6 -2,1.6 -6.5,0.7 -10.1,3.6 -9.1,10.7 0.1,0.8 -1,1.9 -1.7,2.7 -0.5,0.6 -1.4,0.9 -2.1,1.3 -0.3,-0.7 -1,-1.3 -1,-2 -0.3,-4 1.1,-8.4 -3.1,-11.2 0.9,-1.2 1.7,-2.3 3,-3.4"
   fill="#000000"
   stroke="none"
   id="path88" />
<path
   d="m 470.90859,254 c 2.5,-1.3 4.4,-2.7 6.3,-4 0.9,2.6 2.1,5.1 2.6,7.7 0.5,2.2 0.3,4.6 0.1,6.9 -0.1,0.8 -0.9,1.6 -1.4,2.4 -0.6,-0.7 -1.5,-1.2 -2,-2 -0.4,-0.8 -0.6,-1.8 -0.5,-2.7 0.2,-3.2 -1.3,-3.2 -3.7,-2.3 -1.5,0.6 -4.5,1.3 -4.6,1 -0.8,-2.3 -1.2,-4.7 -1.8,-7.2 1.5,0.1 3,0.1 5,0.2"
   fill="#000000"
   stroke="none"
   id="path89" />
<path
   d="m 987.20859,440.3 c -1.8,1.7 -3.3,3.2 -4.8,4.6 -0.1,-2.5 -0.3,-5.1 -0.2,-7.6 0.1,-1.4 0.1,-3.1 0.8,-4.1 1.8,-2.8 3.8,-5.6 6.3,-7.7 1.1,-0.9 3.6,-0.2 5.5,-0.1 -1.1,1.1 -2.1,2.3 -3.2,3.4 -0.8,0.9 -1.8,1.5 -2.4,2.5 -0.6,1.2 -0.9,2.6 -1.3,3.9 1.2,-0.1 2.4,-0.1 3.6,-0.3 1.5,-0.1 2.9,-0.3 4.4,-0.4 -1.1,1.1 -2,2.6 -3.4,3.4 -1.5,1 -3.3,1.4 -5.3,2.4"
   fill="#000000"
   stroke="none"
   id="path90" />
<path
   d="m 832.90859,540 c -1.5,2.7 -3,4.9 -4.5,7 -0.6,0.8 -1.4,1.3 -2.1,1.9 -0.4,-0.8 -1.4,-1.7 -1.3,-2.4 0.9,-7.9 1.9,-15.8 3,-23.6 0.1,-0.8 1.6,-1.3 2.4,-1.9 0.5,1 1.6,2 1.4,2.8 -0.6,3.9 -1.7,7.6 -2.5,11.4 -0.3,1.1 -0.2,2.2 -0.3,3.3 0.8,-0.5 1.6,-1.1 2.4,-1.5 0.6,-0.2 1.2,-0.2 1.8,-0.3 -0.1,1 -0.2,1.9 -0.3,3.3"
   fill="#000000"
   stroke="none"
   id="path91" />
<path
   d="m 1031.9086,438 c -2,-6 1.1,-14.6 6.1,-16.4 1.1,-0.5 3.1,-0.6 3.9,0.1 0.8,0.7 0.8,2.5 0.9,3.9 0.1,0.3 -1,0.8 -1.6,1.1 -1.8,1 -4.5,1.5 -5,2.9 -0.8,2.1 0,4.8 0.1,7.2 1.6,-0.3 3.3,-0.6 4.9,-0.8 0.9,0 1.8,0.4 2.7,0.6 -0.4,0.8 -0.8,1.7 -1.4,2.3 -3.6,3.1 -7.2,2.9 -10.6,-0.9"
   fill="#000000"
   stroke="none"
   id="path92" />
<path
   d="m 1157.2086,465.3 c 1.3,-1 2.3,-2.1 3.4,-2.2 1.1,-0.1 2.2,0.9 3.3,1.4 -0.5,0.9 -0.9,2.2 -1.7,2.7 -3,1.7 -5.1,2.7 -0.5,5.5 1.7,1.1 2.9,6.1 1.9,7.7 -1.9,2.8 -5.6,4.5 -8.6,6.5 -0.2,0.2 -1.3,-0.5 -1.5,-0.9 -0.1,-0.5 0.3,-1.2 0.7,-1.7 0.6,-0.8 1.4,-1.5 2.1,-2.2 3.3,-2.8 5.8,-5.1 0,-8.5 -3.8,-2.2 -2.2,-5.6 0.9,-8.3"
   fill="#000000"
   stroke="none"
   id="path93" />
<path
   d="m 39.90859,117 c -1.2,2.5 -2.8,4.3 -3.8,6.4 -1,2.2 -1.4,4.7 -2.2,7 2.3,0.5 4.5,0.9 6.7,1.4 1.5,0.3 2.9,0.6 4.3,0.9 -1,0.8 -1.9,2 -3.1,2.2 -2.5,0.5 -5.4,1.2 -7.8,0.5 -5.3,-1.6 -6.6,-7.3 -2.7,-13.1 1.9,-2.7 5,-4.5 7.6,-6.7 0.1,0 0.7,0.6 1,1.4"
   fill="#000000"
   stroke="none"
   id="path94" />
<path
   d="m 184.20859,112.7 c -1.6,-1.1 -2.9,-2 -4.3,-2.8 1.4,-0.7 2.6,-1.6 4,-1.8 4.5,-0.9 9.1,-1.5 13.6,-2 0.7,-0.1 1.6,0.9 2.4,1.3 -0.6,0.3 -1.1,0.5 -1.6,0.7 -3.1,1 -7.4,1.1 -9,3.2 -1.6,2 -0.4,6.2 -0.4,9.4 0,0.6 0.2,1.6 -0.1,1.8 -0.8,0.7 -1.9,1 -2.9,1.5 -0.3,-0.8 -0.9,-1.5 -0.9,-2.3 -0.3,-2.9 -0.4,-5.8 -0.8,-9"
   fill="#000000"
   stroke="none"
   id="path95" />
<path
   d="m 1013.9086,433 c 0.1,1.2 -0.1,2.8 -1,3.4 -3,2 -6.3,3.8 -9.6,5.5 -0.5,0.3 -2,-0.2 -2.3,-0.8 -2.40001,-5.1 1.9,-14.4 7.4,-16 1.1,-0.3 2.3,-0.3 3.4,0 0.8,0.2 1.4,1.1 2.1,1.7 -0.6,0.5 -1.2,1.1 -1.8,1.6 -1.6,0.9 -3.4,1.6 -4.8,2.8 -0.8,0.8 -0.9,2.2 -1.3,3.4 1,-0.2 1.9,-0.4 2.9,-0.6 1.5,-0.3 3,-0.7 5,-1"
   fill="#000000"
   stroke="none"
   id="path96" />
<path
   d="m 87.70859,162.7 c 1.5,-1.8 2.8,-3.5 4.1,-5 0.4,-0.4 1.6,-0.7 1.6,-0.6 1.6,3.2 3.8,6.2 4.3,9.6 0.6,3.5 -1.9,6.4 -5.5,7.2 -4.3,1 -7.3,-2.5 -6.2,-7 0.3,-1.4 0.9,-2.6 1.7,-4.2 m 2.2,6.8 c 0.7,0.3 1.4,0.6 2.1,0.9 0.7,-2.2 1.3,-4.5 1.9,-6.7 0,-0.1 -1.4,-0.6 -1.4,-0.6 -0.9,1.8 -1.7,3.6 -2.6,6.4"
   fill="#000000"
   stroke="none"
   id="path97" />
<path
   d="m 1148.7086,482.8 c -3.6,1.1 -7,4.4 -10.4,1 -3.6,-3.6 0,-7.1 0.9,-10.5 0.5,-2 1.7,-3.9 2.8,-5.8 0.5,-1 1.5,-1.7 2.3,-2.5 0.6,1.3 1.8,2.7 1.5,3.7 -0.9,3 -2.4,5.7 -3.6,8.5 -0.4,1.1 -0.7,2.3 -1.1,3.4 1.1,-0.2 2.3,-0.3 3.4,-0.6 1.2,-0.3 2.4,-0.9 3.6,-0.9 0.9,-0.1 1.9,0.5 2.8,0.8 -0.6,0.9 -1.3,1.7 -2.2,2.9"
   fill="#000000"
   stroke="none"
   id="path98" />
<path
   d="m 49.90859,132 c -4.1,-5 -2.3,-13 3.3,-15.7 0.9,-0.4 2.2,-0.2 3.3,-0.2 0.1,1.2 0.2,2.5 0.1,3.7 0,0.2 -0.5,0.4 -0.6,0.7 -1.4,2.2 -2.7,4.5 -4.1,6.8 2.6,-0.1 5.1,-0.4 7.6,-0.2 1.2,0 2.3,0.9 3.4,1.4 -0.9,0.5 -1.7,1.4 -2.6,1.6 -3.3,0.7 -5.9,4.8 -10.4,1.9"
   fill="#000000"
   stroke="none"
   id="path99" />
<path
   d="m 1158.9086,525 c 2.2,-1.3 4.3,-2.4 6.5,-2.9 0.7,-0.2 1.7,1 2.5,1.6 -0.6,0.8 -1.2,1.7 -2,2.3 -1.2,0.9 -2.6,1.5 -4,2.3 1.5,0.9 2.8,2.2 4.3,2.6 3.8,1 6.8,1.6 1.9,5.5 -2.1,1.6 -3.6,3.9 -5.7,5.4 -0.8,0.5 -2.6,-0.5 -3.9,-0.8 0.6,-1 1.2,-2.2 2.1,-3.1 0.7,-0.7 1.8,-1.1 2.7,-1.8 0.6,-0.4 1.1,-1.1 1.6,-1.7 -0.6,-0.4 -1.2,-0.9 -1.8,-1.4 -2.1,-2.1 -6.7,-2.8 -4.2,-8"
   fill="#000000"
   stroke="none"
   id="path100" />
<path
   d="m 553.90859,193 c -3.7,0.3 -6.9,0.7 -10.2,0.9 -0.5,0.1 -1.1,-0.9 -1.7,-1.5 0.6,-0.4 1.2,-1.3 1.9,-1.3 6.2,-0.5 12.5,-0.8 18.7,-1.1 1.8,-0.1 3.7,-0.2 5.5,0.1 1.6,0.2 3.3,0.8 4.8,1.5 0.2,0.1 0.2,1.8 0,1.8 -1.9,0.6 -3.8,1.4 -5.7,1.2 -4.3,-0.2 -8.5,-1 -13.3,-1.6"
   fill="#000000"
   stroke="none"
   id="path101" />
<path
   d="m 914.90859,55 c -3,0.3 -5.6,0.7 -8.2,0.9 -0.5,0.1 -1.2,-0.5 -1.8,-0.9 0.5,-0.6 0.8,-1.6 1.4,-1.8 3.5,-1.2 7.1,-2.4 10.7,-3.1 1.5,-0.3 4.7,0.3 4.7,0.7 0.2,2.1 0.1,4.6 -0.7,6.5 -1.2,2.5 -3.2,4.7 -4.8,7 -0.5,0.6 -1.1,1.1 -1.7,1.7 -0.3,-1 -1.2,-2.3 -0.9,-3 1,-2.4 2.5,-4.6 3.7,-6.9 0.3,-0.6 0.1,-1.4 0.2,-2.1 -0.7,0.4 -1.4,0.7 -2.6,1"
   fill="#000000"
   stroke="none"
   id="path102" />
<path
   d="m 1097.9086,252 c 0.7,1.4 1.5,3.3 0.9,4.3 -2.2,3.4 -4.3,6.3 -1,10.5 1.6,2.1 -2.2,7.7 -5.1,8.2 -0.9,0.1 -1.8,-0.3 -2.7,-0.5 0.3,-0.7 0.5,-1.4 1,-2 1.7,-2.6 1.9,-4.8 0.4,-8 -0.9,-2.2 1.4,-6 2.6,-9 0.6,-1.4 2.3,-2.3 3.9,-3.5"
   fill="#000000"
   stroke="none"
   id="path103" />
<path
   d="m 1207.7086,420.3 c 1.8,2.1 2.5,3.7 -1.1,3.7 -0.9,0 -1.8,0.4 -2.7,0.7 0.7,0.7 1.4,1.5 2.1,2.3 0.1,0.1 0.4,0 0.5,0 1.5,2 7.3,0.9 5.1,4.8 -1.8,3.5 -6.2,5.6 -9.6,8.1 -0.3,0.3 -1.8,-0.2 -2,-0.6 -0.2,-0.6 0,-1.8 0.5,-2.2 1.8,-1.5 3.8,-2.7 5.7,-4.1 0.6,-0.5 1.1,-1.1 1.6,-1.6 -0.6,-0.5 -1.3,-1.3 -1.9,-1.3 -4.2,-0.4 -5.6,-2.8 -5,-6.6 0.7,-4 3.8,-3.5 6.8,-3.2"
   fill="#000000"
   stroke="none"
   id="path104" />
<path
   d="m 1084.2086,72.2 c 1.3,-1.6 2.3,-3 3.4,-4.3 0.6,-0.7 1.4,-1.1 2.1,-1.6 0.2,1.2 1,2.6 0.6,3.7 -0.7,1.8 -1.9,3.5 -3.1,5.2 -0.6,0.9 -1.7,1.5 -2.2,2.5 -0.5,1.2 -0.6,2.7 -0.9,4 1.3,-0.4 2.5,-0.8 3.8,-1.1 1,-0.4 2,-0.7 3,-1 0.3,1.3 1.1,2.8 0.8,3.9 -0.2,0.8 -2.1,1.5 -3.2,1.4 -2.2,-0.1 -5.4,0 -6.4,-1.3 -2.9,-3.9 -0.1,-7.6 2.1,-11.4"
   fill="#000000"
   stroke="none"
   id="path105" />
<path
   d="m 199.70859,202.7 c 2.6,-0.8 5.5,-2.1 3.2,2.4 -1.2,2.6 0.7,3.7 1.9,5.4 1,1.5 2.1,4.7 1.5,5.2 -2.1,1.9 -4.9,3 -7.6,4.2 -0.2,0.1 -1.2,-1.3 -1.8,-2 0.9,-0.6 1.6,-1.4 2.5,-1.8 1.4,-0.6 2.9,-1 4.4,-1.4 -1.4,-0.9 -2.7,-1.9 -4.1,-2.7 -3.8,-2.3 -3.9,-5.7 0,-9.3"
   fill="#000000"
   stroke="none"
   id="path106" />
<path
   d="m 914.70859,422.3 c 4.3,1.7 4.4,4.3 2.1,7.3 -1.9,2.4 -3.9,4.8 -6,6.9 -0.5,0.5 -1.8,0.2 -2.7,0.2 0.3,-0.7 0.4,-1.4 0.7,-2 0.3,-0.8 0.6,-1.5 1.1,-2.1 3.9,-4.9 3.6,-6.5 -1.5,-9.6 -1.2,-0.8 -2.1,-1.9 -3.2,-2.8 2,-0.2 3.9,-0.8 5.8,-0.5 1.2,0.1 2.3,1.5 3.7,2.6"
   fill="#000000"
   stroke="none"
   id="path107" />
<path
   d="m 765.20859,375.8 c 1.1,-4.2 2.6,-8.1 3.7,-12.1 0.5,-2.2 0.2,-4.5 0.5,-6.8 0.2,-1.7 0.9,-3.3 1.3,-4.9 1,1.1 2.6,2.1 2.9,3.3 1.5,6.2 -0.4,16.1 -8.4,20.5"
   fill="#000000"
   stroke="none"
   id="path108" />
<path
   d="m 930.20859,538 c 0.9,-3.3 2,-6.7 3.3,-10 0.3,-0.8 1.4,-1.2 2.1,-1.8 0.4,0.9 1.3,1.9 1.3,2.9 -0.1,1.7 -0.5,3.4 -1,5.1 -1.4,4.2 -0.3,7.8 2,11.4 0.4,0.6 0.2,1.8 0.3,2.7 -1.1,-0.2 -2.7,-0.1 -3.1,-0.8 -1.7,-3 -3.1,-6.3 -4.9,-9.5"
   fill="#000000"
   stroke="none"
   id="path109" />
<path
   d="m 1032.7086,274.7 c -1.1,1.5 -1.8,2.7 -2.8,3.7 -0.6,0.7 -1.7,1 -2.7,1.4 -0.1,-1 -0.3,-1.9 -0.2,-2.9 0.2,-5.4 0.5,-10.9 1,-16.4 0.1,-1.2 1.2,-2.3 1.8,-3.5 0.4,0.5 1.1,1 1.2,1.6 0.7,5.3 1.3,10.6 1.7,16.1"
   fill="#000000"
   stroke="none"
   id="path110" />
<path
   d="m 1280.9086,426 c -0.6,1.5 -1.2,2.6 -1.9,3.6 1.2,-0.2 2.7,0 3.4,-0.7 1.7,-1.6 3,-3.6 4.5,-5.4 0.5,-0.5 1,-0.9 1.4,-1.4 0.4,0.6 0.8,1.2 1.1,1.9 1.4,3.4 -2.7,8.2 -7.8,9 -5,0.8 -6.7,-1.2 -5.2,-6 0.3,-1 0.5,-2.2 1.1,-3 1.1,-1.4 2.4,-2.7 3.6,-4 -0.1,1.8 -0.1,3.7 -0.2,6"
   fill="#000000"
   stroke="none"
   id="path111" />
<path
   d="m 970.90859,425 c 3,-0.7 4.4,0.7 4,3.6 -0.6,4.9 -1.2,9.8 -2,14.6 -0.3,1.3 -1.3,2.5 -2,3.8 -0.7,-1.3 -1.9,-2.7 -1.9,-3.9 0.5,-5.9 1.3,-11.7 1.9,-18.1"
   fill="#000000"
   stroke="none"
   id="path112" />
<path
   d="m 1129.2086,480.3 c -0.3,1.2 -0.2,2.2 -0.3,3.2 -0.1,1.2 -0.5,2.3 -0.7,3.5 -0.9,-1 -1.9,-1.9 -2.7,-3 -0.3,-0.4 -0.7,-1.2 -0.5,-1.7 2,-5.7 4,-11.3 6.1,-16.9 0.2,-0.5 1.1,-0.7 1.7,-1 0.4,0.7 1.2,1.4 1.1,2 -0.5,2.9 -1.1,5.8 -2,8.6 -0.6,1.8 -1.6,3.4 -2.7,5.3"
   fill="#000000"
   stroke="none"
   id="path113" />
<path
   d="m 474.70859,501.8 c 0.3,-2.7 0.3,-5 0.3,-7.4 1.1,0.5 3.2,1 3.3,1.6 0.4,5.7 0.5,11.4 0.6,17.1 0,0.3 -1,1 -1.3,0.8 -0.9,-0.4 -2.5,-1 -2.5,-1.6 -0.5,-3.4 -0.5,-6.9 -0.4,-10.5"
   fill="#000000"
   stroke="none"
   id="path114" />
<path
   d="m 1104.9086,303 c -1.6,3.8 -3.2,7.2 -5,10.4 -0.7,1.2 -1.8,2.2 -2.7,3.3 -0.4,-1.5 -1.5,-3.2 -1.1,-4.4 1.5,-4.5 3.4,-8.9 5.4,-13.2 0.3,-0.9 1.3,-1.4 2,-2 0.5,1 1.1,1.9 1.4,2.9 0.2,0.8 0,1.7 0,3"
   fill="#000000"
   stroke="none"
   id="path115" />
<path
   d="m 446.70859,448.3 c 1.1,1.4 1.9,2.5 2.7,3.7 -1.5,0 -3.1,-0.1 -4.6,0 -3.7,0.3 -7.4,0.7 -11.1,0.9 -0.9,0.1 -1.8,-0.5 -2.8,-0.9 0.8,-1 1.5,-2.7 2.4,-2.9 4.3,-0.6 8.7,-0.8 13.4,-0.8"
   fill="#000000"
   stroke="none"
   id="path116" />
<path
   d="m 636.90859,197 c -1.9,-0.5 -3.4,-0.9 -4.9,-1.4 1.4,-0.9 2.7,-2.2 4.3,-2.5 4.4,-1 8.9,-1.7 13.5,-2.4 1,-0.1 2,0.5 3.1,0.7 -0.8,0.9 -1.4,2.3 -2.3,2.5 -4.3,1.2 -8.8,2.1 -13.7,3.1"
   fill="#000000"
   stroke="none"
   id="path117" />
<path
   d="m 1166.7086,302.8 c 3,-0.1 5.8,-0.1 8.6,0.3 0.6,0 1.1,1 1.6,1.6 -0.6,0.5 -1.1,1.4 -1.8,1.6 -3.8,0.7 -7,2.3 -9,5.9 -0.2,0.4 -1.5,0.7 -1.9,0.5 -1.4,-1.2 0.3,-8.4 2.5,-9.9"
   fill="#000000"
   stroke="none"
   id="path118" />
<path
   d="m 1066.7086,87.7 c -0.5,-1.5 -1.1,-3.4 -0.7,-5.1 0.7,-3.8 1.8,-7.4 3,-11.1 0.3,-0.9 1.2,-1.7 1.8,-2.5 0.7,0.9 1.9,1.7 2.1,2.7 0.8,6.3 -2.4,11.1 -6.2,16"
   fill="#000000"
   stroke="none"
   id="path119" />
<path
   d="m 1213.9086,35 c 1.2,5.1 -4.7,15.1 -9,16 -0.6,0.1 -1.2,-0.3 -1.8,-0.4 0.2,-0.7 0.5,-1.4 0.8,-2 2.3,-4.7 4.6,-9.4 7.1,-14 0.3,-0.4 1.9,-0.1 2.9,0.4"
   fill="#000000"
   stroke="none"
   id="path120" />
<path
   d="m 367.90859,200 c -4.1,0.7 -7.8,1.5 -11.5,1.9 -0.8,0.1 -1.6,-1.2 -2.5,-1.8 0.7,-0.5 1.3,-1.4 2,-1.5 4.8,-1 9.5,-1.9 14.3,-2.5 1.1,-0.2 2.3,0.7 3.5,1.1 -1.1,0.6 -2.1,1.2 -3.2,1.8 -0.7,0.4 -1.4,0.7 -2.6,1"
   fill="#000000"
   stroke="none"
   id="path121" />
<path
   d="m 903.90859,546 c -1.1,1 -2.2,1.5 -3.3,2 -0.2,-1 -0.7,-2.1 -0.6,-3.1 0.2,-3.2 0.3,-6.5 1.1,-9.6 0.3,-1.5 1.9,-2.9 2.9,-4.3 0.5,1.9 1.6,3.9 1.6,5.8 -0.2,2.9 -1.1,5.8 -1.7,9.2"
   fill="#000000"
   stroke="none"
   id="path122" />
<path
   d="m 861.20859,532.3 c 3.6,-2.1 4.5,1.1 4.6,2.7 0.2,3.8 -0.4,7.6 -1,11.4 0,0.6 -1.4,1.1 -2.1,1.6 -0.6,-0.9 -1.6,-1.7 -1.7,-2.6 -0.2,-4.3 -0.1,-8.6 0.2,-13.1"
   fill="#000000"
   stroke="none"
   id="path123" />
<path
   d="m 718.90859,190 c 4.9,-0.3 9.2,-0.8 13.6,-0.9 1.1,0 2.3,1.2 3.4,1.8 -1,0.4 -2,0.9 -3.1,1.1 -4.1,0.7 -8.1,1.6 -12.1,1.8 -1.4,0.1 -6.1,0.1 -1.8,-3.8"
   fill="#000000"
   stroke="none"
   id="path124" />
<path
   d="m 1022.9086,439 c -0.3,-4.9 -0.2,-9.9 0.1,-14.8 0.1,-0.8 1.4,-1.5 2.1,-2.2 0.4,0.6 0.9,1.2 1.2,1.9 1.7,3.5 -0.1,12.6 -3.4,15.1"
   fill="#000000"
   stroke="none"
   id="path125" />
<path
   d="m 919.90859,540 c -1.3,2.9 -2.7,5.3 -4.2,7.6 0,0.1 -1.7,-0.6 -1.7,-0.9 0.2,-3.3 0.3,-6.7 0.8,-10 0.2,-1.3 1.1,-2.4 1.7,-3.7 0.7,1.1 1.5,2 2,3.1 0.6,1.1 1,2.3 1.4,3.9"
   fill="#000000"
   stroke="none"
   id="path126" />
<path
   d="m 489.90859,234 c -0.2,0.7 -0.5,0.9 -0.7,1.2 -1.2,1.9 -2.5,3.9 -3.7,5.8 -0.2,-2.4 -0.4,-4.8 -0.5,-7.2 -0.1,-1.7 -0.2,-3.5 0.1,-5.2 0.3,-1.5 1,-3.1 1.5,-4.6 1,1.1 2.5,2 2.9,3.2 0.6,2 0.3,4.2 0.4,6.8"
   fill="#000000"
   stroke="none"
   id="path127" />
<path
   d="m 458.20859,274.2 c 3.6,-0.5 6.9,-1 10.3,-1.1 1.1,-0.1 2.2,0.9 3.4,1.3 -0.9,0.6 -1.7,1.5 -2.7,1.7 -3.7,1.1 -7.5,2.1 -11.3,2.8 -0.8,0.2 -1.9,-0.8 -2.9,-1.3 1,-1 2,-2.1 3.2,-3.4"
   fill="#000000"
   stroke="none"
   id="path128" />
<path
   d="m 1131.9086,76 c -1.2,-2.8 -1.2,-4.3 1.8,-5.4 2.8,-1 5,-1 6.8,1.5 0.2,0.3 -0.3,1.4 -0.8,1.9 -1.2,1.3 -2.8,2.3 -3.9,3.7 -2.5,3.2 -3.3,1.5 -3.9,-1.7"
   fill="#000000"
   stroke="none"
   id="path129" />
<path
   d="m 1189.9086,262 c 0.5,5.2 -0.6,9.3 -4.1,12.6 -0.5,0.5 -0.9,0.9 -1.4,1.4 -0.1,-0.8 -0.6,-1.6 -0.4,-2.3 0.9,-4 1.9,-8.1 2.9,-12.1 0.9,-3.6 2,-0.8 3,0.4"
   fill="#000000"
   stroke="none"
   id="path130" />
<path
   d="m 929.70859,538 c -0.7,1.3 -1.6,2.7 -2.6,4 -1.7,-1.6 -4.2,-2.9 -4.9,-4.9 -0.8,-1.8 0.1,-4.4 0.7,-6.5 0.3,-1 1.8,-1.6 2.7,-2.5 0.3,1.3 0.9,2.5 0.9,3.8 0,1.7 -0.6,3.5 -0.4,5.2 0.1,0.4 2.2,0.6 3.6,0.9"
   fill="#000000"
   stroke="none"
   id="path131" />
<path
   d="m 613.70859,191.7 c -2.9,0.7 -5.6,1.1 -8.3,1.3 -1.1,0.1 -2.3,-0.3 -3.5,-0.5 0.6,-0.9 1.1,-2.5 1.8,-2.7 4.2,-0.8 8.5,-1.3 12.8,-1.7 0.4,0 0.9,1.2 1.4,1.8 -1.3,0.5 -2.6,1.1 -4.2,1.8"
   fill="#000000"
   stroke="none"
   id="path132" />
<path
   d="m 492.20859,275.2 c 3.9,-0.9 7.6,-1.6 11.3,-2.1 0.7,-0.1 1.5,0.8 2.3,1.3 -0.7,0.5 -1.3,1.4 -2.1,1.5 -3.8,0.8 -7.6,1.4 -11.4,2.1 -0.1,-0.8 -0.3,-1.7 -0.1,-2.8"
   fill="#000000"
   stroke="none"
   id="path133" />
<path
   d="m 779.70859,202.2 c -0.4,4.3 -1.1,8.4 -1.8,12.4 -0.1,0.5 -0.8,1.2 -1.3,1.3 -0.5,0.2 -1.6,-0.4 -1.6,-0.5 0.9,-4.5 1.9,-9 3,-13.4 0,-0.1 0.9,0 1.7,0.2"
   fill="#000000"
   stroke="none"
   id="path134" />
<path
   d="m 853.90859,270 c -2.6,-0.6 -4.8,-1.2 -7,-1.8 2,-1.1 3.8,-2.3 5.8,-3.1 0.9,-0.4 2.1,-0.3 3,0 1.4,0.4 2.8,1.3 4.2,2 -1.3,0.6 -2.6,1.2 -3.9,1.9 -0.5,0.3 -1,0.7 -2.1,1"
   fill="#000000"
   stroke="none"
   id="path135" />
<path
   d="m 481.70859,195.2 c -1.6,3.1 -11.6,5.1 -13.8,3.2 -0.5,-0.4 -1,-1.5 -0.9,-1.6 0.9,-0.6 2,-1.7 3,-1.7 3.8,-0.2 7.6,-0.1 11.7,0.1"
   fill="#000000"
   stroke="none"
   id="path136" />
<path
   d="m 894.20859,283.2 c 3.3,1.8 4,10.8 1.1,12.8 -0.4,0.3 -2.3,-0.4 -2.3,-0.5 0.2,-4 0.6,-8 1.2,-12.3"
   fill="#000000"
   stroke="none"
   id="path137" />
<path
   d="m 894.90859,311 c 0.4,3.5 0.3,6.9 0,10.4 0,0.3 -1.9,1 -2.2,0.7 -3,-3 -2.1,-8.5 2.2,-11.1"
   fill="#000000"
   stroke="none"
   id="path138" />
<path
   d="m 755.70859,188.2 c -1.3,2.6 -12,5.2 -13.4,3.5 -0.3,-0.3 0.6,-2.4 1.1,-2.5 4,-0.6 8,-0.8 12.3,-1"
   fill="#000000"
   stroke="none"
   id="path139" />
<path
   d="m 403.70859,279.7 c -3.4,0.3 -6.6,0.4 -9.7,0.2 -1,-0.1 -2,-1.1 -3.1,-1.7 0.9,-0.7 1.8,-2.1 2.7,-2.1 3.6,0.1 7.3,0.6 10.9,1 -0.2,0.8 -0.4,1.6 -0.8,2.6"
   fill="#000000"
   stroke="none"
   id="path140" />
<path
   d="m 510.90859,230 c -2.3,0 -4.2,0.2 -5.9,-0.1 -1.1,-0.2 -2.1,-1.1 -3.1,-1.8 1,-0.7 1.8,-1.9 2.8,-2 2.3,-0.3 4.7,-0.3 7,0 1.1,0.2 2.2,1.3 3.2,2 -1.1,0.6 -2.3,1.3 -4,1.9"
   fill="#000000"
   stroke="none"
   id="path141" />
<path
   d="m 825.90859,183 c 2.5,0 4.5,-0.1 6.5,0.1 0.5,0 1.4,0.6 1.4,1.1 0.1,0.6 -0.4,1.7 -0.8,1.7 -3.7,0.5 -7.3,0.8 -11,1 -0.3,0.1 -1,-0.7 -1,-1.1 0.1,-0.6 0.4,-1.5 0.9,-1.7 1.1,-0.6 2.4,-0.8 4,-1.1"
   fill="#000000"
   stroke="none"
   id="path142" />
<path
   d="m 778.90859,258 c -0.4,2 -0.9,3.4 -1.4,4.9 -0.8,-1.6 -1.9,-3 -2.5,-4.7 -0.4,-1.2 -0.3,-2.7 0,-3.9 0.3,-1.5 1,-2.8 1.5,-4.2 0.8,1.4 1.8,2.9 2.4,4.4 0.3,0.9 0,2 0,3.5"
   fill="#000000"
   stroke="none"
   id="path143" />
<path
   d="m 624.20859,272.2 c -3.2,0.8 -6.1,1.4 -9,1.8 -0.7,0.1 -1.5,-0.3 -2.2,-0.5 0.3,-0.7 0.4,-1.6 1,-2 3.3,-2 6.8,-3.6 10.8,-1.5 0.3,0.2 0.7,0.7 0.6,0.9 -0.2,0.5 -0.6,0.8 -1.2,1.3"
   fill="#000000"
   stroke="none"
   id="path144" />
<path
   d="m 367.70859,282.7 c -1.6,0 -3.1,-0.2 -4.2,-0.8 -0.5,-0.3 -0.7,-2.1 -0.2,-2.5 0.6,-0.7 1.9,-1.1 2.9,-1.1 2.5,0.2 5.1,0.7 7.6,1.1 -1.9,1 -3.9,2.1 -6.1,3.3"
   fill="#000000"
   stroke="none"
   id="path145" />
<path
   d="m 519.20859,196.2 c -2.8,0.1 -5.5,0.1 -8,-0.3 -0.8,-0.1 -1.5,-0.9 -2.2,-1.5 0.8,-0.4 1.6,-1.3 2.4,-1.3 2.8,-0.2 5.6,-0.2 8.4,0 0.7,0 1.3,1 2,1.5 -0.8,0.5 -1.6,0.9 -2.6,1.6"
   fill="#000000"
   stroke="none"
   id="path146" />
<path
   d="m 794.90859,267 c -2.7,2.3 -5.6,3.8 -9,2 -0.7,-0.4 -1.3,-1.2 -2,-1.8 0.8,-0.7 1.5,-2.1 2.2,-2.1 3,0.3 5.9,0.9 8.8,1.9"
   fill="#000000"
   stroke="none"
   id="path147" />
<path
   d="m 775.90859,223 c 1,0 2.8,0.4 2.9,1 0.4,1.9 0.2,3.9 0.1,5.9 0,1 -0.4,2.1 -0.6,3.1 -1.1,-0.8 -3.1,-1.6 -3.2,-2.6 -0.2,-2.2 0.5,-4.6 0.8,-7.4"
   fill="#000000"
   stroke="none"
   id="path148" />
<path
   d="m 384.90859,200 c -1.2,0 -1.9,-0.1 -2.6,-0.1 0.1,-0.7 0.1,-1.9 0.3,-2 3,-0.6 6,-1.2 9.1,-1.6 0.3,0 1.3,1.4 1.1,1.8 -0.3,0.8 -1.2,1.7 -1.9,1.8 -1.8,0.3 -3.6,0.1 -6,0.1"
   fill="#000000"
   stroke="none"
   id="path149" />
<path
   d="m 817.90859,270 c -1.6,-0.8 -2.8,-1.5 -4,-2.3 1.4,-0.6 2.7,-1.2 4.1,-1.7 0.8,-0.2 1.7,-0.1 2.5,0 1.5,0.3 3,0.8 4.4,1.3 -1.5,0.9 -2.9,1.9 -4.5,2.7 -0.5,0.2 -1.3,0 -2.5,0"
   fill="#000000"
   stroke="none"
   id="path150" />
<path
   d="m 751.90859,269 c -0.8,0 -1.1,0.1 -1.5,0 -2.1,-0.5 -4.2,-0.9 -6.4,-1.4 0.4,-0.8 0.9,-2.3 1.2,-2.3 2.8,0.1 6,-0.1 8.3,1.1 2.8,1.3 0.6,2.2 -1.6,2.6"
   fill="#000000"
   stroke="none"
   id="path151" />
<path
   d="m 798.70859,188.7 c -1.6,0.3 -2.9,0.5 -4.2,0.2 -1.2,-0.2 -2.3,-0.8 -3.4,-1.3 1.2,-0.8 2.3,-2 3.6,-2.5 1.2,-0.4 2.7,-0.3 3.9,0 1.2,0.2 2.2,0.9 3.3,1.4 -1,0.6 -2,1.3 -3.2,2.2"
   fill="#000000"
   stroke="none"
   id="path152" />
<path
   d="m 1243.2086,429.8 c -0.5,-0.8 -0.9,-1.6 -0.8,-1.6 1.1,-0.8 2.3,-2 3.5,-2.1 2.2,-0.1 4.4,0.5 6.5,1 0.2,0 0.4,1.5 0.3,1.5 -1.9,0.5 -3.8,1 -5.8,1.4 -1.1,0.2 -2.3,0 -3.7,-0.2"
   fill="#000000"
   stroke="none"
   id="path153" />
<path
   d="m 652.70859,267.7 c 1.5,-0.4 2.8,-0.8 4,-0.6 0.8,0.1 1.5,0.9 2.2,1.5 -1.4,1.1 -2.8,2.9 -4.4,3.2 -1.8,0.2 -3.7,-1 -5.6,-1.5 1.2,-0.8 2.4,-1.5 3.8,-2.6"
   fill="#000000"
   stroke="none"
   id="path154" />
<path
   d="m 419.70859,275.7 c 2.7,-0.4 5.1,-0.6 7.5,-0.6 0.6,-0.1 1.2,0.6 1.7,0.9 -0.3,0.5 -0.6,1.4 -1.1,1.5 -2.9,0.6 -5.8,1 -8.8,1.5 0.1,-1 0.3,-2 0.7,-3.3"
   fill="#000000"
   stroke="none"
   id="path155" />
<path
   d="m 896.90859,335 c -0.1,2.3 -0.2,4.1 -0.4,5.9 -0.8,-0.2 -2.4,-0.2 -2.5,-0.6 -0.5,-2.5 -0.8,-5.1 -1.2,-7.7 1.4,0.7 2.8,1.3 4.1,2.4"
   fill="#000000"
   stroke="none"
   id="path156" />
<path
   d="m 867.90859,187 c -1.3,-0.6 -2.1,-1.2 -3,-1.8 0.8,-0.7 1.5,-1.3 2.3,-1.9 0.1,-0.1 0.2,-0.3 0.4,-0.3 2.4,0.1 4.8,0.2 7.2,0.4 0.1,0 0.3,1.7 0.1,1.8 -2.1,0.7 -4.3,1.2 -7,1.8"
   fill="#000000"
   stroke="none"
   id="path157" />
<path
   d="m 721.90859,269 c -2.6,-0.6 -4.8,-1.2 -7,-1.8 1.3,-3.8 4.4,-1.7 6.7,-2.1 1,-0.2 2,0.7 3,1.1 -0.7,0.9 -1.4,1.9 -2.7,2.8"
   fill="#000000"
   stroke="none"
   id="path158" />
<path
   d="m 552.70859,271.7 c 0.5,-0.4 0.8,-0.7 1,-0.7 2.3,0.4 4.6,0.8 7,1.2 -0.2,0.4 -0.3,1 -0.5,1 -2.8,0.7 -5.5,1.2 -8.2,1.8 0.1,-1 0.3,-2 0.7,-3.3"
   fill="#000000"
   stroke="none"
   id="path159" />
<path
   d="m 682.90859,270 c -2.7,0 -4.9,0.1 -7.1,-0.1 -0.4,0 -0.6,-1.5 -0.9,-2.3 1.6,-0.5 3.4,-1.6 4.7,-1.2 1.5,0.5 2.6,2.3 3.3,3.6"
   fill="#000000"
   stroke="none"
   id="path160" />
<path
   d="m 897.20859,351.8 c 0.1,1.5 -0.1,2.9 -0.3,4.2 -1,-0.6 -2.5,-1 -2.9,-1.9 -0.6,-1.5 -0.5,-3.2 -0.8,-4.9 1.3,0.8 2.5,1.5 4,2.6"
   fill="#000000"
   stroke="none"
   id="path161" />
<path
   d="m 911.20859,183.7 c 0.7,0.9 1.1,1.4 1.6,2 -2.4,0.2 -4.8,0.4 -7.1,0.6 0.3,-1.1 0.5,-3 1,-3.1 1.3,-0.4 2.8,0.1 4.5,0.5"
   fill="#000000"
   stroke="none"
   id="path162" />
<path
   d="m 843.20859,185.2 c 0.9,-0.5 1.7,-1.2 2.3,-1.1 1.8,0.2 3.5,0.8 5.3,1.3 -0.7,0.8 -1.4,2.2 -2.2,2.3 -2.1,0.3 -5,1.6 -5.4,-2.5"
   fill="#000000"
   stroke="none"
   id="path163" />
<path
   d="m 953.70859,185.2 c -1.6,2.8 -4,3.8 -6.8,2.1 -0.5,-0.2 -0.3,-1.5 -0.5,-2.3 2.4,0 4.7,0 7.3,0.2"
   fill="#000000"
   stroke="none"
   id="path164" />
<path
   d="m 769.90859,338 c 5.6,-0.7 2,3.6 3,5.7 0,0.2 -0.9,0.9 -1.4,1.3 -1.5,-1.9 -4,-3.6 -1.6,-7"
   fill="#000000"
   stroke="none"
   id="path165" />
<path
   d="m 878.20859,266.2 c 1.4,0.4 2.6,1 3.7,1.6 -0.4,0.7 -0.8,1.9 -1.3,1.9 -2.1,0.2 -4.2,0.2 -6.3,0.1 -0.1,0 -0.4,-1.2 -0.3,-1.7 0.1,-0.5 0.7,-0.9 1.2,-1.1 0.9,-0.3 1.8,-0.3 3,-0.8"
   fill="#000000"
   stroke="none"
   id="path166" />
<path
   d="m 774.90859,278 c 0.7,-1.7 1.3,-2.8 1.9,-4 0.7,0.8 2,1.5 2,2.3 0,1.4 -0.7,2.9 -1.1,4.4 -0.9,-0.7 -1.8,-1.5 -2.8,-2.7"
   fill="#000000"
   stroke="none"
   id="path167" />
<path
   d="m 442.70859,276.2 c -1.6,0.5 -3.4,0.7 -5.2,0.8 -0.1,0 -0.3,-1.1 -0.4,-1.6 1.8,0.2 3.5,0.4 5.6,0.8"
   fill="#000000"
   stroke="none"
   id="path168" />
<path
   d="m 1149.7086,84 c 0,0.3 -0.1,0.6 -0.3,0.9 0,-0.3 0,-0.6 0.3,-0.9"
   fill="#000000"
   stroke="none"
   id="path169" />

</svg>
