<?xml version="1.0" encoding="UTF-8" standalone="no"?>
<svg
   version="1.1"
   id="Contours"
   x="0px"
   y="0px"
   width="1352.2208"
   height="830.99994"
   viewBox="0 0 1352.2208 830.99994"
   xml:space="preserve"
   stroke="#000000"
   fill="none"
   stroke-linecap="round"
   stroke-linejoin="round"
   sodipodi:docname="projector_lines.svg"
   inkscape:version="1.3.2 (091e20e, 2023-11-25)"
   xmlns:inkscape="http://www.inkscape.org/namespaces/inkscape"
   xmlns:sodipodi="http://sodipodi.sourceforge.net/DTD/sodipodi-0.dtd"
   xmlns="http://www.w3.org/2000/svg"
   xmlns:svg="http://www.w3.org/2000/svg"><defs
   id="defs145" /><sodipodi:namedview
   id="namedview145"
   pagecolor="#ffffff"
   bordercolor="#000000"
   borderopacity="0.25"
   inkscape:showpageshadow="2"
   inkscape:pageopacity="0.0"
   inkscape:pagecheckerboard="0"
   inkscape:deskcolor="#d1d1d1"
   inkscape:zoom="0.17411163"
   inkscape:cx="671.98269"
   inkscape:cy="410.65609"
   inkscape:window-width="1592"
   inkscape:window-height="700"
   inkscape:window-x="0"
   inkscape:window-y="25"
   inkscape:window-maximized="0"
   inkscape:current-layer="Contours" />
<desc
   id="desc1">
</desc>
<path
   d="m 926.15054,605 c 0.9,-6 4.6,-7 9.6,-7.1 2.2,-0.1 5.1,-1.3 6.6,-3 4,-4.5 9.4,-7.6 9.1,-15.6 -0.8,-21 0,-42 -0.4,-63 -0.3,-18.7 -1,-37.4 -2,-56.1 -0.6,-12.3 -2.1,-24.5 -2.9,-36.8 -0.8,-13.4 -1.5,-26.8 -1.9,-40.2 -0.3,-9.4 0,-18.9 -0.1,-28.3 -0.2,-9.5 -0.6,-19.1 -1,-28.6 -0.3,-8.5 -0.8,-17.1 -1,-25.6 -0.4,-30.5 -0.7,-61 -1,-91.6 -0.1,-8.7 0.1,-17.4 0,-26.1 -0.3,-15.1 -0.7,-30.1 -1,-45.1 -0.1,-5.3 0.1,-10.6 0,-15.9 -0.2,-6.3 -0.7,-12.7 -1,-19.1 0,-0.6 -0.1,-1.4 -0.4,-1.7 -2,-1.7 -10.5,-0.8 -11.5,1.3 -2.1,4.8 -3.6,4.3 -5.1,-0.2 -0.2,-0.6 -0.5,-1.3 -0.9,-1.6 -5.7,-4.6 -6.1,-11.5 -8,-17.7 -0.5,-1.5 0.1,-3.3 0.4,-5 0.4,-2.3 1.5,-4.6 1.4,-6.9 -0.2,-5.4 3.9,-7.9 7.5,-9.6 2.3,-1 6.4,0.1 8.9,1.6 3.8,2.4 2.8,6.8 2.5,10.7 -0.6,6.2 -1.4,12.5 -1.7,18.7 -0.1,2.1 1,3.6 3.8,3.6 3.5,0 2,-2.4 2.1,-3.7 0.4,-7.2 0.8,-14.4 0.9,-21.6 0.1,-2.4 -0.3,-4.8 -0.9,-7.1 -3.6,-12.6 -2.5,-25.3 -0.3,-38 1.1,-6.1 1.3,-12.4 2.5,-18.5 0.2,-1.6 2.3,-2.8 3.6,-4.2 0.7,1.4 2.2,2.9 2.1,4.2 -0.8,12.5 -1.9,24.9 -2.7,37.3 0,0.5 -0.8,5 3.3,2.7 1.8,-1 4.4,-0.5 6.6,-0.8 7.8,-1.4 8.4,-7.7 8.8,-13.6 0.4,-6.1 0,-12.3 0.1,-18.5 0.1,-3.9 0.6,-7.8 1.1,-11.7 0.1,-0.9 1.1,-1.7 1.8,-2.6 0.7,0.8 1.6,1.4 2,2.3 0.6,1.2 1,2.7 1.1,4.1 0,8.5 0.2,17 -0.1,25.4 -0.1,3.6 -1.3,7.2 -1.9,10.7 -0.1,0.8 0.2,1.6 0.4,2.4 0.3,-0.6 0.5,-1.4 1,-1.7 1.1,-0.7 2.3,-1.2 3.4,-1.4 1.7,-0.3 3.4,-0.3 5.1,-0.4 -1,1.4 -1.7,3.1 -3,4.1 -1.7,1.3 -5.1,1.6 -5.5,3 -1.1,3.3 -1,6.9 -0.9,10.5 0.1,10.1 0.2,20.3 0.6,30.4 0.2,6.9 1,13.9 1.6,20.8 0,0.8 0.3,1.6 0.3,2.4 0.3,8.1 0.8,16.2 1,24.4 0.4,16.2 0.6,32.4 1,48.6 0.3,12.2 0.6,24.5 1,36.7 0.3,8.7 1,17.3 0.9,26 0,14.7 -0.7,29.4 -0.9,44.1 -0.1,10.8 0.1,21.7 -0.1,32.6 0,3 0.4,4.6 3.9,4.1 1.2,-0.1 2.6,0.8 4,1.2 -1,1.2 -1.8,3.3 -3,3.6 -6.3,1.5 -4.9,6.1 -3.5,9.7 1.6,4.1 2.3,7.6 0.1,11.6 -0.6,1.1 -0.4,2.6 -0.4,3.8 0.3,11.5 0.7,22.9 1,34.3 0.4,14.4 0.7,28.7 1,43.1 0.4,23.1 0.5,46.3 1.1,69.4 0.3,14.7 1.2,29.5 1.9,44.2 0.3,7.2 0.7,14.5 1,21.7 0.4,10 0.6,19.9 1.1,29.8 0.1,1.5 1.4,3.1 2.4,4.4 0.8,1 2.3,1.3 3,2.3 1,1.3 1.7,2.9 2.4,4.4 -1.4,-0.2 -3,-0.1 -4.3,-0.6 -3.5,-1.5 -4.4,-0.9 -3.7,3.1 0.4,2.5 -0.9,5.3 -0.8,8 0.1,4.6 -0.7,9.7 1.2,13.4 2.2,4.4 -0.4,7.4 -0.4,11 0,3.2 -0.9,6.4 -0.8,9.6 0,4.8 0.7,9.6 0.9,14.5 0.1,3.1 -1.3,5.2 -4.8,5.1 -0.4,0 -1.2,0.8 -1.1,1.2 0.5,6.2 1.3,12.5 1.9,18.7 0.1,1.1 0,2.3 0,3.5 0.3,10.2 0.6,20.4 1,30.6 0.3,6.69996 7.1,9.39996 14.6,6.4 15.69996,-6.3 31.49996,-12.5 47.29996,-18.4 3.2,-1.2 6.9,-1.3 10.4,-1.6 0.8,0 1.8,1.3 2.7,2 -0.8,0.7 -1.6,1.7 -2.5,1.9 -14.6,2.8 -27.8,9.2 -41.3,15 -6.2,2.69996 -12.69996,4.69996 -18.89996,7.39996 -7.2,3 -17.2,-3.8 -17.4,-12.19996 -0.3,-14 -1.2,-27.9 -1.9,-41.9 -0.2,-2.5 -0.8,-5 -1,-7.6 -0.1,-2.5 -0.4,-4.9 2.9,-6.4 1.2,-0.5 1.7,-3.6 1.8,-5.5 0.4,-9.3 2.5,-15.1 -9,-17.9 -1.8,-0.5 -3.1,-2.8 -4.7,-4.3 -0.7,-0.6 -1.5,-1 -2.3,-1.6 -0.2,0.9 -0.7,1.8 -0.7,2.6 0.3,7.4 0.7,14.7 1,22.1 0.1,2.2 0.3,4.4 -3,4.4 -3.4,-0.1 -3.1,-2.4 -3,-4.5 0.3,-10.7 1,-21.5 0.9,-32.3 0,-13.6 -0.5,-27.3 -0.9,-41 -0.1,-1 -0.8,-2 -1.2,-3 -0.8,0.5 -1.8,0.9 -2.1,1.6 -1,2.4 -2.2,4.9 -2.6,7.4 -0.9,5.9 -3,12.1 -1.7,17.6 1.5,6.7 -3,13.7 1.7,19.9 0.4,0.5 -1,3.1 -1.3,3.1 -3.3,-0.5 -6.4,-1.3 -9.6,-2.2 -0.8,-0.3 -1.4,-1.4 -2.1,-2.1 0.9,-0.5 1.8,-1.1 2.7,-1.6 1,-0.5 2.1,-1 3.1,-1.6 -1.1,-0.4 -2.3,-1.2 -3.4,-1.3 -1.2,-0.1 -2.5,0.3 -3.7,0.7 -3.9,1 -6,-1 -6.9,-4.8 -1.8,-7.7 1.1,-14.6 2,-21.9 0.2,-1.1 -0.6,-2.4 -0.9,-4.1 m 33.5,-522 c 0,0.3 0,0.6 -0.1,1 0.2,-0.4 0.4,-0.7 1.1,-1 0.4,-0.1 0.9,-0.2 1.3,-0.2 -0.1,-0.3 -0.2,-0.5 -0.2,-0.7 -0.5,0.3 -1.1,0.6 -2.1,0.9 m 16,526 c 0,-0.3 0.1,-0.6 0.1,-0.9 -0.2,0.3 -0.4,0.6 -1.1,0.9 -2.8,0 -16.7,10.1 -17.4,12.9 -0.3,0.8 0.1,1.9 0.1,2.8 1,-0.2 2.2,-0.1 3,-0.7 3.2,-2.7 6.5,-5.3 9.5,-8.3 2,-2 6.2,-2.4 5.8,-6.7 m -23,-280 c 3.4,-0.3 6.7,-1 10.1,-0.9 3.5,0.2 4.5,-1.6 4.4,-4.5 -0.2,-4.6 -1,-9.2 -0.9,-13.8 0.2,-19.2 0.7,-38.4 0.8,-57.5 0.1,-11.1 -0.6,-22.1 -0.9,-33.1 -0.7,-21.6 -1.4,-43.1 -2,-64.7 -0.4,-13 -0.6,-26 -1,-39 -0.2,-5.9 -0.6,-11.7 -1.1,-17.6 -0.1,-1 -1.2,-2 -1.9,-2.9 -1.6,-2 -4,-3.8 -4.8,-6.1 -0.8,-2.2 -1.7,-2.9 -2.5,-0.9 -2.3,5.7 -5.8,11 -7.5,16.8 -0.9,3.2 0.7,7 0.7,10.5 0,5.2 -0.7,10.3 -0.6,15.5 0.5,18.4 1.4,36.8 1.6,55.3 0.6,45.5 0.7,91 1.3,136.5 0,2.1 2.1,4.3 4.3,6.4 m 16.5,111.5 c 0,-17.1 -0.2,-34.3 0.1,-51.4 0.1,-5.4 -2.9,-8 -6.4,-10.9 -3,-2.5 -4.6,0.7 -6.9,1.5 -0.7,0.2 -1.6,0.4 -2.3,0.3 -3.9,-0.5 -4.6,1.9 -4.5,4.9 0.3,6.3 0.7,12.5 1,18.8 0.4,8.3 0.4,16.7 1.1,25 1,12.5 3,24.9 3.8,37.4 1.1,18.2 1.7,36.4 2,54.6 0.4,19.9 0.2,39.8 0.1,59.7 -0.1,4.3 -0.8,8.7 -0.9,13.1 0,0.8 1.1,2.5 1.6,2.4 4.4,-0.6 7.5,1.1 10.3,4.4 0.7,0.9 3.1,1.1 4.3,0.7 0.9,-0.3 1.6,-2.3 1.6,-3.6 -0.2,-10.5 -0.5,-21 -0.9,-31.5 -0.6,-17.1 -1.4,-34.2 -2,-51.4 -0.4,-13.2 -0.7,-26.4 -1,-39.7 -0.2,-11.3 -0.3,-22.5 -1,-34.3 m -20,-70 c 1.6,1.1 3.2,2.1 4.8,3.2 0.1,-2 0.2,-4.1 0.3,-6.1 0,-0.3 0.1,-0.8 -0.1,-1 -1.9,-2.2 -1.1,-3.9 0.7,-5.9 4.1,-4.2 8.1,-8.5 12,-13 0.7,-0.8 0.8,-2.2 1.2,-3.3 -1.4,0.1 -3.2,-0.3 -4,0.4 -2.8,2.4 -5.1,5.3 -7.9,7.6 -5.4,4.6 -8.1,10 -7,18.1 m -2.5,-295.5 c -4.2,3 -4.3,6.9 -2.8,11.3 0.2,0.6 0.2,1.2 0.3,1.9 0.2,1.2 0.3,2.5 0.4,3.8 1.2,-1.3 2.8,-2.5 3.5,-4 0.6,-1.2 0.6,-3.2 0,-4.4 -2,-4.1 0.4,-6.6 3,-9 2.3,-2 4.9,-3.6 7.2,-5.6 1.1,-1 2.1,-2.3 2.8,-3.6 0.3,-0.5 -0.2,-1.5 -0.3,-2.3 -0.5,0.4 -0.9,0.8 -1.4,1.2 -4.1,3.4 -8.1,6.8 -12.7,10.7 m 10.5,-14.5 c 3.6,-1.3 3,-4.3 2.9,-7.1 0,-0.3 -1.7,-0.9 -2,-0.7 -4.7,4.6 -9.5,9.2 -14,14.1 -0.9,1 -0.5,3.3 -0.6,5 1.1,-0.7 2.4,-1.2 3.4,-2 3.3,-2.9 6.5,-5.8 10.3,-9.3 m 9.5,271.5 c -6,1 -9.6,5.1 -12.7,9.8 -0.5,0.7 -0.6,1.8 -0.8,2.7 0.7,-0.4 1.4,-0.6 2.1,-1.1 2.2,-1.4 4.5,-4.3 6.6,-4.1 5.9,0.5 5.5,-3 4.8,-7.3 m -13.5,-249.5 c 3,-3 6,-5.9 9,-9 0.3,-0.3 -0.1,-1.4 -0.1,-2.1 -0.7,0.1 -1.6,-0.1 -2,0.3 -2.7,2.6 -5.5,5.2 -7.9,8 -0.5,0.6 0.3,2.2 1,2.8 m 18.5,556.5 c -2.6,1.3 -5.3,2.5 -7.7,4 -0.4,0.2 0.2,2.8 0.5,2.9 4.2,0.6 7.3,-1.1 9.9,-4.5 2.2,-3 -0.1,-2.3 -2.7,-2.4 m 2.5,-4.5 c -0.1,-2.1 -0.2,-4.2 -0.3,-6.3 -1.7,1.2 -3.3,2.4 -4.9,3.5 -0.8,0.6 -1.7,0.9 -2.4,1.5 -0.5,0.3 -0.9,0.9 -1.4,1.4 0.6,0.1 1.2,0.4 1.9,0.4 2.2,0.1 4.4,0 7.1,-0.5 m -26,-299 c 0.4,1.7 0.7,3.4 1,5.1 1,-1 1.9,-2 2.9,-2.9 0.1,-0.1 0.2,-0.3 0.3,-0.4 0.9,-0.9 1.9,-1.8 2.8,-2.7 -1.4,-0.2 -2.8,-0.5 -4.2,-0.5 -0.9,-0.1 -1.9,0.3 -2.8,1.4 m -1.5,-283.5 c -0.3,0 -0.8,-0.1 -1,0 -1.2,1.5 -2.4,2.9 -3.4,4.5 -0.2,0.2 0.4,1 0.6,1.5 1.6,-0.9 3.3,-1.7 4.7,-2.9 1.6,-1.4 1.4,-1.5 -0.9,-3.1 m 15.5,318.5 c -0.2,0.8 -0.4,1.6 -0.6,2.4 1.7,-0.4 4.1,-0.2 5.1,-1.2 1.2,-1.1 1.1,-3.4 1.5,-5.2 -1.1,0.7 -2.1,1.5 -3.1,2.2 -0.8,0.4 -1.6,0.9 -2.9,1.8 m -24,237 c 1,0.3 2,0.7 3,1 -0.1,-1.5 -0.2,-2.9 -0.3,-4.3 -0.9,0.8 -1.8,1.6 -2.7,3.3 m 21.5,28.5 c 0.1,-0.9 0.4,-1.8 0.2,-2.7 -0.1,-0.4 -0.8,-0.8 -1.3,-1.2 0.1,1.3 0.1,2.6 1.1,3.9 m 3.5,-274.5 c 1,0.1 1.9,0.1 2.9,0.1 0,-0.4 -0.1,-0.9 -0.1,-1.3 -0.8,0.3 -1.5,0.5 -2.8,1.2"
   fill="#000000"
   stroke="none"
   id="path1" />
<path
   d="m 1276.4506,739.79996 c -0.7,-8.39996 0.4,-16.09996 6,-22.69996 2.4,-2.8 4.2,-1.8 6.3,0 2,1.7 3.7,4 6,4.8 5.9,2 11.1,-0.7 16.2,-3.2 1,-0.5 1.9,-1.5 2.9,-1.6 2.7,-0.3 5.9,-0.9 3.4,4 -1.3,2.7 -1.5,6 -2,9.1 -0.2,0.9 0.2,1.9 0.4,2.8 0.7,-0.7 1.6,-1.3 2.1,-2.1 1.2,-2 2.4,-4 3.4,-6.1 0.5,-1.2 0.3,-2.9 1.1,-4 1.1,-1.8 2.8,-3.2 4.2,-4.8 0.3,2.1 0.5,4.3 0.9,6.4 0.5,3.2 0.7,6.6 1.9,9.5 1.2,2.9 6.6,3.6 9,1.4 2.8,-2.6 5.4,-5.4 7.4,-8.5 3,-4.4 0.2,-15 -4.6,-17.1 -1.9,-0.8 -4.7,0.5 -7.1,1 -0.9,0.2 -1.8,0.6 -2.7,0.9 0,-1 -0.4,-2.1 0,-2.9 2.1,-5 7,-7.9 11.8,-4.2 6.1,4.8 10.3,11.3 8.9,19.1 -1.5,8.2 -5.9,15 -14.6,17.69996 -5.9,1.9 -9.9,0.2 -13.3,-5.89996 -0.5,-0.8 -1,-1.6 -1.4,-2.3 -0.5,0.8 -1,1.6 -1.5,2.4 -1.5,2.5 -2.8,5.19996 -4.6,7.49996 -0.9,1 -3.3,2.1 -3.9,1.7 -1.3,-0.9 -2.2,-2.8 -2.4,-4.4 -0.3,-3.29996 0,-6.59996 -0.1,-9.99996 -0.1,-0.7 -0.4,-1.9 -1,-2.2 -2.2,-1 -11.5,2.9 -12.7,5.1 -1.8,3.3 -3.1,6.99996 -5.4,9.69996 -1.9,2.3 -4.9,4.5 -7.6,4.9 -3.4,0.5 -5.7,-2.4 -7,-6 m 5.7,-7.29996 c 0.1,2.5 0.3,4.99996 0.4,7.49996 1.7,-1 3.6,-1.9 5.1,-3.09996 1,-0.7 1.6,-2 2.2,-3 2.4,-4.6 1.7,-7.7 -2.7,-10.1 -0.8,-0.5 -3.4,0.4 -3.8,1.3 -0.9,1.9 -0.9,4.3 -1.2,7.4"
   fill="#000000"
   stroke="none"
   id="path2" />
<path
   d="m 150.15054,361 c -2.6,2.1 -4.7,4.3 -6.9,6.4 -4.8,4.5 -11.1,3.5 -12.8,-2.8 -2.1,-7.4 -3.5,-15.3 1.8,-22.2 1,-1.3 3.3,-1.6 5,-2.4 0.1,1.7 0.9,4 0.1,5.1 -3.3,4.3 -3.7,9.1 -3.1,14.1 0.2,1.7 1.3,3.9 2.7,4.6 0.9,0.5 3.2,-0.8 4.5,-1.7 2.4,-1.7 4.9,-3.4 6.6,-5.7 1.3,-1.7 1.8,-4.3 2,-6.6 0.3,-3.1 0.8,-5.1 4.7,-4.9 1.2,0 2.7,-1.5 3.6,-2.7 2.2,-2.9 4,-6 6.2,-8.9 0.5,-0.8 2,-0.8 3.1,-1.2 0.1,0.9 0.7,1.9 0.4,2.6 -0.5,1.8 -1.3,3.5 -2.2,5.1 -1,1.8 -2.3,3.4 -3.1,5.2 -0.5,1.1 -0.3,2.4 -0.4,3.7 0.8,-0.6 1.5,-1.4 2.4,-1.8 1.7,-0.6 3.4,-1.1 5.1,-1.6 -0.3,1.8 -0.1,3.8 -0.9,5.3 -1.9,3.6 -4.3,6.9 -6.2,10.5 -0.7,1.2 -0.3,3.1 -0.4,4.6 1.5,-0.2 3.2,-0.1 4.4,-0.8 3.3,-2.1 6.4,-4.5 9.7,-6.7 1.3,-0.8 2.7,-1.6 4.1,-2.1 0.7,-0.2 1.9,0.2 2.5,0.7 0.3,0.2 0.1,1.8 -0.4,2.1 -6.1,4.5 -12,9.4 -18.6,12.9 -4,2.1 -6.6,-0.3 -6.8,-5.2 -0.2,-4.7 -2.3,-6.3 -7.1,-5.6"
   fill="#000000"
   stroke="none"
   id="path3" />
<path
   d="m 936.45054,349.3 c -0.6,5.9 -0.7,11.6 -1.5,17.2 -0.2,1.7 -2.5,3.4 -4.3,4.4 -2.6,1.5 -5.6,2.7 -8.5,3.5 -2.4,0.7 -5.1,1 -7.4,0.4 -0.9,-0.2 -1.6,-3.2 -1.5,-4.9 0.5,-9.1 1.2,-18.1 1.9,-27.1 0.4,-3.8 5.6,-6.7 9.7,-5.5 1.1,0.2 2.2,0.7 3.2,0.7 11.4,-0.6 9.3,1.6 8.4,11.3 m -16.8,15.7 c 0.6,0 1.3,0.1 1.9,0 1.2,-0.3 2.4,-0.7 3.6,-1 -1.2,-0.4 -2.5,-0.9 -3.7,-0.9 -0.8,0 -1.5,0.9 -1.8,1.9"
   fill="#000000"
   stroke="none"
   id="path4" />
<path
   d="m 805.15054,755.99996 c -0.8,1.4 -1.6,2.3 -2.5,3 -1.3,1 -2.8,1.9 -4.2,2.9 -0.4,-1.8 -1.5,-3.7 -1.2,-5.5 1.5,-9.6 3.1,-19.29996 5,-28.89996 0.3,-1.3 2.2,-2.3 3.3,-3.5 0.5,1.4 1.6,2.9 1.5,4.2 -0.4,4.1 -1.2,8.1 -1.9,12.19996 -0.1,0.7 0,1.4 0,2.2 0.7,-0.4 1.7,-0.7 2.1,-1.3 2.1,-3.2 3.7,-6.79996 6,-9.89996 1.3,-1.8 3.3,-3.3 5.3,-4 0.7,-0.2 3.3,2.1 3.4,3.4 0.2,3.3 -0.6,6.69996 -0.7,10.09996 -0.1,1.3 0.3,2.7 0.5,4.1 1.1,-0.8 2.7,-1.5 3.3,-2.6 2.5,-4.8 4.5,-9.79996 6.9,-14.59996 0.8,-1.4 2.2,-2.5 3.3,-3.8 0.5,2 1.7,4 1.5,5.8 -0.5,3.4 -2,6.6 -2.5,9.89996 -0.9,6 -1.4,12.1 -2.1,18.2 -0.1,1 0.1,2.1 -0.3,2.8 -0.5,1 -1.6,1.6 -2.4,2.3 -0.8,-0.8 -2.2,-1.7 -2.2,-2.6 0.1,-3.7 0.6,-7.4 0.9,-11.1 0,-1.1 -0.3,-2.2 -0.5,-3.3 -0.8,0.5 -1.9,0.8 -2.3,1.5 -1.9,3.2 -4.1,6.9 -8.1,5.3 -4.3,-1.7 -1.1,-5.7 -1,-8.7 0,-2.7 0.6,-5.4 0.9,-8.09996 0,-0.7 -0.6,-1.3 -0.8,-2 -0.5,0.6 -1,1 -1.3,1.6 -3.3,6.69996 -6.6,13.29996 -9.9,20.39996"
   fill="#000000"
   stroke="none"
   id="path5" />
<path
   d="m 1084.9505,345.8 c -3.1,2.3 -6,4.3 -8.6,6.6 -4.8,4.2 -8.5,3.7 -11.4,-2 -2.6,-5.3 -4.5,-5.9 -9.6,-2.3 -2.9,2 -5.4,4.6 -8.4,6.4 -1.5,1 -3.8,0.8 -5.7,1.1 0.7,-1.7 0.8,-3.9 2,-5 3.4,-3.1 7,-6 10.9,-8.5 4.9,-3.2 10.8,-4.3 14.7,3.4 1.9,3.8 4,2.6 5.9,1.3 15.6,-11.2 31.1,-22.4 46.5,-33.9 2.5,-1.9 4.1,-5.1 6.2,-7.6 0.5,-0.6 1.6,-0.7 2.4,-1.1 0.1,0.8 0.3,1.6 0.3,2.3 -0.1,6.5 -5.2,9.9 -9.3,13.1 -11.6,9 -23.8,17.3 -35.9,26.2"
   fill="#000000"
   stroke="none"
   id="path6" />
<path
   d="m 1174.4505,325.3 c 4.5,-1.3 8.7,-2.6 13,-3.2 4.2,-0.5 7.6,1.4 8.6,5.8 0.8,3.5 -3,8 -7,9.2 -2.3,0.6 -4.6,1.6 -6.9,2.4 2.3,0.5 4.7,0.8 6.9,1.6 1.8,0.6 4.6,1.5 4.9,2.8 0.8,3.5 0.6,7.5 -2.9,9.6 -6.5,4 -13.5,6.4 -21.3,4.5 -4,-0.9 -4.4,-2.2 -2.4,-5.7 2.5,-4.5 4.6,-9.1 6.7,-13.8 0.2,-0.5 -0.6,-2.3 -1.1,-2.4 -5.3,-0.8 -3.4,-3.7 -1.9,-6.4 0.8,-1.5 2,-2.8 3.4,-4.4 m 15.2,20.7 c -3.3,-0.3 -6.9,-1.5 -10,-0.7 -1.9,0.6 -3,4.1 -4.5,6.3 1.6,0.5 3.6,1.8 4.8,1.3 3.6,-1.8 6.8,-4.2 9.7,-6.9 m -6,-12 c 0.5,-0.3 1.1,-0.6 1.6,-1 1.9,-1.5 3.9,-3 5.9,-4.5 -2.8,-0.2 -5.6,-0.4 -8.4,-0.6 -0.3,0 -0.8,0 -0.9,0.1 -1,1.1 -1.8,2.2 -2.7,3.2 1.2,1 2.3,1.9 4.5,2.8"
   fill="#000000"
   stroke="none"
   id="path7" />
<path
   d="m 21.450541,193.3 c 6.7,-4.4 13,-8.7 19.7,-12.5 1.5,-0.9 4,0 6,0.1 -1.5,2.1 -2.6,5.4 -4.5,5.9 -9.5,2.3 -16,9.2 -23.3,14.7 -0.6,0.4 -0.6,1.5 -0.9,2.3 1.3,0.4 2.7,1.3 4,1.1 4.1,-0.4 8.1,-1.3 12.2,-1.8 4,-0.5 8,-1.1 12,-1 4.4,0.2 6.4,4.4 3.3,7.4 -6.3,5.9 -13.1,11.2 -20,16.4 -3.3,2.5 -7.2,4.2 -11,6.1 -1.1,0.5 -2.5,0.3 -3.8,0.5 0.2,-1.6 0.2,-3.3 0.8,-4.7 0.4,-0.8 1.8,-1.2 2.7,-1.8 8.9,-5.5 17.8,-11 26.6,-16.6 0.7,-0.5 1.1,-1.4 1.7,-2.1 -0.8,-0.1 -1.6,-0.3 -2.4,-0.3 -6.7,0.7 -13.5,0.9 -20.1,2.2 -4.2,0.8 -8.2,0.8 -10,-2.7 -1.7,-3.5 0.3,-7.2 3.5,-9.8 1.2,-0.9 2.1,-2.1 3.5,-3.4"
   fill="#000000"
   stroke="none"
   id="path8" />
<path
   d="m 268.15054,270 c 2.9,1 5.3,2.8 7.8,2.9 5.7,0 8.2,3.9 9,8.1 0.8,5.3 0.7,10.5 -4.1,15.2 -5.1,5.1 -10.7,5.9 -17.2,5.9 -4.5,0 -9,0.7 -13.5,0.9 -1.5,0 -3.2,-0.4 -4.5,-1.2 -0.8,-0.4 -1.5,-1.9 -1.4,-2.8 0.2,-0.7 1.4,-1.8 2.3,-1.9 4.2,-0.5 8.4,-0.5 12.5,-1.1 4.5,-0.7 9,-1.7 13.3,-3.1 3.2,-0.9 6.2,-3.3 4.6,-7 -1.1,-2.7 -3.7,-5.8 -6.2,-6.6 -5,-1.6 -10.4,-1.5 -15.6,-2.4 -1.4,-0.2 -2.6,-1.5 -3.9,-2.3 0.9,-1.2 1.5,-2.9 2.6,-3.7 4.4,-3.1 9.1,-2.1 14.3,-0.9"
   fill="#000000"
   stroke="none"
   id="path9" />
<path
   d="m 31.450541,352.8 c -5,-1.4 -9.6,-2.6 -14.3,-3.8 -3,-0.7 -7.6000003,-0.3 -8.7000003,-2.1 -2.1,-3.7 2.3000003,-5.9 4.6000003,-8.2 4.9,-4.7 10,-9.1 17.4,-8.6 0.9,0.1 2.7,1.6 2.5,2 -0.4,1.4 -1.6,3.8 -2.2,3.7 -6.2,-0.9 -10.1,4.1 -15.3,5.6 -0.6,0.1 -0.9,1.2 -1.3,1.9 0.7,0.2 1.4,0.6 2.1,0.7 5.2,1.1 10.7,1.4 15.5,3.4 7.8,3.3 8.1,9.4 4,15.1 -5.9,8.2 -13.9,14.5 -25.2,13.5 -1.9000003,-0.2 -3.9000003,-1 -5.7000003,-1.8 -5.29999995,-2.3 -7,-5.9 -1.3,-11 3,-2.6 6.3,-5 10.8000003,-4.1 0.6,0.1 1.2,0.6 1.8,0.9 -0.3,0.5 -0.6,1.2 -1,1.5 -2.4,1.8 -4.9,3.6 -7.3000003,5.4 -0.9,0.7 -1.8,1.5 -2.7,2.2 1.3,0.7 2.6,1.7 4,1.9 7.9000003,0.8 14.1000003,-2.8 19.6000003,-8.1 3,-2.8 4.4,-5.9 2.7,-10.1"
   fill="#000000"
   stroke="none"
   id="path10" />
<path
   d="m 1195.1505,726 c 0.8,-0.6 1.7,-1.2 2.3,-0.9 4.4,1.9 8.2,0.7 11.9,-2 1.2,-1 3,-1.3 4.5,-1.9 0.4,1.8 1.4,3.7 1.2,5.5 -0.4,3.4 -1.4,6.7 -2.1,10.1 -0.3,1.59996 -0.4,3.29996 -0.5,4.99996 1.4,-0.6 2.7,-1.1 4.1,-1.7 2.9,-1.3 5.8,-2.99996 8.8,-3.89996 1.3,-0.4 3,0.6 4.5,1 -0.9,0.99996 -1.6,2.19996 -2.7,2.79996 -4.8,2.5 -9.6,5.1 -14.6,7 -4.2,1.6 -7.1,-1.2 -6.4,-5.6 0.3,-1.9 0.8,-3.7 1,-5.59996 0.1,-1.6 -0.1,-3.2 -0.1,-4.8 -2.3,1 -5.2,1.5 -6.8,3.2 -2.5,2.7 -4.1,6.19996 -6.1,9.39996 -3,4.6 -7.6,4.1 -11.9,2.9 -4.6,-1.3 -5.5,-5.7 -6,-9.79996 -0.4,-3.4 -0.4,-7 0,-10.4 0.2,-1.5 2,-2.9 3,-4.3 0.9,1.6 2.2,3.2 2.4,4.9 0.5,3.9 0.2,7.9 0.6,11.79996 0.3,3.3 3.9,4.4 6.6,2.2 4.4,-3.79996 7.1,-8.29996 6.3,-14.89996"
   fill="#000000"
   stroke="none"
   id="path11" />
<path
   d="m 1151.1505,748.99996 c -2.3,-0.1 -5.1,0.4 -5.8,-0.6 -1.3,-1.9 -1.6,-4.6 -2.1,-7 -0.3,-2 -0.2,-4 -0.3,-6.09996 -1.2,1.7 -2.6,3.19996 -3.5,4.99996 -1,2.2 -1.1,4.9 -2.4,6.9 -0.9,1.4 -3.2,2.8 -4.6,2.6 -1.2,-0.2 -3.1,-2.5 -3.1,-3.9 -0.1,-5.7 0.4,-11.39996 0.9,-17.09996 0,-0.6 1.6,-1.8 2,-1.7 1.1,0.6 2.5,1.5 2.8,2.5 0.4,1.5 0.1,3.3 0.1,5 0,1 0.1,2 0.2,3.09996 0.8,-0.59996 2,-0.99996 2.4,-1.79996 1.5,-3 2.6,-6.3 4.4,-9.2 1,-1.6 3.1,-2.5 4.8,-3.7 0.7,1.7 2.1,3.4 2.1,5.2 0,4 -0.6,8 -0.9,11.99996 0,1.3 0.3,2.5 0.5,3.8 1,-0.7 2.3,-1.2 3.1,-2.1 3.8,-4.69996 7.5,-9.49996 11.3,-14.19996 0.9,-1.1 2.2,-1.8 3.3,-2.7 0.6,1.4 1.8,2.8 1.7,4.1 -0.4,6.7 -1.2,13.39996 -2,20.09996 -0.1,1 -1,1.9 -1.5,2.8 -0.8,-0.6 -2.1,-1.2 -2.3,-2 -0.6,-2.3 -0.7,-4.7 -1.1,-7 -0.3,-1 -1,-2 -1.4,-2.9 -0.7,0.6 -1.5,1.2 -2.1,1.9 -2,2.3 -4,4.7 -6.5,7"
   fill="#000000"
   stroke="none"
   id="path12" />
<path
   d="m 1241.1505,801.99996 c 0,-2.9 0,-5 3.6,-3.2 0.9,0.5 3.5,-0.9 4.3,-2.2 2.4,-3.6 4.1,-7.6 6.4,-11.3 1.1,-1.6 3,-2.7 4.5,-4 0.2,2.2 1.1001,4.7 0.5,6.7 -0.9,2.7 -2.9,5.1 -4.4,7.7 -0.2,0.4 0,1.1 0,1.7 0.6,-0.2 1.2,-0.3 1.7,-0.5 0.2,-0.1 0.3,-0.3 0.4,-0.4 1.6,-1.3 3.3001,-2.7 4.9001,-4.1 0,2.4 0.7,5 0,7.1 -1.6,4.1 -4.0001,8 -5.8001,12.1 -0.6,1.3 -0.5,2.9 -0.7,4.3 1.6,-0.5 3.4,-0.7 4.7001,-1.6 3.5,-2.5 6.7,-5.5 10.3,-8 1.1,-0.8 2.8,-0.7 4.3,-1.1 -0.5,1.4 -0.6,3.2 -1.6,4.1 -4.4,4 -8.9,8.1 -13.7001,11.6 -1.5,1.1 -4.6,1.4 -6.2,0.5 -1.6,-0.9 -3.1,-3.6 -3,-5.5 0.2,-3.5 -1.2,-5.3 -4.4,-5.5 -5.3,-0.3 -6,-3.6 -5.8,-8.4"
   fill="#000000"
   stroke="none"
   id="path13" />
<path
   d="m 1299.4506,778.29996 c 5.1,-0.9 5.1,2 4.5,5.5 -1,5.6 -2,11.2 -2.7,16.8 -0.1,1.1 0.9,2.3 1.4,3.4 0.9,-0.6 1.8,-1.1 2.7,-1.7 4.1,-2.7 8,-5.6 12.1,-8.2 0.8,-0.5 2.3,0.1 3.5,0.2 -0.5,1.3 -0.6,2.9 -1.5,3.7 -1.9,1.7 -4.3,3.1 -6.4,4.7 -2.8,2.1 -5.4,4.5 -8.3,6.3 -3.5,2.1 -5.7,-0.1 -7.6,-3 -3,-4.6 -1.1,-9.3 -0.5,-14 0.2,-2 -0.1,-4 -0.1,-6 -1.3,1.3 -2.8,2.5 -3.8,4 -2.9,4.4 -5.6,8.9 -8.5,13.4 -0.5,0.7 -1.8,1 -2.7,1.5 -0.5,-1 -1.4,-2 -1.3,-2.9 0.8,-5.1 1.7,-10.2 2.8,-15.3 0.2,-1 1.9,-2.7 2.2,-2.5 6.6,2.7 9.3,-3.7 14.2,-5.9"
   fill="#000000"
   stroke="none"
   id="path14" />
<path
   d="m 1121.9505,712.3 c -0.7,1.8 -1.5,3.6 -2.7,5 -2.2,2.6 -5.5,4.6 -0.1,7.6 0.9,0.5 0.9,4.7 -0.1,6.4 -1.6,2.9 -4.3,5.2 -6.5,7.79996 -1.2,1.5 -2.6,3 -3.3,4.7 -1.1,2.3 -1,4.5 2.6,4.2 3,-0.2 6,-0.8 9,-0.9 0.8,0 2.1,0.9 2.2,1.6 0.1,0.7 -0.7,2 -1.4,2.2 -2.7,0.9 -5.4,1.9 -8.2,2 -8.8,0.4 -10.6,-1.6 -11.3,-10.6 -0.3,-3.5 -1.3,-6.89996 -1.5,-10.39996 -0.1,-1.6 0.8,-3.2 1.3,-4.9 1.1,1.1 2.2,2.1 3.2,3.2 0.8,0.9 1.4,1.9 2.1,2.8 0.3,-0.9 0.6,-1.9 0.9,-2.8 2,-5.2 3.7,-10.5 6.1,-15.5 1.3,-2.4 3.7,-5.3 7.7,-2.4"
   fill="#000000"
   stroke="none"
   id="path15" />
<path
   d="m 188.45054,202.3 c -1.1,1.1 -2.2,1.7 -2.7,2.7 -0.8,1.7 -1.1,3.6 -1.6,5.4 1.8,-0.1 3.5,-0.1 5.3,-0.2 0.3,0 0.6,-0.2 0.9,-0.2 2.9,0.1 5.7,0.2 8.6,0.3 -2.6,1.9 -4.9,4.1 -7.7,5.6 -1.7,0.9 -4.2,1.5 -6,1 -6.6,-1.8 -8.7,-3.2 -6.1,-10.9 0.2,-0.6 0.4,-1.3 0.6,-1.9 -0.7,0 -1.4,-0.2 -2,-0.1 -5.6,1.3 -6.4,0.4 -5.1,-5.1 0.6,-2.7 0.8,-5.6 0.4,-8.3 -0.5,-4.4 2.9,-4.7 4.6,-3.2 3,2.6 4.2,0.4 6.4,-0.7 2.4,-1.2 5.2,-2.3 7.8,-2.3 2.1,0 3.6,1.8 0.8,3.6 -2.1,1.3 -4.4,2.4 -6.5,3.6 -0.7,0.3 -1.6,0.5 -2.1,1.1 -1,1.1 -1.9,2.5 -2.9,3.7 1.8,-0.1 3.6,0 5.3,-0.2 3.1,-0.3 6.1,-0.8 9.2,-1.2 -1.8,2.1 -3.5,4.3 -5.3,6.3 -0.4,0.4 -1.1,0.5 -1.9,1"
   fill="#000000"
   stroke="none"
   id="path16" />
<path
   d="m 1192.1505,794.99996 c 1.6,-2.1 3.1,-3.9 4.9,-5.3 1.2,-0.9 3.2,-1.9 4.2,-1.5 1.3,0.6 2.8,2.6 2.8,4 -0.1,8.7 -0.4,17.3 -1,26 -0.1,1.3 -2,2.6 -3,3.8 -1,-1.7 -2,-3.4 -2.9,-5.1 0,-0.1 0.4,-0.5 0.4,-0.8 -0.2,-3.2 -0.4,-6.5 -0.6,-9.7 -3.2,1.8 -6.6,3.4 -9.7,5.5 -1.1,0.6 -1.1,2.8 -2.2,3.4 -1.5,1 -3.4,1.2 -5.2,1.7 -0.2,-1.2 -0.6,-2.3 -0.7,-3.5 0,-4.9 -0.2,-9.8 0.1,-14.7 0.1,-1.3 1.6,-2.5 2.5,-3.8 0.8,1.3 1.6,2.6 2.4,4 0.1,0.1 0,0.3 0,0.5 0.2,2.2 0.5,4.3 0.7,6.5 1.4,-1.9 2.9,-3.8 4.3,-5.7 1.1,-1.6 2,-3.2 3,-5.3 m 6.5,1 c -0.9,0.6 -1.9,1.1 -2.7,1.8 -0.7,0.7 -1.2,1.8 -1.8,2.7 0.6,0.2 1.3,0.6 1.7,0.5 0.9,-0.4 2,-1 2.6,-1.8 0.5,-0.7 0.5,-1.8 0.2,-3.2"
   fill="#000000"
   stroke="none"
   id="path17" />
<path
   d="m 1189.4505,289.8 c -1,1.4 -2,3.2 -3.4,3.6 -4.9,1.5 -9.9,2.8 -15,3.5 -2.9,0.4 -4.3,1 -3.9,4.1 0.1,0.5 0.2,1.1 0,1.4 -2,2.3 -4,4.4 -6.1,6.6 -0.3,-2.4 -0.9,-4.9 -0.8,-7.3 0.1,-5.2 0.7,-10.4 0.9,-15.6 0,-2.3 0.5,-3.3 3.2,-4.3 3.1,-1.2 5.5,-4.3 8.2,-6.7 4.8,-4.2 10.4,-5.9 16.7,-5.4 1,0.1 1.9,1.3 2.9,2 -1,0.8 -1.9,1.8 -3.1,2.3 -3.7,1.4 -7.6,2.6 -11.3,4 -5.1,1.8 -6.2,6.8 -8.5,10.9 -0.1,0.2 1.3,2.1 2,2 3.6,-0.2 7.2,-0.9 10.9,-1.3 2.3,-0.2 4.7,-0.1 7.3,0.2"
   fill="#000000"
   stroke="none"
   id="path18" />
<path
   d="m 1294.9506,329.8 c 2.7,-0.2 5.2,-0.7 3.5,3.6 -1.4,3.6 -1.7,7.6 -2.2,11.5 -0.3,1.8 -0.2,3.5 2.8,2.2 4.3,-1.9 8.9,-3.4 13.4,-4.8 1.4,-0.4 3.1,0.1 4.7,0.2 -0.8,1.2 -1.4,2.9 -2.5,3.4 -5.9,2.6 -11.9,5.1 -18.1,7 -3.7,1.2 -5.3,-1.6 -5.3,-4.9 -0.1,-3 0.6,-6 0.9,-9 0,-1 -0.3,-1.9 -0.4,-2.9 -0.6,0.6 -1.1,1.1 -1.7,1.6 -3.5,2.8 -6.9,5.8 -10.6,8.3 -1.4,1 -3.6,1 -5.4,1.5 0.1,-1.8 -0.3,-3.6 0.2,-5.2 1.4,-4.9 2.9,-9.8 4.8,-14.5 0.4,-1.2 2,-1.9 3.1,-2.8 0.6,1.6 1.6,3.2 1.6,4.8 0,1.4 -1.1,2.8 -1.6,4.3 -0.3,0.9 -0.4,1.9 -0.5,2.9 1,-0.3 2.1,-0.5 3,-1 3.4,-1.9 6.7,-4 10.3,-6.2"
   fill="#000000"
   stroke="none"
   id="path19" />
<path
   d="m 1033.1505,476 c 0.3,3.4 1.3,6.4 0.8,9.2 -0.3,2.3 -3.1,3 -4.3,0.7 -4.6,-8.6 -7.5,-17.5 -4.5,-27.3 2.3,-7.7 11.2,-12.6 18.6,-10.4 2.7,0.8 5.1,2.2 7.5,3.6 0.7,0.3 1.1,1.3 1.6,2 -1,0.4 -2,1.3 -3,1.1 -2.3,-0.2 -4.5,-0.8 -6.8,-1.5 -6.3,-1.8 -12.9,2.9 -12.9,9.2 0,4.4 1.5,5.3 5.8,4.2 2.9,-0.8 5.9,-1.4 8.8,-1.7 1,0 2,1.3 3,2 -0.8,0.7 -1.4,1.7 -2.3,2.1 -2.3,0.9 -4.9,1.2 -7.1,2.2 -1.9,1 -3.5,2.7 -5.2,4.6"
   fill="#000000"
   stroke="none"
   id="path20" />
<path
   d="m 68.450541,280.3 c -0.6,1.8 -1.2,3.3 -1.2,4.8 -0.1,1.6 0.3,3.3 0.4,4.9 1.5,-1 3.3,-1.7 4.4,-3 2.6,-3.1 4.4,-6.8 7.3,-9.4 1.8,-1.6 5.1,-1.5 7.7,-2.2 0,2.2 0.5,4.5 0,6.6 -1,4.7 -2.3,9.4 -4,13.8 -0.6,1.4 -2.8,2.2 -4.2,3.2 -0.6,-1.2 -1.4,-2.4 -1.6,-3.7 -0.4,-2 -0.4,-4.2 -0.6,-6.3 -1.4,1.4 -2.9,2.8 -4.2,4.3 -2.1,2.4 -5.1,2.9 -7.3,1.5 -1.9,-1.1 -3.9,-4 -3.8,-6 0.5,-8.1 3.2,-15.6 9.2,-21.5 1.1,-1 3.5,-0.7 5.3,-1 -0.3,1.8 -0.1,3.9 -0.9,5.3 -1.8,3 -4.2,5.6 -6.5,8.7"
   fill="#000000"
   stroke="none"
   id="path21" />
<path
   d="m 1221.9505,288.8 c -5.7,3.6 -11.2,7 -16.5,10.5 -2.1,1.4 -3.4,3.4 -6.6,2.1 -3.5,-1.3 -2.5,-3.7 -2.7,-5.9 -0.3,-2.3 -1.1,-4.5 -0.9,-6.6 0.2,-1.7 1.3,-4.2 2.5,-4.7 2.8,-1 3.5,1.2 3.5,3.7 0,2.7 0.4,5.4 0.6,8.1 1.9,-1.9 3.7,-3.8 5.6,-5.7 2.7,-2.7 4.9,-6 9.8,-5.5 2.2,0.2 4.6,-2.4 7,-3.3 1.8,-0.7 3.8,-0.8 5.8,-1.1 0.1,1.9 0.6,3.9 0.4,5.7 -0.3,2 -1.2,3.9 -1.9,5.9 1.9,-0.7 3.8,-1.5 5.7,-1.9 1.9,-0.4 3.9,-0.4 5.9,-0.6 -1.5,1.8 -2.8,4 -4.6,5.4 -2.2,1.7 -4.8,2.8 -7.3,4.1 -3.5,2 -5.1,1.2 -5,-2.8 0,-2.2 0.6,-4.4 0.8,-6.6 0,-0.3 -1.2,-0.7 -2.1,-0.8"
   fill="#000000"
   stroke="none"
   id="path22" />
<path
   d="m 89.950541,213.3 c 4.2,-1.2 6.8,-5.5 7.3,-9.7 0.5,-3.7 1.8,-7.2 2.999999,-10.7 0.3,-0.9 1.9,-1.6 3,-1.7 0.5,-0.1 1.6,1 1.8,1.8 1.8,5.3 -5.399999,22.2 -10.699999,25.3 -4.9,2.9 -7.3,1.9 -9.2,-3.8 -0.4,-1.2 -0.5,-2.5 -1.1,-3.6 -0.5,-1.1 -1.6,-1.9 -2.5,-2.8 -0.2,0.9 -0.4,1.8 -0.7,2.7 -0.5,1.4 -0.9,2.9 -1.7,4.2 -0.8,1.2 -1.9,2 -2.9,3 -0.7,-1.1 -1.8,-2.1 -2,-3.2 -1.3,-6 4.7,-17.4 10.3,-19.5 0.8,-0.2 3.2,1.7 3.5,2.9 0.8,4.9 1.1,9.9 1.9,15.1"
   fill="#000000"
   stroke="none"
   id="path23" />
<path
   d="m 861.45054,739.79996 c 0.4,4.6 0.5,9.1 0.7,13.5 0.2,2.2 1,4.4 0.9,6.5 -0.1,1.8 -1,3.5 -1.6,5.2 -1.1,-1 -2.8,-1.8 -3.2,-3.1 -0.7,-2.5 -0.7,-5.3 -1.1,-8 -0.2,-1.2 -0.5,-3.1 -1.2,-3.3 -1,-0.4 -2.6,0.2 -3.6,0.9 -2,1.3 -3.8,3 -5.7,4.5 -2.8,2.3 -7.5,0.9 -7.4,-2.4 0.2,-5.8 1.2,-11.5 2.1,-17.09996 0.1,-0.6 1.9,-1.5 2.7,-1.3 0.8,0.1 2,1.4 2,2.19996 -0.1,2.5 -0.8,4.9 -1.2,7.4 -0.1,1 -0.2,2 -0.4,3.1 1.1,-0.6 2.5,-1 3.1,-1.9 2.3,-3.3 4.1,-6.9 6.5,-10.19996 0.9,-1.3 2.7,-1.9 4.2,-2.8 0.9,1.7 2,3.3 2.9,4.99996 0.2,0.4 0,1 0.3,1.8 m -6.3,5.7 c 0.5,-1.4 1.1,-2.9 1.6,-4.4 -0.8,0.4 -2.1,0.7 -2.3,1.2 -0.3,1.2 0.1,2.5 0.7,3.2"
   fill="#000000"
   stroke="none"
   id="path24" />
<path
   d="m 115.45054,364.3 c 2.1,-0.9 4,-1.8 6,-1.9 1.5,-0.1 3.1,0.7 4.7,1.1 -0.8,1.2 -1.4,2.9 -2.4,3.3 -4.9,2.2 -9.6,4.9 -15.3,2.3 -0.7,-0.3 -2.2,0.9 -3.3,1.4 -3.5,1.7 -3.9,-1.2 -3.8,-3.1 0.3,-4.7 1.3,-9.4 1.8,-14.2 0.6,-6.2 10.7,-13.4 16.1,-11 1.5,0.7 2.7,3.6 2.8,5.5 0.1,6.1 -3.5,10.6 -7.7,14.7 -0.6,0.5 -1.3,0.9 -2,1.4 1,0.2 1.9,0.5 3.1,0.5 m -4.3,-3.8 c 1.9,-3.5 3.8,-7 5.5,-10.5 0.4,-0.8 0.4,-1.9 0.2,-2.7 -0.1,-0.2 -1.5,-0.4 -2.2,-0.2 -3.9,1.1 -8.1,11.4 -6,14.8 0.1,0.1 1.3,-0.6 2.5,-1.4"
   fill="#000000"
   stroke="none"
   id="path25" />
<path
   d="m 1231.1505,331 c 1.6,-0.6 2.6,-1.3 3.7,-2 4.4,-2.6 6.9,-1.1 7.3,4.1 0.1,1.2 0.4,2.6 1.1,3.5 2.2,3.1 3.3,5.8 -1.1,8.1 -0.7,0.3 -0.8,1.9 -1,3 -0.1,1.3 0.3,2.8 -0.1,3.9 -0.7,2.2 -1.9,4.3 -3,6.4 -2.8,-1.5 -2.3,-3.9 -2,-6.6 0.3,-1.7 -0.2,-3.5 -0.3,-5.3 -2,0.3 -4,0.5 -6,1 -1.3,0.3 -2.4,1.6 -3.7,1.9 -4.2,1 -5.1,0 -4,-4.4 0.8,-3.2 1.6,-6.3 2,-9.6 0.6,-4.3 2.6,-5.6 7.1,-4 m 4.5,4 c -1.4,1.1 -2.9,1.9 -4,3.2 -0.4,0.4 0.4,1.9 0.7,2.8 1.5,-0.7 3.4,-1.1 4.3,-2.3 0.6,-0.8 -0.3,-2.7 -1,-3.7"
   fill="#000000"
   stroke="none"
   id="path26" />
<path
   d="m 988.95054,474.3 c -0.6,-2.6 -1.7,-5.2 -1.1,-7.3 2.2,-6.7 5,-13.2 7.6,-19.8 0.3,-0.6 0.7,-1.2 0.7,-1.7 -0.1,-1.8 -0.3,-3.6 -0.4,-5.4 -1.5,0.7 -3.1,1.4 -4.6,1.9 -1.7,0.6 -3.3,1 -5,1.5 0.7,-2 1,-4.3 2.2,-6 2.4,-3.3 6.1,-5 9.7,-2.8 3.59996,2.2 5.19996,6 3.49996,10.4 -2.79996,7.2 -5.69996,14.3 -8.49996,21.5 -0.3,1 -0.5,2.1 -0.8,3.1 1,-0.2 2.1,-0.2 3,-0.7 2.9,-1.7 5.79996,-3.5 8.79996,-5.3 0.8,-0.5 1.5,-1.2 2.4,-1.4 1.4,-0.2 2.9,-0.1 4.3,-0.1 -0.7,1.2 -1.1,2.9 -2.1,3.7 -5.7,4.6 -10.99996,10.3 -19.69996,8.4"
   fill="#000000"
   stroke="none"
   id="path27" />
<path
   d="m 289.95054,311.3 c -3.5,-2.5 -6.8,-4.7 -10,-7 -1,-0.8 -1.9,-1.8 -2.8,-2.8 1.6,-0.4 3.4,-1.5 4.7,-1.1 2.9,1 6,2.2 8.2,4.2 14.4,13.1 30.8,23.1 47.3,33.2 2,1.3 3.6,3.4 5.4,5.2 -2.6,-0.3 -5.7,0.1 -7.7,-1.1 -10.9,-6.7 -21.7,-13.8 -32.3,-20.9 -4.4,-2.9 -8.4,-6.3 -12.8,-9.7"
   fill="#000000"
   stroke="none"
   id="path28" />
<path
   d="m 907.95054,754.79996 c -0.8,1.5 -1.4,2.8 -1.8,4.1 -0.3,1.6 -0.5,3.3 -0.7,4.9 1.7,-0.2 3.4,-0.5 5.1,-0.6 0.8,-0.1 1.7,0.3 2.6,0.4 -0.3,0.9 -0.3,2 -0.8,2.7 -2.4,2.6 -5.1,4.9 -9,2.7 -3.7,-2 -5.3,-4.6 -3.3,-8.9 1.1,-2.4 1.4,-5.1 2,-7.6 -2,1.2 -4,2.4 -6.1,3.5 -4,2.2 -5.7,1.3 -5.8,-3.1 -0.2,-6.1 0.9,-11.7 5.1,-16.39996 0.9,-1 2.4,-1.5 3.7,-2.2 0.4,1.4 1.4,2.9 1.1,3.99996 -0.7,2 -2.4,3.7 -3.2,5.6 -0.8,1.8 -1.1,3.8 -1.6,5.8 1.6,-0.7 3.3,-1.4 4.9,-2.1 0.8,-0.5 1.5,-1.2 2.3,-1.6 2.4,-1 4.8,-1.9 7.2,-2.9 -0.1,3.1 -0.3,6.2 -0.5,9.3 -0.1,0.8 -0.7,1.4 -1.2,2.4"
   fill="#000000"
   stroke="none"
   id="path29" />
<path
   d="m 1230.4505,813.29996 c -0.6,5.1 -0.9,10 -1.4,14.8 0,1 -0.9,1.9 -1.4,2.9 -0.8,-0.8 -2,-1.4 -2.4,-2.3 -0.7,-1.6 -1.2,-3.5 -1,-5.1 0.8,-6.6 2,-13.2 2.8,-19.8 0.2,-1.4 -0.7,-3 -1.1,-4.5 -0.8,1.3 -1.6,2.6 -2.5,3.9 -1.7,2.4 -3.2,5.1 -5.3,7.1 -1.7,1.7 -3.6,1.1 -2.9,-1.7 1.4,-6.2 3.1,-12.3 5,-18.4 0.2,-0.7 2.4,-1.2 3.5,-1 8.4,2.1 8.6,2.2 8.3,11.4 -0.1,4.2 -0.9,8.3 -1.6,12.7"
   fill="#000000"
   stroke="none"
   id="path30" />
<path
   d="m 63.150541,365 c -2.4,3 -4.6,5.8 -7.4,7.8 -4.2,3.1 -10.8,0.3 -11.5,-4.8 -1.3,-7.9 1.5,-14.9 5.9,-21.4 0.5,-0.7 1.5,-1.3 2.3,-1.5 3.3,-0.7 11.7,3.3 13.4,6.1 2.3,3.9 1.4,8.6 -2.7,13.8 m -2,-6.5 c 0,-0.8 0.3,-1.8 -0.1,-2.4 -0.9,-1.8 -2.2,-3.3 -3.3,-5 -1.3,1.2 -2.6,2.3 -3.7,3.6 -0.7,0.8 -1,2.2 -1.8,2.6 -3.5,1.7 -3,4.7 -3.1,7.6 -0.2,4.2 2.3,4.6 4.6,2.8 2.9,-2.2 5,-5.4 7.4,-9.2"
   fill="#000000"
   stroke="none"
   id="path31" />
<path
   d="m 1155.9505,822.79996 c 3.4,-2.5 6.6,-4.9 10,-6.9 1,-0.7 2.6,-0.4 4,-0.6 -0.5,1.3 -0.5,3 -1.4,3.7 -5.1,3.7 -10.2,7.3 -15.6,10.6 -1.2,0.7 -4.6,0.3 -4.8,-0.4 -0.7,-2.1 -1.3,-4.9 -0.6,-6.9 4,-11.2 8.3,-22.2 12.7,-33.2 0.7,-1.7 2.9,-2.7 4.4,-4 0.4,2.2 1.8,4.9 1,6.7 -3.9,9.7 -8.3,19.2 -12.5,28.8 -0.4,1 -0.4,2.2 -0.6,3.4 1.1,-0.3 2.1,-0.7 3.4,-1.2"
   fill="#000000"
   stroke="none"
   id="path32" />
<path
   d="m 23.150541,297 c -7.8,0 -8.6,-1.6 -5.8,-8.7 3.2,-8.5 5.7,-17.3 8.9,-25.8 1.1,-2.8 3,-5.5 5,-7.8 1,-1.3 3.2,-1.6 2.9,1.3 -0.2,1.9 -0.4,3.8 -1.1,5.6 -3.5,9 -7.3,17.9 -10.7,26.9 -0.2,0.5 1.6,2.5 2,2.4 2.2,-0.7 4.2,-1.8 6.3,-2.9 1.8,-0.9 3.4,-2.3 5.2,-2.9 1.3,-0.4 2.9,0.3 4.3,0.4 -0.8,1.2 -1.3,2.8 -2.4,3.5 -4.6,2.8 -9.4,5.4 -14.6,8"
   fill="#000000"
   stroke="none"
   id="path33" />
<path
   d="m 75.450541,368.8 c -1.3,-6.7 -2.3,-13.2 -3.3,-19.7 0,-0.6 0.5,-2 0.7,-2 1.2,0.1 3,0.1 3.5,0.8 1.3,1.9 2.2,4.2 2.7,6.4 0.4,1.9 -0.1,4 0.2,5.9 0.2,2 1,3.9 1.5,5.8 1.6,-0.9 3.3,-1.7 4.8,-2.9 1.9,-1.5 3.8,-3.2 2.1,-6.2 -1,-1.7 -2.3,-3.6 -2.4,-5.4 -0.1,-3 0.8,-5.7 4.9,-5.5 3.8,0.1 6.1,1.9 5.9,5.6 -0.4,7.9 -4,14.4 -10.2,19.1 -3.4,2.5 -7.4,2.3 -10.4,-1.9"
   fill="#000000"
   stroke="none"
   id="path34" />
<path
   d="m 1060.1505,510 c 4.5,4.5 0.9,8.6 -0.9,12.2 -2.8,5.7 -6.6,10.8 -10,16.3 -0.4,0.7 -0.5,1.6 -0.8,2.4 0.9,-0.2 1.9,-0.1 2.7,-0.4 4,-1.6 8,-3.4 12,-4.9 1.1,-0.4 2.5,-0.2 3.8,-0.3 -0.5,1.3 -0.5,3.2 -1.4,3.7 -6.8,3.6 -13.2,8.5 -21.6,7.9 -0.6,0 -1.8,-1.3 -1.7,-1.8 0.3,-2.1 0.7,-4.4 1.7,-6.3 4.3,-8.8 8.7,-17.6 13.2,-26.4 0.5,-0.9 1.7,-1.6 3,-2.4"
   fill="#000000"
   stroke="none"
   id="path35" />
<path
   d="m 1126.1505,548 c -2.2,3 -4,2.3 -3.9,-0.7 0.4,-6.1 -2.2,-4.6 -5.4,-2.5 -1.1,0.8 -2.3,1.9 -3.5,2.1 -1.4,0.3 -3.2,0.2 -4.1,-0.6 -0.9,-0.7 -1.3,-2.8 -0.9,-3.8 2.1,-4.8 4.4,-9.6 7.1,-14 0.7,-1.1 3.4,-1 5.2,-1.4 -0.1,1.3 0,2.7 -0.6,3.8 -0.7,1.7 -2,3.2 -3,4.7 -0.6,1 -1.1,2.1 -1.7,3.2 1.3,-0.1 2.6,0.1 3.7,-0.2 4.4,-1.2 6.5,-4.3 8.3,-8.3 1.1,-2.6 3.9,-4.6 6.3,-6.1 1.9,-1.1 2.3,0.4 1.5,2.2 -2.4,5.4 -4.8,10.9 -7.2,16.4 -0.7,1.5 -1.2,3.1 -1.8,5.2"
   fill="#000000"
   stroke="none"
   id="path36" />
<path
   d="m 917.95054,660.8 c -2,1.6 -4,2.9 -5.5,4.5 -9.9,10.9 -22.2,19.5 -29.7,32.5 -0.4,0.8 -2,0.8 -3,1.2 -0.2,-0.9 -0.8,-1.9 -0.5,-2.6 1,-2.6 1.8,-5.5 3.6,-7.4 11.4,-12 22.9,-23.9 34.6,-35.6 1.4,-1.5 3.6,-2.1 5.4,-3.2 -0.5,2.4 -0.7,4.9 -1.6,7.1 -0.5,1.3 -2,2.2 -3.3,3.5"
   fill="#000000"
   stroke="none"
   id="path37" />
<path
   d="m 291.45054,267.3 c -0.7,0.4 -1.2,0.6 -1.6,0.7 -1.5,0.6 -3,1.1 -4.5,1.7 0.5,-1.9 0.3,-4.6 1.5,-5.6 4.5,-3.7 9.1,-7.6 14.3,-9.9 10.4,-4.7 21.2,-8.5 31.8,-12.4 1.6,-0.6 3.5,0 5.2,0 -1.3,1.4 -2.2,3.5 -3.8,4.1 -9.4,3.9 -19.1,7 -28.3,11.3 -5.2,2.4 -9.6,6.5 -14.6,10.1"
   fill="#000000"
   stroke="none"
   id="path38" />
<path
   d="m 105.15054,281 c -2.2,0.7 -4.5,1.3 -6.599999,2.2 -4.6,1.9 -5.7,1.5 -5.3,-3.2 0.4,-4.1 1.5,-8.3 2.9,-12.2 0.4,-1.3 2.7,-1.9 4.099999,-2.8 0.3,1.3 0.8,2.6 0.8,3.9 0.1,0.9 -0.7,1.7 -0.9,2.6 -0.399999,1.7 -0.599999,3.4 -0.999999,5.1 1.899999,-0.5 3.999999,-0.6 5.399999,-1.7 1.6,-1.2 2.5,-3.2 3.6,-4.9 0.7,-1.4 1,-3 1.9,-4.2 0.5,-0.8 1.7,-1.2 2.7,-1.7 0.4,1 1.5,2 1.3,2.9 -1,5 -2.2,10 -3.4,15 -0.4,1.7 -0.8,3.4 -1.6,4.8 -0.5,1 -1.7,1.5 -2.6,2.2 -0.4,-1 -1.1,-1.9 -1.2,-3 -0.3,-1.5 -0.1,-3 0.2,-4.7 0.2,-0.6 0.3,-0.9 0.3,-1.2 -0.2,0.3 -0.4,0.6 -0.6,0.9"
   fill="#000000"
   stroke="none"
   id="path39" />
<path
   d="m 365.45054,306.8 c 2,1.1 4.1,1.6 5.6,2.8 3.3,2.6 6.4,5.5 9.5,8.3 0.5,0.5 1,1.2 1.5,1.8 -0.7,0.3 -1.5,1.1 -2.1,1 -2.8,-0.7 -3,0.3 -1.8,2.5 -0.7,0.4 -1.9,1.3 -2.1,1.1 -1.4,-1.3 -3,-2.6 -3.8,-4.3 -2.5,-4.9 -5.3,-8.9 -11.8,-8 -0.8,0.1 -1.9,-0.3 -2.6,-0.8 -6.7,-5.6 -13.4,-11.3 -19.9,-17 -1,-0.8 -1.2,-2.5 -1.7,-3.7 1.4,0.2 3.3,-0.2 4.3,0.6 5.7,4.2 11,8.8 16.7,12.8 2.2,1.5 5.3,1.8 8.2,2.9"
   fill="#000000"
   stroke="none"
   id="path40" />
<path
   d="m 126.15054,220 c -2.9,-1.3 -5.3,-3.2 -7.9,-3.9 -4.2,-1 -5.4,-4 -5,-7.4 1,-7.3 4.4,-13.7 9.2,-19.1 1.1,-1.3 4.3,-0.9 6.6,-1.2 -0.6,2 -0.6,5 -2,6 -4.5,3.2 -6.3,7.6 -8.1,12.6 -1.9,5.3 2.6,3.2 3.1,2.9 3.6,-2.3 4.7,0.2 6.1,2.6 0.6,1.1 1.4,2.2 2.2,3.2 1,1.2 2.1,2.3 3.1,3.5 -2.2,0.3 -4.5,0.6 -7.3,0.8"
   fill="#000000"
   stroke="none"
   id="path41" />
<path
   d="m 1091.4505,528.3 c 0.3,-0.4 0.4,-0.5 0.6,-0.6 1.9,-1.6 3.9,-3.1 6,-4.6 0,0 1.6,1.4 1.4,1.8 -0.7,2.1 -1.4,4.2 -2.7,5.9 -2.5,3.5 -5.4,6.7 -8,10.2 -0.4,0.7 -0.1,2 -0.1,3 0.8,-0.5 1.6,-1 2.4,-1.3 1.9,-1 3.9,-1.8 5.9,-2.7 0.7,1.9 1.6,3.8 2.2,5.7 0.5,2 0.8,4 0.9,6.1 0.1,1 -0.6,2.1 -0.9,3.2 -1.1,-0.6 -2.7,-0.9 -3.2,-1.8 -2.1,-3.8 -4.6,-5.2 -8.8,-3.3 -1,0.4 -3.7,-0.8 -3.7,-1.3 -0.1,-3 -0.3,-6.3 0.8,-9 1.7,-3.9 4.6,-7.4 7.2,-11.3"
   fill="#000000"
   stroke="none"
   id="path42" />
<path
   d="m 125.45054,287.8 c 0,-2.8 0.8,-5.4 0.6,-7.8 -0.3,-3.5 2.2,-8.2 -3.3,-10.1 -0.4,-0.2 -0.4,-3.4 0.4,-4.2 6.6,-6.5 14.8,-8.7 23.8,-8.6 1,0.1 2,1.7 3,2.6 -1.3,0.8 -2.5,1.9 -4,2.3 -3.1,0.8 -6.4,1.5 -9.6,2 -3.8,0.6 -4.3,2.7 -4.4,6.2 0,5.1 -0.9,10.2 -1.9,15.3 -0.4,1.9 -1,5 -4.6,2.3"
   fill="#000000"
   stroke="none"
   id="path43" />
<path
   d="m 1167.1505,521 c -3.5,2.4 -7,4.5 -10.7,5.9 -3.3,1.4 -5.7,2.9 -6.4,6.8 -0.6,3.6 -1.8,7.2 -3,10.7 -0.5,1.5 -1.5,2.9 -2.7,3.8 -0.9,0.7 -2.4,0.6 -3.7,0.8 -0.1,-1.1 -0.7,-2.2 -0.4,-3.2 0.8,-3.5 1.3,-7.2 3,-10.2 2.3,-3.9 0.1,-3.6 -2.5,-3.6 -1.2,0 -2.4,-0.4 -3.6,-0.6 1,-1.3 1.7,-3.2 2.9,-3.6 8.8,-3.2 17.1,-8.5 27.1,-6.8"
   fill="#000000"
   stroke="none"
   id="path44" />
<path
   d="m 149.95054,192.8 c 2.2,-2.7 4.3,-4.6 7.7,-3.7 0.9,0.2 1.6,0.9 2.4,1.4 -0.5,0.5 -1.1,1 -1.5,1.7 -2.5,3.9 -5,7.9 -7.3,11.9 -0.5,0.9 -0.7,2.8 -0.2,3.1 0.9,0.7 2.4,0.8 3.6,0.7 1.9,-0.1 3.8,-0.8 5.6,-0.8 1,0.1 1.9,1.3 2.9,1.9 -0.7,0.9 -1.2,2.2 -2.1,2.5 -3.4,1 -6.9,1.7 -10.4,2.5 -2.6,0.7 -5.1,1.5 -7.7,2 -2.5,0.4 -3.7,-0.1 -2.2,-3.2 3.2,-6.5 6,-13.2 9.2,-20"
   fill="#000000"
   stroke="none"
   id="path45" />
<path
   d="m 868.45054,748.79996 c -0.3,-7.8 3,-12.99996 10.2,-15.49996 1.5,-0.6 3.6,0.9 5.5,1.5 -0.9,2 -1.4,4.29996 -2.7,6.09996 -0.6,0.9 -2.7,0.6 -3.9,1.2 -1.2,0.6 -3,1.5 -3.2,2.4 -0.1,1.1 1.1,3.1 2.2,3.4 4.5,1.5 4.4,5.4 3.4,8.3 -1.1,3.3 -3.1,6.9 -7.7,6.8 -1,0 -2.1,-0.4 -3.1,-0.7 0.4,-1 0.7,-2 1.2,-2.9 0.9,-1.7 2.9,-3.6 2.6,-4.8 -0.7,-2.1 -2.8,-3.7 -4.5,-5.8"
   fill="#000000"
   stroke="none"
   id="path46" />
<path
   d="m 1264.9506,333.8 c -4.3,2.7 -9.0001,4.5 -8.8001,10.5 0.1,3.6 1.2,4.8 4.7001,2.8 2.1,-1.3 4.5,-2.1 6.7,-3.1 0.8,-0.3 1.6,-0.4 2.4,-0.6 0,1.1 0.5,2.9 -0.1,3.2 -4,2.6 -7.9,6 -12.4001,7.1 -4.6,1.2 -7.9,-4.3 -6.9,-9.7 1.1,-5.3 3.1,-10 7.5,-13.3 1.8,-1.3 4.2001,-1.8 6.3001,-2.7 0.3,1.9 0.5,3.7 0.6,5.8"
   fill="#000000"
   stroke="none"
   id="path47" />
<path
   d="m 1238.4505,739.29996 c 1.8,-2.99996 2.9,-5.09996 -2,-5.39996 -3.9,-0.3 -6.3,-4.1 -4,-8.4 2.2,-4.1 6.7,-7.1 10.3,-10.4 0.6,-0.4 2.3,0.5 3.4,0.8 -0.3,1.2 -0.2,2.7 -1,3.5 -2,2.1 -4.4,3.8 -6.5,5.7 -0.7,0.6 -1,1.6 -1.5,2.4 0.9,0.5 1.9,1.4 2.8,1.5 6.3,0.3 8,3 4.9,9.69996 -0.8,2 -2.1,3.9 -3.5,5.5 -0.9,0.9 -2.4,1.2 -3.7,1.8 -0.2,-1.4 -0.5,-2.9 -0.4,-4.4 0,-0.7 0.6,-1.4 1.2,-2.3"
   fill="#000000"
   stroke="none"
   id="path48" />
<path
   d="m 335.95054,272.3 c 1,1.7 3.1,3.3 -0.6,3.7 -5.3,0.6 -10.4,1.4 -15.6,2 -8.1,1 -16.1,2.1 -24.2,2.9 -1.4,0.2 -2.9,-0.8 -4.3,-1.3 0.6,-1.1 1.1,-2.4 2,-3.1 1.7,-1 3.5,-2.2 5.4,-2.4 5.3,-0.6 10.7,-0.8 16,-1.1 7,-0.3 14,-0.6 21.3,-0.7"
   fill="#000000"
   stroke="none"
   id="path49" />
<path
   d="m 1100.1505,485 c 2,-6.5 3.9,-12.5 6,-18.4 0.4,-1.1 1.9,-1.7 2.8,-2.6 0.7,1.3 2.3,2.7 2.1,3.7 -1,3.7 -2.5,7.2 -3.9,10.8 -0.5,1.4 -1.3,2.8 -1.9,4.1 1.5,-0.2 2.9,-0.3 4.4,-0.6 4,-0.6 8.1,-1.5 12.1,-1.9 1.1,-0.1 2.3,1.3 3.4,1.9 -0.9,0.7 -1.8,1.6 -2.9,2 -4.4,1.3 -8.8,2.8 -13.4,3.7 -3,0.5 -6.6,1.7 -8.7,-2.7"
   fill="#000000"
   stroke="none"
   id="path50" />
<path
   d="m 1058.9505,464.3 c 3.4,3.2 1.8,6.4 0.8,9.8 -0.7,1.8 -0.7,3.9 -0.9,5.9 1.7,-1.1 3.5,-2 5.1,-3.3 2,-1.7 3.6,-3.9 5.7,-5.5 0.8,-0.7 2.4,-0.4 3.7,-0.5 -0.1,1.1 0.1,2.3 -0.2,3.2 -2.5,6.2 -7.9,9.4 -13.5,12 -2.9,1.4 -6.7,-1.5 -6.4,-4.8 0.4,-4.7 1,-9.5 2,-14.1 0.3,-1.2 2.2,-2 3.7,-2.7"
   fill="#000000"
   stroke="none"
   id="path51" />
<path
   d="m 381.45054,328.8 c 0,-1.1 0.4,-2.7 0.5,-2.7 3.8,0.7 5.3,-1.7 7.1,-4.4 1.9,-2.8 10.2,-4.1 12.8,-2.4 0.6,0.4 1.4,1.5 1.2,1.9 -0.3,0.8 -1.2,1.5 -2,1.8 -1.8,0.5 -3.7,0.7 -5.6,1 -4.4,1 -5.4,3.3 -3.3,7.2 2.1,3.9 4,7.9 6,12 0.4,0.8 0.3,1.9 0.5,2.8 -1.1,-0.1 -2.3,0 -3.3,-0.4 -0.9,-0.3 -1.9,-1.2 -2.1,-2 -1.5,-6.8 -7.2,-10.2 -11.8,-14.8 m 6.2,-1.8 c 0.1,-0.2 0.3,-0.4 0.4,-0.6 -0.3,0.1 -0.6,0.1 -0.4,0.6"
   fill="#000000"
   stroke="none"
   id="path52" />
<path
   d="m 1251.9505,283.8 c -0.6,1.2 -1,2.3 -1.4,3.3 -0.6,1.6 -1.3,3.2 -2,4.8 1.9,-0.5 3.8,-0.9 5.7,-1.5 2,-0.7 4,-1.9 6,-2.2 1.2001,-0.2 2.6001,0.8 3.9001,1.3 -0.6,0.9 -1,2.4 -1.8,2.7 -4.9001,1.7 -9.9001,3.4 -14.9001,4.7 -0.8,0.2 -3.3,-2.1 -3.1,-2.9 1.1,-6.3 2.5,-12.5 4.1,-18.7 0.2,-0.6 2.2,-1.1 3.4,-1.1 0.4,-0.1 1.3,1.5 1.2,2.3 -0.1,2.3 -0.6,4.7 -1.1,7.3"
   fill="#000000"
   stroke="none"
   id="path53" />
<path
   d="m 1092.1505,467 c -1.4,3.6 -2.8,6.6 -4.2,9.7 -0.4,1 -0.4,2.1 -0.6,3.1 1,0.1 2,0.2 2.9,0.2 2.3,0 4.6,0 6.9,0 -0.1,3.8 -3.4,3.4 -5.7,4.3 -0.3,0.1 -0.5,0.6 -0.8,0.7 -3,0 -6.6,1 -8.9,-0.3 -3.3,-1.8 -0.4,-5.3 0.2,-7.8 1,-3.8 2.6,-7.5 4.3,-11.1 0.5,-1.2 2,-1.9 3.1,-2.8 0.9,1.2 1.9,2.4 2.8,4"
   fill="#000000"
   stroke="none"
   id="path54" />
<path
   d="m 1209.1505,349 c -2.7,1.2 -4.8,2.5 -7,3.5 -1.1,0.4 -2.5,0.2 -3.7,0.3 -0.1,-1.1 -0.4,-2.3 -0.2,-3.3 0.9,-5.1 1.8,-10.2 3,-15.2 0.2,-1.2 1.3,-2.2 2,-3.3 1.3,1.1 3.7,2.1 3.7,3.1 0,3.3 -0.8,6.6 -1.3,9.9 3.2,-0.6 6.4,-1.4 9.6,-1.9 0.6,-0.1 1.8,0.7 1.8,0.8 -0.3,1 -0.5,2.4 -1.3,2.9 -1.9,1.3 -4,2.2 -6.6,3.2"
   fill="#000000"
   stroke="none"
   id="path55" />
<path
   d="m 50.150541,267 c 1.5,-1.6 3,-2.8 4.4,-4 0.3,2.2 1.1,4.4 0.6,6.4 -2.1,8.9 -4.6,17.7 -7.1,26.4 -0.2,0.9 -1.5,2.2 -2.1,2.1 -0.9,-0.2 -2,-1.2 -2.4,-2.1 -0.5,-1.1 -0.7,-2.6 -0.3,-3.8 2.2,-8.2 4.6,-16.3 6.9,-25"
   fill="#000000"
   stroke="none"
   id="path56" />
<path
   d="m 317.15054,293 c 2.4,0.6 4.4,1.1 6.2,1.8 0.7,0.3 1.6,1 1.7,1.7 0,0.5 -0.9,1.4 -1.6,1.6 -1.6,0.4 -3.4,0.9 -5,0.7 -8.1,-1.2 -16.2,-2.4 -24.3,-3.8 -1.4,-0.3 -2.7,-1.5 -4,-2.3 1.4,-1.2 2.9,-3.5 4.3,-3.5 4.5,0.3 9,1.3 13.5,2.1 2.9,0.5 5.8,1.1 9.2,1.7"
   fill="#000000"
   stroke="none"
   id="path57" />
<path
   d="m 768.45054,365.8 c -4.5,-1.9 -8,-0.2 -11.5,1.9 -1.3,0.8 -2.6,1.7 -4,2.3 -1.2,0.4 -2.5,0.3 -3.8,0.5 0.5,-1.2 0.8,-2.5 1.5,-3.4 5.8,-7.6 13.6,-8.3 22.1,-6 2.2,0.6 4.5,1.1 6.6,2 0.8,0.4 1.2,1.7 1.8,2.6 -0.8,0.4 -1.6,1.3 -2.4,1.3 -3.4,-0.2 -6.7,-0.6 -10.3,-1.2"
   fill="#000000"
   stroke="none"
   id="path58" />
<path
   d="m 364.45054,320.3 c -5.6,0.7 -10.8,1.3 -16.1,1.7 -1.5,0.1 -3.1,-0.5 -4.5,-1 -0.6,-0.2 -1,-1.1 -1.6,-1.6 0.7,-0.5 1.3,-1.1 2,-1.3 0.9,-0.3 1.9,-0.2 2.8,-0.5 0.8,-0.3 1.4,-1 2.1,-1.5 -0.7,-0.5 -1.3,-1.2 -2,-1.5 -0.8,-0.4 -2,-0.3 -2.6,-0.8 -0.7,-0.7 -1,-1.9 -1.4,-2.9 0.8,-0.3 1.6,-0.7 2.4,-0.8 1,-0.2 2.3,-0.5 2.9,0 5,3.8 10.3,6.8 16.5,8.3 0,0 -0.2,1.1 -0.5,1.9"
   fill="#000000"
   stroke="none"
   id="path59" />
<path
   d="m 1074.4505,539.3 c -2,2.1 -3.6,3.9 -5.3,5.7 -0.5,-0.7 -1.5,-1.6 -1.3,-2 2.6,-7 5.4,-14 8.4,-21 0.4,-0.9 1.9,-1.9 2.8,-1.8 0.8,0.1 2,1.7 2,2.6 0,2.2 -0.1,4.5 -1,6.5 -1.5,3.4 -3.6,6.5 -5.6,10"
   fill="#000000"
   stroke="none"
   id="path60" />
<path
   d="m 56.150541,200 c 1.1,-1.6 2.2,-2.8 3.4,-4 0.8,1.1 2.1,2 2.5,3.3 1.8,5.3 -1,10.1 -1.9,15.2 -0.2,0.9 -0.5,1.8 -1,2.6 -0.9,1.3 -1.9,2.6 -2.9,3.9 -0.7,-1.6 -1.9,-3.1 -1.9,-4.7 -0.1,-1.6 1.5,-3.1 1.6,-4.7 0.3,-3.7 0.2,-7.4 0.2,-11.6"
   fill="#000000"
   stroke="none"
   id="path61" />
<path
   d="m 1256.9505,743.29996 c 0.3,-5.5 0.9,-10.79996 1.5,-16.09996 0.1,-0.9 0.2,-2 0.8,-2.7 1.1,-1.5 2.5001,-2.8 3.7001,-4.1 0.8,1.5 2.3,3.1 2.1,4.5 -1,5.8 -2.4,11.6 -4,17.29996 -0.4,1.2 -1.4001,4.3 -4.1001,1.1"
   fill="#000000"
   stroke="none"
   id="path62" />
<path
   d="m 606.15054,348 c -6.7,0.4 -12.9,0.7 -19.1,1 -0.9,0 -1.9,-0.6 -2.9,-0.8 0.8,-1.1 1.3,-2.7 2.3,-3.1 2.9,-0.9 6,-1.8 9.1,-2 4.1,-0.3 8.2,-0.1 12.3,0.2 1.1,0.1 2.2,1.5 3.3,2.4 -1.5,0.7 -3,1.5 -5,2.3"
   fill="#000000"
   stroke="none"
   id="path63" />
<path
   d="m 675.15054,357 c -3.1,0.6 -5.7,1.3 -8.3,1.7 -0.8,0.2 -1.8,-0.1 -2.7,-0.1 0.4,-0.7 0.7,-1.4 1,-2.1 1.5,-3.6 4.2,-5.8 8.1,-5.4 4.6,0.4 9.2,1.2 13.7,2 0.8,0.2 1.5,1.4 2.2,2.1 -0.8,0.6 -1.7,1.7 -2.5,1.7 -3.7,0.2 -7.3,0.1 -11.5,0.1"
   fill="#000000"
   stroke="none"
   id="path64" />
<path
   d="m 529.15054,341 c -4.9,0.7 -9.2,1.4 -13.6,2 -0.8,0.1 -2.1,-0.4 -2.3,-0.9 -0.3,-0.8 -0.3,-2.3 0.2,-2.7 1.3,-1.1 3,-2.3 4.5,-2.3 6.2,0.1 12.4,0.5 18.5,1 1,0.1 1.8,1.3 2.7,2 -1.3,0.5 -2.5,1.4 -3.8,1.5 -1.9,0.1 -3.8,-0.3 -6.2,-0.6"
   fill="#000000"
   stroke="none"
   id="path65" />
<path
   d="m 768.15054,153 c -3.9,-3.1 -0.8,-4.3 1.4,-4.9 6.4,-1.7 13,-3.1 19.6,-4.5 0.5,-0.1 1.7,0.5 1.7,0.7 -0.2,0.8 -0.3,2 -0.9,2.3 -2.4,1.3 -4.9,2.6 -7.6,3.4 -4.5,1.2 -9.1,2 -14.2,3"
   fill="#000000"
   stroke="none"
   id="path66" />
<path
   d="m 682.15054,504 c 1.7,1.2 3.3,2.1 3.9,3.5 0.8,1.9 0.8,4 1.1,6.1 -1.7,-0.9 -3.4,-1.8 -5.1,-2.6 -4.3,-2 -8.7,-3.9 -13,-6 -1.1,-0.6 -1.9,-1.9 -2.9,-2.9 1.1,-0.4 2.3,-1.2 3.2,-1 4.2,0.8 8.2,1.9 12.8,2.9"
   fill="#000000"
   stroke="none"
   id="path67" />
<path
   d="m 679.15054,172 c 5.5,-1.6 10.4,-3.3 15.4,-4.8 0.7,-0.2 1.7,1 2.6,1.5 -0.7,0.8 -1.2,1.9 -2.1,2.3 -4.6,2 -9.4,3.8 -14,5.7 -1.7,0.7 -3.3,1.7 -5.1,2.3 -0.8,0.2 -1.8,-0.3 -2.7,-0.4 0.3,-1 0.3,-2.3 1,-3 1.3,-1.4 2.9,-2.4 4.9,-3.6"
   fill="#000000"
   stroke="none"
   id="path68" />
<path
   d="m 415.45054,344.8 c -3.9,-2.1 -7.5,-3.8 -10.9,-5.9 -1.4,-0.8 -2.3,-2.6 -3.4,-4 1.5,0.1 3.2,-0.4 4.4,0.2 4.9,2.3 9.8,4.6 14.3,7.4 1.6,0.9 2,3.5 3,5.4 -2,-0.5 -3.9,-0.9 -5.8,-1.5 -0.5,-0.2 -0.9,-0.9 -1.6,-1.6"
   fill="#000000"
   stroke="none"
   id="path69" />
<path
   d="m 456.15054,328 c 4.3,0 8.1,-0.1 11.9,0.1 0.7,0.1 1.4,1.4 2.1,2.1 -0.6,0.6 -1.2,1.6 -1.9,1.8 -5.6,1.4 -11.1,2.8 -16.7,3.9 -1.4,0.3 -2.9,-0.5 -4.4,-0.8 0.7,-1.2 1.1,-2.8 2.1,-3.5 1.9,-1.4 4.2,-2.4 6.9,-3.6"
   fill="#000000"
   stroke="none"
   id="path70" />
<path
   d="m 701.15054,311 c 5.7,-6.7 13,-5.9 20.3,-4.8 1,0.1 1.8,2 2.7,3.1 -1.1,0.3 -2.2,0.7 -3.3,0.9 -6.3,1 -12.5,1.9 -18.8,2.8 -0.2,0 -0.6,-1 -0.9,-2"
   fill="#000000"
   stroke="none"
   id="path71" />
<path
   d="m 546.15054,411 c 3.6,2.1 6.8,4.2 9.8,6.4 0.7,0.6 0.8,2 1.2,3 -0.9,0.2 -2,0.8 -2.6,0.5 -6,-3.6 -12,-7.2 -17.9,-10.9 -0.7,-0.5 -1,-1.6 -1.5,-2.4 1.1,-0.2 2.3,-0.8 3.1,-0.5 2.6,1.1 5,2.6 7.9,3.9"
   fill="#000000"
   stroke="none"
   id="path72" />
<path
   d="m 829.45054,369.3 c 5.9,-3.7 11.7,-2.3 17.3,-0.2 1,0.4 1.6,1.9 2.4,2.9 -1.1,0.7 -2.4,2.1 -3.3,1.9 -5.1,-1.2 -10.1,-2.8 -15.3,0 -0.6,0.4 -1.9,-0.6 -3,-0.9 0.6,-1.2 1.1,-2.3 1.9,-3.7"
   fill="#000000"
   stroke="none"
   id="path73" />
<path
   d="m 614.95054,445.3 c 0.5,1.2 0.8,2.3 1.1,3.3 -1.1,-0.2 -2.4,-0.1 -3.3,-0.6 -5.5,-2.6 -10.8,-5.3 -16.2,-8.1 -0.7,-0.4 -0.9,-1.6 -1.4,-2.4 0.8,-0.2 1.7,-0.7 2.3,-0.4 5.8,2.6 11.5,5.3 17.5,8.2"
   fill="#000000"
   stroke="none"
   id="path74" />
<path
   d="m 362.15054,288 c -1.4,-0.3 -2.3,-0.5 -3,-1 -1.1,-0.8 -2,-1.9 -3,-2.9 1.4,-0.7 2.9,-2.1 4.2,-1.9 4.6,0.3 9.1,1.1 13.6,1.9 1.2,0.2 2.1,1.4 3.2,2.1 -1,0.9 -2,2.7 -3,2.7 -3.8,0 -7.7,-0.5 -12,-0.9"
   fill="#000000"
   stroke="none"
   id="path75" />
<path
   d="m 657.15054,462 c 3.3,3.1 6.2,6.2 9,9.4 0.5,0.6 0.5,1.6 0.7,2.4 -0.9,-0.1 -1.9,0.1 -2.6,-0.3 -4.6,-2.7 -9.1,-5.5 -13.4,-8.4 -0.9,-0.6 -1.2,-2.1 -1.7,-3.2 1,-0.3 2,-0.9 2.9,-0.8 1.6,0.1 3.1,0.6 5.1,0.9"
   fill="#000000"
   stroke="none"
   id="path76" />
<path
   d="m 460.95054,388.3 c -2.5,-1.8 -4.7,-3.3 -6.7,-5 -0.4,-0.3 -0.3,-2.1 -0.1,-2.2 5.6,-2 15.6,5.9 14.9,11.8 -0.1,1.1 -1.1,2.1 -1.7,3.1 -0.7,-0.7 -1.5,-1.3 -2.2,-2.1 -1.4,-1.8 -2.7,-3.6 -4.2,-5.6"
   fill="#000000"
   stroke="none"
   id="path77" />
<path
   d="m 435.15054,370 c -2.2,-2.3 -4.6,-4 -6.6,-6 -0.5,-0.5 -0.4,-2.5 0.1,-2.8 3.4,-1.8 9.2,0.8 10.5,4.7 0.8,2.3 1.7,4.6 2.3,7 0.3,1 0.2,2 0.3,3 -1,-0.2 -2.3,-0.3 -3,-0.9 -1.4,-1.3 -2.4,-3 -3.6,-5"
   fill="#000000"
   stroke="none"
   id="path78" />
<path
   d="m 763.15054,555 c -1.4,-0.6 -2.6,-1 -3.2,-1.8 -0.8,-1 -1.2,-2.4 -1.8,-3.7 1.4,-0.1 3,-0.8 4.2,-0.4 3.8,1.3 7.6,2.7 10.9,4.8 1.5,0.9 2,3.6 2.9,5.5 -1.7,-0.3 -3.4,-0.4 -5,-0.9 -2.6,-1 -5,-2.3 -8,-3.5"
   fill="#000000"
   stroke="none"
   id="path79" />
<path
   d="m 1013.1505,339 c -4.7,-0.3 -8.8,-0.6 -13,-1 -0.99996,-0.1 -1.99996,-0.8 -2.99996,-1.3 0.7,-0.9 1.3,-2.4 2.2,-2.6 3.39996,-0.5 6.89996,-0.8 10.39996,-0.9 1.5,0 3.1,0.4 4.6,0.9 1.3,0.3 2.5,1 3.8,1.5 -1.1,0.8 -2.3,1.6 -3.4,2.4 -0.4,0.3 -0.7,0.7 -1.6,1"
   fill="#000000"
   stroke="none"
   id="path80" />
<path
   d="m 765.15054,509 c -0.8,1.4 -1.8,3 -2.2,2.9 -4.4,-1.7 -8.8,-3.7 -13.1,-5.7 -1,-0.5 -1.8,-1.5 -2.7,-2.2 1.1,-0.7 2.2,-1.7 3.4,-1.9 5.2,-1 11.9,2.1 14.6,6.9"
   fill="#000000"
   stroke="none"
   id="path81" />
<path
   d="m 497.95054,391.3 c -1.5,-1.7 -2.6,-3.2 -3.8,-4.7 2.1,-0.2 4.7,-1.3 6,-0.4 4,2.7 7.4,6.1 11,9.4 0.5,0.4 0.4,1.5 0.6,2.3 -0.8,0 -1.7,0.2 -2.3,-0.1 -1.8,-1 -3.4,-2.1 -5.2,-3.1 -2,-1.1 -4.1,-2.1 -6.3,-3.4"
   fill="#000000"
   stroke="none"
   id="path82" />
<path
   d="m 708.15054,134 c -1.6,0.7 -2.5,1.6 -3.7,2 -1.3,0.4 -2.9,0.3 -4.3,0.5 0.7,-1.7 1,-4.5 2.2,-4.9 4.7,-1.6 9.6,-2.5 14.5,-3.5 0.4,-0.1 1.3,0.7 1.2,0.9 -0.3,1 -0.6,2.5 -1.3,2.8 -2.6,1 -5.4,1.5 -8.6,2.2"
   fill="#000000"
   stroke="none"
   id="path83" />
<path
   d="m 876.45054,119.3 c -2.4,0.7 -4.5,1.3 -6.6,1.7 -0.9,0.1 -1.8,-0.4 -2.7,-0.6 0.4,-1 0.5,-2.5 1.2,-2.9 2,-1.1 4.2,-1.8 6.4,-2.4 1.6,-0.5 3.3,-0.9 5,-1 2.1,-0.2 4.3,-0.1 6.4,-0.1 -2.3,1.7 -4.6,3.4 -7,5 -0.6,0.3 -1.7,0 -2.7,0.3"
   fill="#000000"
   stroke="none"
   id="path84" />
<path
   d="m 644.45054,157 c -0.8,-4.2 2.6,-5.6 5.4,-6.8 2.9,-1.3 6.3,-1.7 9.6,-2.1 1.1,-0.1 2.3,0.8 3.5,1.2 -0.7,0.8 -1.2,2.1 -2,2.4 -5.4,1.9 -10.9,3.6 -16.5,5.3"
   fill="#000000"
   stroke="none"
   id="path85" />
<path
   d="m 426.95054,250.8 c -1.8,0.2 -3.3,0.4 -4.8,0.2 -0.7,-0.1 -1.9,-0.8 -1.9,-1.2 0,-0.9 0.4,-2.5 1,-2.7 4.8,-1.5 9.8,-2.8 14.7,-4 0.6,-0.2 1.5,0.3 2.2,0.5 -0.5,0.8 -0.8,1.9 -1.5,2.3 -3.1,1.7 -6.3,3.1 -9.7,4.9"
   fill="#000000"
   stroke="none"
   id="path86" />
<path
   d="m 721.15054,165 c -2.9,-0.8 -4.5,-2 -1,-3.4 4.6,-1.7 9.3,-3.2 14,-4.5 0.8,-0.2 1.9,0.9 2.9,1.3 -0.5,0.9 -0.9,2.3 -1.7,2.5 -4.5,1.5 -9.1,2.8 -14.2,4.1"
   fill="#000000"
   stroke="none"
   id="path87" />
<path
   d="m 804.95054,524.3 c 3.6,1.6 7,3 10.3,4.5 0.3,0.1 -0.1,2.1 -0.2,2.1 -5.3,0.3 -10.6,0.3 -14.6,-4.1 -0.9,-1 -1.4,-2.3 -2.2,-3.4 1.5,-0.1 2.9,-0.4 4.3,-0.3 0.7,0 1.4,0.6 2.4,1.2"
   fill="#000000"
   stroke="none"
   id="path88" />
<path
   d="m 1009.1505,29 c 2.7,0.7 4.8,1.3 7,1.9 -2.3,1 -4.5,2.1 -6.8,3.1 -1.9,0.8 -3.8,1.4 -5.7,2 -1.1,0.3 -2.3,0.4 -3.4,0.6 0.3,-1.3 0.1,-3.3 1,-3.9 2.2,-1.6 4.9,-2.5 7.9,-3.7"
   fill="#000000"
   stroke="none"
   id="path89" />
<path
   d="m 462.45054,374.8 c -3.4,-2 -6.5,-3.6 -9.5,-5.6 -0.9,-0.6 -1.2,-2 -1.8,-3.1 1.1,-0.4 2.1,-1 3.2,-1 5.1,-0.2 9.2,2.7 10.6,7.3 0.7,2.2 -0.1,3 -2.5,2.4"
   fill="#000000"
   stroke="none"
   id="path90" />
<path
   d="m 630.45054,190.8 c 3.9,-5 10.2,-4.6 15.5,-6.7 0,0 1.4,2 1.1,2.6 -1.7,3.7 -12.8,6.5 -16.6,4.1"
   fill="#000000"
   stroke="none"
   id="path91" />
<path
   d="m 568.45054,304.3 c -4.1,1.1 -7.9,2 -11.8,2.7 -0.7,0.1 -1.6,-0.5 -2.5,-0.7 0.3,-0.7 0.6,-1.4 1,-2.1 2.3,-3.7 11.4,-5.7 14.9,-3.1 0.6,0.4 0.7,1.4 1.1,2.1 -0.8,0.3 -1.7,0.6 -2.7,1.1"
   fill="#000000"
   stroke="none"
   id="path92" />
<path
   d="m 640.45054,485.8 c 0.6,1.5 1,2.7 1.5,4 -1.3,-0.4 -2.6,-0.7 -3.8,-1.3 -3.3,-1.9 -6.7,-3.8 -9.9,-6 -0.9,-0.6 -1.4,-2 -2,-3 1.1,-0.2 2.2,-0.2 3.3,-0.5 5.7,-1.3 7.6,3.5 10.9,6.8"
   fill="#000000"
   stroke="none"
   id="path93" />
<path
   d="m 769.45054,319.3 c -1,-0.3 -1.6,-0.8 -2.3,-1.3 1.9,-2 3.5,-5.2 5.7,-5.7 3,-0.6 6.4,0.9 9.6,1.6 -0.4,1 -0.6,2.8 -1.2,3 -3.8,0.9 -7.7,1.5 -11.8,2.4"
   fill="#000000"
   stroke="none"
   id="path94" />
<path
   d="m 823.45054,135.8 c 0.5,-1.8 1,-4.1 2.2,-4.6 3.9,-1.4 8,-2.2 12.1,-3.1 0.7,-0.2 1.6,0.5 2.4,0.8 -0.4,0.6 -0.7,1.6 -1.3,1.9 -5,1.8 -10.1,3.5 -15.4,5"
   fill="#000000"
   stroke="none"
   id="path95" />
<path
   d="m 811.15054,574 c 3.8,1.4 7.1,2.6 10.2,4.1 0.8,0.4 1.2,1.6 1.7,2.5 -0.9,0.5 -2.2,1.6 -2.8,1.3 -4.1,-1.6 -8.2,-3.5 -12.1,-5.5 -0.6,-0.4 -0.6,-2 -0.9,-3 1.1,0.2 2.3,0.4 3.9,0.6"
   fill="#000000"
   stroke="none"
   id="path96" />
<path
   d="m 642.15054,309 c -3,0.7 -5.6,1.4 -8.2,1.9 -0.1,0.1 -0.9,-1.4 -0.7,-1.9 2.4,-4.8 11.8,-6.8 15.8,-3.4 0.4,0.2 0.2,1.9 0,1.9 -2.1,0.7 -4.3,1.1 -6.9,1.5"
   fill="#000000"
   stroke="none"
   id="path97" />
<path
   d="m 497.15054,206 c 3.6,-1.3 6.6,-2.8 9.8,-3.9 0.8,-0.2 2.1,1 3.2,1.5 -0.6,0.8 -1.1,1.9 -2,2.4 -2.9,1.6 -5.9,3.3 -9,4.4 -1.7,0.5 -3.8,-0.4 -5.7,-0.6 1.1,-1.2 2.1,-2.5 3.7,-3.8"
   fill="#000000"
   stroke="none"
   id="path98" />
<path
   d="m 997.45054,615.8 c -1.6,-1.3 -2.9,-2.3 -4.2,-3.4 1.7,-1.6 3.6,-3.2 6,-1.3 2.89996,2.2 5.69996,4.6 8.39996,7 0.3,0.3 0.2,1.7 -0.1,1.9 -0.5,0.3 -1.5,0.3 -2.1,0 -2.6,-1.3 -5.2,-2.6 -7.99996,-4.2"
   fill="#000000"
   stroke="none"
   id="path99" />
<path
   d="m 711.45054,489.8 c -2.3,-2.2 -4.3,-4.1 -6.3,-6 2.8,0.3 5.5,0.6 8.3,1 0.5,0.1 1.3,0.3 1.6,0.7 1.4,1.8 2.8,3.8 4.1,5.6 -1.9,-0.1 -3.9,-0.2 -5.8,-0.4 -0.6,-0.1 -1.1,-0.4 -1.9,-0.9"
   fill="#000000"
   stroke="none"
   id="path100" />
<path
   d="m 520.95054,424.3 c -2.8,-2.1 -5.3,-4 -7.8,-5.8 3.1,0.2 6.3,0.1 9.3,0.6 1.3,0.2 2.9,1.2 3.4,2.3 0.8,1.6 0.8,3.5 1.1,5.3 -1.4,-0.5 -2.7,-1 -4.1,-1.5 -0.6,-0.2 -1.1,-0.4 -1.9,-0.9"
   fill="#000000"
   stroke="none"
   id="path101" />
<path
   d="m 855.45054,551.8 c 1.1,0.5 2.1,0.5 2.9,1 1.7,1.1 3.2,2.4 4.8,3.7 -2.2,0.4 -4.5,1.4 -6.6,1.2 -2,-0.2 -4.1,-1.5 -5.8,-2.8 -1.1,-0.8 -1.6,-2.4 -2.4,-3.6 1.5,-0.1 3,-0.3 4.5,-0.2 0.8,0 1.5,0.3 2.6,0.7"
   fill="#000000"
   stroke="none"
   id="path102" />
<path
   d="m 430.95054,295.3 c -1.1,-0.5 -2,-0.8 -2.8,-1 0.4,-1 0.5,-2.4 1.3,-2.9 2.3,-1.8 10.4,-1 12.6,1.1 0.6,0.5 1.2,1.7 1,2 -0.5,0.7 -1.5,1.5 -2.2,1.5 -3.3,0 -6.5,-0.3 -9.9,-0.7"
   fill="#000000"
   stroke="none"
   id="path103" />
<path
   d="m 831.45054,322.8 c -1.2,-4.1 0.7,-6.8 4.7,-6.7 2.4,0.1 4.8,1.1 7.1,2 0.8,0.3 1.3,1.6 1.9,2.4 -0.9,0.5 -1.9,1.4 -2.8,1.5 -3.6,0.3 -7.3,-1.4 -10.9,0.8"
   fill="#000000"
   stroke="none"
   id="path104" />
<path
   d="m 916.45054,104.8 c -1.3,2.8 -10.6,7.1 -13.1,6.1 -0.6,-0.2 -1.3,-1.8 -1.1,-2.4 1.3,-3.5 10.7,-6.1 14.2,-3.7"
   fill="#000000"
   stroke="none"
   id="path105" />
<path
   d="m 452.95054,224.3 c 0,-1.2 0,-2.7 0.5,-2.9 3.6,-1.3 7.3,-2.4 11.1,-3.3 0.8,-0.2 1.7,0.4 2.6,0.6 -0.4,1 -0.6,2.7 -1.2,2.9 -4.2,1.1 -8.5,2 -13,2.7"
   fill="#000000"
   stroke="none"
   id="path106" />
<path
   d="m 986.15054,374 c 3.8,2.3 3.4,3.8 -0.3,4.9 -3.1,0.9 -6.5,3.1 -8.4,-1.2 -1,-2.3 -1.4,-5.5 3.1,-4.7 1.7,0.3 3.4,0.7 5.6,1"
   fill="#000000"
   stroke="none"
   id="path107" />
<path
   d="m 714.15054,521 c 3.5,1.3 6.5,2.5 9.3,4 0.8,0.4 1.1,1.7 1.6,2.7 -1,0.4 -2.2,1.5 -2.9,1.2 -3.6,-1.4 -7.3,-2.7 -10.3,-5 -1.9,-1.4 -0.9,-3.2 2.3,-2.9"
   fill="#000000"
   stroke="none"
   id="path108" />
<path
   d="m 583.15054,456 c -3.9,-1.3 -7.4,-2.6 -10.8,-4 -0.8,-0.4 -1.5,-1.4 -2.2,-2.1 0.8,-0.6 1.6,-1.6 2.5,-1.8 6.6,-1.8 8,-0.7 10.5,7.9"
   fill="#000000"
   stroke="none"
   id="path109" />
<path
   d="m 1012.9505,73.8 c -3,2.9 -5.6,5.6 -8.3,8.1 -0.4,0.4 -2.2,0 -2.2,-0.2 -0.2,-1.6 -0.6,-3.3 -0.2,-4.8 1,-4.1 7.1,-5.9 10.7,-3.1"
   fill="#000000"
   stroke="none"
   id="path110" />
<path
   d="m 876.45054,371.3 c 3.8,-1 7.2,-1.4 10.1,1.6 0.5,0.5 1.1,0.8 1.6,1.2 -0.7,0.7 -1.3,1.8 -2,1.8 -3.3,0.2 -6.8,0.7 -9.9,0 -3.8,-0.9 -1.7,-2.9 0.2,-4.6"
   fill="#000000"
   stroke="none"
   id="path111" />
<path
   d="m 778.45054,104.8 c 0.4,0.8 0.8,1.9 0.7,1.9 -3.9,2.2 -7.9,4.3 -11.8,6.3 -0.3,-0.6 -0.9,-1.4 -0.7,-1.9 1.5,-4.6 6.4,-7.4 11.8,-6.3"
   fill="#000000"
   stroke="none"
   id="path112" />
<path
   d="m 918.95054,57.8 c -3.5,2.1 -6.6,4.1 -9.9,5.7 -1,0.5 -2.6,0 -3.9,-0.1 0.6,-1.2 1,-2.7 1.9,-3.6 3.6,-3.9 8.4,-4.7 11.9,-2"
   fill="#000000"
   stroke="none"
   id="path113" />
<path
   d="m 1019.4505,622.8 c -1.7,-1.6 -5.5,-1.2 -3.9,-4.2 0.5,-1 4.8,-1 6.4,0.1 1.9,1.2 3,3.9 4.1,6.1 0.3,0.7 -0.7,1.9 -1.1,2.9 -0.7,-0.5 -1.5,-0.9 -2.1,-1.5 -1.1,-1 -2.1,-2.1 -3.4,-3.4"
   fill="#000000"
   stroke="none"
   id="path114" />
<path
   d="m 865.15054,597 c -2.7,3.6 -10.4,3.3 -12.4,0 -0.3,-0.5 1.1,-2.9 1.5,-2.8 3.7,0.6 7.3,1.5 10.9,2.8"
   fill="#000000"
   stroke="none"
   id="path115" />
<path
   d="m 481.15054,237 c -2.2,1 -3.9,2.2 -5.7,3 -1,0.4 -2.2,0.3 -3.3,0.5 0.5,-1.2 0.7,-2.6 1.5,-3.4 1.7,-1.5 3.6,-3 5.7,-4 1.2,-0.5 3,0.1 4.5,0.1 -0.7,1.3 -1.5,2.6 -2.7,3.8"
   fill="#000000"
   stroke="none"
   id="path116" />
<path
   d="m 505.45054,303.3 c -1.3,0.2 -2.3,0.2 -3.3,0.1 0.3,-1.2 0.2,-3.3 0.8,-3.5 3.3,-1.2 6.9,-2 10.3,-2.9 0.1,0.7 0.5,1.9 0.2,2.1 -2.5,1.4 -5.2,2.6 -8,4.2"
   fill="#000000"
   stroke="none"
   id="path117" />
<path
   d="m 601.95054,170.8 c -1.9,1.5 -3.4,3.1 -5.2,4 -2,1 -4.2,1.7 -6.4,2.1 -0.6,0.1 -1.7,-0.9 -2.1,-1.6 -0.2,-0.3 0.5,-1.7 1.1,-1.9 4.1,-1.5 8.3,-2.9 12.5,-4.4 0.1,0.5 0.2,1 0.1,1.8"
   fill="#000000"
   stroke="none"
   id="path118" />
<path
   d="m 425.45054,236.3 c -3,1.4 -5.5,2.8 -8.3,3.6 -1.1,0.3 -2.6,-0.8 -3.9,-1.3 0.9,-0.8 1.6,-2.1 2.6,-2.5 2.8,-1.2 5.8,-2.2 8.7,-3 0.7,-0.2 1.7,0.4 2.6,0.6 -0.5,0.8 -1,1.5 -1.7,2.6"
   fill="#000000"
   stroke="none"
   id="path119" />
<path
   d="m 936.15054,331 c 1.7,0 2.9,-0.2 3.9,0.1 0.6,0.2 1,1.4 1,2.2 0.1,0.5 -0.6,1.7 -0.9,1.6 -3.7,0 -7.4,-0.2 -11.1,-0.6 -0.7,0 -1.3,-1 -1.9,-1.5 0.7,-0.6 1.3,-1.6 2.1,-1.7 2.1,-0.2 4.3,-0.1 6.9,-0.1"
   fill="#000000"
   stroke="none"
   id="path120" />
<path
   d="m 893.45054,609.8 c 2.1,4.2 -0.4,4.7 -3.3,4.2 -1.9,-0.4 -3.8,-1.2 -5.5,-2.1 -0.8,-0.5 -1,-1.9 -1.5,-2.8 0.7,-0.4 1.5,-1.1 2.2,-1 2.6,0.3 5.2,0.9 8.1,1.7"
   fill="#000000"
   stroke="none"
   id="path121" />
<path
   d="m 991.15054,330 c 0.3,1.9 1,3.2 0.9,4.6 0,1.1 -0.8,2.2 -1.3,3.3 -0.9,-0.8 -1.9,-1.6 -2.7,-2.5 -0.4,-0.5 -0.6,-1.1 -0.9,-1.6 -0.9,-1.9 -1.8,-3.7 -2.7,-5.6 2.2,0.5 4.5,0.9 6.7,1.8"
   fill="#000000"
   stroke="none"
   id="path122" />
<path
   d="m 898.15054,578 c -1.6,-1.2 -2.6,-2.5 -3.7,-3.8 1.5,-0.4 3,-0.9 4.5,-1.1 0.9,-0.2 2,-0.3 2.9,0 1.5,0.5 2.9,1.3 4.3,2 -1.5,1 -2.9,2.1 -4.5,2.9 -0.9,0.3 -2,0 -3.5,0"
   fill="#000000"
   stroke="none"
   id="path123" />
<path
   d="m 371.15054,265 c -1.7,-0.4 -2.8,-0.8 -4,-1.2 0.9,-1 1.5,-2.2 2.6,-2.8 1.7,-0.9 3.7,-1.6 5.6,-1.9 1.2,-0.2 2.5,0.6 3.8,0.9 -1,1 -1.8,2.2 -2.9,3 -1.4,0.9 -3.1,1.4 -5.1,2"
   fill="#000000"
   stroke="none"
   id="path124" />
<path
   d="m 1015.1505,669 c 1.3,0.1 2.5,0 2.8,0.4 1.2,1.9 2.1,4 3.2,6 -2.2,-0.5 -4.5,-1 -6.7,-1.6 -0.5,-0.2 -1,-0.9 -1.4,-1.4 -0.7,-0.8 -1.3,-1.7 -1.9,-2.6 1.2,-0.3 2.3,-0.5 4,-0.8"
   fill="#000000"
   stroke="none"
   id="path125" />
<path
   d="m 544.95054,192.8 c -2.7,0.9 -5,1.7 -7.5,2.1 -0.6,0.1 -2,-0.8 -2.2,-1.4 -0.1,-0.7 0.7,-2 1.4,-2.3 2.3,-0.9 4.7,-1.6 7.1,-2.1 1,-0.2 2.2,0.2 3.3,0.3 -0.6,1.1 -1.3,2.1 -2.1,3.4"
   fill="#000000"
   stroke="none"
   id="path126" />
<path
   d="m 997.15054,80 c -0.6,1.4 -1,2.6 -1.8,2.9 -1.3,0.6 -2.8,0.7 -4.2,0.6 -1.3,0 -2.5,-0.5 -3.8,-0.8 0.6,-1.2 1.1,-3.4 1.9,-3.5 2.6,-0.3 5.3,0.2 7.9,0.8"
   fill="#000000"
   stroke="none"
   id="path127" />
<path
   d="m 995.15054,665 c -1.7,-0.6 -3.1,-1.1 -4.1,-2 -0.8,-0.9 -1.3,-2.3 -1.9,-3.4 1.3,-0.5 2.7,-1.7 3.7,-1.4 1.9,0.6 3.9,1.7 5,3.2 1,1.5 2.1,4.6 -2.7,3.6"
   fill="#000000"
   stroke="none"
   id="path128" />
<path
   d="m 988.45054,35.8 c 1.9,0.6 3.8,1 1.4,3 -1.2,0.9 -2.6,1.8 -4.1,2.1 -1.8,0.5 -3.7,0.3 -5.6,0.5 1.6,-1.8 3,-3.8 4.7,-5.3 0.7,-0.6 2.2,-0.4 3.6,-0.3"
   fill="#000000"
   stroke="none"
   id="path129" />
<path
   d="m 841.45054,87.3 c -1.5,0.6 -2.8,1.1 -4,1.5 0.3,-1.5 0,-3.5 0.9,-4.3 2.2,-1.8 5,-3 7.5,-4.4 0.2,-0.1 0.9,0.6 1.3,0.9 -1.8,2 -3.7,4 -5.7,6.3"
   fill="#000000"
   stroke="none"
   id="path130" />
<path
   d="m 917.15054,626 c 1.7,2.5 2.8,5 4,7.6 -2.5,-1.5 -5,-2.8 -7.3,-4.5 -0.9,-0.7 -1.1,-2.4 -1.6,-3.7 1.5,0.2 2.9,0.4 4.9,0.6"
   fill="#000000"
   stroke="none"
   id="path131" />
<path
   d="m 911.95054,324.8 c 1.1,-0.4 2.4,-1.1 2.9,-0.7 1.6,1.2 2.9,2.7 4.3,4.1 -1.8,0.6 -3.8,1.9 -5.4,1.6 -1.9,-0.3 -4.9,-1 -3.4,-4.4 0.1,-0.3 0.9,-0.3 1.6,-0.6"
   fill="#000000"
   stroke="none"
   id="path132" />
<path
   d="m 895.15054,64 c 2.2,0.1 3.9,0.1 5.6,0.1 -0.8,1.1 -1.4,2.5 -2.4,3.2 -1.8,1.1 -3.9,1.9 -5.9,2.6 -0.1,0.1 -1.4,-1.9 -1.2,-2.3 0.9,-1.3 2.2,-2.4 3.9,-3.6"
   fill="#000000"
   stroke="none"
   id="path133" />
<path
   d="m 370.15054,253 c -1.7,-2.6 -0.8,-4 2.1,-4 1.4,0 2.9,-0.1 4.4,0.1 1.2,0.1 2.3,0.7 3.5,1.1 -1.2,1 -2.3,2.4 -3.6,2.7 -1.9,0.5 -3.9,0.1 -6.4,0.1"
   fill="#000000"
   stroke="none"
   id="path134" />
<path
   d="m 927.15054,586 c 1.3,1.5 2.2,3 3,4.4 -1.4,0.2 -3,0.9 -4.1,0.5 -1.7,-0.6 -3.1,-2.1 -4.7,-3.1 1.8,-0.6 3.5,-1.2 5.8,-1.8"
   fill="#000000"
   stroke="none"
   id="path135" />
<path
   d="m 978.45054,88.3 c -1.9,0 -3.4,-0.2 -5,-0.5 0.4,-0.9 0.5,-2.4 1.2,-2.6 1.6,-0.6 4,-1.5 5.2,-0.8 2.6,1.7 1.2,3 -1.4,3.9"
   fill="#000000"
   stroke="none"
   id="path136" />
<path
   d="m 548.15054,215 c 2.6,0.5 4.8,0.9 6.9,1.4 -2,0.7 -3.9,1.7 -5.9,2 -1.5,0.2 -3.1,-0.4 -4.7,-0.6 1.1,-0.9 2.1,-1.8 3.7,-2.8"
   fill="#000000"
   stroke="none"
   id="path137" />
<path
   d="m 1025.4505,376.3 c 3.8,-2.3 5,0.7 6.6,2.8 0.1,0.1 -1,1.8 -1.6,1.8 -3.2,0.5 -5.3,-0.8 -5,-4.6"
   fill="#000000"
   stroke="none"
   id="path138" />
<path
   d="m 1015.1505,377 c 1.3,1.1 3,3.1 2.9,3.2 -1.4,1.5 -3.1,2.6 -4.7,3.8 -0.4,-0.7 -1.3,-1.5 -1.1,-2 0.6,-1.7 1.6,-3.3 2.9,-5"
   fill="#000000"
   stroke="none"
   id="path139" />
<path
   d="m 1027.9505,69.3 c -0.1,1.4 -0.2,3.5 -0.6,3.6 -1.7,0.2 -3.8,0.3 -5.1,-0.5 -1.8,-1.1 -2.1,-3.1 0.7,-3.6 1.5,-0.2 3.1,0.1 5,0.5"
   fill="#000000"
   stroke="none"
   id="path140" />
<path
   d="m 1034.4505,343.8 c -0.1,-0.8 0,-1.7 0.4,-1.9 2,-1 4.1,-1.7 6.1,-2.5 0.2,0.6 0.8,1.5 0.6,1.7 -1.9,1.9 -3.5,4.5 -7.1,2.7"
   fill="#000000"
   stroke="none"
   id="path141" />
<path
   d="m 883.95054,324.8 c 1.8,0.8 3.4,1.8 5.1,2.9 -1.3,0.4 -2.8,1.5 -3.8,1.2 -1.3,-0.4 -2.1,-2 -3.1,-3.1 0.5,-0.3 1,-0.5 1.8,-1"
   fill="#000000"
   stroke="none"
   id="path142" />
<path
   d="m 597.95054,202.8 c -1.4,0.1 -2.5,0 -3.6,-0.1 0.9,-0.7 1.8,-1.4 2.7,-2 0.5,-0.4 1.1,-0.6 1.7,-0.7 1.1,-0.3 2.2,-0.4 3.3,-0.5 -0.7,0.8 -1.4,1.6 -2.2,2.3 -0.5,0.4 -1.1,0.5 -1.9,1"
   fill="#000000"
   stroke="none"
   id="path143" />
<path
   d="m 926.15054,55 c 0.4,-1.6 0.8,-2.8 1.2,-4 0.9,1.2 1.9,2.4 2.8,3.6 -1.3,0.3 -2.7,0.6 -4,0.4"
   fill="#000000"
   stroke="none"
   id="path144" />
<path
   d="m 643.95054,157 c 0,0.3 -0.2,0.6 -0.4,1 0.1,-0.4 0.1,-0.7 0.4,-1"
   fill="#000000"
   stroke="none"
   id="path145" />

</svg>
