<?xml version="1.0" encoding="UTF-8" standalone="no"?>
<!-- Created with Inkscape (http://www.inkscape.org/) -->

<svg
   version="1.1"
   id="svg1"
   width="8in"
   height="0.20563251in"
   viewBox="0 0 768 19.740721"
   sodipodi:docname="radiometric_equation.svg"
   inkscape:version="1.3.2 (091e20e, 2023-11-25)"
   xmlns:inkscape="http://www.inkscape.org/namespaces/inkscape"
   xmlns:sodipodi="http://sodipodi.sourceforge.net/DTD/sodipodi-0.dtd"
   xmlns="http://www.w3.org/2000/svg"
   xmlns:svg="http://www.w3.org/2000/svg">
  <defs
     id="defs1">
    <clipPath
       clipPathUnits="userSpaceOnUse"
       id="clipPath1">
      <path
         d="M 0,0 H 816 V 1056 H 0 Z"
         id="path1" />
    </clipPath>
    <clipPath
       clipPathUnits="userSpaceOnUse"
       id="clipPath3">
      <path
         d="M 9.014221,36 H 602.98582 V 756 H 9.014221 Z"
         transform="matrix(0.44436939,0,0,-0.44442864,-47.276472,303.19767)"
         id="path3" />
    </clipPath>
    <clipPath
       clipPathUnits="userSpaceOnUse"
       id="clipPath5">
      <path
         d="M 9.014221,36 H 602.98582 V 756 H 9.014221 Z"
         transform="matrix(0.44436939,0,0,-0.44442864,-47.276472,258.25392)"
         id="path5" />
    </clipPath>
    <clipPath
       clipPathUnits="userSpaceOnUse"
       id="clipPath7">
      <path
         d="M 9.014221,36 H 602.98582 V 756 H 9.014221 Z"
         transform="matrix(0.44436939,0,0,-0.44442864,-47.276472,245.85659)"
         id="path7" />
    </clipPath>
    <clipPath
       clipPathUnits="userSpaceOnUse"
       id="clipPath9">
      <path
         d="M 9.014221,36 H 602.98582 V 756 H 9.014221 Z"
         transform="matrix(1,0,0,-1,-117.6,555.68701)"
         id="path9" />
    </clipPath>
    <clipPath
       clipPathUnits="userSpaceOnUse"
       id="clipPath11">
      <path
         d="M 9.014221,36 H 602.98582 V 756 H 9.014221 Z"
         transform="matrix(1,0,0,-1,-117.6,543.73201)"
         id="path11" />
    </clipPath>
    <clipPath
       clipPathUnits="userSpaceOnUse"
       id="clipPath13">
      <path
         d="M 9.014221,36 H 602.98582 V 756 H 9.014221 Z"
         transform="matrix(1,0,0,-1,-92.693002,519.82201)"
         id="path13" />
    </clipPath>
    <clipPath
       clipPathUnits="userSpaceOnUse"
       id="clipPath15">
      <path
         d="M 9.014221,36 H 602.98582 V 756 H 9.014221 Z"
         transform="matrix(1,0,0,-1,-236.69301,519.82201)"
         id="path15" />
    </clipPath>
    <clipPath
       clipPathUnits="userSpaceOnUse"
       id="clipPath17">
      <path
         d="M 9.014221,36 H 602.98582 V 756 H 9.014221 Z"
         transform="matrix(0.44436939,0,0,-0.44442864,-47.276472,223.71783)"
         id="path17" />
    </clipPath>
    <clipPath
       clipPathUnits="userSpaceOnUse"
       id="clipPath19">
      <path
         d="M 9.014221,36 H 602.98582 V 756 H 9.014221 Z"
         transform="matrix(1,0,0,-1,-117.6,505.87401)"
         id="path19" />
    </clipPath>
    <clipPath
       clipPathUnits="userSpaceOnUse"
       id="clipPath21">
      <path
         d="M 9.014221,36 H 602.98582 V 756 H 9.014221 Z"
         transform="matrix(1,0,0,-1,-117.6,493.91901)"
         id="path21" />
    </clipPath>
    <clipPath
       clipPathUnits="userSpaceOnUse"
       id="clipPath23">
      <path
         d="M 9.014221,36 H 602.98582 V 756 H 9.014221 Z"
         transform="matrix(1,0,0,-1,-101.028,446.09801)"
         id="path23" />
    </clipPath>
    <clipPath
       clipPathUnits="userSpaceOnUse"
       id="clipPath25">
      <path
         d="M 9.014221,36 H 602.98582 V 756 H 9.014221 Z"
         transform="matrix(1,0,0,-1,-115.972,446.09801)"
         id="path25" />
    </clipPath>
    <clipPath
       clipPathUnits="userSpaceOnUse"
       id="clipPath27">
      <path
         d="M 9.014221,36 H 602.98582 V 756 H 9.014221 Z"
         transform="matrix(1,0,0,-1,-118.74,446.09801)"
         id="path27" />
    </clipPath>
    <clipPath
       clipPathUnits="userSpaceOnUse"
       id="clipPath29">
      <path
         d="M 9.014221,36 H 602.98582 V 756 H 9.014221 Z"
         transform="matrix(1,0,0,-1,-155.934,446.09801)"
         id="path29" />
    </clipPath>
    <clipPath
       clipPathUnits="userSpaceOnUse"
       id="clipPath31">
      <path
         d="M 9.014221,36 H 602.98582 V 756 H 9.014221 Z"
         transform="matrix(1,0,0,-1,-160.915,446.09801)"
         id="path31" />
    </clipPath>
    <clipPath
       clipPathUnits="userSpaceOnUse"
       id="clipPath33">
      <path
         d="M 9.014221,36 H 602.98582 V 756 H 9.014221 Z"
         transform="matrix(1,0,0,-1,-169.771,446.09801)"
         id="path33" />
    </clipPath>
    <clipPath
       clipPathUnits="userSpaceOnUse"
       id="clipPath35">
      <path
         d="M 9.014221,36 H 602.98582 V 756 H 9.014221 Z"
         transform="matrix(1,0,0,-1,-203.2,450.21201)"
         id="path35" />
    </clipPath>
    <clipPath
       clipPathUnits="userSpaceOnUse"
       id="clipPath37">
      <path
         d="M 9.014221,36 H 602.98582 V 756 H 9.014221 Z"
         transform="matrix(1,0,0,-1,-207.66901,446.09801)"
         id="path37" />
    </clipPath>
    <clipPath
       clipPathUnits="userSpaceOnUse"
       id="clipPath39">
      <path
         d="M 9.014221,36 H 602.98582 V 756 H 9.014221 Z"
         transform="matrix(1,0,0,-1,-212.65,446.09801)"
         id="path39" />
    </clipPath>
    <clipPath
       clipPathUnits="userSpaceOnUse"
       id="clipPath41">
      <path
         d="M 9.014221,36 H 602.98582 V 756 H 9.014221 Z"
         transform="matrix(1,0,0,-1,-236.50501,446.09801)"
         id="path41" />
    </clipPath>
    <clipPath
       clipPathUnits="userSpaceOnUse"
       id="clipPath43">
      <path
         d="M 9.014221,36 H 602.98582 V 756 H 9.014221 Z"
         transform="matrix(1,0,0,-1,-241.48701,446.09801)"
         id="path43" />
    </clipPath>
    <clipPath
       clipPathUnits="userSpaceOnUse"
       id="clipPath45">
      <path
         d="M 9.014221,36 H 602.98582 V 756 H 9.014221 Z"
         transform="matrix(1,0,0,-1,-246.46801,446.09801)"
         id="path45" />
    </clipPath>
    <clipPath
       clipPathUnits="userSpaceOnUse"
       id="clipPath47">
      <path
         d="M 9.014221,36 H 602.98582 V 756 H 9.014221 Z"
         transform="matrix(1,0,0,-1,-258.37801,446.09801)"
         id="path47" />
    </clipPath>
    <clipPath
       clipPathUnits="userSpaceOnUse"
       id="clipPath49">
      <path
         d="M 9.014221,36 H 602.98582 V 756 H 9.014221 Z"
         transform="matrix(1,0,0,-1,-263.36001,446.09801)"
         id="path49" />
    </clipPath>
    <clipPath
       clipPathUnits="userSpaceOnUse"
       id="clipPath51">
      <path
         d="M 9.014221,36 H 602.98582 V 756 H 9.014221 Z"
         transform="matrix(1,0,0,-1,-272.779,446.09801)"
         id="path51" />
    </clipPath>
    <clipPath
       clipPathUnits="userSpaceOnUse"
       id="clipPath53">
      <path
         d="M 9.014221,36 H 602.98582 V 756 H 9.014221 Z"
         transform="matrix(1,0,0,-1,-277.76001,446.09801)"
         id="path53" />
    </clipPath>
    <clipPath
       clipPathUnits="userSpaceOnUse"
       id="clipPath55">
      <path
         d="M 9.014221,36 H 602.98582 V 756 H 9.014221 Z"
         transform="matrix(1,0,0,-1,-323.69901,446.09801)"
         id="path55" />
    </clipPath>
    <clipPath
       clipPathUnits="userSpaceOnUse"
       id="clipPath57">
      <path
         d="M 9.014221,36 H 602.98582 V 756 H 9.014221 Z"
         transform="matrix(1,0,0,-1,-328.68101,446.09801)"
         id="path57" />
    </clipPath>
    <clipPath
       clipPathUnits="userSpaceOnUse"
       id="clipPath59">
      <path
         d="M 9.014221,36 H 602.98582 V 756 H 9.014221 Z"
         transform="matrix(1,0,0,-1,-376.83301,446.09801)"
         id="path59" />
    </clipPath>
    <clipPath
       clipPathUnits="userSpaceOnUse"
       id="clipPath61">
      <path
         d="M 9.014221,36 H 602.98582 V 756 H 9.014221 Z"
         transform="matrix(1,0,0,-1,-381.81501,446.09801)"
         id="path61" />
    </clipPath>
    <clipPath
       clipPathUnits="userSpaceOnUse"
       id="clipPath63">
      <path
         d="M 9.014221,36 H 602.98582 V 756 H 9.014221 Z"
         transform="matrix(1,0,0,-1,-395.65201,446.09801)"
         id="path63" />
    </clipPath>
    <clipPath
       clipPathUnits="userSpaceOnUse"
       id="clipPath65">
      <path
         d="M 9.014221,36 H 602.98582 V 756 H 9.014221 Z"
         transform="matrix(1,0,0,-1,-408.71101,446.09801)"
         id="path65" />
    </clipPath>
    <clipPath
       clipPathUnits="userSpaceOnUse"
       id="clipPath67">
      <path
         d="M 9.014221,36 H 602.98582 V 756 H 9.014221 Z"
         transform="matrix(1,0,0,-1,-412.58501,450.21201)"
         id="path67" />
    </clipPath>
    <clipPath
       clipPathUnits="userSpaceOnUse"
       id="clipPath69">
      <path
         d="M 9.014221,36 H 602.98582 V 756 H 9.014221 Z"
         transform="matrix(1,0,0,-1,-419.26801,446.09801)"
         id="path69" />
    </clipPath>
    <clipPath
       clipPathUnits="userSpaceOnUse"
       id="clipPath71">
      <path
         d="M 9.014221,36 H 602.98582 V 756 H 9.014221 Z"
         transform="matrix(1,0,0,-1,-424.24901,446.09801)"
         id="path71" />
    </clipPath>
    <clipPath
       clipPathUnits="userSpaceOnUse"
       id="clipPath73">
      <path
         d="M 9.014221,36 H 602.98582 V 756 H 9.014221 Z"
         transform="matrix(1,0,0,-1,-433.10501,446.09801)"
         id="path73" />
    </clipPath>
    <clipPath
       clipPathUnits="userSpaceOnUse"
       id="clipPath75">
      <path
         d="M 9.014221,36 H 602.98582 V 756 H 9.014221 Z"
         transform="matrix(1,0,0,-1,-456.52001,446.09801)"
         id="path75" />
    </clipPath>
    <clipPath
       clipPathUnits="userSpaceOnUse"
       id="clipPath77">
      <path
         d="M 9.014221,36 H 602.98582 V 756 H 9.014221 Z"
         transform="matrix(1,0,0,-1,-476.44501,446.09801)"
         id="path77" />
    </clipPath>
    <clipPath
       clipPathUnits="userSpaceOnUse"
       id="clipPath79">
      <path
         d="M 9.014221,36 H 602.98582 V 756 H 9.014221 Z"
         transform="matrix(1,0,0,-1,-492.94101,446.09801)"
         id="path79" />
    </clipPath>
    <clipPath
       clipPathUnits="userSpaceOnUse"
       id="clipPath81">
      <path
         d="M 9.014221,36 H 602.98582 V 756 H 9.014221 Z"
         transform="matrix(1,0,0,-1,-520.06201,446.09801)"
         id="path81" />
    </clipPath>
  </defs>
  <sodipodi:namedview
     id="namedview1"
     pagecolor="#ffffff"
     bordercolor="#000000"
     borderopacity="0.25"
     inkscape:showpageshadow="2"
     inkscape:pageopacity="0.0"
     inkscape:pagecheckerboard="0"
     inkscape:deskcolor="#d1d1d1"
     inkscape:zoom="1.1734816"
     inkscape:cx="384.32644"
     inkscape:cy="-5.1129903"
     inkscape:window-width="1712"
     inkscape:window-height="1003"
     inkscape:window-x="0"
     inkscape:window-y="25"
     inkscape:window-maximized="0"
     inkscape:current-layer="g1"
     inkscape:document-units="in">
    <inkscape:page
       x="0"
       y="0"
       inkscape:label="1"
       id="page1"
       width="768"
       height="19.740721"
       margin="0"
       bleed="0" />
  </sodipodi:namedview>
  <g
     id="g1"
     inkscape:groupmode="layer"
     inkscape:label="1"
     clip-path="url(#clipPath1)"
     transform="translate(-6.2773437,-14.148439)">
    <g
       id="g2"
       transform="matrix(1.3170771,0,0,1.3170771,-1.9904019,-4.4861455)">
      <path
         id="path22"
         d="m 2.9302903,-6.3737547 c 0,-0.234375 0,-0.2578125 -0.234375,-0.2578125 -0.609375,0.6328125 -1.4882812,0.6328125 -1.80468749,0.6328125 v 0.3164063 c 0.19921879,0 0.78515629,0 1.30078129,-0.2578125 v 5.15624996 c 0,0.3515625 -0.035156,0.48046875 -0.9257813,0.48046875 H 0.94982156 v 0.3046875 C 1.3013841,-0.03391094 2.1568528,-0.03391094 2.5552903,-0.03391094 c 0.3984375,0 1.265625,0 1.6171875,0.03515625 v -0.3046875 H 3.8560716 c -0.9023438,0 -0.9257813,-0.1171875 -0.9257813,-0.48046875 z m 3.3632813,3.1054688 v -0.234375 c 0,-2.5195313 1.2421875,-2.8828125 1.7460937,-2.8828125 0.234375,0 0.65625,0.058594 0.8789063,0.3984375 -0.1523438,0 -0.5507813,0 -0.5507813,0.4453125 0,0.3164062 0.234375,0.4570312 0.4570313,0.4570312 0.1640625,0 0.4570312,-0.082031 0.4570312,-0.46875 0,-0.5976562 -0.4335937,-1.078125 -1.265625,-1.078125 -1.2773437,0 -2.6132812,1.2890625 -2.6132812,3.4804688 0,2.66015621 1.1484375,3.37499996 2.0742187,3.37499996 1.1132813,0 2.0507813,-0.9375 2.0507813,-2.24999996 0,-1.265625 -0.8789063,-2.2265625 -1.9921875,-2.2265625 -0.6679688,0 -1.0429688,0.5039062 -1.2421875,0.984375 z m 1.1835937,3.21093746 c -0.6210937,0 -0.9257812,-0.59765625 -0.984375,-0.75 C 6.3170091,-1.2760984 6.3170091,-2.0729734 6.3170091,-2.2487547 c 0,-0.7734375 0.3164062,-1.7695312 1.21875,-1.7695312 0.1523437,0 0.609375,0 0.9257812,0.609375 0.1757813,0.375 0.1757813,0.8789062 0.1757813,1.3710937 0,0.4804688 0,0.9726563 -0.1640625,1.33593751 -0.3046875,0.59765625 -0.7617188,0.64453125 -0.9960938,0.64453125 z M 11.27404,-3.2682859 v -0.234375 c 0,-2.5195313 1.242188,-2.8828125 1.746094,-2.8828125 0.234375,0 0.65625,0.058594 0.878906,0.3984375 -0.152343,0 -0.550781,0 -0.550781,0.4453125 0,0.3164062 0.234375,0.4570312 0.457031,0.4570312 0.164063,0 0.457032,-0.082031 0.457032,-0.46875 0,-0.5976562 -0.433594,-1.078125 -1.265625,-1.078125 -1.277344,0 -2.613282,1.2890625 -2.613282,3.4804688 0,2.66015621 1.148438,3.37499996 2.074219,3.37499996 1.113281,0 2.050781,-0.9375 2.050781,-2.24999996 0,-1.265625 -0.878906,-2.2265625 -1.992187,-2.2265625 -0.667969,0 -1.042969,0.5039062 -1.242188,0.984375 z m 1.183594,3.21093746 c -0.621094,0 -0.925781,-0.59765625 -0.984375,-0.75 -0.175781,-0.46874996 -0.175781,-1.26562496 -0.175781,-1.44140626 0,-0.7734375 0.316406,-1.7695312 1.21875,-1.7695312 0.152344,0 0.609375,0 0.925781,0.609375 0.175781,0.375 0.175781,0.8789062 0.175781,1.3710937 0,0.4804688 0,0.9726563 -0.164062,1.33593751 -0.304688,0.59765625 -0.761719,0.64453125 -0.996094,0.64453125 z m 0,0"
         style="fill:#000000;fill-opacity:1;fill-rule:nonzero;stroke:none"
         aria-label="166"
         transform="matrix(1.3333333,0,0,1.3333333,5.08904,25.806933)"
         clip-path="url(#clipPath23)" />
      <path
         id="path24"
         d="m 1.911095,-0.52609844 c 0,-0.29296875 -0.234375,-0.52734376 -0.5273437,-0.52734376 -0.28125,0 -0.5273438,0.23437501 -0.5273438,0.52734376 0,0.29296875 0.2460938,0.52734375 0.5273438,0.52734375 0.2929687,0 0.5273437,-0.234375 0.5273437,-0.52734375 z m 0,0"
         style="fill:#000000;fill-opacity:1;fill-rule:nonzero;stroke:none"
         aria-label="."
         transform="matrix(1.3333333,0,0,1.3333333,25.014373,25.806933)"
         clip-path="url(#clipPath25)" />
      <path
         id="path26"
         d="m 4.7446575,-6.0690672 c 0.082031,-0.1171875 0.082031,-0.140625 0.082031,-0.3398437 H 2.4126263 c -1.21875,0 -1.2421875,-0.1289063 -1.2773438,-0.328125 H 0.88918875 l -0.328125,2.0507812 H 0.8071575 c 0.0234375,-0.1523437 0.1171875,-0.7851562 0.2460938,-0.9023437 0.070312,-0.058594 0.84375,-0.058594 0.9726562,-0.058594 h 2.0625 c -0.1054687,0.1640625 -0.890625,1.2421875 -1.1132812,1.5703125 -0.890625,1.3476563 -1.21875,2.7304688 -1.21875,3.75000001 0,0.09375 0,0.55078125 0.4570312,0.55078125 0.4570313,0 0.4570313,-0.45703125 0.4570313,-0.55078125 v -0.50390625 c 0,-0.55078126 0.023437,-1.10156246 0.1054687,-1.64062496 0.046875,-0.2226563 0.1757813,-1.078125 0.6210938,-1.6992188 z m 4.7138672,4.0664063 c 0,-1.1835938 -0.8203125,-2.1796875 -1.8984375,-2.1796875 -0.4804688,0 -0.9023438,0.1640625 -1.265625,0.5039062 v -1.9335937 c 0.1992187,0.058594 0.5273437,0.1289062 0.84375,0.1289062 1.2304687,0 1.9335937,-0.9140625 1.9335937,-1.0429687 0,-0.058594 -0.035156,-0.1054688 -0.1054687,-0.1054688 -0.011719,0 -0.035156,0 -0.082031,0.023437 -0.1992187,0.09375 -0.6796875,0.2929688 -1.3476562,0.2929688 -0.3984375,0 -0.8554688,-0.070312 -1.3242188,-0.28125 -0.082031,-0.023437 -0.1054687,-0.023437 -0.1289062,-0.023437 -0.09375,0 -0.09375,0.082031 -0.09375,0.234375 v 2.953125 c 0,0.1757812 0,0.2578125 0.140625,0.2578125 0.070312,0 0.082031,-0.035156 0.1289062,-0.09375 0.1054688,-0.1523438 0.4804688,-0.6914063 1.2773438,-0.6914063 0.5273437,0 0.7734375,0.4570313 0.8554687,0.6328125 0.1523438,0.375 0.1757813,0.7617188 0.1757813,1.2539063 0,0.3515625 0,0.9492187 -0.234375,1.37109371 -0.2460938,0.38671875 -0.609375,0.64453125 -1.0664063,0.64453125 -0.7265625,0 -1.3007812,-0.52734375 -1.4648437,-1.11328126 0.023437,0.011719 0.058594,0.011719 0.1640625,0.011719 0.328125,0 0.5039062,-0.2460938 0.5039062,-0.4804688 0,-0.2460937 -0.1757812,-0.4921875 -0.5039062,-0.4921875 -0.140625,0 -0.4804688,0.070312 -0.4804688,0.5273438 0,0.85546871 0.6796875,1.82812496 1.7929688,1.82812496 1.1601562,0 2.1796875,-0.9609375 2.1796872,-2.22656266 z m 5.8945313,0.070312 c 0.222656,0.035156 1.03125,0.1992187 1.03125,0.9140625 0,0.51562496 -0.351563,0.91406246 -1.125,0.91406246 -0.832031,0 -1.195313,-0.57421875 -1.382813,-1.41796876 -0.03516,-0.1289062 -0.03516,-0.1757812 -0.140625,-0.1757812 -0.128906,0 -0.128906,0.070312 -0.128906,0.2578125 v 1.31249996 c 0,0.1640625 0,0.234375 0.105469,0.234375 0.05859,0 0.07031,0 0.257812,-0.19921875 0.01172,-0.01171875 0.01172,-0.03515625 0.199219,-0.22265625 0.433594,0.421875 0.878906,0.421875 1.089844,0.421875 1.148437,0 1.605469,-0.66796875 1.605469,-1.38281246 0,-0.5273438 -0.292969,-0.8203125 -0.421875,-0.9492188 -0.328125,-0.3164062 -0.714844,-0.3984375 -1.136719,-0.46875 -0.550781,-0.1171875 -1.21875,-0.2460937 -1.21875,-0.8203125 0,-0.3515625 0.257812,-0.7617187 1.113281,-0.7617187 1.101563,0 1.148438,0.9023437 1.171875,1.2070312 0,0.09375 0.09375,0.09375 0.117188,0.09375 0.128906,0 0.128906,-0.046875 0.128906,-0.2460937 v -0.9960938 c 0,-0.1757812 0,-0.2460937 -0.117188,-0.2460937 -0.04687,0 -0.07031,0 -0.199218,0.1171875 -0.02344,0.046875 -0.128907,0.1289062 -0.164063,0.1640625 -0.375,-0.28125 -0.785156,-0.28125 -0.9375,-0.28125 -1.21875,0 -1.59375,0.6679687 -1.59375,1.2304687 0,0.3398438 0.164063,0.6210938 0.433594,0.84375 0.316406,0.2578125 0.597656,0.3164063 1.3125,0.4570313 z m 3.580078,-2.0507813 h 1.429688 v -0.304687 H 18.933134 V -6.1276609 H 18.68704 c -0.01172,0.8203125 -0.316406,1.8867187 -1.289062,1.921875 v 0.2226562 h 0.84375 v 2.7539063 c 0,1.21874996 0.925781,1.33593746 1.289062,1.33593746 0.703125,0 0.984375,-0.703125 0.984375,-1.33593746 v -0.5742188 h -0.246093 v 0.5507813 c 0,0.73828121 -0.304688,1.11328121 -0.667969,1.11328121 -0.667969,0 -0.667969,-0.90234371 -0.667969,-1.07812501 z m 3.263672,1.4765625 c 0.05859,-1.4882812 0.902344,-1.734375 1.242187,-1.734375 1.019532,0 1.125,1.3476563 1.125,1.734375 z m -0.01172,0.2109375 h 2.789063 c 0.210937,0 0.246093,0 0.246093,-0.2109375 0,-0.984375 -0.539062,-1.9570312 -1.78125,-1.9570312 -1.160156,0 -2.074218,1.03125 -2.074218,2.2734375 0,1.33593746 1.042968,2.29687496 2.191406,2.29687496 1.21875,0 1.664062,-1.1015625 1.664062,-1.28906246 0,-0.1054688 -0.08203,-0.1171875 -0.128906,-0.1171875 -0.09375,0 -0.117187,0.058594 -0.128906,0.140625 -0.351563,1.01953121 -1.253906,1.01953121 -1.347656,1.01953121 -0.503907,0 -0.902344,-0.29296875 -1.125,-0.66796875 C 22.185087,-1.2878172 22.185087,-1.9440672 22.185087,-2.2956297 Z m 5.036133,-1.453125 v -0.65625 l -1.429687,0.1171875 v 0.3046875 c 0.703125,0 0.773437,0.058594 0.773437,0.4921875 v 4.6640625 c 0,0.4570313 -0.105469,0.4570313 -0.773437,0.4570313 v 0.3046875 c 0.339843,-0.011719 0.855468,-0.035156 1.113281,-0.035156 0.269531,0 0.773437,0.023437 1.125,0.035156 v -0.304687 c -0.667969,0 -0.773438,0 -0.773438,-0.4570313 v -1.75781249 c 0.04687,0.15234375 0.46875,0.69140625 1.21875,0.69140625 1.183594,0 2.226563,-0.97265625 2.226563,-2.26171876 0,-1.265625 -0.972656,-2.25 -2.085938,-2.25 -0.773437,0 -1.195312,0.4453125 -1.394531,0.6562495 z m 0.03516,2.6132813 v -2.2148438 c 0.28125,-0.515625 0.773438,-0.796875 1.277344,-0.796875 0.726563,0 1.335938,0.8671875 1.335938,1.9921875 0,1.20703126 -0.691407,2.05078126 -1.429688,2.05078126 -0.398437,0 -0.773437,-0.19921875 -1.042969,-0.609375 -0.140625,-0.2109375 -0.140625,-0.22265625 -0.140625,-0.42187496 z m 5.865235,-0.796875 c 0.222656,0.035156 1.03125,0.1992187 1.03125,0.9140625 0,0.51562496 -0.351563,0.91406246 -1.125,0.91406246 -0.832032,0 -1.195313,-0.57421875 -1.382813,-1.41796876 -0.03516,-0.1289062 -0.03516,-0.1757812 -0.140625,-0.1757812 -0.128906,0 -0.128906,0.070312 -0.128906,0.2578125 v 1.31249996 c 0,0.1640625 0,0.234375 0.105469,0.234375 0.05859,0 0.07031,0 0.257812,-0.19921875 0.01172,-0.01171875 0.01172,-0.03515625 0.199219,-0.22265625 0.433594,0.421875 0.878906,0.421875 1.089844,0.421875 1.148437,0 1.605468,-0.66796875 1.605468,-1.38281246 0,-0.5273438 -0.292968,-0.8203125 -0.421875,-0.9492188 -0.328125,-0.3164062 -0.714843,-0.3984375 -1.136718,-0.46875 -0.550782,-0.1171875 -1.21875,-0.2460937 -1.21875,-0.8203125 0,-0.3515625 0.257812,-0.7617187 1.113281,-0.7617187 1.101562,0 1.148437,0.9023437 1.171875,1.2070312 0,0.09375 0.09375,0.09375 0.117187,0.09375 0.128907,0 0.128907,-0.046875 0.128907,-0.2460937 v -0.9960938 c 0,-0.1757812 0,-0.2460937 -0.117188,-0.2460937 -0.04687,0 -0.07031,0 -0.199219,0.1171875 -0.02344,0.046875 -0.128906,0.1289062 -0.164062,0.1640625 -0.375,-0.28125 -0.785156,-0.28125 -0.9375,-0.28125 -1.21875,0 -1.59375,0.6679687 -1.59375,1.2304687 0,0.3398438 0.164062,0.6210938 0.433594,0.84375 0.316406,0.2578125 0.597656,0.3164063 1.3125,0.4570313 z m 0,0"
         style="fill:#000000;fill-opacity:1;fill-rule:nonzero;stroke:none"
         aria-label="75steps"
         transform="matrix(1.3333333,0,0,1.3333333,28.70504,25.806933)"
         clip-path="url(#clipPath27)" />
      <path
         id="path28"
         d="m 1.9100325,-2.4948484 c 0,-0.28125 -0.234375,-0.5273438 -0.5273437,-0.5273438 -0.28125,0 -0.5273438,0.2460938 -0.5273438,0.5273438 0,0.2929687 0.2460938,0.5390625 0.5273438,0.5390625 0.2929687,0 0.5273437,-0.2460938 0.5273437,-0.5390625 z m 0,0"
         style="fill:#000000;fill-opacity:1;fill-rule:nonzero;stroke:none"
         aria-label="·"
         transform="matrix(1.3333333,0,0,1.3333333,78.29704,25.806933)"
         clip-path="url(#clipPath29)" />
      <path
         id="path30"
         d="m 3.2923138,2.3918703 c 0,-0.035156 0,-0.046875 -0.1640625,-0.2226562 -1.2421875,-1.25390629 -1.5703125,-3.12890629 -1.5703125,-4.6640625 0,-1.7226563 0.3867187,-3.4570313 1.6054687,-4.7109375 0.1289063,-0.1171875 0.1289063,-0.1289063 0.1289063,-0.1640625 0,-0.070312 -0.035156,-0.1054688 -0.09375,-0.1054688 -0.1054688,0 -0.9960938,0.6796875 -1.5820313,1.9453125 -0.515625,1.1015625 -0.6328125,2.203125 -0.6328125,3.0351563 0,0.7851562 0.1171875,1.99218746 0.65625,3.11718746 0.5976563,1.21875004 1.453125,1.87500004 1.5585938,1.87500004 0.058594,0 0.09375,-0.035156 0.09375,-0.1054688 z m 5.0595703,-4.3945312 c 0,-1.1835938 -0.8203125,-2.1796875 -1.8984375,-2.1796875 -0.4804688,0 -0.9023438,0.1640625 -1.265625,0.5039062 v -1.9335937 c 0.1992187,0.058594 0.5273437,0.1289062 0.84375,0.1289062 1.2304687,0 1.9335937,-0.9140625 1.9335937,-1.0429687 0,-0.058594 -0.035156,-0.1054688 -0.1054687,-0.1054688 -0.011719,0 -0.035156,0 -0.082031,0.023437 -0.1992187,0.09375 -0.6796875,0.2929688 -1.3476562,0.2929688 -0.3984375,0 -0.8554688,-0.070312 -1.3242188,-0.28125 -0.082031,-0.023437 -0.1054687,-0.023437 -0.1289062,-0.023437 -0.09375,0 -0.09375,0.082031 -0.09375,0.234375 v 2.953125 c 0,0.1757812 0,0.2578125 0.140625,0.2578125 0.070312,0 0.082031,-0.035156 0.1289062,-0.09375 0.1054688,-0.1523438 0.4804688,-0.6914063 1.2773438,-0.6914063 0.5273437,0 0.7734375,0.4570313 0.8554687,0.6328125 0.1523438,0.375 0.1757813,0.7617188 0.1757813,1.2539063 0,0.3515625 0,0.9492187 -0.234375,1.37109371 -0.2460938,0.38671875 -0.609375,0.64453125 -1.0664063,0.64453125 -0.7265625,0 -1.3007812,-0.52734375 -1.4648437,-1.11328126 0.023437,0.011719 0.058594,0.011719 0.1640625,0.011719 0.328125,0 0.5039062,-0.2460938 0.5039062,-0.4804688 0,-0.2460937 -0.1757812,-0.4921875 -0.5039062,-0.4921875 -0.140625,0 -0.4804688,0.070312 -0.4804688,0.5273438 0,0.85546871 0.6796875,1.82812496 1.7929688,1.82812496 1.1601562,0 2.1796875,-0.9609375 2.1796872,-2.22656266 z m 0,0"
         style="fill:#000000;fill-opacity:1;fill-rule:nonzero;stroke:none"
         aria-label="(5"
         transform="matrix(1.3333333,0,0,1.3333333,84.938373,25.806933)"
         clip-path="url(#clipPath31)" />
      <path
         id="path32"
         d="m 3.4919778,-0.56125469 c 0.1054688,0.41015625 0.4570313,0.66796875 0.8789063,0.66796875 0.3515625,0 0.5742187,-0.22265625 0.7382812,-0.5390625 0.1757813,-0.36328125 0.3046875,-0.97265626 0.3046875,-0.99609376 0,-0.09375 -0.09375,-0.09375 -0.1289062,-0.09375 -0.09375,0 -0.1054688,0.035156 -0.140625,0.1757813 -0.1289063,0.56249996 -0.328125,1.24218746 -0.7382813,1.24218746 -0.2109375,0 -0.3164062,-0.12890625 -0.3164062,-0.45703125 0,-0.22265625 0.1289062,-0.69140621 0.1992187,-1.04296871 l 0.28125,-1.078125 c 0.035156,-0.140625 0.1289063,-0.5273438 0.1757813,-0.6679688 0.046875,-0.234375 0.140625,-0.609375 0.140625,-0.6679687 0,-0.1875 -0.140625,-0.2695313 -0.28125,-0.2695313 -0.058594,0 -0.3164063,0 -0.3867188,0.3398438 -0.1992187,0.7265625 -0.6328125,2.4726562 -0.75,2.99999996 -0.011719,0.046875 -0.4101562,0.84375 -1.1367187,0.84375 -0.515625,0 -0.6210938,-0.45703125 -0.6210938,-0.8203125 0,-0.56249996 0.28125,-1.34765626 0.5390625,-2.02734376 0.1171875,-0.3046875 0.1757813,-0.4453125 0.1757813,-0.6328125 0,-0.4453125 -0.328125,-0.8203125 -0.8203125,-0.8203125 -0.94921879,0 -1.31250004,1.453125 -1.31250004,1.5351563 0,0.1054687 0.09375,0.1054687 0.1171875,0.1054687 0.09375,0 0.10546875,-0.023437 0.15234375,-0.1875 0.2578125,-0.8671875 0.63281249,-1.2304687 1.00781249,-1.2304687 0.09375,0 0.2578125,0.011719 0.2578125,0.328125 0,0.234375 -0.1171875,0.5273437 -0.1757812,0.6796875 -0.3632813,0.984375 -0.5742188,1.6054687 -0.5742188,2.0859375 0,0.94921871 0.6796875,1.19531246 1.21875,1.19531246 0.65625,0 1.0195313,-0.4453125 1.1953125,-0.66796875 z M 14.832798,-5.6471922 c 0.257813,-0.4335937 0.492188,-0.796875 1.125,-0.84375 0.08203,-0.011719 0.1875,-0.011719 0.1875,-0.1992187 0,-0.046875 -0.04687,-0.1171875 -0.117187,-0.1171875 -0.246094,0 -0.527344,0.035156 -0.773438,0.035156 -0.339844,0 -0.703125,-0.035156 -1.03125,-0.035156 -0.05859,0 -0.1875,0 -0.1875,0.1992187 0,0.1054688 0.08203,0.1171875 0.140625,0.1171875 0.246094,0.011719 0.597656,0.082031 0.597656,0.3867188 0,0.1054687 -0.05859,0.1875 -0.140625,0.328125 l -2.683593,4.6875 -0.363282,-4.9335938 c -0.01172,-0.1992187 -0.03516,-0.4570312 0.691407,-0.46875 0.164062,0 0.269531,0 0.269531,-0.1992187 0,-0.1054688 -0.105469,-0.1171875 -0.152344,-0.1171875 -0.398437,0 -0.808594,0.035156 -1.207031,0.035156 -0.234375,0 -0.820313,-0.035156 -1.054688,-0.035156 -0.05859,0 -0.1874996,0 -0.1874996,0.1992187 0,0.1171875 0.1054686,0.1171875 0.2460936,0.1171875 0.433594,0 0.503906,0.058594 0.527344,0.2460938 l 0.05859,0.7617187 -2.5195316,4.3945313 -0.3867188,-5.0507813 c 0,-0.1171875 0,-0.3398437 0.7617188,-0.3515625 0.09375,0 0.2109375,0 0.2109375,-0.1992187 0,-0.1171875 -0.1171875,-0.1171875 -0.140625,-0.1171875 -0.3984375,0 -0.8203125,0.035156 -1.2304688,0.035156 -0.3398437,0 -0.703125,-0.035156 -1.0429687,-0.035156 -0.046875,0 -0.1757813,0 -0.1757813,0.1992187 0,0.1171875 0.082031,0.1171875 0.2460938,0.1171875 0.5039062,0 0.5039062,0.082031 0.5273437,0.3632813 l 0.4453125,6.09374996 c 0.011719,0.17578125 0.023437,0.2578125 0.1640625,0.2578125 0.1171875,0 0.1523438,-0.0585938 0.234375,-0.2109375 l 2.9296874,-5.08593746 0.375,5.03906246 c 0.01172,0.19921875 0.03516,0.2578125 0.152344,0.2578125 0.128906,0 0.1875,-0.10546875 0.246094,-0.1875 z m 4.930664,-1.4414062 c 0.04687,-0.1289063 0.04687,-0.1757813 0.04687,-0.1875 0,-0.1054688 -0.08203,-0.1992188 -0.199219,-0.1992188 -0.07031,0 -0.128906,0.035156 -0.164062,0.09375 L 15.99002,2.1106203 c -0.04687,0.1289063 -0.04687,0.1757813 -0.04687,0.1875 0,0.1054688 0.08203,0.1992188 0.199218,0.1992188 0.128907,0 0.152344,-0.070312 0.210938,-0.2460938 z m 4.558594,3.3046875 c -0.164063,0 -0.304688,0 -0.445313,0.140625 -0.152343,0.1523437 -0.175781,0.3164062 -0.175781,0.3867187 0,0.234375 0.175781,0.3515625 0.363281,0.3515625 0.292969,0 0.5625,-0.2460937 0.5625,-0.6445312 0,-0.4804688 -0.46875,-0.8554688 -1.171875,-0.8554688 -1.347656,0 -2.671875,1.4296875 -2.671875,2.8359375 0,0.89062501 0.574219,1.67578126 1.617188,1.67578126 1.417969,0 2.261719,-1.0546875 2.261719,-1.17187496 0,-0.058594 -0.07031,-0.1289063 -0.128907,-0.1289063 -0.04687,0 -0.07031,0.023437 -0.128906,0.09375 -0.785156,0.99609376 -1.875,0.99609376 -1.992187,0.99609376 -0.621094,0 -0.890625,-0.4921875 -0.890625,-1.08984376 0,-0.4101562 0.199218,-1.3710937 0.539062,-1.9921875 0.304688,-0.5625 0.855469,-0.9960937 1.40625,-0.9960937 0.328125,0 0.714844,0.1289062 0.855469,0.3984375 z m 1.242187,3.19921871 c -0.03516,0.15234375 -0.09375,0.375 -0.09375,0.421875 0,0.1875 0.140625,0.26953125 0.292969,0.26953125 0.117188,0 0.292969,-0.0703125 0.363281,-0.26953125 0.01172,-0.0234375 0.128907,-0.4921875 0.1875,-0.73828125 L 26.5369,-1.8034422 c 0.05859,-0.2226562 0.117187,-0.4335937 0.175781,-0.6679687 0.03516,-0.1640625 0.117187,-0.4570313 0.128906,-0.4921875 0.140625,-0.3164063 0.667969,-1.21875 1.617188,-1.21875 0.445312,0 0.539062,0.3632812 0.539062,0.6914062 0,0.2578125 -0.07031,0.5390625 -0.152344,0.8320313 l -0.269531,1.1601562 -0.199219,0.75000001 c -0.04687,0.19921875 -0.140625,0.5390625 -0.140625,0.5859375 0,0.1875 0.140625,0.26953125 0.292969,0.26953125 0.304688,0 0.375,-0.24609375 0.445313,-0.5625 0.140625,-0.56249996 0.515625,-2.01562496 0.597656,-2.40234376 0.03516,-0.1289062 0.5625,-1.3242187 1.652344,-1.3242187 0.421875,0 0.539062,0.3398437 0.539062,0.6914062 0,0.5742188 -0.421875,1.7109375 -0.621094,2.2382813 -0.09375,0.234375 -0.128906,0.35156246 -0.128906,0.55078121 0,0.46875 0.351563,0.80859375 0.808594,0.80859375 0.9375,0 1.3125,-1.45312496 1.3125,-1.53515626 0,-0.09375 -0.09375,-0.09375 -0.117188,-0.09375 -0.105468,0 -0.105468,0.023437 -0.152343,0.1757813 -0.152344,0.52734371 -0.46875,1.24218746 -1.019532,1.24218746 -0.164062,0 -0.234375,-0.10546875 -0.234375,-0.328125 0,-0.2578125 0.08203,-0.4921875 0.175782,-0.71484376 0.1875,-0.515625 0.609375,-1.6171875 0.609375,-2.1914062 0,-0.6445313 -0.398438,-1.0664063 -1.148438,-1.0664063 -0.75,0 -1.253906,0.4453125 -1.617187,0.9726563 -0.01172,-0.1289063 -0.04687,-0.46875 -0.328125,-0.7148438 -0.246094,-0.1992187 -0.5625,-0.2578125 -0.808594,-0.2578125 -0.902344,0 -1.382813,0.6445313 -1.558594,0.8671875 -0.04687,-0.5625 -0.46875,-0.8671875 -0.914062,-0.8671875 -0.457032,0 -0.644532,0.3867188 -0.738282,0.5742188 -0.175781,0.3398437 -0.304687,0.9375 -0.304687,0.9609375 0,0.1054687 0.09375,0.1054687 0.117187,0.1054687 0.09375,0 0.105469,-0.011719 0.164063,-0.234375 0.175781,-0.703125 0.375,-1.1835937 0.726562,-1.1835937 0.164063,0 0.316407,0.082031 0.316407,0.4570312 0,0.2109375 -0.03516,0.3164063 -0.164063,0.8320313 z m 0,0"
         style="fill:#000000;fill-opacity:1;fill-rule:nonzero;stroke:none"
         aria-label="uW/cm"
         transform="matrix(1.3333333,0,0,1.3333333,96.746373,25.806933)"
         clip-path="url(#clipPath33)" />
      <path
         id="path34"
         d="m 3.5170794,-1.2665906 h -0.234375 c -0.023437,0.1523437 -0.082031,0.56249998 -0.1757813,0.63281248 -0.058594,0.0351563 -0.5976562,0.0351563 -0.6914062,0.0351563 H 1.1264544 c 0.7382812,-0.64453128 0.984375,-0.84374998 1.3945312,-1.17187498 0.515625,-0.4101563 0.9960938,-0.84375 0.9960938,-1.5 0,-0.84375 -0.7382813,-1.359375 -1.6289063,-1.359375 -0.8671875,0 -1.45312497,0.609375 -1.45312497,1.2421875 0,0.3632813 0.3046875,0.3984375 0.375,0.3984375 0.1640625,0 0.37499997,-0.1171875 0.37499997,-0.375 0,-0.1289062 -0.058594,-0.3632812 -0.42187497,-0.3632812 0.22265625,-0.5039063 0.69140627,-0.65625 1.01953127,-0.65625 0.703125,0 1.0664062,0.5507811 1.0664062,1.1132812 0,0.609375 -0.4335937,1.0898437 -0.65625,1.3359375 l -1.68749997,1.66406248 c -0.0703125,0.0585938 -0.0703125,0.0703125 -0.0703125,0.269531245 H 3.3178606 Z m 0,0"
         style="fill:#000000;fill-opacity:1;fill-rule:nonzero;stroke:none"
         aria-label="2"
         transform="matrix(1.3333333,0,0,1.3333333,141.31837,20.3216)"
         clip-path="url(#clipPath35)" />
      <path
         id="path36"
         d="m 4.3713216,-7.0885984 c 0.046875,-0.1289063 0.046875,-0.1757813 0.046875,-0.1875 0,-0.1054688 -0.082031,-0.1992188 -0.1992188,-0.1992188 -0.070312,0 -0.1289062,0.035156 -0.1640625,0.09375 L 0.59788406,2.1106203 c -0.046875,0.1289063 -0.046875,0.1757813 -0.046875,0.1875 0,0.1054688 0.0820313,0.1992188 0.19921875,0.1992188 0.12890625,0 0.15234375,-0.070312 0.2109375,-0.2460938 z m 0,0"
         style="fill:#000000;fill-opacity:1;fill-rule:nonzero;stroke:none"
         aria-label="/"
         transform="matrix(1.3333333,0,0,1.3333333,147.27704,25.806933)"
         clip-path="url(#clipPath37)" />
      <path
         id="path38"
         d="m 2.0739153,-1.9323484 c 0.2226563,0.035156 1.03125,0.1992187 1.03125,0.9140625 0,0.51562496 -0.3515625,0.91406246 -1.125,0.91406246 -0.8320312,0 -1.19531249,-0.57421875 -1.38281249,-1.41796876 -0.0351563,-0.1289062 -0.0351563,-0.1757812 -0.140625,-0.1757812 -0.12890625,0 -0.12890625,0.070312 -0.12890625,0.2578125 v 1.31249996 c 0,0.1640625 0,0.234375 0.10546875,0.234375 0.0585938,0 0.0703125,0 0.2578125,-0.19921875 0.0117188,-0.01171875 0.0117188,-0.03515625 0.19921875,-0.22265625 0.43359374,0.421875 0.87890624,0.421875 1.08984374,0.421875 1.1484375,0 1.6054688,-0.66796875 1.6054688,-1.38281246 0,-0.5273438 -0.2929688,-0.8203125 -0.421875,-0.9492188 -0.328125,-0.3164062 -0.7148438,-0.3984375 -1.1367188,-0.46875 -0.5507812,-0.1171875 -1.21874999,-0.2460937 -1.21874999,-0.8203125 0,-0.3515625 0.25781249,-0.7617187 1.11328129,-0.7617187 1.1015625,0 1.1484375,0.9023437 1.171875,1.2070312 0,0.09375 0.09375,0.09375 0.1171875,0.09375 0.1289062,0 0.1289062,-0.046875 0.1289062,-0.2460937 v -0.9960938 c 0,-0.1757812 0,-0.2460937 -0.1171875,-0.2460937 -0.046875,0 -0.070312,0 -0.1992187,0.1171875 -0.023437,0.046875 -0.1289063,0.1289062 -0.1640625,0.1640625 -0.375,-0.28125 -0.7851563,-0.28125 -0.9375,-0.28125 -1.21875004,0 -1.59375004,0.6679687 -1.59375004,1.2304687 0,0.3398438 0.1640625,0.6210938 0.43359375,0.84375 0.31640629,0.2578125 0.59765629,0.3164063 1.31249999,0.4570313 z M 5.6510638,-3.9831297 H 7.0807513 V -4.2878172 H 5.6510638 V -6.1276609 H 5.40497 c -0.011719,0.8203125 -0.3164062,1.8867187 -1.2890625,1.921875 v 0.2226562 h 0.84375 v 2.7539063 c 0,1.21874996 0.9257813,1.33593746 1.2890625,1.33593746 0.703125,0 0.984375,-0.703125 0.984375,-1.33593746 V -1.8034422 H 6.9870013 v 0.5507813 c 0,0.73828121 -0.3046875,1.11328121 -0.6679688,1.11328121 -0.6679687,0 -0.6679687,-0.90234371 -0.6679687,-1.07812501 z m 3.2695312,1.4765625 c 0.058594,-1.4882812 0.9023438,-1.734375 1.242188,-1.734375 1.019531,0 1.125,1.3476563 1.125,1.734375 z m -0.011719,0.2109375 h 2.789063 c 0.210937,0 0.246094,0 0.246094,-0.2109375 0,-0.984375 -0.539063,-1.9570312 -1.78125,-1.9570312 -1.160157,0 -2.0742195,1.03125 -2.0742195,2.2734375 0,1.33593746 1.0429687,2.29687496 2.1914065,2.29687496 1.21875,0 1.664063,-1.1015625 1.664063,-1.28906246 0,-0.1054688 -0.08203,-0.1171875 -0.128907,-0.1171875 -0.09375,0 -0.117187,0.058594 -0.128906,0.140625 -0.351562,1.01953121 -1.253906,1.01953121 -1.347656,1.01953121 -0.5039068,0 -0.9023443,-0.29296875 -1.1250005,-0.66796875 C 8.9088763,-1.2878172 8.9088763,-1.9440672 8.908876,-2.2956297 Z m 5.039063,-1.453125 v -0.65625 l -1.429688,0.1171875 v 0.3046875 c 0.703125,0 0.773438,0.058594 0.773438,0.4921875 v 4.6640625 c 0,0.4570313 -0.105469,0.4570313 -0.773438,0.4570313 v 0.3046875 c 0.339844,-0.011719 0.855469,-0.035156 1.113282,-0.035156 0.269531,0 0.773437,0.023437 1.125,0.035156 V 1.6301516 c -0.667969,0 -0.773438,0 -0.773438,-0.4570313 v -1.75781249 c 0.04687,0.15234375 0.46875,0.69140625 1.21875,0.69140625 1.183594,0 2.226563,-0.97265625 2.226563,-2.26171876 0,-1.265625 -0.972657,-2.25 -2.085938,-2.25 -0.773437,0 -1.195312,0.4453125 -1.394531,0.65625 z m 0.03516,2.6132813 v -2.2148438 c 0.28125,-0.515625 0.773438,-0.796875 1.277344,-0.796875 0.726562,0 1.335937,0.8671875 1.335937,1.9921875 0,1.20703126 -0.691406,2.05078126 -1.429687,2.05078126 -0.398438,0 -0.773438,-0.19921875 -1.042969,-0.609375 -0.140625,-0.2109375 -0.140625,-0.22265625 -0.140625,-0.42187496 z m 6.667969,-1.359375 c 0,-0.7734375 -0.117188,-1.9804688 -0.65625,-3.1054688 -0.597656,-1.21875 -1.464844,-1.875 -1.558594,-1.875 -0.05859,0 -0.105469,0.046875 -0.105469,0.1054688 0,0.035156 0,0.046875 0.199219,0.234375 0.972656,0.984375 1.535156,2.5664062 1.535156,4.640625 0,1.71093746 -0.363281,3.45703121 -1.59375,4.7226562 -0.140625,0.1171875 -0.140625,0.1289063 -0.140625,0.1640625 0,0.058594 0.04687,0.1054688 0.105469,0.1054688 0.09375,0 0.996094,-0.6796875 1.582031,-1.94531254 0.503907,-1.1015625 0.632813,-2.20312496 0.632813,-3.04687496 z m 0,0"
         style="fill:#000000;fill-opacity:1;fill-rule:nonzero;stroke:none"
         aria-label="step)"
         transform="matrix(1.3333333,0,0,1.3333333,153.91837,25.806933)"
         clip-path="url(#clipPath39)" />
      <path
         id="path40"
         d="m 1.9112981,-2.4948484 c 0,-0.28125 -0.234375,-0.5273438 -0.5273437,-0.5273438 -0.28125,0 -0.52734377,0.2460938 -0.52734377,0.5273438 0,0.2929687 0.24609377,0.5390625 0.52734377,0.5390625 0.2929687,0 0.5273437,-0.2460938 0.5273437,-0.5390625 z m 0,0"
         style="fill:#000000;fill-opacity:1;fill-rule:nonzero;stroke:none"
         aria-label="·"
         transform="matrix(1.3333333,0,0,1.3333333,185.72504,25.806933)"
         clip-path="url(#clipPath41)" />
      <path
         id="path42"
         d="m 2.9292981,-6.3737547 c 0,-0.234375 0,-0.2578125 -0.234375,-0.2578125 -0.609375,0.6328125 -1.4882812,0.6328125 -1.80468747,0.6328125 v 0.3164063 c 0.19921877,0 0.78515627,0 1.30078127,-0.2578125 v 5.15624996 c 0,0.3515625 -0.035156,0.48046875 -0.9257813,0.48046875 H 0.94882938 v 0.3046875 C 1.3003919,-0.03391094 2.1558606,-0.03391094 2.5542981,-0.03391094 c 0.3984375,0 1.265625,0 1.6171875,0.03515625 v -0.3046875 H 3.8550794 c -0.9023438,0 -0.9257813,-0.1171875 -0.9257813,-0.48046875 z m 0,0"
         style="fill:#000000;fill-opacity:1;fill-rule:nonzero;stroke:none"
         aria-label="1"
         transform="matrix(1.3333333,0,0,1.3333333,192.36771,25.806933)"
         clip-path="url(#clipPath43)" />
      <path
         id="path44"
         d="m 4.2529856,-6.0456297 c 0.070312,-0.28125 0.1054688,-0.3398437 0.234375,-0.3632812 0.082031,-0.023437 0.4101563,-0.023437 0.6210938,-0.023437 1.0078125,0 1.453125,0.035156 1.453125,0.8203125 0,0.140625 -0.035156,0.5273437 -0.082031,0.796875 0,0.035156 -0.023437,0.1523437 -0.023437,0.1875 0,0.058594 0.023437,0.1289062 0.1171875,0.1289062 0.1054688,0 0.1289063,-0.082031 0.1523438,-0.234375 l 0.2695312,-1.734375 c 0.011719,-0.035156 0.011719,-0.140625 0.011719,-0.1640625 0,-0.1054687 -0.09375,-0.1054687 -0.2695313,-0.1054687 H 1.2178294 c -0.24609377,0 -0.25781252,0 -0.31640627,0.1992187 l -0.59765625,1.7460938 c -0.0117188,0.023437 -0.0703125,0.1640625 -0.0703125,0.1757812 0,0.070312 0.0585938,0.1171875 0.12890625,0.1171875 0.09375,0 0.10546875,-0.046875 0.1640625,-0.2109375 0.53906247,-1.546875 0.79687497,-1.7226562 2.27343747,-1.7226562 h 0.3867188 c 0.28125,0 0.28125,0.035156 0.28125,0.1171875 0,0.058594 -0.035156,0.1757812 -0.046875,0.2109375 l -1.3242188,5.32031246 c -0.09375,0.36328125 -0.1289062,0.48046875 -1.19531247,0.48046875 -0.3515625,0 -0.41015625,0 -0.41015625,0.1875 0,0.1171875 0.10546875,0.1171875 0.1640625,0.1171875 0.26953125,0 0.55078122,-0.0234375 0.82031252,-0.0234375 0.28125,0 0.5625,-0.01171875 0.84375,-0.01171875 0.28125,0 0.5625,0.01171875 0.8320312,0.01171875 0.28125,0 0.5859375,0.0234375 0.8671875,0.0234375 0.09375,0 0.2109375,0 0.2109375,-0.19921875 0,-0.10546875 -0.082031,-0.10546875 -0.3398437,-0.10546875 -0.2460938,0 -0.375,0 -0.6328125,-0.0234375 -0.2929688,-0.0351563 -0.3632813,-0.0585938 -0.3632813,-0.22265625 0,-0.0117188 0,-0.0585938 0.035156,-0.2109375 z m 7.0458984,-1.0429687 c 0.04687,-0.1289063 0.04687,-0.1757813 0.04687,-0.1875 0,-0.1054688 -0.08203,-0.1992188 -0.199219,-0.1992188 -0.07031,0 -0.128906,0.035156 -0.164062,0.09375 L 7.5254466,2.1106203 c -0.046875,0.1289063 -0.046875,0.1757813 -0.046875,0.1875 0,0.1054688 0.082031,0.1992188 0.1992187,0.1992188 0.1289063,0 0.1523438,-0.070312 0.2109375,-0.2460938 z m 0,0"
         style="fill:#000000;fill-opacity:1;fill-rule:nonzero;stroke:none"
         aria-label="T/"
         transform="matrix(1.3333333,0,0,1.3333333,199.00904,25.806933)"
         clip-path="url(#clipPath45)" />
      <path
         id="path46"
         d="m 2.9308763,-1.6393797 v 0.86718751 c 0,0.3515625 -0.023437,0.46875 -0.7617188,0.46875 H 1.95822 v 0.3046875 c 0.4101563,-0.03515625 0.9375,-0.03515625 1.3476563,-0.03515625 0.421875,0 0.9492187,0 1.359375,0.03515625 v -0.3046875 H 4.4543138 c -0.7382813,0 -0.7617188,-0.1171875 -0.7617188,-0.46875 V -1.6393797 H 4.6886888 V -1.9557859 H 3.692595 v -4.5234375 c 0,-0.1992188 0,-0.2578125 -0.1523437,-0.2578125 -0.09375,0 -0.1171875,0 -0.1992188,0.1171875 l -3.05859375,4.6640625 v 0.3164062 z M 2.98947,-1.9557859 H 0.56368875 L 2.98947,-5.6706297 Z m 0,0"
         style="fill:#000000;fill-opacity:1;fill-rule:nonzero;stroke:none"
         aria-label="4"
         transform="matrix(1.3333333,0,0,1.3333333,214.88904,25.806933)"
         clip-path="url(#clipPath47)" />
      <path
         id="path48"
         d="m 4.2535638,-6.0456297 c 0.070312,-0.28125 0.1054687,-0.3398437 0.234375,-0.3632812 0.082031,-0.023437 0.4101562,-0.023437 0.6210937,-0.023437 1.0078125,0 1.453125,0.035156 1.453125,0.8203125 0,0.140625 -0.035156,0.5273437 -0.082031,0.796875 0,0.035156 -0.023437,0.1523437 -0.023437,0.1875 0,0.058594 0.023437,0.1289062 0.1171875,0.1289062 0.1054687,0 0.1289062,-0.082031 0.1523437,-0.234375 l 0.2695313,-1.734375 c 0.011719,-0.035156 0.011719,-0.140625 0.011719,-0.1640625 0,-0.1054687 -0.09375,-0.1054687 -0.2695312,-0.1054687 H 1.2184075 c -0.24609375,0 -0.2578125,0 -0.31640625,0.1992187 L 0.304345,-4.7917234 c -0.0117188,0.023437 -0.0703125,0.1640625 -0.0703125,0.1757812 0,0.070312 0.0585937,0.1171875 0.12890625,0.1171875 0.09375,0 0.10546875,-0.046875 0.1640625,-0.2109375 0.53906255,-1.546875 0.79687505,-1.7226562 2.27343755,-1.7226562 h 0.3867187 c 0.28125,0 0.28125,0.035156 0.28125,0.1171875 0,0.058594 -0.035156,0.1757812 -0.046875,0.2109375 l -1.3242187,5.32031246 c -0.09375,0.36328125 -0.1289063,0.48046875 -1.19531255,0.48046875 -0.3515625,0 -0.41015625,0 -0.41015625,0.1875 0,0.1171875 0.10546875,0.1171875 0.1640625,0.1171875 0.26953125,0 0.5507813,-0.0234375 0.8203125,-0.0234375 0.28125,0 0.5625,-0.01171875 0.84375,-0.01171875 0.28125,0 0.5625,0.01171875 0.8320313,0.01171875 0.28125,0 0.5859375,0.0234375 0.8671875,0.0234375 0.09375,0 0.2109375,0 0.2109375,-0.19921875 0,-0.10546875 -0.082031,-0.10546875 -0.3398438,-0.10546875 -0.2460937,0 -0.375,0 -0.6328125,-0.0234375 -0.2929687,-0.0351563 -0.3632812,-0.0585938 -0.3632812,-0.22265625 0,-0.0117188 0,-0.0585938 0.035156,-0.2109375 z m 0,0"
         style="fill:#000000;fill-opacity:1;fill-rule:nonzero;stroke:none"
         aria-label="T"
         transform="matrix(1.3333333,0,0,1.3333333,221.53171,25.806933)"
         clip-path="url(#clipPath49)" />
      <path
         id="path50"
         d="m 1.9097591,-2.4948484 c 0,-0.28125 -0.234375,-0.5273438 -0.5273438,-0.5273438 -0.28125,0 -0.52734374,0.2460938 -0.52734374,0.5273438 0,0.2929687 0.24609374,0.5390625 0.52734374,0.5390625 0.2929688,0 0.5273438,-0.2460938 0.5273438,-0.5390625 z m 0,0"
         style="fill:#000000;fill-opacity:1;fill-rule:nonzero;stroke:none"
         aria-label="·"
         transform="matrix(1.3333333,0,0,1.3333333,234.09037,25.806933)"
         clip-path="url(#clipPath51)" />
      <path
         id="path52"
         d="m 3.2920403,2.3918703 c 0,-0.035156 0,-0.046875 -0.1640625,-0.2226562 -1.2421875,-1.25390629 -1.5703125,-3.12890629 -1.5703125,-4.6640625 0,-1.7226563 0.3867188,-3.4570313 1.6054688,-4.7109375 0.1289062,-0.1171875 0.1289062,-0.1289063 0.1289062,-0.1640625 0,-0.070312 -0.035156,-0.1054688 -0.09375,-0.1054688 -0.1054687,0 -0.9960937,0.6796875 -1.5820312,1.9453125 -0.515625,1.1015625 -0.63281254,2.203125 -0.63281254,3.0351563 0,0.7851562 0.11718754,1.99218746 0.65625004,3.11718746 0.5976562,1.21875004 1.453125,1.87500004 1.5585937,1.87500004 0.058594,0 0.09375,-0.035156 0.09375,-0.1054688 z M 5.1406731,-0.76047344 6.1953606,-1.7917234 c 1.5585938,-1.3710938 2.15625,-1.9101563 2.15625,-2.90625 0,-1.1367188 -0.9023437,-1.9335938 -2.1210937,-1.9335938 -1.125,0 -1.8515625,0.9140625 -1.8515625,1.8046875 0,0.5507813 0.4921875,0.5507813 0.5273437,0.5507813 0.1640625,0 0.515625,-0.1171875 0.515625,-0.5273438 0,-0.2578125 -0.1875,-0.515625 -0.5273437,-0.515625 -0.082031,0 -0.1054688,0 -0.1289063,0.011719 0.2226563,-0.6445313 0.7617188,-1.0195313 1.3359375,-1.0195313 0.9140625,0 1.3359375,0.8085938 1.3359375,1.6289063 0,0.796875 -0.4921875,1.5820312 -1.0429687,2.203125 L 4.4844231,-0.36203594 C 4.3789544,-0.25656719 4.3789544,-0.23312969 4.3789544,0.00124531 h 3.6914062 l 0.28125,-1.73437501 H 8.0937981 c -0.046875,0.3046875 -0.1171875,0.73828126 -0.2109375,0.89062501 -0.070312,0.0820313 -0.7265625,0.0820313 -0.9492187,0.0820313 z M 11.785204,-1.6393797 v 0.86718751 c 0,0.3515625 -0.02344,0.46875 -0.761718,0.46875 h -0.210938 v 0.3046875 c 0.410156,-0.03515625 0.9375,-0.03515625 1.347656,-0.03515625 0.421875,0 0.949219,0 1.359375,0.03515625 v -0.3046875 h -0.210937 c -0.738281,0 -0.761719,-0.1171875 -0.761719,-0.46875 V -1.6393797 h 0.996094 v -0.3164062 h -0.996094 v -4.5234375 c 0,-0.1992188 0,-0.2578125 -0.152344,-0.2578125 -0.09375,0 -0.117187,0 -0.199218,0.1171875 l -3.0585941,4.6640625 v 0.3164062 z m 0.05859,-0.3164062 H 9.4180169 l 2.4257811,-3.7148438 z m 6.574219,-1.2304688 c 0,-0.796875 -0.04687,-1.59375 -0.398438,-2.3320312 -0.457031,-0.9609375 -1.277343,-1.1132813 -1.6875,-1.1132813 -0.597656,0 -1.335937,0.2578125 -1.734375,1.1835938 -0.328125,0.6914062 -0.375,1.4648437 -0.375,2.2617187 0,0.75 0.04687,1.640625 0.445313,2.40234376 0.433594,0.80859375 1.160156,1.0078125 1.652344,1.0078125 0.539062,0 1.289062,-0.2109375 1.734375,-1.16015625 0.316406,-0.69140621 0.363281,-1.46484371 0.363281,-2.25000001 z m -2.097656,3.18750001 c -0.386719,0 -0.984375,-0.24609375 -1.160157,-1.20703121 -0.105468,-0.5976563 -0.105468,-1.5117188 -0.105468,-2.0976563 0,-0.6445312 0,-1.3007812 0.08203,-1.8398437 0.1875,-1.1835938 0.925781,-1.265625 1.183594,-1.265625 0.328125,0 0.984375,0.1757812 1.171875,1.1601562 0.09375,0.5625 0.09375,1.3125 0.09375,1.9453125 0,0.75 0,1.4179688 -0.105469,2.0625 -0.152344,0.93750001 -0.714844,1.24218751 -1.160156,1.24218751 z m 6.870117,-0.76171875 c 0,0.45703125 -0.105469,0.45703125 -0.773438,0.45703125 v 0.3046875 c 0.328125,-0.01171875 0.796875,-0.03515625 1.078125,-0.03515625 0.304688,0 0.703125,0.01171875 1.101563,0.03515625 v -0.3046875 c -0.667969,0 -0.773438,0 -0.773438,-0.45703125 V -1.7800047 l 0.632813,-0.5507812 c 0.773437,1.0546875 1.183594,1.61718746 1.183594,1.79296871 0,0.1875 -0.164063,0.234375 -0.351563,0.234375 v 0.3046875 c 0.269531,-0.01171875 0.867188,-0.03515625 1.066406,-0.03515625 0.292969,0 0.585938,0.01171875 0.867188,0.03515625 v -0.3046875 c -0.363281,0 -0.585938,0 -0.960938,-0.52734375 L 24.995165,-2.6237547 c -0.01172,-0.011719 -0.05859,-0.070312 -0.05859,-0.1054687 0,-0.035156 0.703125,-0.6328125 0.808593,-0.7148438 0.621094,-0.5039062 1.042969,-0.5273437 1.253907,-0.5390625 v -0.3046875 c -0.292969,0.023437 -0.421875,0.023437 -0.703125,0.023437 -0.351563,0 -0.972657,-0.023437 -1.113282,-0.023437 v 0.3046875 c 0.1875,0.011719 0.292969,0.1171875 0.292969,0.2460938 0,0.1992187 -0.140625,0.3164062 -0.222656,0.3867187 l -1.40625,1.21875 v -4.78125 l -1.429688,0.1054688 v 0.3164062 c 0.691407,0 0.773438,0.070312 0.773438,0.5507813 z m 8.62207,-1.37109376 c 0,-1.2773437 -0.996094,-2.3320312 -2.191406,-2.3320312 -1.253906,0 -2.214844,1.0898437 -2.214844,2.3320312 0,1.28906251 1.03125,2.23828126 2.203125,2.23828126 1.207031,0 2.203125,-0.97265625 2.203125,-2.23828126 z m -2.191406,1.99218751 c -0.433594,0 -0.867188,-0.2109375 -1.136719,-0.66796875 -0.257812,-0.43359376 -0.257812,-1.04296876 -0.257812,-1.40624996 0,-0.3867188 0,-0.9257813 0.246093,-1.359375 0.269532,-0.4570313 0.738282,-0.6679688 1.136719,-0.6679688 0.433594,0 0.867188,0.2226563 1.125,0.6445313 0.257813,0.4335937 0.257813,1.0078125 0.257813,1.3828125 0,0.3632812 0,0.9023437 -0.222657,1.33593746 -0.222656,0.4453125 -0.65625,0.73828125 -1.148437,0.73828125 z m 3.585937,-0.62109375 c 0,0.45703125 -0.117187,0.45703125 -0.785156,0.45703125 v 0.3046875 c 0.351563,-0.01171875 0.855469,-0.03515625 1.125,-0.03515625 0.257813,0 0.785156,0.0234375 1.113281,0.03515625 v -0.3046875 c -0.65625,0 -0.773437,0 -0.773437,-0.45703125 V -2.5885984 c 0,-1.03125 0.714844,-1.59375 1.347656,-1.59375 0.621094,0 0.738281,0.5390625 0.738281,1.1015625 v 2.32031246 c 0,0.45703125 -0.117187,0.45703125 -0.773437,0.45703125 v 0.3046875 c 0.339844,-0.01171875 0.855469,-0.03515625 1.125,-0.03515625 0.257812,0 0.773437,0.0234375 1.113281,0.03515625 v -0.3046875 c -0.515625,0 -0.773437,0 -0.785156,-0.3046875 V -2.5065672 c 0,-0.8554687 0,-1.171875 -0.304688,-1.5234375 -0.140625,-0.1757812 -0.46875,-0.375 -1.042968,-0.375 -0.84375,0 -1.277344,0.5976563 -1.441407,0.984375 v -3.4921875 l -1.441406,0.1054688 v 0.3164062 c 0.703125,0 0.785156,0.070312 0.785156,0.5507813 z m 5.53711,-2.66015626 v 2.66015626 c 0,0.45703125 -0.117188,0.45703125 -0.785156,0.45703125 v 0.3046875 c 0.351562,-0.01171875 0.855468,-0.03515625 1.125,-0.03515625 0.257812,0 0.785156,0.0234375 1.113281,0.03515625 v -0.3046875 c -0.65625,0 -0.773438,0 -0.773438,-0.45703125 V -2.5885984 c 0,-1.03125 0.714844,-1.59375 1.347657,-1.59375 0.621093,0 0.738281,0.5390625 0.738281,1.1015625 v 2.32031246 c 0,0.45703125 -0.117188,0.45703125 -0.773438,0.45703125 v 0.3046875 c 0.339844,-0.01171875 0.855469,-0.03515625 1.125,-0.03515625 0.257813,0 0.773438,0.0234375 1.113282,0.03515625 v -0.3046875 c -0.667969,0 -0.785157,0 -0.785157,-0.45703125 V -2.5885984 c 0,-1.03125 0.714844,-1.59375 1.347657,-1.59375 0.632812,0 0.738281,0.5390625 0.738281,1.1015625 v 2.32031246 c 0,0.45703125 -0.105469,0.45703125 -0.773438,0.45703125 v 0.3046875 c 0.351563,-0.01171875 0.855469,-0.03515625 1.125,-0.03515625 0.257813,0 0.773438,0.0234375 1.113282,0.03515625 v -0.3046875 c -0.515625,0 -0.761719,0 -0.773438,-0.3046875 V -2.5065672 c 0,-0.8554687 0,-1.171875 -0.316406,-1.5234375 -0.128906,-0.1757812 -0.46875,-0.375 -1.042969,-0.375 -0.832031,0 -1.277344,0.5976563 -1.441406,0.984375 -0.140625,-0.8671875 -0.878906,-0.984375 -1.324219,-0.984375 -0.726562,0 -1.195312,0.4335938 -1.476562,1.0546875 v -1.0546875 l -1.40625,0.1171875 v 0.3046875 c 0.703125,0 0.785156,0.070312 0.785156,0.5625 z m 0,0"
         style="fill:#000000;fill-opacity:1;fill-rule:nonzero;stroke:none"
         aria-label="(240kohm"
         transform="matrix(1.3333333,0,0,1.3333333,240.73171,25.806933)"
         clip-path="url(#clipPath53)" />
      <path
         id="path54"
         d="m 4.371595,-7.0885984 c 0.046875,-0.1289063 0.046875,-0.1757813 0.046875,-0.1875 0,-0.1054688 -0.082031,-0.1992188 -0.1992187,-0.1992188 -0.070312,0 -0.1289063,0.035156 -0.1640625,0.09375 L 0.5981575,2.1106203 c -0.046875,0.1289063 -0.046875,0.1757813 -0.046875,0.1875 0,0.1054688 0.0820313,0.1992188 0.19921875,0.1992188 0.12890625,0 0.15234375,-0.070312 0.2109375,-0.2460938 z m 0,0"
         style="fill:#000000;fill-opacity:1;fill-rule:nonzero;stroke:none"
         aria-label="/"
         transform="matrix(1.3333333,0,0,1.3333333,301.98371,25.806933)"
         clip-path="url(#clipPath55)" />
      <path
         id="path56"
         d="M 1.264595,-0.76047344 2.3192825,-1.7917234 c 1.5585938,-1.3710938 2.15625,-1.9101563 2.15625,-2.90625 0,-1.1367188 -0.9023437,-1.9335938 -2.1210937,-1.9335938 -1.125,0 -1.85156255,0.9140625 -1.85156255,1.8046875 0,0.5507813 0.4921875,0.5507813 0.52734375,0.5507813 0.1640625,0 0.515625,-0.1171875 0.515625,-0.5273438 0,-0.2578125 -0.1875,-0.515625 -0.5273437,-0.515625 -0.0820313,0 -0.1054688,0 -0.1289063,0.011719 0.2226563,-0.6445313 0.7617188,-1.0195313 1.3359375,-1.0195313 0.9140625,0 1.3359375,0.8085938 1.3359375,1.6289063 0,0.796875 -0.4921875,1.5820312 -1.0429687,2.203125 L 0.608345,-0.36203594 C 0.50287625,-0.25656719 0.50287625,-0.23312969 0.50287625,0.00124531 H 4.1942825 l 0.28125,-1.73437501 H 4.21772 C 4.170845,-1.4284422 4.1005325,-0.99484844 4.0067825,-0.84250469 3.93647,-0.76047344 3.28022,-0.76047344 3.0575638,-0.76047344 Z M 9.7284622,-6.0690672 c 0.082031,-0.1171875 0.082031,-0.140625 0.082031,-0.3398437 H 7.3964309 c -1.21875,0 -1.2421875,-0.1289063 -1.2773437,-0.328125 H 5.8729934 l -0.328125,2.0507812 h 0.2460938 c 0.023437,-0.1523437 0.1171875,-0.7851562 0.2460937,-0.9023437 0.070312,-0.058594 0.84375,-0.058594 0.9726563,-0.058594 h 2.0625 c -0.1054688,0.1640625 -0.890625,1.2421875 -1.1132813,1.5703125 -0.890625,1.3476563 -1.21875,2.7304688 -1.21875,3.75000001 0,0.09375 0,0.55078125 0.4570313,0.55078125 0.4570312,0 0.4570312,-0.45703125 0.4570312,-0.55078125 v -0.50390625 c 0,-0.55078126 0.023437,-1.10156246 0.1054688,-1.64062496 0.046875,-0.2226563 0.1757812,-1.078125 0.6210937,-1.6992188 z m 4.8164058,2.8828125 c 0,-0.796875 -0.04687,-1.59375 -0.398437,-2.3320312 -0.457031,-0.9609375 -1.277344,-1.1132813 -1.6875,-1.1132813 -0.597656,0 -1.335938,0.2578125 -1.734375,1.1835938 -0.328125,0.6914062 -0.375,1.4648437 -0.375,2.2617187 0,0.75 0.04687,1.640625 0.445312,2.40234376 0.433594,0.80859375 1.160157,1.0078125 1.652344,1.0078125 0.539063,0 1.289063,-0.2109375 1.734375,-1.16015625 0.316406,-0.69140621 0.363281,-1.46484371 0.363281,-2.25000001 z m -2.097656,3.18750001 c -0.386719,0 -0.984375,-0.24609375 -1.160156,-1.20703121 -0.105469,-0.5976563 -0.105469,-1.5117188 -0.105469,-2.0976563 0,-0.6445312 0,-1.3007812 0.08203,-1.8398437 0.1875,-1.1835938 0.925782,-1.265625 1.183594,-1.265625 0.328125,0 0.984375,0.1757812 1.171875,1.1601562 0.09375,0.5625 0.09375,1.3125 0.09375,1.9453125 0,0.75 0,1.4179688 -0.105469,2.0625 -0.152343,0.93750001 -0.714843,1.24218751 -1.160156,1.24218751 z m 6.870117,-0.76171875 c 0,0.45703125 -0.105468,0.45703125 -0.773437,0.45703125 v 0.3046875 c 0.328125,-0.01171875 0.796875,-0.03515625 1.078125,-0.03515625 0.304687,0 0.703125,0.01171875 1.101562,0.03515625 v -0.3046875 c -0.667968,0 -0.773437,0 -0.773437,-0.45703125 V -1.7800047 l 0.632812,-0.5507812 c 0.773438,1.0546875 1.183594,1.61718746 1.183594,1.79296871 0,0.1875 -0.164062,0.234375 -0.351562,0.234375 v 0.3046875 c 0.269531,-0.01171875 0.867187,-0.03515625 1.066406,-0.03515625 0.292969,0 0.585937,0.01171875 0.867187,0.03515625 v -0.3046875 c -0.363281,0 -0.585937,0 -0.960937,-0.52734375 L 21.122017,-2.6237547 c -0.01172,-0.011719 -0.05859,-0.070312 -0.05859,-0.1054687 0,-0.035156 0.703125,-0.6328125 0.808594,-0.7148438 0.621094,-0.5039062 1.042969,-0.5273437 1.253906,-0.5390625 v -0.3046875 c -0.292969,0.023437 -0.421875,0.023437 -0.703125,0.023437 -0.351562,0 -0.972656,-0.023437 -1.113281,-0.023437 v 0.3046875 c 0.1875,0.011719 0.292969,0.1171875 0.292969,0.2460938 0,0.1992187 -0.140625,0.3164062 -0.222657,0.3867187 l -1.40625,1.21875 v -4.78125 l -1.429687,0.1054688 v 0.3164062 c 0.691406,0 0.773437,0.070312 0.773437,0.5507813 z M 27.9394,-2.1315672 c 0,-1.2773437 -0.996094,-2.3320312 -2.191407,-2.3320312 -1.253906,0 -2.214843,1.0898437 -2.214843,2.3320312 0,1.28906251 1.03125,2.23828126 2.203125,2.23828126 1.207031,0 2.203125,-0.97265625 2.203125,-2.23828126 z m -2.191407,1.99218751 c -0.433593,0 -0.867187,-0.2109375 -1.136718,-0.66796875 -0.257813,-0.43359376 -0.257813,-1.04296876 -0.257813,-1.40624996 0,-0.3867188 0,-0.9257813 0.246094,-1.359375 0.269531,-0.4570313 0.738281,-0.6679688 1.136719,-0.6679688 0.433593,0 0.867187,0.2226563 1.125,0.6445313 0.257812,0.4335937 0.257812,1.0078125 0.257812,1.3828125 0,0.3632812 0,0.9023437 -0.222656,1.33593746 -0.222656,0.4453125 -0.65625,0.73828125 -1.148438,0.73828125 z m 3.585938,-0.62109375 c 0,0.45703125 -0.117188,0.45703125 -0.785156,0.45703125 v 0.3046875 c 0.351562,-0.01171875 0.855468,-0.03515625 1.125,-0.03515625 0.257812,0 0.785156,0.0234375 1.113281,0.03515625 v -0.3046875 c -0.65625,0 -0.773438,0 -0.773438,-0.45703125 V -2.5885984 c 0,-1.03125 0.714844,-1.59375 1.347657,-1.59375 0.621093,0 0.738281,0.5390625 0.738281,1.1015625 v 2.32031246 c 0,0.45703125 -0.117188,0.45703125 -0.773438,0.45703125 v 0.3046875 c 0.339844,-0.01171875 0.855469,-0.03515625 1.125,-0.03515625 0.257813,0 0.773438,0.0234375 1.113282,0.03515625 v -0.3046875 c -0.515625,0 -0.773438,0 -0.785157,-0.3046875 V -2.5065672 c 0,-0.8554687 0,-1.171875 -0.304687,-1.5234375 -0.140625,-0.1757812 -0.46875,-0.375 -1.042969,-0.375 -0.84375,0 -1.277344,0.5976563 -1.441406,0.984375 v -3.4921875 l -1.441406,0.1054688 v 0.3164062 c 0.703125,0 0.785156,0.070312 0.785156,0.5507813 z m 5.525391,-2.66015626 v 2.66015626 c 0,0.45703125 -0.117188,0.45703125 -0.785157,0.45703125 v 0.3046875 c 0.351563,-0.01171875 0.855469,-0.03515625 1.125,-0.03515625 0.257813,0 0.785157,0.0234375 1.113282,0.03515625 v -0.3046875 c -0.65625,0 -0.773438,0 -0.773438,-0.45703125 V -2.5885984 c 0,-1.03125 0.714844,-1.59375 1.347656,-1.59375 0.621094,0 0.738282,0.5390625 0.738282,1.1015625 v 2.32031246 c 0,0.45703125 -0.117188,0.45703125 -0.773438,0.45703125 v 0.3046875 c 0.339844,-0.01171875 0.855469,-0.03515625 1.125,-0.03515625 0.257813,0 0.773438,0.0234375 1.113281,0.03515625 v -0.3046875 c -0.667968,0 -0.785156,0 -0.785156,-0.45703125 V -2.5885984 c 0,-1.03125 0.714844,-1.59375 1.347656,-1.59375 0.632813,0 0.738282,0.5390625 0.738282,1.1015625 v 2.32031246 c 0,0.45703125 -0.105469,0.45703125 -0.773438,0.45703125 v 0.3046875 c 0.351563,-0.01171875 0.855469,-0.03515625 1.125,-0.03515625 0.257813,0 0.773438,0.0234375 1.113281,0.03515625 v -0.3046875 c -0.515625,0 -0.761718,0 -0.773437,-0.3046875 V -2.5065672 c 0,-0.8554687 0,-1.171875 -0.316406,-1.5234375 -0.128907,-0.1757812 -0.46875,-0.375 -1.042969,-0.375 -0.832031,0 -1.277344,0.5976563 -1.441406,0.984375 -0.140625,-0.8671875 -0.878907,-0.984375 -1.324219,-0.984375 -0.726563,0 -1.195313,0.4335938 -1.476563,1.0546875 v -1.0546875 l -1.40625,0.1171875 v 0.3046875 c 0.703125,0 0.785157,0.070312 0.785157,0.5625 z m 10.092773,0.9257813 c 0,-0.7734375 -0.117187,-1.9804688 -0.65625,-3.1054688 -0.597656,-1.21875 -1.464844,-1.875 -1.558594,-1.875 -0.05859,0 -0.105468,0.046875 -0.105468,0.1054688 0,0.035156 0,0.046875 0.199218,0.234375 0.972657,0.984375 1.535157,2.5664062 1.535157,4.640625 0,1.71093746 -0.363282,3.45703121 -1.59375,4.7226562 -0.140625,0.1171875 -0.140625,0.1289063 -0.140625,0.1640625 0,0.058594 0.04687,0.1054688 0.105468,0.1054688 0.09375,0 0.996094,-0.6796875 1.582032,-1.94531254 0.503906,-1.1015625 0.632812,-2.20312496 0.632812,-3.04687496 z m 0,0"
         style="fill:#000000;fill-opacity:1;fill-rule:nonzero;stroke:none"
         aria-label="270kohm)"
         transform="matrix(1.3333333,0,0,1.3333333,308.62637,25.806933)"
         clip-path="url(#clipPath57)" />
      <path
         id="path58"
         d="m 1.90947,-2.4948484 c 0,-0.28125 -0.234375,-0.5273438 -0.5273438,-0.5273438 -0.28125,0 -0.5273437,0.2460938 -0.5273437,0.5273438 0,0.2929687 0.2460937,0.5390625 0.5273437,0.5390625 0.2929688,0 0.5273438,-0.2460938 0.5273438,-0.5390625 z m 0,0"
         style="fill:#000000;fill-opacity:1;fill-rule:nonzero;stroke:none"
         aria-label="·"
         transform="matrix(1.3333333,0,0,1.3333333,372.82904,25.806933)"
         clip-path="url(#clipPath59)" />
      <path
         id="path60"
         d="m 3.2936809,2.3918703 c 0,-0.035156 0,-0.046875 -0.1640625,-0.2226562 -1.2421875,-1.25390629 -1.5703125,-3.12890629 -1.5703125,-4.6640625 0,-1.7226563 0.3867188,-3.4570313 1.6054688,-4.7109375 0.1289062,-0.1171875 0.1289062,-0.1289063 0.1289062,-0.1640625 0,-0.070312 -0.035156,-0.1054688 -0.09375,-0.1054688 -0.1054687,0 -0.9960937,0.6796875 -1.5820312,1.9453125 -0.515625,1.1015625 -0.63281251,2.203125 -0.63281251,3.0351563 0,0.7851562 0.11718751,1.99218746 0.65625001,3.11718746 0.5976562,1.21875004 1.453125,1.87500004 1.5585937,1.87500004 0.058594,0 0.09375,-0.035156 0.09375,-0.1054688 z m 3.5097657,-8.765625 c 0,-0.234375 0,-0.2578125 -0.234375,-0.2578125 -0.609375,0.6328125 -1.4882813,0.6328125 -1.8046875,0.6328125 v 0.3164063 c 0.1992187,0 0.7851562,0 1.3007812,-0.2578125 v 5.15624996 c 0,0.3515625 -0.035156,0.48046875 -0.9257812,0.48046875 H 4.8229778 v 0.3046875 c 0.3515625,-0.03515625 1.2070313,-0.03515625 1.6054688,-0.03515625 0.3984375,0 1.265625,0 1.6171875,0.03515625 v -0.3046875 H 7.7292278 c -0.9023437,0 -0.9257812,-0.1171875 -0.9257812,-0.48046875 z m 3.6826174,1.828125 c -0.46875,-0.3046875 -0.5039065,-0.6445312 -0.5039065,-0.8085937 0,-0.609375 0.6445315,-1.03125 1.3593755,-1.03125 0.726562,0 1.359375,0.515625 1.359375,1.2421875 0,0.5625 -0.386719,1.0429687 -0.984375,1.3945312 z m 1.453125,0.9375 c 0.714844,-0.3632812 1.207031,-0.8789062 1.207031,-1.5351562 0,-0.9257813 -0.890625,-1.4882813 -1.792969,-1.4882813 -0.996093,0 -1.8046872,0.7382813 -1.8046872,1.6640625 0,0.1757813 0.011719,0.6210938 0.4335937,1.0898438 0.1054685,0.1289062 0.4804685,0.375 0.7265625,0.5390625 -0.574219,0.2929687 -1.4296875,0.84375 -1.4296875,1.8398437 0,1.05468751 1.0078125,1.72265626 2.0625005,1.72265626 1.125,0 2.0625,-0.83203125 2.0625,-1.89843746 0,-0.3515625 -0.105469,-0.8085938 -0.480469,-1.21875 -0.1875,-0.2109375 -0.351563,-0.3164063 -0.984375,-0.7148438 z m -0.996094,0.421875 1.21875,0.7734375 c 0.28125,0.1875 0.75,0.4921875 0.75,1.1015625 0,0.73828126 -0.75,1.25390626 -1.558594,1.25390626 -0.867187,0 -1.582031,-0.62109375 -1.582031,-1.44140626 0,-0.5859375 0.316406,-1.21875 1.171875,-1.6875 z m 0,0"
         style="fill:#000000;fill-opacity:1;fill-rule:nonzero;stroke:none"
         aria-label="(18"
         transform="matrix(1.3333333,0,0,1.3333333,379.47171,25.806933)"
         clip-path="url(#clipPath61)" />
      <path
         id="path62"
         d="m 3.949845,-3.7839109 c -0.1640625,0 -0.3046875,0 -0.4453125,0.140625 -0.1523438,0.1523437 -0.1757813,0.3164062 -0.1757813,0.3867187 0,0.234375 0.1757813,0.3515625 0.3632813,0.3515625 0.2929687,0 0.5625,-0.2460937 0.5625,-0.6445312 0,-0.4804688 -0.46875,-0.8554688 -1.171875,-0.8554688 -1.3476563,0 -2.671875,1.4296875 -2.671875,2.8359375 0,0.89062501 0.57421875,1.67578126 1.6171875,1.67578126 1.4179687,0 2.2617187,-1.0546875 2.2617187,-1.17187496 0,-0.058594 -0.070312,-0.1289063 -0.1289062,-0.1289063 -0.046875,0 -0.070312,0.023437 -0.1289063,0.09375 -0.7851562,0.99609376 -1.875,0.99609376 -1.9921875,0.99609376 -0.6210937,0 -0.890625,-0.4921875 -0.890625,-1.08984376 0,-0.4101562 0.1992188,-1.3710937 0.5390625,-1.9921875 0.3046875,-0.5625 0.8554688,-0.9960937 1.40625,-0.9960937 0.328125,0 0.7148438,0.1289062 0.8554688,0.3984375 z m 1.2421875,3.19921871 c -0.035156,0.15234375 -0.09375,0.375 -0.09375,0.421875 0,0.1875 0.140625,0.26953125 0.2929687,0.26953125 0.1171875,0 0.2929688,-0.0703125 0.3632813,-0.26953125 0.011719,-0.0234375 0.1289062,-0.4921875 0.1875,-0.73828125 L 6.1646887,-1.8034422 c 0.058594,-0.2226562 0.1171875,-0.4335937 0.1757813,-0.6679687 0.035156,-0.1640625 0.1171875,-0.4570313 0.1289062,-0.4921875 0.140625,-0.3164063 0.6679688,-1.21875 1.6171875,-1.21875 0.4453125,0 0.5390625,0.3632812 0.5390625,0.6914062 0,0.2578125 -0.070312,0.5390625 -0.1523437,0.8320313 l -0.2695313,1.1601562 -0.1992187,0.75000001 c -0.046875,0.19921875 -0.140625,0.5390625 -0.140625,0.5859375 0,0.1875 0.140625,0.26953125 0.2929687,0.26953125 0.3046875,0 0.375,-0.24609375 0.4453125,-0.5625 0.140625,-0.56249996 0.515625,-2.01562496 0.5976563,-2.40234376 0.035156,-0.1289062 0.5625,-1.3242187 1.652344,-1.3242187 0.421875,0 0.539062,0.3398437 0.539062,0.6914062 0,0.5742188 -0.421875,1.7109375 -0.621094,2.2382813 -0.09375,0.234375 -0.128906,0.35156246 -0.128906,0.55078121 0,0.46875 0.351563,0.80859375 0.808594,0.80859375 0.9375,0 1.3125,-1.45312496 1.3125,-1.53515626 0,-0.09375 -0.09375,-0.09375 -0.117188,-0.09375 -0.105468,0 -0.105468,0.023437 -0.152343,0.1757813 -0.152344,0.52734371 -0.46875,1.24218746 -1.019532,1.24218746 -0.164062,0 -0.234375,-0.10546875 -0.234375,-0.328125 0,-0.2578125 0.08203,-0.4921875 0.175782,-0.71484376 0.1875,-0.515625 0.609375,-1.6171875 0.609375,-2.1914062 0,-0.6445313 -0.398438,-1.0664063 -1.148438,-1.0664063 -0.75,0 -1.253906,0.4453125 -1.6171873,0.9726563 -0.011719,-0.1289063 -0.046875,-0.46875 -0.328125,-0.7148438 -0.2460937,-0.1992187 -0.5625,-0.2578125 -0.8085937,-0.2578125 -0.9023438,0 -1.3828125,0.6445313 -1.5585938,0.8671875 -0.046875,-0.5625 -0.46875,-0.8671875 -0.9140625,-0.8671875 -0.4570312,0 -0.6445312,0.3867188 -0.7382812,0.5742188 -0.1757813,0.3398437 -0.3046875,0.9375 -0.3046875,0.9609375 0,0.1054687 0.09375,0.1054687 0.1171875,0.1054687 0.09375,0 0.1054687,-0.011719 0.1640625,-0.234375 0.1757812,-0.703125 0.375,-1.1835937 0.7265625,-1.1835937 0.1640625,0 0.3164062,0.082031 0.3164062,0.4570312 0,0.2109375 -0.035156,0.3164063 -0.1640625,0.8320313 z m 0,0"
         style="fill:#000000;fill-opacity:1;fill-rule:nonzero;stroke:none"
         aria-label="cm"
         transform="matrix(1.3333333,0,0,1.3333333,397.92104,25.806933)"
         clip-path="url(#clipPath63)" />
      <path
         id="path64"
         d="m 2.8820559,-2.4948484 c 0,-0.7734375 -0.1171875,-1.9804688 -0.65625,-3.1054688 -0.5976562,-1.21875 -1.46484371,-1.875 -1.55859371,-1.875 -0.0585938,0 -0.10546875,0.046875 -0.10546875,0.1054688 0,0.035156 0,0.046875 0.19921875,0.234375 0.97265621,0.984375 1.53515621,2.5664062 1.53515621,4.640625 0,1.71093746 -0.3632812,3.45703121 -1.59374996,4.7226562 -0.140625,0.1171875 -0.140625,0.1289063 -0.140625,0.1640625 0,0.058594 0.046875,0.1054688 0.10546875,0.1054688 0.09375,0 0.99609371,-0.6796875 1.58203121,-1.94531254 0.5039063,-1.1015625 0.6328125,-2.20312496 0.6328125,-3.04687496 z m 0,0"
         style="fill:#000000;fill-opacity:1;fill-rule:nonzero;stroke:none"
         aria-label=")"
         transform="matrix(1.3333333,0,0,1.3333333,415.33304,25.806933)"
         clip-path="url(#clipPath65)" />
      <path
         id="path66"
         d="M 3.516845,-1.2665906 H 3.28247 c -0.023437,0.1523437 -0.082031,0.56249998 -0.1757812,0.63281248 -0.058594,0.0351563 -0.5976563,0.0351563 -0.6914063,0.0351563 H 1.12622 C 1.8645013,-1.2431531 2.110595,-1.4423719 2.5207513,-1.7704969 c 0.515625,-0.4101562 0.9960937,-0.84375 0.9960937,-1.5 0,-0.84375 -0.7382812,-1.359375 -1.6289062,-1.359375 -0.8671875,0 -1.45312505,0.609375 -1.45312505,1.2421875 0,0.3632813 0.3046875,0.3984375 0.375,0.3984375 0.1640625,0 0.37500005,-0.1171875 0.37500005,-0.375 0,-0.1289062 -0.058594,-0.3632812 -0.42187505,-0.3632812 0.22265625,-0.5039063 0.69140625,-0.65625 1.01953125,-0.65625 0.703125,0 1.0664063,0.5507812 1.0664063,1.1132812 0,0.609375 -0.4335938,1.0898438 -0.65625,1.3359375 l -1.68750005,1.66406253 c -0.0703125,0.0585938 -0.0703125,0.0703125 -0.0703125,0.269531245 H 3.3176263 Z m 0,0"
         style="fill:#000000;fill-opacity:1;fill-rule:nonzero;stroke:none"
         aria-label="2"
         transform="matrix(1.3333333,0,0,1.3333333,420.49837,20.3216)"
         clip-path="url(#clipPath67)" />
      <path
         id="path68"
         d="m 1.9109934,-2.4948484 c 0,-0.28125 -0.234375,-0.5273438 -0.5273437,-0.5273438 -0.28125,0 -0.52734376,0.2460938 -0.52734376,0.5273438 0,0.2929687 0.24609376,0.5390625 0.52734376,0.5390625 0.2929687,0 0.5273437,-0.2460938 0.5273437,-0.5390625 z m 0,0"
         style="fill:#000000;fill-opacity:1;fill-rule:nonzero;stroke:none"
         aria-label="·"
         transform="matrix(1.3333333,0,0,1.3333333,429.40904,25.806933)"
         clip-path="url(#clipPath69)" />
      <path
         id="path70"
         d="m 3.2932747,2.3918703 c 0,-0.035156 0,-0.046875 -0.1640625,-0.2226562 -1.2421875,-1.25390629 -1.5703125,-3.12890629 -1.5703125,-4.6640625 0,-1.7226563 0.3867187,-3.4570313 1.6054687,-4.7109375 0.1289063,-0.1171875 0.1289063,-0.1289063 0.1289063,-0.1640625 0,-0.070312 -0.035156,-0.1054688 -0.09375,-0.1054688 -0.1054688,0 -0.9960938,0.6796875 -1.5820313,1.9453125 -0.515625,1.1015625 -0.63281246,2.203125 -0.63281246,3.0351563 0,0.7851562 0.11718746,1.99218746 0.65624996,3.11718746 0.5976563,1.21875004 1.453125,1.87500004 1.5585938,1.87500004 0.058594,0 0.09375,-0.035156 0.09375,-0.1054688 z m 3.5097656,-8.765625 c 0,-0.234375 0,-0.2578125 -0.234375,-0.2578125 -0.609375,0.6328125 -1.4882812,0.6328125 -1.8046875,0.6328125 v 0.3164063 c 0.1992188,0 0.7851563,0 1.3007813,-0.2578125 v 5.15624996 c 0,0.3515625 -0.035156,0.48046875 -0.9257813,0.48046875 H 4.8225716 v 0.3046875 c 0.3515625,-0.03515625 1.2070312,-0.03515625 1.6054687,-0.03515625 0.3984375,0 1.265625,0 1.6171875,0.03515625 v -0.3046875 H 7.7288216 c -0.9023438,0 -0.9257813,-0.1171875 -0.9257813,-0.48046875 z m 0,0"
         style="fill:#000000;fill-opacity:1;fill-rule:nonzero;stroke:none"
         aria-label="(1"
         transform="matrix(1.3333333,0,0,1.3333333,436.05037,25.806933)"
         clip-path="url(#clipPath71)" />
      <path
         id="path72"
         d="m 0.8796575,-0.58469219 c -0.0351563,0.15234375 -0.09375,0.375 -0.09375,0.421875 0,0.1875 0.140625,0.26953125 0.2929687,0.26953125 0.1171875,0 0.2929688,-0.0703125 0.3632813,-0.26953125 0.011719,-0.0234375 0.1289062,-0.4921875 0.1875,-0.73828125 L 1.8523137,-1.8034422 c 0.058594,-0.2226562 0.1171875,-0.4335937 0.1757813,-0.6679687 0.035156,-0.1640625 0.1171875,-0.4570313 0.1289062,-0.4921875 0.140625,-0.3164063 0.6679688,-1.21875 1.6171875,-1.21875 0.4453125,0 0.5390625,0.3632812 0.5390625,0.6914062 0,0.2578125 -0.070312,0.5390625 -0.1523437,0.8320313 l -0.2695313,1.1601562 -0.1992187,0.75000001 c -0.046875,0.19921875 -0.140625,0.5390625 -0.140625,0.5859375 0,0.1875 0.140625,0.26953125 0.2929687,0.26953125 0.3046875,0 0.375,-0.24609375 0.4453125,-0.5625 0.140625,-0.56249996 0.515625,-2.01562496 0.5976563,-2.40234376 0.035156,-0.1289062 0.5625,-1.3242187 1.6523437,-1.3242187 0.421875,0 0.5390625,0.3398437 0.5390625,0.6914062 0,0.5742188 -0.421875,1.7109375 -0.6210937,2.2382813 -0.09375,0.234375 -0.1289063,0.35156246 -0.1289063,0.55078121 0,0.46875 0.3515625,0.80859375 0.8085938,0.80859375 0.9375,0 1.3125,-1.45312496 1.3125,-1.53515626 0,-0.09375 -0.09375,-0.09375 -0.1171875,-0.09375 -0.1054688,0 -0.1054688,0.023437 -0.1523438,0.1757813 -0.1523437,0.52734371 -0.46875,1.24218746 -1.0195312,1.24218746 -0.1640625,0 -0.234375,-0.10546875 -0.234375,-0.328125 0,-0.2578125 0.082031,-0.4921875 0.1757812,-0.71484376 0.1875,-0.515625 0.609375,-1.6171875 0.609375,-2.1914062 0,-0.6445313 -0.3984375,-1.0664063 -1.1484375,-1.0664063 -0.75,0 -1.2539062,0.4453125 -1.6171875,0.9726563 -0.011719,-0.1289063 -0.046875,-0.46875 -0.328125,-0.7148438 -0.2460937,-0.1992187 -0.5625,-0.2578125 -0.8085937,-0.2578125 -0.9023438,0 -1.3828125,0.6445313 -1.5585938,0.8671875 -0.046875,-0.5625 -0.46875,-0.8671875 -0.9140625,-0.8671875 -0.4570312,0 -0.6445312,0.3867188 -0.7382812,0.5742188 -0.17578125,0.3398437 -0.3046875,0.9375 -0.3046875,0.9609375 0,0.1054687 0.09375,0.1054687 0.1171875,0.1054687 0.09375,0 0.10546875,-0.011719 0.1640625,-0.234375 0.17578125,-0.703125 0.375,-1.1835937 0.7265625,-1.1835937 0.1640625,0 0.3164062,0.082031 0.3164062,0.4570312 0,0.2109375 -0.035156,0.3164063 -0.1640625,0.8320313 z M 17.874775,-5.6471922 c 0.257812,-0.4335937 0.492187,-0.796875 1.125,-0.84375 0.08203,-0.011719 0.1875,-0.011719 0.1875,-0.1992187 0,-0.046875 -0.04687,-0.1171875 -0.117188,-0.1171875 -0.246094,0 -0.527344,0.035156 -0.773437,0.035156 -0.339844,0 -0.703125,-0.035156 -1.03125,-0.035156 -0.05859,0 -0.1875,0 -0.1875,0.1992187 0,0.1054688 0.08203,0.1171875 0.140625,0.1171875 0.246093,0.011719 0.597656,0.082031 0.597656,0.3867188 0,0.1054687 -0.05859,0.1875 -0.140625,0.328125 l -2.683594,4.6875 -0.363281,-4.9335938 c -0.01172,-0.1992187 -0.03516,-0.4570312 0.691406,-0.46875 0.164063,0 0.269531,0 0.269531,-0.1992187 0,-0.1054688 -0.105468,-0.1171875 -0.152343,-0.1171875 -0.398438,0 -0.808594,0.035156 -1.207032,0.035156 -0.234375,0 -0.820312,-0.035156 -1.054687,-0.035156 -0.05859,0 -0.1875,0 -0.1875,0.1992187 0,0.1171875 0.105469,0.1171875 0.246094,0.1171875 0.433593,0 0.503906,0.058594 0.527343,0.2460938 l 0.05859,0.7617187 -2.519531,4.3945313 -0.386719,-5.0507813 c 0,-0.1171875 0,-0.3398437 0.761719,-0.3515625 0.09375,0 0.210937,0 0.210937,-0.1992187 0,-0.1171875 -0.117187,-0.1171875 -0.140625,-0.1171875 -0.398437,0 -0.820312,0.035156 -1.230468,0.035156 -0.339844,0 -0.7031253,-0.035156 -1.0429691,-0.035156 -0.046875,0 -0.1757812,0 -0.1757812,0.1992187 0,0.1171875 0.082031,0.1171875 0.2460937,0.1171875 0.5039066,0 0.5039066,0.082031 0.5273436,0.3632813 l 0.445313,6.09374996 c 0.01172,0.17578125 0.02344,0.2578125 0.164062,0.2578125 0.117188,0 0.152344,-0.0585938 0.234375,-0.2109375 l 2.929688,-5.08593746 0.375,5.03906246 c 0.01172,0.19921875 0.03516,0.2578125 0.152343,0.2578125 0.128907,0 0.1875,-0.10546875 0.246094,-0.1875 z m 4.930664,-1.4414062 c 0.04687,-0.1289063 0.04687,-0.1757813 0.04687,-0.1875 0,-0.1054688 -0.08203,-0.1992188 -0.199219,-0.1992188 -0.07031,0 -0.128906,0.035156 -0.164063,0.09375 l -3.457031,9.4921875 c -0.04687,0.1289063 -0.04687,0.1757813 -0.04687,0.1875 0,0.1054688 0.08203,0.1992188 0.199219,0.1992188 0.128906,0 0.152344,-0.070312 0.210937,-0.2460938 z m 0,0"
         style="fill:#000000;fill-opacity:1;fill-rule:nonzero;stroke:none"
         aria-label="mW/"
         transform="matrix(1.3333333,0,0,1.3333333,447.85837,25.806933)"
         clip-path="url(#clipPath73)" />
      <path
         id="path74"
         d="m 2.9295013,-6.3737547 c 0,-0.234375 0,-0.2578125 -0.234375,-0.2578125 -0.609375,0.6328125 -1.4882813,0.6328125 -1.80468755,0.6328125 v 0.3164063 c 0.19921875,0 0.78515625,0 1.30078125,-0.2578125 v 5.15624996 c 0,0.3515625 -0.035156,0.48046875 -0.9257812,0.48046875 H 0.9490325 v 0.3046875 c 0.3515625,-0.03515625 1.2070313,-0.03515625 1.6054688,-0.03515625 0.3984375,0 1.265625,0 1.6171875,0.03515625 v -0.3046875 H 3.8552825 c -0.9023437,0 -0.9257812,-0.1171875 -0.9257812,-0.48046875 z m 6.6328125,3.1875 c 0,-0.796875 -0.046875,-1.59375 -0.3984375,-2.3320312 -0.4570313,-0.9609375 -1.2773438,-1.1132813 -1.6875,-1.1132813 -0.5976563,0 -1.3359375,0.2578125 -1.734375,1.1835938 -0.328125,0.6914062 -0.375,1.4648437 -0.375,2.2617187 0,0.75 0.046875,1.640625 0.4453125,2.40234376 0.4335937,0.80859375 1.1601562,1.0078125 1.6523437,1.0078125 0.5390625,0 1.2890625,-0.2109375 1.734375,-1.16015625 C 9.5154388,-1.6276609 9.5623138,-2.4010984 9.5623138,-3.1862547 Z M 7.4646575,0.00124531 c -0.3867187,0 -0.984375,-0.24609375 -1.1601562,-1.20703121 -0.1054688,-0.5976563 -0.1054688,-1.5117188 -0.1054688,-2.0976563 0,-0.6445312 0,-1.3007812 0.082031,-1.8398437 0.1875,-1.1835938 0.9257812,-1.265625 1.1835937,-1.265625 0.328125,0 0.984375,0.1757812 1.171875,1.1601562 0.09375,0.5625 0.09375,1.3125 0.09375,1.9453125 0,0.75 0,1.4179688 -0.1054687,2.0625 C 8.47247,-0.30344219 7.90997,0.00124531 7.4646575,0.00124531 Z M 14.545712,-3.1862547 c 0,-0.796875 -0.04687,-1.59375 -0.398437,-2.3320312 -0.457032,-0.9609375 -1.277344,-1.1132813 -1.6875,-1.1132813 -0.597657,0 -1.335938,0.2578125 -1.734375,1.1835938 -0.328125,0.6914062 -0.375,1.4648437 -0.375,2.2617187 0,0.75 0.04687,1.640625 0.445312,2.40234376 0.433594,0.80859375 1.160156,1.0078125 1.652344,1.0078125 0.539062,0 1.289062,-0.2109375 1.734375,-1.16015625 0.316406,-0.69140621 0.363281,-1.46484371 0.363281,-2.25000001 z m -2.097656,3.18750001 c -0.386719,0 -0.984375,-0.24609375 -1.160156,-1.20703121 -0.105469,-0.5976563 -0.105469,-1.5117188 -0.105469,-2.0976563 0,-0.6445312 0,-1.3007812 0.08203,-1.8398437 0.1875,-1.1835938 0.925781,-1.265625 1.183594,-1.265625 0.328125,0 0.984375,0.1757812 1.171875,1.1601562 0.09375,0.5625 0.09375,1.3125 0.09375,1.9453125 0,0.75 0,1.4179688 -0.105469,2.0625 -0.152344,0.93750001 -0.714844,1.24218751 -1.160156,1.24218751 z m 7.078125,-3.18750001 c 0,-0.796875 -0.04687,-1.59375 -0.398438,-2.3320312 -0.457031,-0.9609375 -1.277343,-1.1132813 -1.6875,-1.1132813 -0.597656,0 -1.335937,0.2578125 -1.734375,1.1835938 -0.328125,0.6914062 -0.375,1.4648437 -0.375,2.2617187 0,0.75 0.04687,1.640625 0.445313,2.40234376 0.433594,0.80859375 1.160156,1.0078125 1.652344,1.0078125 0.539062,0 1.289062,-0.2109375 1.734375,-1.16015625 0.316406,-0.69140621 0.363281,-1.46484371 0.363281,-2.25000001 z m -2.097656,3.18750001 c -0.386719,0 -0.984375,-0.24609375 -1.160157,-1.20703121 C 16.1629,-1.8034422 16.1629,-2.7175047 16.1629,-3.3034422 c 0,-0.6445312 0,-1.3007812 0.08203,-1.8398437 0.1875,-1.1835938 0.925781,-1.265625 1.183594,-1.265625 0.328125,0 0.984375,0.1757812 1.171875,1.1601562 0.09375,0.5625 0.09375,1.3125 0.09375,1.9453125 0,0.75 0,1.4179688 -0.105469,2.0625 -0.152344,0.93750001 -0.714844,1.24218751 -1.160156,1.24218751 z m 0,0"
         style="fill:#000000;fill-opacity:1;fill-rule:nonzero;stroke:none"
         aria-label="1000"
         transform="matrix(1.3333333,0,0,1.3333333,479.07837,25.806933)"
         clip-path="url(#clipPath75)" />
      <path
         id="path76"
         d="m 3.4918059,-0.56125469 c 0.1054688,0.41015625 0.4570313,0.66796875 0.8789063,0.66796875 0.3515625,0 0.5742187,-0.22265625 0.7382812,-0.5390625 0.1757813,-0.36328125 0.3046875,-0.97265626 0.3046875,-0.99609376 0,-0.09375 -0.09375,-0.09375 -0.1289062,-0.09375 -0.09375,0 -0.1054688,0.035156 -0.140625,0.1757813 -0.1289063,0.56249996 -0.328125,1.24218746 -0.7382813,1.24218746 -0.2109375,0 -0.3164062,-0.12890625 -0.3164062,-0.45703125 0,-0.22265625 0.1289062,-0.69140621 0.1992187,-1.04296871 l 0.28125,-1.078125 c 0.035156,-0.140625 0.1289063,-0.5273438 0.1757813,-0.6679688 0.046875,-0.234375 0.140625,-0.609375 0.140625,-0.6679687 0,-0.1875 -0.140625,-0.2695313 -0.28125,-0.2695313 -0.058594,0 -0.3164063,0 -0.3867188,0.3398438 -0.1992187,0.7265625 -0.6328125,2.4726562 -0.75,2.99999996 -0.011719,0.046875 -0.4101562,0.84375 -1.1367187,0.84375 -0.515625,0 -0.6210938,-0.45703125 -0.6210938,-0.8203125 0,-0.56249996 0.28125,-1.34765626 0.5390625,-2.02734376 0.1171875,-0.3046875 0.1757813,-0.4453125 0.1757813,-0.6328125 0,-0.4453125 -0.328125,-0.8203125 -0.8203125,-0.8203125 -0.94921876,0 -1.31250001,1.453125 -1.31250001,1.5351563 0,0.1054687 0.09375,0.1054687 0.1171875,0.1054687 0.09375,0 0.10546875,-0.023437 0.15234375,-0.1875 0.2578125,-0.8671875 0.63281246,-1.2304687 1.00781246,-1.2304687 0.09375,0 0.2578125,0.011719 0.2578125,0.328125 0,0.234375 -0.1171875,0.5273437 -0.1757812,0.6796875 -0.3632813,0.984375 -0.5742188,1.6054687 -0.5742188,2.0859375 0,0.94921871 0.6796875,1.19531246 1.21875,1.19531246 0.65625,0 1.0195313,-0.4453125 1.1953125,-0.66796875 z M 14.832626,-5.6471922 c 0.257813,-0.4335937 0.492188,-0.796875 1.125,-0.84375 0.08203,-0.011719 0.1875,-0.011719 0.1875,-0.1992187 0,-0.046875 -0.04687,-0.1171875 -0.117187,-0.1171875 -0.246094,0 -0.527344,0.035156 -0.773438,0.035156 -0.339844,0 -0.703125,-0.035156 -1.03125,-0.035156 -0.05859,0 -0.1875,0 -0.1875,0.1992187 0,0.1054688 0.08203,0.1171875 0.140625,0.1171875 0.246094,0.011719 0.597656,0.082031 0.597656,0.3867188 0,0.1054687 -0.05859,0.1875 -0.140625,0.328125 l -2.683593,4.6875 -0.363282,-4.9335938 c -0.01172,-0.1992187 -0.03516,-0.4570312 0.691407,-0.46875 0.164062,0 0.269531,0 0.269531,-0.1992187 0,-0.1054688 -0.105469,-0.1171875 -0.152344,-0.1171875 -0.398437,0 -0.808594,0.035156 -1.207031,0.035156 -0.234375,0 -0.820313,-0.035156 -1.054688,-0.035156 -0.05859,0 -0.1874995,0 -0.1874995,0.1992187 0,0.1171875 0.1054685,0.1171875 0.2460935,0.1171875 0.433594,0 0.503906,0.058594 0.527344,0.2460938 l 0.05859,0.7617187 -2.5195315,4.3945313 -0.3867188,-5.0507813 c 0,-0.1171875 0,-0.3398437 0.7617188,-0.3515625 0.09375,0 0.2109375,0 0.2109375,-0.1992187 0,-0.1171875 -0.1171875,-0.1171875 -0.140625,-0.1171875 -0.3984375,0 -0.8203125,0.035156 -1.2304688,0.035156 -0.3398437,0 -0.703125,-0.035156 -1.0429687,-0.035156 -0.046875,0 -0.1757813,0 -0.1757813,0.1992187 0,0.1171875 0.082031,0.1171875 0.2460938,0.1171875 0.5039062,0 0.5039062,0.082031 0.5273437,0.3632813 l 0.4453125,6.09374996 c 0.011719,0.17578125 0.023437,0.2578125 0.1640625,0.2578125 0.1171875,0 0.1523438,-0.0585938 0.234375,-0.2109375 l 2.9296873,-5.08593746 0.375,5.03906246 c 0.01172,0.19921875 0.03516,0.2578125 0.152344,0.2578125 0.128906,0 0.1875,-0.10546875 0.246094,-0.1875 z m 0,0"
         style="fill:#000000;fill-opacity:1;fill-rule:nonzero;stroke:none"
         aria-label="uW"
         transform="matrix(1.3333333,0,0,1.3333333,505.64504,25.806933)"
         clip-path="url(#clipPath77)" />
      <path
         id="path78"
         d="m 2.8835013,-2.4948484 c 0,-0.7734375 -0.1171875,-1.9804688 -0.65625,-3.1054688 -0.5976563,-1.21875 -1.4648438,-1.875 -1.5585938,-1.875 -0.0585938,0 -0.10546875,0.046875 -0.10546875,0.1054688 0,0.035156 0,0.046875 0.19921875,0.234375 0.9726563,0.984375 1.5351563,2.5664062 1.5351563,4.640625 0,1.71093746 -0.3632813,3.45703121 -1.59375005,4.7226562 -0.140625,0.1171875 -0.140625,0.1289063 -0.140625,0.1640625 0,0.058594 0.046875,0.1054688 0.10546875,0.1054688 0.09375,0 0.9960938,-0.6796875 1.5820313,-1.94531254 C 2.754595,-0.54953594 2.8835013,-1.6510984 2.8835013,-2.4948484 Z M 13.48897,-3.2565672 c 0.152344,0 0.339844,0 0.339844,-0.1992187 0,-0.1992188 -0.1875,-0.1992188 -0.328125,-0.1992188 H 7.535845 c -0.140625,0 -0.328125,0 -0.328125,0.1992188 0,0.1992187 0.1875,0.1992187 0.3398438,0.1992187 z m 0.01172,1.9335938 c 0.140625,0 0.328125,0 0.328125,-0.1992188 0,-0.1992187 -0.1875,-0.1992187 -0.339844,-0.1992187 H 7.5475638 c -0.1523438,0 -0.3398438,0 -0.3398438,0.1992187 0,0.1992188 0.1875,0.1992188 0.328125,0.1992188 z m 4.974609,-1.9453125 v -0.234375 c 0,-2.5195313 1.242188,-2.8828125 1.746094,-2.8828125 0.234375,0 0.65625,0.058594 0.878906,0.3984375 -0.152344,0 -0.550781,0 -0.550781,0.4453125 0,0.3164062 0.234375,0.4570312 0.457031,0.4570312 0.164063,0 0.457031,-0.082031 0.457031,-0.46875 0,-0.5976562 -0.433593,-1.078125 -1.265625,-1.078125 -1.277343,0 -2.613281,1.2890625 -2.613281,3.4804688 0,2.66015621 1.148438,3.37499996 2.074219,3.37499996 1.113281,0 2.050781,-0.9375 2.050781,-2.24999996 0,-1.265625 -0.878906,-2.2265625 -1.992187,-2.2265625 -0.667969,0 -1.042969,0.5039062 -1.242188,0.984375 z m 1.183594,3.21093746 c -0.621094,0 -0.925781,-0.59765625 -0.984375,-0.75 -0.175781,-0.46874996 -0.175781,-1.26562496 -0.175781,-1.44140626 0,-0.7734375 0.316406,-1.7695312 1.21875,-1.7695312 0.152343,0 0.609375,0 0.925781,0.609375 0.175781,0.375 0.175781,0.8789062 0.175781,1.3710937 0,0.4804688 0,0.9726563 -0.164062,1.33593751 -0.304688,0.59765625 -0.761719,0.64453125 -0.996094,0.64453125 z m 7.066406,-3.12890626 c 0,-0.796875 -0.04687,-1.59375 -0.398437,-2.3320312 -0.457032,-0.9609375 -1.277344,-1.1132813 -1.6875,-1.1132813 -0.597657,0 -1.335938,0.2578125 -1.734375,1.1835938 -0.328125,0.6914062 -0.375,1.4648437 -0.375,2.2617187 0,0.75 0.04687,1.640625 0.445312,2.40234376 0.433594,0.80859375 1.160156,1.0078125 1.652344,1.0078125 0.539062,0 1.289062,-0.2109375 1.734375,-1.16015625 0.316406,-0.69140621 0.363281,-1.46484371 0.363281,-2.25000001 z m -2.097656,3.18750001 c -0.386719,0 -0.984375,-0.24609375 -1.160156,-1.20703121 -0.105469,-0.5976563 -0.105469,-1.5117188 -0.105469,-2.0976563 0,-0.6445312 0,-1.3007812 0.08203,-1.8398437 0.1875,-1.1835938 0.925781,-1.265625 1.183594,-1.265625 0.328125,0 0.984375,0.1757812 1.171875,1.1601562 0.09375,0.5625 0.09375,1.3125 0.09375,1.9453125 0,0.75 0,1.4179688 -0.105469,2.0625 -0.152344,0.93750001 -0.714844,1.24218751 -1.160156,1.24218751 z m 0,0"
         style="fill:#000000;fill-opacity:1;fill-rule:nonzero;stroke:none"
         aria-label=")=60"
         transform="matrix(1.3333333,0,0,1.3333333,527.63971,25.806933)"
         clip-path="url(#clipPath79)" />
      <path
         id="path80"
         d="m 0.87871219,-0.58469219 c -0.0351563,0.15234375 -0.09375,0.375 -0.09375,0.421875 0,0.1875 0.140625,0.26953125 0.29296871,0.26953125 0.1171875,0 0.2929688,-0.0703125 0.3632813,-0.26953125 0.011719,-0.0234375 0.1289062,-0.4921875 0.1875,-0.73828125 L 1.8513684,-1.8034422 c 0.058594,-0.2226562 0.1171875,-0.4335937 0.1757813,-0.6679687 0.035156,-0.1640625 0.1171875,-0.4570313 0.1289062,-0.4921875 0.140625,-0.3164063 0.6679688,-1.21875 1.6171875,-1.21875 0.4453125,0 0.5390625,0.3632812 0.5390625,0.6914062 0,0.2578125 -0.070312,0.5390625 -0.1523437,0.8320313 l -0.2695313,1.1601562 -0.1992187,0.75000001 c -0.046875,0.19921875 -0.140625,0.5390625 -0.140625,0.5859375 0,0.1875 0.140625,0.26953125 0.2929687,0.26953125 0.3046875,0 0.375,-0.24609375 0.4453125,-0.5625 0.140625,-0.56249996 0.515625,-2.01562496 0.5976563,-2.40234376 0.035156,-0.1289062 0.5625,-1.3242187 1.6523437,-1.3242187 0.421875,0 0.5390625,0.3398437 0.5390625,0.6914062 0,0.5742188 -0.421875,1.7109375 -0.6210937,2.2382813 -0.09375,0.234375 -0.1289063,0.35156246 -0.1289063,0.55078121 0,0.46875 0.3515625,0.80859375 0.8085938,0.80859375 0.9375,0 1.3125,-1.45312496 1.3125,-1.53515626 0,-0.09375 -0.09375,-0.09375 -0.1171875,-0.09375 -0.1054688,0 -0.1054688,0.023437 -0.1523438,0.1757813 -0.1523437,0.52734371 -0.46875,1.24218746 -1.0195312,1.24218746 -0.1640625,0 -0.234375,-0.10546875 -0.234375,-0.328125 0,-0.2578125 0.082031,-0.4921875 0.1757812,-0.71484376 0.1875,-0.515625 0.609375,-1.6171875 0.609375,-2.1914062 0,-0.6445313 -0.3984375,-1.0664063 -1.1484375,-1.0664063 -0.75,0 -1.2539062,0.4453125 -1.6171875,0.9726563 -0.011719,-0.1289063 -0.046875,-0.46875 -0.328125,-0.7148438 -0.2460937,-0.1992187 -0.5625,-0.2578125 -0.8085937,-0.2578125 -0.9023438,0 -1.3828125,0.6445313 -1.5585938,0.8671875 -0.046875,-0.5625 -0.46875,-0.8671875 -0.9140625,-0.8671875 -0.45703121,0 -0.64453121,0.3867188 -0.73828121,0.5742188 -0.17578125,0.3398437 -0.3046875,0.9375 -0.3046875,0.9609375 0,0.1054687 0.09375,0.1054687 0.1171875,0.1054687 0.09375,0 0.10546875,-0.011719 0.1640625,-0.234375 0.17578125,-0.703125 0.375,-1.1835937 0.72656251,-1.1835937 0.1640625,0 0.3164062,0.082031 0.3164062,0.4570312 0,0.2109375 -0.035156,0.3164063 -0.1640625,0.8320313 z M 17.876759,-5.6471922 c 0.257813,-0.4335937 0.492188,-0.796875 1.125,-0.84375 0.08203,-0.011719 0.1875,-0.011719 0.1875,-0.1992187 0,-0.046875 -0.04687,-0.1171875 -0.117187,-0.1171875 -0.246094,0 -0.527344,0.035156 -0.773438,0.035156 -0.339844,0 -0.703125,-0.035156 -1.03125,-0.035156 -0.05859,0 -0.1875,0 -0.1875,0.1992187 0,0.1054688 0.08203,0.1171875 0.140625,0.1171875 0.246094,0.011719 0.597656,0.082031 0.597656,0.3867188 0,0.1054687 -0.05859,0.1875 -0.140625,0.328125 l -2.683593,4.6875 -0.363282,-4.9335938 c -0.01172,-0.1992187 -0.03516,-0.4570312 0.691407,-0.46875 0.164062,0 0.269531,0 0.269531,-0.1992187 0,-0.1054688 -0.105469,-0.1171875 -0.152344,-0.1171875 -0.398437,0 -0.808594,0.035156 -1.207031,0.035156 -0.234375,0 -0.820313,-0.035156 -1.054688,-0.035156 -0.05859,0 -0.1875,0 -0.1875,0.1992187 0,0.1171875 0.105469,0.1171875 0.246094,0.1171875 0.433594,0 0.503906,0.058594 0.527344,0.2460938 l 0.05859,0.7617187 -2.519532,4.3945313 -0.386718,-5.0507813 c 0,-0.1171875 0,-0.3398437 0.761718,-0.3515625 0.09375,0 0.210938,0 0.210938,-0.1992187 0,-0.1171875 -0.117188,-0.1171875 -0.140625,-0.1171875 -0.398438,0 -0.820313,0.035156 -1.230469,0.035156 -0.339844,0 -0.7031249,-0.035156 -1.0429687,-0.035156 -0.046875,0 -0.1757812,0 -0.1757812,0.1992187 0,0.1171875 0.082031,0.1171875 0.2460937,0.1171875 0.5039062,0 0.5039062,0.082031 0.5273442,0.3632813 l 0.445312,6.09374996 c 0.01172,0.17578125 0.02344,0.2578125 0.164063,0.2578125 0.117187,0 0.152343,-0.0585938 0.234375,-0.2109375 l 2.929687,-5.08593746 0.375,5.03906246 c 0.01172,0.19921875 0.03516,0.2578125 0.152344,0.2578125 0.128906,0 0.1875,-0.10546875 0.246094,-0.1875 z m 0,0"
         style="fill:#000000;fill-opacity:1;fill-rule:nonzero;stroke:none"
         aria-label="mW"
         transform="matrix(1.3333333,0,0,1.3333333,563.80104,25.806933)"
         clip-path="url(#clipPath81)" />
    </g>
  </g>
</svg>
